<?xml version="1.0" encoding="UTF-8"?>
<svg width="27px" height="18px" viewBox="0 0 27 18" version="1.1" xmlns="http://www.w3.org/2000/svg" xmlns:xlink="http://www.w3.org/1999/xlink">
    <!-- Generator: Sketch 54.1 (76490) - https://sketchapp.com -->
    <title>b</title>
    <desc>Created with Sketch.</desc>
    <g id="Viz-4-Final" stroke="none" stroke-width="1" fill="none" fill-rule="evenodd">
        <g id="Menu" transform="translate(-258.000000, -526.000000)" fill="#FFFFFF" fill-rule="nonzero">
            <path d="M268.874974,534.118783 C270.918701,534.695335 271.907788,536.237537 271.907788,538.323469 C271.907788,541.698461 269.071858,543.146868 266.053097,543.146868 L258,543.146868 L258,526.534435 L265.832776,526.534435 C268.67809,526.534435 271.143737,527.340646 271.143737,530.650041 C271.143737,532.328153 270.365586,533.406275 268.874974,534.118783 Z M261.651572,529.370366 L261.651572,533.246882 L265.354688,533.246882 C266.657801,533.246882 267.581245,532.679714 267.581245,531.268799 C267.581245,529.74065 266.395274,529.370366 265.078108,529.370366 L261.651572,529.370366 Z M265.556241,540.32499 C267.042184,540.32499 268.256216,539.800028 268.256216,538.121871 C268.256216,536.420321 267.239022,535.75002 265.631223,535.75002 L261.651572,535.75002 L261.651572,540.32499 L265.556241,540.32499 Z M282.360889,529.042241 L275.624958,529.042241 L275.624958,527.40629 L282.360889,527.40629 L282.360889,529.042241 Z M284.999936,537.306275 C284.999936,537.517212 284.985882,537.728149 284.971829,537.925033 L276.29526,537.925033 C276.29526,539.851572 277.312454,540.985954 279.248378,540.985954 C280.251519,540.985954 281.545247,540.442178 281.859318,539.415645 L284.774945,539.415645 C283.879607,542.16721 282.018711,543.460939 279.145244,543.460939 C275.348378,543.460939 272.99058,540.892204 272.99058,537.146882 C272.99058,533.537516 275.479664,530.781282 279.145244,530.781282 C282.918672,530.781282 284.999936,533.748453 284.999936,537.306275 Z M276.299975,535.843769 L281.676488,535.843769 C281.535863,534.250023 280.701499,533.275035 279.042156,533.275035 C277.457748,533.275035 276.407778,534.264077 276.299975,535.843769 Z" id="b" transform="translate(271.499968, 534.997687) rotate(-360.000000) translate(-271.499968, -534.997687) "></path>
        </g>
    </g>
</svg>