<svg width="1437" height="463" viewBox="0 0 1437 463" fill="none" xmlns="http://www.w3.org/2000/svg">
<path d="M511.145 90.1606V164.602" stroke="#020202" stroke-linecap="round" stroke-linejoin="round"/>
<path d="M713.79 164.952H434.748" stroke="#020202" stroke-linecap="round" stroke-linejoin="round"/>
<path d="M647.105 164.602V216.385" stroke="#020202" stroke-linecap="round" stroke-linejoin="round"/>
<path d="M1258.22 306.11V216.461" stroke="#020202" stroke-linecap="round" stroke-linejoin="round"/>
<path d="M1044.73 216.461H1323.77" stroke="#020202" stroke-linecap="round" stroke-linejoin="round"/>
<path d="M1122.26 216.461V164.678" stroke="#020202" stroke-linecap="round" stroke-linejoin="round"/>
<path d="M1232.71 216.461L1234.81 226.741L1208.92 254.574L1223.81 269.462" stroke="#020202" stroke-linecap="round" stroke-linejoin="round"/>
<path d="M1184.27 177.871L1186.37 185.406L1160.47 205.805L1175.36 216.716" stroke="#020202" stroke-linecap="round" stroke-linejoin="round"/>
<path fill-rule="evenodd" clip-rule="evenodd" d="M925.322 333.363L927.915 338.107C928.271 338.748 928.802 339.28 929.445 339.636L934.189 342.228C936.856 343.684 936.856 347.52 934.189 348.976L929.445 351.572C928.802 351.924 928.271 352.456 927.915 353.097L925.322 357.841C923.866 360.511 920.029 360.511 918.573 357.841L915.976 353.097C915.624 352.456 915.092 351.924 914.45 351.572L909.705 348.976C907.034 347.52 907.034 343.684 909.705 342.228L914.45 339.636C915.092 339.28 915.624 338.748 915.976 338.107L918.573 333.363C920.029 330.697 923.866 330.697 925.322 333.363Z" fill="white"/>
<mask id="mask0" mask-type="alpha" maskUnits="userSpaceOnUse" x="907" y="331" width="30" height="29">
<path d="M918.573 333.363L915.975 338.107C915.623 338.749 915.091 339.28 914.45 339.636L909.705 342.228C907.034 343.685 907.034 347.52 909.705 348.976L914.45 351.573C915.091 351.924 915.623 352.456 915.975 353.098L918.573 357.841C920.029 360.512 923.866 360.512 925.321 357.841L927.914 353.098C928.27 352.456 928.802 351.924 929.445 351.573L934.188 348.976C936.855 347.52 936.855 343.685 934.188 342.228L929.445 339.636C928.802 339.28 928.27 338.749 927.914 338.107L925.321 333.363C924.594 332.03 923.27 331.364 921.947 331.364C920.624 331.364 919.301 332.03 918.573 333.363Z" fill="white"/>
</mask>
<g mask="url(#mask0)">
<path fill-rule="evenodd" clip-rule="evenodd" d="M-500.104 4047.63H2035.23V157.724H-500.104V4047.63Z" fill="white"/>
</g>
<mask id="mask1" mask-type="alpha" maskUnits="userSpaceOnUse" x="907" y="331" width="30" height="29">
<path d="M918.574 333.364L915.975 338.107C915.623 338.749 915.091 339.281 914.449 339.636L909.705 342.228C907.034 343.685 907.034 347.52 909.705 348.976L914.449 351.573C915.091 351.924 915.623 352.457 915.975 353.098L918.574 357.842C920.029 360.512 923.866 360.512 925.321 357.842L927.914 353.098C928.27 352.457 928.802 351.924 929.444 351.573L934.188 348.976C936.855 347.52 936.855 343.685 934.188 342.228L929.444 339.636C928.802 339.281 928.27 338.749 927.914 338.107L925.321 333.364C924.593 332.03 923.27 331.364 921.947 331.364C920.624 331.364 919.301 332.03 918.574 333.364Z" fill="white"/>
</mask>
<g mask="url(#mask1)">
<path fill-rule="evenodd" clip-rule="evenodd" d="M903.107 364.438H940.783V326.77H903.107V364.438Z" fill="white"/>
<path fill-rule="evenodd" clip-rule="evenodd" d="M903.107 364.438H940.783V326.77H903.107V364.438Z" stroke="#020202" stroke-linecap="round" stroke-linejoin="round"/>
</g>
<mask id="mask2" mask-type="alpha" maskUnits="userSpaceOnUse" x="907" y="331" width="30" height="29">
<path d="M918.573 333.363L915.975 338.107C915.623 338.749 915.091 339.28 914.45 339.636L909.705 342.228C907.034 343.685 907.034 347.52 909.705 348.976L914.45 351.573C915.091 351.924 915.623 352.456 915.975 353.098L918.573 357.841C920.029 360.512 923.866 360.512 925.321 357.841L927.914 353.098C928.27 352.456 928.802 351.924 929.445 351.573L934.188 348.976C936.855 347.52 936.855 343.685 934.188 342.228L929.445 339.636C928.802 339.28 928.27 338.749 927.914 338.107L925.321 333.363C924.594 332.03 923.27 331.364 921.947 331.364C920.624 331.364 919.301 332.03 918.573 333.363Z" fill="white"/>
</mask>
<g mask="url(#mask2)">
<path fill-rule="evenodd" clip-rule="evenodd" d="M-500.104 4047.63H2035.23V157.724H-500.104V4047.63Z" stroke="#020202" stroke-linecap="round" stroke-linejoin="round"/>
</g>
<path fill-rule="evenodd" clip-rule="evenodd" d="M925.322 333.363L927.915 338.107C928.271 338.748 928.802 339.28 929.445 339.636L934.189 342.228C936.856 343.684 936.856 347.519 934.189 348.976L929.445 351.572C928.802 351.924 928.271 352.456 927.915 353.097L925.322 357.841C923.866 360.511 920.029 360.511 918.573 357.841L915.976 353.097C915.624 352.456 915.092 351.924 914.45 351.572L909.705 348.976C907.034 347.519 907.034 343.684 909.705 342.228L914.45 339.636C915.092 339.28 915.624 338.748 915.976 338.107L918.573 333.363C920.029 330.696 923.866 330.696 925.322 333.363Z" stroke="#020202" stroke-linecap="round" stroke-linejoin="round"/>
<path fill-rule="evenodd" clip-rule="evenodd" d="M885.937 242.469L888.53 247.213C888.886 247.854 889.418 248.386 890.059 248.741L894.804 251.335C897.471 252.79 897.471 256.626 894.804 258.082L890.059 260.678C889.418 261.03 888.886 261.562 888.53 262.204L885.937 266.947C884.481 269.617 880.644 269.617 879.188 266.947L876.59 262.204C876.239 261.562 875.707 261.03 875.065 260.678L870.321 258.082C867.65 256.626 867.65 252.79 870.321 251.335L875.065 248.741C875.707 248.386 876.239 247.854 876.59 247.213L879.188 242.469C880.644 239.802 884.481 239.802 885.937 242.469Z" fill="white"/>
<mask id="mask3" mask-type="alpha" maskUnits="userSpaceOnUse" x="868" y="240" width="29" height="29">
<path d="M879.188 242.469L876.59 247.213C876.238 247.855 875.707 248.386 875.065 248.742L870.321 251.335C867.65 252.79 867.65 256.626 870.321 258.082L875.065 260.679C875.707 261.03 876.238 261.562 876.59 262.204L879.188 266.948C880.643 269.618 884.481 269.618 885.936 266.948L888.53 262.204C888.887 261.562 889.418 261.03 890.06 260.679L894.804 258.082C897.47 256.626 897.47 252.79 894.804 251.335L890.06 248.742C889.418 248.386 888.887 247.855 888.53 247.213L885.936 242.469C885.208 241.136 883.885 240.469 882.562 240.469C881.239 240.469 879.916 241.136 879.188 242.469Z" fill="white"/>
</mask>
<g mask="url(#mask3)">
<path fill-rule="evenodd" clip-rule="evenodd" d="M-539.488 3956.73H1995.85V66.8293H-539.488V3956.73Z" fill="white"/>
</g>
<mask id="mask4" mask-type="alpha" maskUnits="userSpaceOnUse" x="868" y="240" width="29" height="29">
<path d="M879.189 242.469L876.59 247.213C876.239 247.855 875.707 248.386 875.064 248.743L870.32 251.335C867.649 252.79 867.649 256.626 870.32 258.082L875.064 260.679C875.707 261.03 876.239 261.562 876.59 262.204L879.189 266.947C880.643 269.618 884.481 269.618 885.936 266.947L888.53 262.204C888.886 261.562 889.417 261.03 890.059 260.679L894.804 258.082C897.47 256.626 897.47 252.79 894.804 251.335L890.059 248.743C889.417 248.386 888.886 247.855 888.53 247.213L885.936 242.469C885.208 241.136 883.885 240.469 882.562 240.469C881.238 240.469 879.916 241.136 879.189 242.469Z" fill="white"/>
</mask>
<g mask="url(#mask4)">
<path fill-rule="evenodd" clip-rule="evenodd" d="M863.723 273.544H901.399V235.875H863.723V273.544Z" fill="white"/>
<path fill-rule="evenodd" clip-rule="evenodd" d="M863.723 273.544H901.399V235.875H863.723V273.544Z" stroke="#020202" stroke-linecap="round" stroke-linejoin="round"/>
</g>
<mask id="mask5" mask-type="alpha" maskUnits="userSpaceOnUse" x="868" y="240" width="29" height="29">
<path d="M879.188 242.469L876.59 247.213C876.238 247.855 875.707 248.386 875.065 248.742L870.321 251.335C867.65 252.79 867.65 256.626 870.321 258.082L875.065 260.679C875.707 261.03 876.238 261.562 876.59 262.204L879.188 266.948C880.643 269.618 884.481 269.618 885.936 266.948L888.53 262.204C888.887 261.562 889.418 261.03 890.06 260.679L894.804 258.082C897.47 256.626 897.47 252.79 894.804 251.335L890.06 248.742C889.418 248.386 888.887 247.855 888.53 247.213L885.936 242.469C885.208 241.136 883.885 240.469 882.562 240.469C881.239 240.469 879.916 241.136 879.188 242.469Z" fill="white"/>
</mask>
<g mask="url(#mask5)">
<path fill-rule="evenodd" clip-rule="evenodd" d="M-539.488 3956.73H1995.85V66.8293H-539.488V3956.73Z" stroke="#020202" stroke-linecap="round" stroke-linejoin="round"/>
</g>
<path fill-rule="evenodd" clip-rule="evenodd" d="M885.937 242.469L888.53 247.213C888.886 247.854 889.418 248.386 890.059 248.741L894.804 251.335C897.471 252.79 897.471 256.626 894.804 258.082L890.059 260.678C889.418 261.03 888.886 261.562 888.53 262.204L885.937 266.947C884.481 269.617 880.644 269.617 879.188 266.947L876.59 262.204C876.239 261.562 875.707 261.03 875.065 260.678L870.321 258.082C867.65 256.626 867.65 252.79 870.321 251.335L875.065 248.741C875.707 248.386 876.239 247.854 876.59 247.213L879.188 242.469C880.644 239.802 884.481 239.802 885.937 242.469Z" stroke="#020202" stroke-linecap="round" stroke-linejoin="round"/>
<path d="M77.5444 320.165V409.814" stroke="#020202"/>
<path d="M280.19 409.813H1.14771" stroke="#020202" stroke-linecap="round" stroke-linejoin="round"/>
<path d="M213.505 409.813V461.596" stroke="#020202" stroke-linecap="round" stroke-linejoin="round"/>
<path fill-rule="evenodd" clip-rule="evenodd" d="M474.562 389.736L477.155 394.48C477.511 395.122 478.042 395.654 478.685 396.009L483.429 398.602C486.096 400.058 486.096 403.894 483.429 405.35L478.685 407.946C478.042 408.297 477.511 408.829 477.155 409.472L474.562 414.215C473.106 416.885 469.269 416.885 467.813 414.215L465.215 409.472C464.864 408.829 464.332 408.297 463.69 407.946L458.945 405.35C456.274 403.894 456.274 400.058 458.945 398.602L463.69 396.009C464.332 395.654 464.864 395.122 465.215 394.48L467.813 389.736C469.269 387.07 473.106 387.07 474.562 389.736Z" fill="white"/>
<mask id="mask6" mask-type="alpha" maskUnits="userSpaceOnUse" x="456" y="387" width="30" height="30">
<path d="M467.814 389.737L465.215 394.48C464.864 395.122 464.332 395.654 463.69 396.01L458.945 398.603C456.274 400.058 456.274 403.893 458.945 405.35L463.69 407.946C464.332 408.298 464.864 408.83 465.215 409.471L467.814 414.215C469.269 416.885 473.106 416.885 474.562 414.215L477.155 409.471C477.511 408.83 478.042 408.298 478.684 407.946L483.429 405.35C486.096 403.893 486.096 400.058 483.429 398.603L478.684 396.01C478.042 395.654 477.511 395.122 477.155 394.48L474.562 389.737C473.834 388.403 472.511 387.737 471.187 387.737C469.865 387.737 468.541 388.403 467.814 389.737Z" fill="white"/>
</mask>
<g mask="url(#mask6)">
<path fill-rule="evenodd" clip-rule="evenodd" d="M-950.863 4104H1584.47V214.097H-950.863V4104Z" fill="white"/>
</g>
<mask id="mask7" mask-type="alpha" maskUnits="userSpaceOnUse" x="456" y="387" width="30" height="30">
<path d="M467.813 389.737L465.215 394.48C464.864 395.122 464.332 395.655 463.69 396.01L458.945 398.604C456.274 400.058 456.274 403.893 458.945 405.35L463.69 407.946C464.332 408.298 464.864 408.829 465.215 409.472L467.813 414.215C469.269 416.886 473.106 416.886 474.562 414.215L477.155 409.472C477.511 408.829 478.042 408.298 478.684 407.946L483.429 405.35C486.096 403.893 486.096 400.058 483.429 398.604L478.684 396.01C478.042 395.655 477.511 395.122 477.155 394.48L474.562 389.737C473.833 388.404 472.51 387.737 471.187 387.737C469.864 387.737 468.542 388.404 467.813 389.737Z" fill="white"/>
</mask>
<g mask="url(#mask7)">
<path fill-rule="evenodd" clip-rule="evenodd" d="M452.348 420.811H490.024V383.143H452.348V420.811Z" fill="white"/>
<path fill-rule="evenodd" clip-rule="evenodd" d="M452.348 420.811H490.024V383.143H452.348V420.811Z" stroke="#020202" stroke-linecap="round" stroke-linejoin="round"/>
</g>
<mask id="mask8" mask-type="alpha" maskUnits="userSpaceOnUse" x="456" y="387" width="30" height="30">
<path d="M467.814 389.737L465.215 394.48C464.864 395.122 464.332 395.654 463.69 396.01L458.945 398.603C456.274 400.058 456.274 403.893 458.945 405.35L463.69 407.946C464.332 408.298 464.864 408.83 465.215 409.471L467.814 414.215C469.269 416.885 473.106 416.885 474.562 414.215L477.155 409.471C477.511 408.83 478.042 408.298 478.684 407.946L483.429 405.35C486.096 403.893 486.096 400.058 483.429 398.603L478.684 396.01C478.042 395.654 477.511 395.122 477.155 394.48L474.562 389.737C473.834 388.403 472.511 387.737 471.187 387.737C469.865 387.737 468.541 388.403 467.814 389.737Z" fill="white"/>
</mask>
<g mask="url(#mask8)">
<path fill-rule="evenodd" clip-rule="evenodd" d="M-950.863 4104H1584.47V214.097H-950.863V4104Z" stroke="#020202" stroke-linecap="round" stroke-linejoin="round"/>
</g>
<path fill-rule="evenodd" clip-rule="evenodd" d="M474.562 389.737L477.155 394.481C477.511 395.122 478.042 395.654 478.685 396.009L483.429 398.602C486.096 400.058 486.096 403.894 483.429 405.35L478.685 407.946C478.042 408.298 477.511 408.83 477.155 409.472L474.562 414.215C473.106 416.885 469.269 416.885 467.813 414.215L465.215 409.472C464.864 408.83 464.332 408.298 463.69 407.946L458.945 405.35C456.274 403.894 456.274 400.058 458.945 398.602L463.69 396.009C464.332 395.654 464.864 395.122 465.215 394.481L467.813 389.737C469.269 387.07 473.106 387.07 474.562 389.737Z" stroke="#020202" stroke-linecap="round" stroke-linejoin="round"/>
<path fill-rule="evenodd" clip-rule="evenodd" d="M447.334 289.881L449.927 294.625C450.283 295.267 450.815 295.798 451.457 296.154L456.201 298.746C458.868 300.202 458.868 304.038 456.201 305.494L451.457 308.091C450.815 308.442 450.283 308.974 449.927 309.616L447.334 314.359C445.878 317.03 442.042 317.03 440.585 314.359L437.988 309.616C437.636 308.974 437.105 308.442 436.463 308.091L431.718 305.494C429.047 304.038 429.047 300.202 431.718 298.746L436.463 296.154C437.105 295.798 437.636 295.267 437.988 294.625L440.585 289.881C442.042 287.215 445.878 287.215 447.334 289.881Z" fill="white"/>
<mask id="mask9" mask-type="alpha" maskUnits="userSpaceOnUse" x="429" y="287" width="30" height="30">
<path d="M440.585 289.882L437.989 294.624C437.636 295.267 437.105 295.799 436.462 296.155L431.718 298.747C429.046 300.202 429.046 304.039 431.718 305.494L436.462 308.091C437.105 308.442 437.636 308.975 437.989 309.616L440.585 314.36C442.041 317.03 445.878 317.03 447.334 314.36L449.927 309.616C450.283 308.975 450.815 308.442 451.456 308.091L456.202 305.494C458.868 304.039 458.868 300.202 456.202 298.747L451.456 296.155C450.815 295.799 450.283 295.267 449.927 294.624L447.334 289.882C446.607 288.548 445.283 287.882 443.96 287.882C442.636 287.882 441.313 288.548 440.585 289.882Z" fill="white"/>
</mask>
<g mask="url(#mask9)">
<path fill-rule="evenodd" clip-rule="evenodd" d="M-978.091 4004.14H1557.25V114.242H-978.091V4004.14Z" fill="white"/>
</g>
<mask id="mask10" mask-type="alpha" maskUnits="userSpaceOnUse" x="429" y="287" width="30" height="30">
<path d="M440.585 289.882L437.989 294.624C437.636 295.268 437.105 295.798 436.462 296.155L431.718 298.748C429.046 300.202 429.046 304.039 431.718 305.494L436.462 308.091C437.105 308.443 437.636 308.974 437.989 309.616L440.585 314.36C442.041 317.03 445.878 317.03 447.334 314.36L449.927 309.616C450.283 308.974 450.814 308.443 451.456 308.091L456.201 305.494C458.868 304.039 458.868 300.202 456.201 298.748L451.456 296.155C450.814 295.798 450.283 295.268 449.927 294.624L447.334 289.882C446.607 288.548 445.283 287.882 443.96 287.882C442.637 287.882 441.313 288.548 440.585 289.882Z" fill="white"/>
</mask>
<g mask="url(#mask10)">
<path fill-rule="evenodd" clip-rule="evenodd" d="M425.12 320.955H462.797V283.288H425.12V320.955Z" fill="white"/>
<path fill-rule="evenodd" clip-rule="evenodd" d="M425.12 320.955H462.797V283.288H425.12V320.955Z" stroke="#020202" stroke-linecap="round" stroke-linejoin="round"/>
</g>
<mask id="mask11" mask-type="alpha" maskUnits="userSpaceOnUse" x="429" y="287" width="30" height="30">
<path d="M440.585 289.882L437.989 294.624C437.636 295.267 437.105 295.799 436.462 296.155L431.718 298.747C429.046 300.202 429.046 304.039 431.718 305.494L436.462 308.091C437.105 308.442 437.636 308.975 437.989 309.616L440.585 314.36C442.041 317.03 445.878 317.03 447.334 314.36L449.927 309.616C450.283 308.975 450.815 308.442 451.456 308.091L456.202 305.494C458.868 304.039 458.868 300.202 456.202 298.747L451.456 296.155C450.815 295.799 450.283 295.267 449.927 294.624L447.334 289.882C446.607 288.548 445.283 287.882 443.96 287.882C442.636 287.882 441.313 288.548 440.585 289.882Z" fill="white"/>
</mask>
<g mask="url(#mask11)">
<path fill-rule="evenodd" clip-rule="evenodd" d="M-978.091 4004.14H1557.25V114.242H-978.091V4004.14Z" stroke="#020202" stroke-linecap="round" stroke-linejoin="round"/>
</g>
<path fill-rule="evenodd" clip-rule="evenodd" d="M447.334 289.881L449.927 294.625C450.283 295.267 450.815 295.798 451.457 296.154L456.201 298.746C458.868 300.202 458.868 304.038 456.201 305.494L451.457 308.091C450.815 308.442 450.283 308.974 449.927 309.616L447.334 314.359C445.878 317.03 442.042 317.03 440.585 314.359L437.988 309.616C437.636 308.974 437.105 308.442 436.463 308.091L431.718 305.494C429.047 304.038 429.047 300.202 431.718 298.746L436.463 296.154C437.105 295.798 437.636 295.267 437.988 294.625L440.585 289.881C442.042 287.215 445.878 287.215 447.334 289.881Z" stroke="#020202" stroke-linecap="round" stroke-linejoin="round"/>
<path d="M1098.34 216.543C1098.78 218.869 1099.22 221.195 1099.66 223.522C1094.17 232.097 1088.68 240.672 1083.19 249.248" stroke="#020202" stroke-linecap="round" stroke-linejoin="round"/>
<path d="M1282.26 215.843C1288.55 207.286 1294.83 198.728 1301.11 190.171" stroke="#020202" stroke-linecap="round" stroke-linejoin="round"/>
<path d="M621.156 164.251C626.284 155.485 631.266 146.633 636.394 137.867L655.183 119.083" stroke="#020202" stroke-linecap="round" stroke-linejoin="round"/>
<path d="M631.258 145.257C630.024 143.615 628.745 142.007 627.511 140.365L606.824 119.683" stroke="#020202" stroke-linecap="round" stroke-linejoin="round"/>
<path d="M269.389 409.761C272.387 417.341 275.386 424.92 278.385 432.5" stroke="#020202" stroke-linecap="round" stroke-linejoin="round"/>
<path d="M274.994 423.08C277.899 423.65 280.805 424.22 283.711 424.79" stroke="#020202" stroke-linecap="round" stroke-linejoin="round"/>
<path d="M1131.32 347.402V404.669" stroke="#020202" stroke-linecap="round" stroke-linejoin="round"/>
<path d="M1324.93 405.018H1045.89" stroke="#020202" stroke-linecap="round" stroke-linejoin="round"/>
<path d="M1268.14 405.625V458.734" stroke="#020202" stroke-linecap="round" stroke-linejoin="round"/>
<mask id="mask12" mask-type="alpha" maskUnits="userSpaceOnUse" x="496" y="341" width="29" height="29">
<path d="M506.967 343.071L504.37 347.814C504.018 348.456 503.486 348.987 502.844 349.344L498.1 351.936C495.428 353.392 495.428 357.227 498.1 358.684L502.844 361.28C503.486 361.632 504.018 362.164 504.37 362.805L506.967 367.549C508.423 370.219 512.26 370.219 513.716 367.549L516.309 362.805C516.664 362.164 517.197 361.632 517.839 361.28L522.583 358.684C525.25 357.227 525.25 353.392 522.583 351.936L517.839 349.344C517.197 348.987 516.664 348.456 516.309 347.814L513.716 343.071C512.988 341.738 511.665 341.071 510.341 341.071C509.018 341.071 507.695 341.738 506.967 343.071Z" fill="white"/>
</mask>
<g mask="url(#mask12)">
<path fill-rule="evenodd" clip-rule="evenodd" d="M-911.709 4057.33H1623.63V167.431H-911.709V4057.33Z" fill="white"/>
</g>
<mask id="mask13" mask-type="alpha" maskUnits="userSpaceOnUse" x="496" y="341" width="29" height="29">
<path d="M506.966 343.071L504.37 347.814C504.017 348.457 503.486 348.988 502.845 349.344L498.1 351.936C495.428 353.393 495.428 357.227 498.1 358.684L502.845 361.28C503.486 361.633 504.017 362.164 504.37 362.806L506.966 367.549C508.423 370.22 512.26 370.22 513.716 367.549L516.308 362.806C516.664 362.164 517.197 361.633 517.838 361.28L522.583 358.684C525.25 357.227 525.25 353.393 522.583 351.936L517.838 349.344C517.197 348.988 516.664 348.457 516.308 347.814L513.716 343.071C512.988 341.738 511.665 341.071 510.341 341.071C509.018 341.071 507.695 341.738 506.966 343.071Z" fill="white"/>
</mask>
<g mask="url(#mask13)">
<path fill-rule="evenodd" clip-rule="evenodd" d="M491.502 374.145H529.178V336.477H491.502V374.145Z" fill="white"/>
<path fill-rule="evenodd" clip-rule="evenodd" d="M491.502 374.145H529.178V336.477H491.502V374.145Z" stroke="#020202" stroke-linecap="round" stroke-linejoin="round"/>
</g>
<mask id="mask14" mask-type="alpha" maskUnits="userSpaceOnUse" x="496" y="341" width="29" height="29">
<path d="M506.967 343.071L504.37 347.814C504.018 348.456 503.486 348.987 502.844 349.344L498.1 351.936C495.428 353.392 495.428 357.227 498.1 358.684L502.844 361.28C503.486 361.632 504.018 362.164 504.37 362.805L506.967 367.549C508.423 370.219 512.26 370.219 513.716 367.549L516.309 362.805C516.664 362.164 517.197 361.632 517.839 361.28L522.583 358.684C525.25 357.227 525.25 353.392 522.583 351.936L517.839 349.344C517.197 348.987 516.664 348.456 516.309 347.814L513.716 343.071C512.988 341.738 511.665 341.071 510.341 341.071C509.018 341.071 507.695 341.738 506.967 343.071Z" fill="white"/>
</mask>
<g mask="url(#mask14)">
<path fill-rule="evenodd" clip-rule="evenodd" d="M-911.709 4057.33H1623.63V167.431H-911.709V4057.33Z" stroke="#020202" stroke-linecap="round" stroke-linejoin="round"/>
</g>
<path fill-rule="evenodd" clip-rule="evenodd" d="M513.716 343.071L516.309 347.815C516.665 348.456 517.196 348.988 517.839 349.344L522.583 351.936C525.25 353.392 525.25 357.228 522.583 358.684L517.839 361.28C517.196 361.632 516.665 362.164 516.309 362.805L513.716 367.549C512.26 370.219 508.423 370.219 506.967 367.549L504.369 362.805C504.018 362.164 503.486 361.632 502.844 361.28L498.1 358.684C495.428 357.228 495.428 353.392 498.1 351.936L502.844 349.344C503.486 348.988 504.018 348.456 504.369 347.815L506.967 343.071C508.423 340.405 512.26 340.405 513.716 343.071Z" stroke="#020202" stroke-linecap="round" stroke-linejoin="round"/>
<path fill-rule="evenodd" clip-rule="evenodd" d="M962.171 270.949L964.765 275.693C965.121 276.335 965.653 276.867 966.294 277.222L971.039 279.815C973.705 281.271 973.705 285.107 971.039 286.563L966.294 289.159C965.653 289.51 965.121 290.042 964.765 290.684L962.171 295.428C960.715 298.098 956.879 298.098 955.422 295.428L952.825 290.684C952.473 290.042 951.942 289.51 951.3 289.159L946.555 286.563C943.885 285.107 943.885 281.271 946.555 279.815L951.3 277.222C951.942 276.867 952.473 276.335 952.825 275.693L955.422 270.949C956.879 268.283 960.715 268.283 962.171 270.949Z" fill="white"/>
<mask id="mask15" mask-type="alpha" maskUnits="userSpaceOnUse" x="944" y="268" width="30" height="30">
<path d="M955.423 270.949L952.825 275.693C952.474 276.335 951.942 276.867 951.3 277.223L946.555 279.816C943.885 281.271 943.885 285.107 946.555 286.562L951.3 289.159C951.942 289.511 952.474 290.042 952.825 290.685L955.423 295.428C956.878 298.098 960.714 298.098 962.171 295.428L964.765 290.685C965.121 290.042 965.652 289.511 966.294 289.159L971.038 286.562C973.706 285.107 973.706 281.271 971.038 279.816L966.294 277.223C965.652 276.867 965.121 276.335 964.765 275.693L962.171 270.949C961.443 269.616 960.12 268.95 958.797 268.95C957.474 268.95 956.151 269.616 955.423 270.949Z" fill="white"/>
</mask>
<g mask="url(#mask15)">
<path fill-rule="evenodd" clip-rule="evenodd" d="M-463.253 3985.21H2072.08V95.3098H-463.253V3985.21Z" fill="white"/>
</g>
<mask id="mask16" mask-type="alpha" maskUnits="userSpaceOnUse" x="944" y="268" width="30" height="30">
<path d="M955.423 270.949L952.826 275.693C952.474 276.335 951.942 276.867 951.3 277.223L946.555 279.815C943.885 281.271 943.885 285.108 946.555 286.562L951.3 289.159C951.942 289.51 952.474 290.043 952.826 290.684L955.423 295.428C956.879 298.098 960.714 298.098 962.171 295.428L964.765 290.684C965.12 290.043 965.652 289.51 966.293 289.159L971.038 286.562C973.705 285.108 973.705 281.271 971.038 279.815L966.293 277.223C965.652 276.867 965.12 276.335 964.765 275.693L962.171 270.949C961.443 269.616 960.119 268.95 958.797 268.95C957.474 268.95 956.151 269.616 955.423 270.949Z" fill="white"/>
</mask>
<g mask="url(#mask16)">
<path fill-rule="evenodd" clip-rule="evenodd" d="M939.958 302.024H977.634V264.356H939.958V302.024Z" fill="white"/>
<path fill-rule="evenodd" clip-rule="evenodd" d="M939.958 302.024H977.634V264.356H939.958V302.024Z" stroke="#020202" stroke-linecap="round" stroke-linejoin="round"/>
</g>
<mask id="mask17" mask-type="alpha" maskUnits="userSpaceOnUse" x="944" y="268" width="30" height="30">
<path d="M955.423 270.949L952.825 275.693C952.474 276.335 951.942 276.867 951.3 277.223L946.555 279.816C943.885 281.271 943.885 285.107 946.555 286.562L951.3 289.159C951.942 289.511 952.474 290.042 952.825 290.685L955.423 295.428C956.878 298.098 960.714 298.098 962.171 295.428L964.765 290.685C965.121 290.042 965.652 289.511 966.294 289.159L971.038 286.562C973.706 285.107 973.706 281.271 971.038 279.816L966.294 277.223C965.652 276.867 965.121 276.335 964.765 275.693L962.171 270.949C961.443 269.616 960.12 268.95 958.797 268.95C957.474 268.95 956.151 269.616 955.423 270.949Z" fill="white"/>
</mask>
<g mask="url(#mask17)">
<path fill-rule="evenodd" clip-rule="evenodd" d="M-463.253 3985.21H2072.08V95.3098H-463.253V3985.21Z" stroke="#020202" stroke-linecap="round" stroke-linejoin="round"/>
</g>
<path fill-rule="evenodd" clip-rule="evenodd" d="M962.172 270.949L964.765 275.693C965.121 276.335 965.653 276.867 966.294 277.222L971.039 279.815C973.705 281.271 973.705 285.107 971.039 286.563L966.294 289.159C965.653 289.51 965.121 290.042 964.765 290.684L962.172 295.428C960.715 298.098 956.879 298.098 955.423 295.428L952.825 290.684C952.474 290.042 951.942 289.51 951.3 289.159L946.555 286.563C943.885 285.107 943.885 281.271 946.555 279.815L951.3 277.222C951.942 276.867 952.474 276.335 952.825 275.693L955.423 270.949C956.879 268.283 960.715 268.283 962.172 270.949Z" stroke="#020202" stroke-linecap="round" stroke-linejoin="round"/>
<path fill-rule="evenodd" clip-rule="evenodd" d="M320.514 296.81C320.514 299.306 288.363 297.547 287.748 299.849C287.111 302.231 315.813 316.77 314.606 318.855C313.382 320.971 286.433 303.364 284.716 305.08C282.998 306.798 300.609 333.741 298.493 334.964C296.407 336.172 281.865 307.475 279.483 308.112C277.181 308.727 278.94 340.871 276.444 340.871C273.947 340.871 275.706 308.727 273.404 308.112C271.022 307.475 256.479 336.171 254.394 334.964C252.277 333.74 269.889 306.797 268.171 305.08C266.454 303.364 239.505 320.97 238.28 318.855C237.074 316.769 265.776 302.231 265.139 299.849C264.524 297.547 232.373 299.306 232.373 296.81C232.373 294.314 264.524 296.073 265.139 293.771C265.776 291.389 237.074 276.85 238.28 274.765C239.505 272.649 266.454 290.256 268.171 288.54C269.889 286.822 252.278 259.879 254.394 258.656C256.48 257.449 271.022 286.145 273.404 285.508C275.706 284.893 273.947 252.749 276.444 252.749C278.94 252.749 277.181 284.893 279.483 285.508C281.865 286.145 296.408 257.449 298.493 258.656C300.609 259.88 282.999 286.823 284.716 288.54C286.433 290.256 313.382 272.65 314.607 274.765C315.813 276.851 287.111 291.389 287.748 293.771C288.363 296.073 320.514 294.314 320.514 296.81Z" fill="white"/>
<path fill-rule="evenodd" clip-rule="evenodd" d="M320.514 296.81C320.514 299.306 288.363 297.547 287.748 299.849C287.111 302.231 315.813 316.77 314.606 318.855C313.382 320.971 286.433 303.364 284.716 305.08C282.998 306.798 300.609 333.741 298.493 334.964C296.407 336.172 281.865 307.475 279.483 308.112C277.181 308.727 278.94 340.871 276.444 340.871C273.947 340.871 275.706 308.727 273.404 308.112C271.022 307.475 256.479 336.171 254.394 334.964C252.277 333.74 269.889 306.797 268.171 305.08C266.454 303.364 239.505 320.97 238.28 318.855C237.074 316.769 265.776 302.231 265.139 299.849C264.524 297.547 232.373 299.306 232.373 296.81C232.373 294.314 264.524 296.073 265.139 293.771C265.776 291.389 237.074 276.85 238.28 274.765C239.505 272.649 266.454 290.256 268.171 288.54C269.889 286.822 252.278 259.879 254.394 258.656C256.48 257.449 271.022 286.145 273.404 285.508C275.706 284.893 273.947 252.749 276.444 252.749C278.94 252.749 277.181 284.893 279.483 285.508C281.865 286.145 296.408 257.449 298.493 258.656C300.609 259.88 282.999 286.823 284.716 288.54C286.433 290.256 313.382 272.65 314.607 274.765C315.813 276.851 287.111 291.389 287.748 293.771C288.363 296.073 320.514 294.314 320.514 296.81Z" stroke="#020202" stroke-linecap="round" stroke-linejoin="round"/>
<path fill-rule="evenodd" clip-rule="evenodd" d="M1019.18 145.257C1019.18 148.98 971.222 146.356 970.304 149.79C969.355 153.343 1012.17 175.029 1010.37 178.14C1008.54 181.294 968.343 155.032 965.782 157.593C963.22 160.154 989.488 200.342 986.333 202.167C983.221 203.968 961.53 161.164 957.977 162.114C954.543 163.032 957.167 210.977 953.443 210.977C949.719 210.977 952.344 163.032 948.909 162.114C945.356 161.164 923.665 203.967 920.553 202.167C917.397 200.342 943.665 160.153 941.104 157.593C938.543 155.032 898.346 181.294 896.519 178.138C894.72 175.028 937.532 153.343 936.582 149.79C935.664 146.356 887.708 148.98 887.708 145.257C887.708 141.534 935.664 144.158 936.582 140.724C937.532 137.171 894.72 115.485 896.52 112.374C898.346 109.219 938.543 135.481 941.104 132.92C943.666 130.359 917.398 90.1713 920.554 88.346C923.665 86.5458 945.356 129.349 948.909 128.399C952.344 127.482 949.719 79.5364 953.443 79.5364C957.167 79.5364 954.543 127.482 957.977 128.399C961.531 129.349 983.222 86.5465 986.333 88.346C989.489 90.1713 963.221 130.36 965.782 132.921C968.343 135.481 1008.54 109.22 1010.37 112.375C1012.17 115.485 969.355 137.171 970.304 140.724C971.222 144.158 1019.18 141.534 1019.18 145.257Z" fill="white"/>
<path fill-rule="evenodd" clip-rule="evenodd" d="M1019.18 145.257C1019.18 148.98 971.222 146.356 970.304 149.79C969.355 153.343 1012.17 175.029 1010.37 178.14C1008.54 181.294 968.343 155.032 965.782 157.593C963.22 160.154 989.488 200.342 986.333 202.167C983.221 203.968 961.53 161.164 957.977 162.114C954.543 163.032 957.167 210.977 953.443 210.977C949.719 210.977 952.344 163.032 948.909 162.114C945.356 161.164 923.665 203.967 920.553 202.167C917.397 200.342 943.665 160.153 941.104 157.593C938.543 155.032 898.346 181.294 896.519 178.138C894.72 175.028 937.532 153.343 936.582 149.79C935.664 146.356 887.708 148.98 887.708 145.257C887.708 141.534 935.664 144.158 936.582 140.724C937.532 137.171 894.72 115.485 896.52 112.374C898.346 109.219 938.543 135.481 941.104 132.92C943.666 130.359 917.398 90.1713 920.554 88.346C923.665 86.5458 945.356 129.349 948.909 128.399C952.344 127.482 949.719 79.5364 953.443 79.5364C957.167 79.5364 954.543 127.482 957.977 128.399C961.531 129.349 983.222 86.5465 986.333 88.346C989.489 90.1713 963.221 130.36 965.782 132.921C968.343 135.481 1008.54 109.22 1010.37 112.375C1012.17 115.485 969.355 137.171 970.304 140.724C971.222 144.158 1019.18 141.534 1019.18 145.257Z" stroke="#020202" stroke-linecap="round" stroke-linejoin="round"/>
<path d="M209.306 240.562V198.195" stroke="#020202" stroke-linecap="round" stroke-linejoin="round"/>
<path d="M255.805 197.356V163.468" stroke="#020202" stroke-linecap="round" stroke-linejoin="round"/>
<path d="M6.66064 197.845H285.703" stroke="#020202" stroke-linecap="round" stroke-linejoin="round"/>
<path d="M73.3459 198.195V146.412" stroke="#020202" stroke-linecap="round" stroke-linejoin="round"/>
<path d="M99.2958 198.545C94.1675 207.312 89.1855 216.163 84.0572 224.93L65.2688 243.715" stroke="#020202" stroke-linecap="round" stroke-linejoin="round"/>
<path d="M89.1938 217.54C90.4272 219.182 91.7072 220.79 92.9412 222.432L113.627 243.113" stroke="#020202" stroke-linecap="round" stroke-linejoin="round"/>
<path d="M1436.03 458.734H1156.99" stroke="#020202" stroke-linecap="round" stroke-linejoin="round"/>
<path d="M485.879 1V90.6492" stroke="#020202" stroke-linecap="round" stroke-linejoin="round"/>
<path d="M677.678 90.123H398.636" stroke="#020202" stroke-linecap="round" stroke-linejoin="round"/>
</svg>
