<?xml version="1.0" encoding="UTF-8"?>
<svg width="22px" height="22px" viewBox="0 0 22 22" version="1.1" xmlns="http://www.w3.org/2000/svg" xmlns:xlink="http://www.w3.org/1999/xlink">
    <!-- Generator: Sketch 54.1 (76490) - https://sketchapp.com -->
    <title>i</title>
    <desc>Created with Sketch.</desc>
    <g id="Viz-4-Final" stroke="none" stroke-width="1" fill="none" fill-rule="evenodd">
        <g id="Menu" transform="translate(-85.000000, -624.000000)" fill="#FFFFFF" fill-rule="nonzero">
            <path d="M95.9349425,629.663836 C98.9162128,629.663836 101.320885,632.068509 101.320885,635.049779 C101.320885,638.031004 98.9162128,640.435676 95.9349425,640.435676 C92.9537179,640.435676 90.5490453,638.031004 90.5490453,635.049779 C90.5490453,632.068509 92.9537179,629.663836 95.9349425,629.663836 Z M95.9349425,638.551297 C97.8615278,638.551297 99.4365058,636.980988 99.4365058,635.049779 C99.4365058,633.118525 97.866197,631.548216 95.9349425,631.548216 C94.0037337,631.548216 92.4334249,633.118525 92.4334249,635.049779 C92.4334249,636.980988 94.0084029,638.551297 95.9349425,638.551297 Z M102.797444,629.443515 C102.797444,630.141969 102.234946,630.699753 101.541207,630.699753 C100.842752,630.699753 100.284969,630.137254 100.284969,629.443515 C100.284969,628.749776 100.847467,628.187277 101.541207,628.187277 C102.234946,628.187277 102.797444,628.749776 102.797444,629.443515 Z M106.364605,630.718521 C106.46307,632.452892 106.46307,637.64662 106.364605,639.380991 C106.280239,641.063818 105.895856,642.55443 104.667771,643.782562 C103.43964,645.015362 101.949027,645.399745 100.2662,645.479442 C98.5318296,645.577861 93.3333862,645.577861 91.5990153,645.479442 C89.9162343,645.39503 88.4302912,645.010693 87.1974908,643.782562 C85.9646904,642.55443 85.5803071,641.063818 85.5006107,639.380991 C85.4021917,637.64662 85.4021917,632.448223 85.5006107,630.713852 C85.5849763,629.031025 85.9646904,627.540413 87.1974908,626.312282 C88.4302912,625.08415 89.9209035,624.699767 91.5990153,624.620116 C93.3333862,624.521652 98.5318296,624.521652 100.2662,624.620116 C101.949027,624.704482 103.43964,625.088865 104.667771,626.316951 C105.900571,627.545082 106.284954,629.035694 106.364605,630.718521 Z M104.123995,641.241934 C104.67244,639.863794 104.545869,636.577882 104.545869,635.049779 C104.545869,633.52163 104.67244,630.240388 104.123995,628.857579 C103.75371,627.934134 103.045872,627.226342 102.127143,626.860727 C100.749003,626.316951 97.4630913,626.438853 95.9349425,626.438853 C94.4068394,626.438853 91.1255973,626.312282 89.7427881,626.860727 C88.8193436,627.231011 88.1115511,627.938849 87.7459361,628.857579 C87.20216,630.235719 87.3240621,633.52163 87.3240621,635.049779 C87.3240621,636.577882 87.1974908,639.859124 87.7459361,641.241934 C88.1162203,642.165378 88.8240586,642.873171 89.7427881,643.238785 C91.1209281,643.782562 94.4068394,643.660659 95.9349425,643.660659 C97.4630913,643.660659 100.744333,643.787231 102.127143,643.238785 C103.050587,642.868501 103.75838,642.160663 104.123995,641.241934 Z" id="i" transform="translate(95.932625, 635.049762) rotate(-360.000000) translate(-95.932625, -635.049762) "></path>
        </g>
    </g>
</svg>