<svg id="Layer_1" data-name="Layer 1" xmlns="http://www.w3.org/2000/svg" xmlns:xlink="http://www.w3.org/1999/xlink" viewBox="0 0 551.68 630.48"><defs><style>.cls-1,.cls-16,.cls-4,.cls-5{stroke:#282828;}.cls-1,.cls-10,.cls-16,.cls-17,.cls-3,.cls-4,.cls-5,.cls-8,.cls-9{stroke-miterlimit:10;}.cls-1,.cls-6{fill:url(#linear-gradient);}.cls-2{fill:#894111;}.cls-15,.cls-2{opacity:0.2;}.cls-16,.cls-17,.cls-3{fill:none;}.cls-3{stroke:#020202;}.cls-4{fill:#ce7e15;}.cls-5{fill:#f5a21e;}.cls-7{clip-path:url(#clip-path);}.cls-11,.cls-8{fill:#fff;}.cls-10,.cls-8{stroke:#110d0d;}.cls-9{fill:#d7e7ff;stroke:#050505;}.cls-10{fill:#f05057;}.cls-12,.cls-13,.cls-14,.cls-15{fill:#c2f4ff;}.cls-12{opacity:0.8;}.cls-13{opacity:0.6;}.cls-14{opacity:0.4;}.cls-17{stroke:#fff;}</style><linearGradient id="linear-gradient" x1="233.89" y1="634.51" x2="378.43" y2="155.81" gradientUnits="userSpaceOnUse"><stop offset="0.11" stop-color="#6cafff"/><stop offset="0.46" stop-color="#6ccbff"/><stop offset="0.72" stop-color="#6cdcff"/></linearGradient><clipPath id="clip-path" transform="translate(0.34 -76.47)"><polygon class="cls-1" points="138.52 648.78 104.55 120.16 480.25 120.16 514.23 648.78 138.52 648.78"/></clipPath></defs><polygon id="shadow" class="cls-2" points="81.47 630.37 0 548.52 40.99 23.34 81.47 630.37"/><path class="cls-3" d="M98.09,278.27H356.27" transform="translate(0.34 -76.47)"/><path class="cls-3" d="M340.34,311.58q52.59,1.05,105.21-.58" transform="translate(0.34 -76.47)"/><path class="cls-3" d="M191,475.12q62.87,1.1,125.72-.57" transform="translate(0.34 -76.47)"/><path class="cls-3" d="M147.45,124.88H435.81" transform="translate(0.34 -76.47)"/><path class="cls-3" d="M364.58,98.35H494.47" transform="translate(0.34 -76.47)"/><polygon class="cls-4" points="81.83 629.98 40.99 23.34 58.65 0.51 492.67 23.34 551.17 607.15 533.51 629.98 81.83 629.98"/><polygon class="cls-5" points="98.89 607.15 58.05 0.51 509.72 0.51 550.57 607.15 98.89 607.15"/><polygon class="cls-6" points="138.87 572.32 104.89 43.69 480.6 43.69 514.57 572.32 138.87 572.32"/><g class="cls-7"><path class="cls-8" d="M431.77,649.46a108.7,108.7,0,0,0,29.39-76.88c-1.22-59.61-49.6-107-108.06-105.77S248.23,517.29,249.45,576.9a108.68,108.68,0,0,0,32.49,75.62Z" transform="translate(0.34 -76.47)"/><path class="cls-9" d="M271.68,604.05c23.26-15.12,23.84-22.9,87.3-27.54,28.74-2.1,70,13.73,97.5,26.8,0,0-4.05,24.32-24.82,46l-112.81,2.68-34.81-36Z" transform="translate(0.34 -76.47)"/><path d="M391.11,521.91c-18.07-11.49-43.22-10.51-60.34,2.35s-24.43,37.9-18.41,58.46l17.69-3.92,24.39-2.38,20.58.28,25,4.23c3.27-6,5.46-15.28,5-22.09s-2.26-13.45-4-20c.4,3.52-1.84,6.78-4.24,9.38-3.23,3.52-7.58,6.75-12.33,6.19a15,15,0,0,1-4.87-1.68,17.87,17.87,0,0,1-7.23-5.88c-3.36-5.22-1.67-12.58,2.63-17s10.59-6.5,16.75-7.26" transform="translate(0.34 -76.47)"/><path d="M391.49,521.27c-14.85-9.37-34.22-10.59-50.34-3.8a49.11,49.11,0,0,0-19.89,15.19,58,58,0,0,0-9.63,50.26.77.77,0,0,0,.92.52c5.86-1.29,11.7-2.64,17.56-3.88.27-.06-.27,0,.17,0l1.16-.11L336,579l12.22-1.2c2.08-.2,4.19-.53,6.28-.61,2.83-.1,5.7.08,8.52.12l10.92.15h1c.05,0-.22,0,.16,0l3.17.54,21,3.56.52.09a.8.8,0,0,0,.85-.35,44.92,44.92,0,0,0,5.11-19.26c.3-7.91-2.07-15.88-4.09-23.45-.22-.79-1.55-.66-1.48.2.42,5-4,9.56-7.77,12.27a12.33,12.33,0,0,1-6.67,2.61c-2.61.07-5-1.13-7.26-2.39-4.13-2.34-7.25-5.85-7.25-10.81a15.33,15.33,0,0,1,5.48-11.41c4.13-3.56,9.62-5.15,14.93-5.82.95-.12,1-1.62,0-1.5-5.35.68-10.74,2.18-15.08,5.52a17.06,17.06,0,0,0-6.81,12.5c-.27,5.28,2.6,9.48,6.95,12.21a19.19,19.19,0,0,0,7.66,3.14,12.08,12.08,0,0,0,7.46-1.87,25.38,25.38,0,0,0,6.75-6.11c1.9-2.39,3.37-5.2,3.11-8.34l-1.47.2c2,7.33,4.26,15,4.06,22.68a43.09,43.09,0,0,1-4.93,18.87l.85-.34L381,577c-2-.34-4-.85-6-1-2.89-.22-5.85-.08-8.75-.12a138.92,138.92,0,0,0-15.41.2c-6.86.67-13.74,1.18-20.58,2-2.25.27-4.5,1-6.7,1.44l-10.68,2.36-.69.15.92.53a56.41,56.41,0,0,1,7.49-46.36c9.51-14.11,26-21.69,42.84-21.5a52.43,52.43,0,0,1,27.32,7.9c.82.52,1.57-.78.76-1.29Z" transform="translate(0.34 -76.47)"/><path class="cls-10" d="M340,651.33c0-.82,0-1.64,0-2.47A51.5,51.5,0,1,0,237,651c0,.83.06,1.65.11,2.47Z" transform="translate(0.34 -76.47)"/><path class="cls-11" d="M300.44,609.85c.14,0,.63.07.33,0s.29,0,.4.07l.85.16a26.82,26.82,0,0,1,4.92,1.57,35.21,35.21,0,0,1,13.64,10.77,50,50,0,0,1,7.19,13.12c.68,1.78,3.58,1,2.89-.8-4.7-12.38-13.85-24.23-27.32-27.43a17.93,17.93,0,0,0-2.9-.49c-1.93-.13-1.92,2.87,0,3Z" transform="translate(0.34 -76.47)"/><path class="cls-8" d="M173.29,459.11c-30.36.62-60,13.58-80.86,32.47l3.36,165,177-3.83a121.13,121.13,0,0,0-99.55-193.59Z" transform="translate(0.34 -76.47)"/><path d="M235.48,498.79c-23.1-14.7-55.27-13.45-77.16,3s-31.23,48.47-23.54,74.75l16.8-4.85,5.82-.16,13.57-3.3,18.17-.37,27.26-.56,31.92,5.41c4.18-7.66,5.5-18,4.87-26.7s-2.89-17.2-5.14-25.63c.5,4.5-2.36,8.67-5.43,12-4.14,4.49-9.69,8.63-15.76,7.91a19.38,19.38,0,0,1-6.23-2.15c-3.58-1.82-7.08-4.13-9.25-7.51-4.29-6.68-2.13-16.09,3.37-21.81s13.54-8.32,21.41-9.28" transform="translate(0.34 -76.47)"/><path d="M235.86,498.14c-18.93-12-43.64-13.49-64.19-4.84a62.63,62.63,0,0,0-25.46,19.51,74,74,0,0,0-12.15,63.93.76.76,0,0,0,.92.52l11.91-3.43c1.59-.46,3.2-1.05,4.82-1.4.19,0-.19,0-.09,0a2,2,0,0,1,.35,0c.56,0,1.11,0,1.66,0,1.19,0,2.38,0,3.56-.09a27.06,27.06,0,0,0,4.15-.94l7.62-1.86c.69-.17,1.38-.36,2.07-.51.32-.06-.21,0,0,0h.61l6.42-.13,22.08-.45,14.52-.29,1.52,0c.38,0-.24-.06.23,0,1.27.2,2.54.43,3.81.64l27.18,4.61.69.11a.77.77,0,0,0,.85-.34c8.88-16.55,4.37-35.85-.2-52.91-.21-.79-1.55-.66-1.47.2.3,3.38-1.19,6.42-3.18,9.06a32.81,32.81,0,0,1-6.84,6.78,16,16,0,0,1-8.46,3.39c-3.45.16-6.67-1.41-9.59-3.07a20.58,20.58,0,0,1-7-6,14.16,14.16,0,0,1-2.39-8A19.82,19.82,0,0,1,217,507.72c5.31-4.54,12.35-6.57,19.16-7.43,1-.12,1-1.62,0-1.5-6.72.85-13.53,2.73-19,6.89a21.74,21.74,0,0,0-8.76,15.64,16.18,16.18,0,0,0,1.71,8.6,19.16,19.16,0,0,0,7,7.08c2.93,1.85,6.3,3.64,9.78,4a15.23,15.23,0,0,0,9.33-2.3,32.36,32.36,0,0,0,8.6-7.73c2.42-3,4.36-6.63,4-10.63l-1.48.2c4.46,16.64,9,35.59.35,51.75l.85-.34-24.92-4.23a61.52,61.52,0,0,0-7.37-1.21c-3.92-.15-7.92.17-11.84.25l-22.37.45-7.93.16a22.83,22.83,0,0,0-3.41.12c-1.92.33-3.83.93-5.73,1.39L158,570.61c-.24.06-.48.13-.73.18h.1a2.29,2.29,0,0,1-.37,0c-1.25,0-2.5.07-3.74.1a13,13,0,0,0-3.57.56l-14,4-1.18.34.93.52c-5.74-19.82-2-42.23,9.51-59.32a61,61,0,0,1,23.3-20.53A69.17,69.17,0,0,1,200,489.31a67,67,0,0,1,35.06,10.13c.82.51,1.58-.78.76-1.3Z" transform="translate(0.34 -76.47)"/><path class="cls-9" d="M295.69,593c-57.57-37.45-141.82-32.19-201.2-.27l1.3,63.85,176.92-3.6s4.27-6,7.26-10.9,9.61-18.8,9.9-21c.13-1,1.85-4.71,3.16-9.83a129.79,129.79,0,0,0,3.19-17.81" transform="translate(0.34 -76.47)"/><path class="cls-11" d="M284,597.68a15,15,0,0,1,0,1.9,32.71,32.71,0,0,1-.58,5.16A77.24,77.24,0,0,1,276,625.67,140.4,140.4,0,0,1,265.43,643c-1.12,1.58,1.48,3.08,2.59,1.52,6.25-8.89,11.79-18.42,15.47-28.68a55.38,55.38,0,0,0,3.49-15.7,15.67,15.67,0,0,0,0-2.47c-.21-1.9-3.21-1.92-3,0Z" transform="translate(0.34 -76.47)"/><path class="cls-11" d="M443.52,608.57c0,.44,0-.14,0,0-.06.37-.12.74-.19,1.1a40.37,40.37,0,0,1-1.11,4.19A71,71,0,0,1,435,629.15a112.9,112.9,0,0,1-8.54,12c-1.21,1.49.9,3.63,2.12,2.12a103.42,103.42,0,0,0,13.22-20.4,55,55,0,0,0,4.33-12,19.53,19.53,0,0,0,.38-2.29c.18-1.92-2.82-1.91-3,0Z" transform="translate(0.34 -76.47)"/><path class="cls-12" d="M504.64,401.09c-1.18-33.18.88-66.63-2.79-99.65a19.4,19.4,0,0,1-3.89-3.37c-11.15-12.49,2.27-24.48-8.88-37s-24.58-.5-35.73-13,2.27-24.49-8.89-37-24.58-.51-35.73-13,2.27-24.49-8.89-37-24.57-.51-35.73-13c-9.19-10.3-1.7-20.26-5-30.44H245c.37.35.73.73,1.09,1.14,11.16,12.49-2.26,24.48,8.89,37s24.58.5,35.73,13-2.26,24.48,8.89,37,24.58.5,35.73,13-2.27,24.49,8.89,37,24.57.51,35.73,13-2.27,24.49,8.88,37,24.58.51,35.74,13-2.27,24.49,8.88,37,24.58.51,35.73,13-2.26,24.49,8.89,37c8.39,9.4,18.06,5,27.09,7.48Q504.87,407.15,504.64,401.09Z" transform="translate(0.34 -76.47)"/><path class="cls-13" d="M516,522.28Q515,513.13,514,504c-11.76-13.37,1.52-25.32-10.43-38.7s-25.41-1.44-37.4-14.86,1.43-25.42-10.55-38.84-25.42-1.44-37.41-14.86,1.44-25.41-10.54-38.84-25.42-1.43-37.4-14.85,1.44-25.41-10.55-38.84-25.41-1.43-37.4-14.86,1.44-25.41-10.55-38.83-25.41-1.44-37.4-14.86,1.44-25.42-10.55-38.84-25.41-1.43-37.4-14.86,1.44-25.41-10.55-38.84-25.41-1.43-37.4-14.85a20,20,0,0,1-5.13-10.54H143.69c6.61,11.82-3.13,22.73,7.65,34.79,12,13.43,25.41,1.44,37.4,14.86s-1.44,25.42,10.55,38.84,25.42,1.44,37.4,14.86-1.43,25.42,10.55,38.84,25.41,1.43,37.4,14.85-1.44,25.42,10.55,38.84,25.41,1.44,37.4,14.86-1.44,25.41,10.55,38.84,25.41,1.43,37.4,14.86S379.1,407.55,391.09,421s25.41,1.44,37.4,14.86-1.44,25.41,10.55,38.84,25.41,1.43,37.4,14.86S475,514.94,487,528.36c9.9,11.1,20.79,4.84,31,9.91C517.32,533,516.62,527.62,516,522.28Z" transform="translate(0.34 -76.47)"/><path class="cls-14" d="M511.19,591.64c-10.68-6.44-22.1.87-32.51-10.78-12.06-13.5,1.37-25.49-10.69-39s-25.49-1.51-37.54-15,1.36-25.5-10.7-39-25.48-1.51-37.54-15,1.37-25.5-10.68-39-25.48-1.51-37.54-15,1.37-25.49-10.69-39-25.48-1.51-37.54-15,1.37-25.49-10.69-39-25.48-1.51-37.54-15,1.37-25.49-10.69-39-25.48-1.51-37.54-15,1.37-25.49-10.69-39-25.48-1.52-37.53-15,1.37-25.49-10.69-39c-7.71-8.64-16-6.84-24.11-8q.51,6.92,1,13.85a20.09,20.09,0,0,1,9.62,6.25c12.06,13.51-1.36,25.49,10.7,39s25.48,1.51,37.54,15-1.37,25.49,10.69,39,25.48,1.51,37.54,15S212,309.47,224,323s25.48,1.51,37.53,15-1.36,25.49,10.69,39,25.49,1.52,37.54,15-1.36,25.49,10.69,39S346,432.49,358,446s-1.37,25.5,10.69,39,25.48,1.51,37.54,15-1.37,25.49,10.69,39,25.48,1.51,37.54,15-1.37,25.49,10.68,39,25.49,1.51,37.54,15-1.37,25.49,10.69,39c.43.48.86.92,1.29,1.34C514.19,629.4,511.25,610.59,511.19,591.64Z" transform="translate(0.34 -76.47)"/><path class="cls-15" d="M470.67,655.56c-19.16-47.91-43.17-39.5-51.81-49.85-10-12,1.14-22.65-8.87-34.64s-21.16-1.35-31.17-13.34S380,535.09,370,523.1s-21.15-1.35-31.16-13.34,1.14-22.64-8.87-34.63-21.15-1.35-31.16-13.34,1.14-22.64-8.87-34.63-21.15-1.34-31.16-13.34,1.13-22.64-8.87-34.63-21.16-1.34-31.16-13.33,1.13-22.65-8.88-34.64-21.15-1.34-31.16-13.33,1.14-22.64-8.87-34.64-21.15-1.34-31.16-13.33,1.14-22.64-8.87-34.63c-6.4-7.68-13.27-6.08-20-7.08q.42,6.15.79,12.31a16.6,16.6,0,0,1,8,5.55c10,12-1.14,22.64,8.87,34.63s21.16,1.35,31.16,13.34-1.13,22.65,8.88,34.64S188.59,330,198.6,342s-1.14,22.64,8.87,34.63S228.62,378,238.63,390s-1.14,22.64,8.87,34.64S268.65,426,278.66,438s-1.13,22.64,8.87,34.63,21.16,1.35,31.16,13.34-1.13,22.64,8.88,34.63,21.15,1.35,31.15,13.34-1.13,22.64,8.88,34.63,21.15,1.35,31.16,13.34-1.14,22.64,8.87,34.63,21.15,1.34,31.16,13.33-1.14,22.64,8.86,34.63c.36.43.72.82,1.08,1.19C448.34,648.82,470.72,672.39,470.67,655.56Z" transform="translate(0.34 -76.47)"/></g><polygon class="cls-16" points="138.87 572.32 104.89 43.69 480.6 43.69 514.57 572.32 138.87 572.32"/><polyline class="cls-17" points="305.16 9.87 503.37 9.26 514.78 193.66"/></svg>