<svg width="1440" height="127" xmlns="http://www.w3.org/2000/svg"><g fill="none" fill-rule="evenodd"><path d="M1438.82 82.804v26.986l-11.988 12.35c-9.301-16.653-13.119-27.796-11.452-33.43 1.666-5.633 9.48-7.602 23.44-5.906z" fill="#961F12"/><path d="M1426.38 122.69l12.069-12.731" stroke="#1D1E1B" fill="#961F12" stroke-linecap="round"/><path fill="#961F12" d="M1444.382 82.07l.618 14.352-77-2.28V82.07z"/><path fill="#961F12" d="M1392.352 109.725l-14.352.521 2.28-65h12.072z"/><path d="M1425.549 95.254l12.9-13.55M1379.52 94.691l12.507-12.62" stroke="#1D1E1B" fill="#961F12" stroke-linecap="round"/><path d="M1392.027 82.07l.325-49.57M1392.43 81.527h49.07" stroke="#1D1E1B" fill="#961F12" stroke-linecap="round" stroke-linejoin="round"/><path d="M307.988 84.62v28.17L296 125.14c-9.302-16.653-13.119-27.796-11.452-33.43 1.666-5.633 9.48-7.997 23.44-7.09z" fill="#961F12"/><path d="M295.549 125.69l12.068-12.731" stroke="#1D1E1B" fill="#961F12" stroke-linecap="round"/><path fill="#961F12" d="M301.478 84.534L302 98.886l-65-2.28V84.534z"/><path fill="#961F12" d="M249.068 59.292h12.068v40.606h-12.068z"/><path d="M295.549 97.718l12.178-12.45M248.52 97.155l12.507-12.62" stroke="#1D1E1B" fill="#961F12" stroke-linecap="round"/><path d="M261.027 84.534l47.041.17" stroke="#1D1E1B" fill="#961F12" stroke-linecap="round" stroke-linejoin="round"/><path d="M307.988 84.705v28.363" stroke="#1D1E1B" fill="#961F12" stroke-linecap="round"/><path d="M608.988 84.62v28.17L597 125.14c-9.302-16.653-13.119-27.796-11.452-33.43 1.666-5.633 9.48-7.997 23.44-7.09z" fill="#961F12"/><path d="M596.549 125.69l12.068-12.731M596.549 97.718l12.178-12.45M608.988 84.705v28.363" stroke="#1D1E1B" fill="#961F12" stroke-linecap="round"/><path d="M1134.82 85.804v26.986l-11.988 12.35c-9.301-16.653-13.119-27.796-11.452-33.43 1.666-5.633 9.48-7.602 23.44-5.906z" fill="#961F12"/><path d="M1122.38 125.69l12.069-12.731M1134.82 84.705v28.363" stroke="#1D1E1B" fill="#961F12" stroke-linecap="round"/><path fill="#961F12" d="M220.294 51.07L221 65.422l-88-2.28V51.07z"/><path fill="#961F12" d="M157.352 101.54l-14.352.706 2.28-88h12.072z"/><path d="M175.549 64.254l12.178-12.45M144.52 63.691l12.507-12.62" stroke="#1D1E1B" fill="#961F12" stroke-linecap="round"/><path d="M157.027 51.07H221M157.027 51.07l.325-49.57" stroke="#1D1E1B" fill="#961F12" stroke-linecap="round" stroke-linejoin="round"/><path fill="#961F12" d="M672.294 51.07L673 65.422l-88-2.28V51.07z"/><path fill="#961F12" d="M609.352 78.725L595 79.246l2.28-65h12.072z"/><path d="M627.549 64.254l12.178-12.45M596.52 63.691l12.507-12.62" stroke="#1D1E1B" fill="#961F12" stroke-linecap="round"/><path d="M609.027 51.07H673M609.027 51.07l.325-49.57" stroke="#1D1E1B" fill="#961F12" stroke-linecap="round" stroke-linejoin="round"/><path fill="#961F12" d="M927.668 85.07L929 99.422l-166-2.28V85.07z"/><path fill="#961F12" d="M787.352 112.725l-14.352.521 2.28-65h12.072z"/><path d="M820.549 98.254l12.178-12.45M895.549 98.254l12.178-12.45M774.52 97.691l12.507-12.62" stroke="#1D1E1B" fill="#961F12" stroke-linecap="round"/><path d="M787.027 85.07H929M787.027 85.07l.325-49.57" stroke="#1D1E1B" fill="#961F12" stroke-linecap="round" stroke-linejoin="round"/><path fill="#961F12" d="M1133.438 85.07l.562 14.352-70-2.28V85.07z"/><path fill="#961F12" d="M1088.352 112.725l-14.352.521 2.28-65h12.072z"/><path d="M1121.549 98.254l12.9-13.55M1075.52 97.691l12.507-12.62" stroke="#1D1E1B" fill="#961F12" stroke-linecap="round"/><path d="M1088.027 85.07l.325-49.57M1088.43 84.527h46.019" stroke="#1D1E1B" fill="#961F12" stroke-linecap="round" stroke-linejoin="round"/><path fill="#961F12" d="M1257.438 85.07l.562 14.352-56.55-4.215 9.98-10.68z"/><path d="M1199.5 96.422l11.527-11.352" stroke="#1D1E1B" fill="#961F12" stroke-linecap="round"/><path d="M1211.43 84.527h46.019" stroke="#1D1E1B" fill="#961F12" stroke-linecap="round" stroke-linejoin="round"/><path d="M261.027 56.17v28.364" stroke="#1D1E1B" fill="#961F12" stroke-linecap="round"/><g fill="#E63E2C" stroke="#1D1E1B" stroke-width="1.2"><path d="M22.951 32.188h-27.95V1h28.142a2.17 2.17 0 012.167 2.173v26.654a2.36 2.36 0 01-2.359 2.36z"/><path d="M97.873 32.188H28.037a2.73 2.73 0 01-2.728-2.734V3.734A2.73 2.73 0 0128.037 1h69.836a2.73 2.73 0 012.726 2.733v25.721a2.73 2.73 0 01-2.726 2.733z"/><path d="M67.565 32.188a2.73 2.73 0 012.728 2.733v25.72a2.73 2.73 0 01-2.728 2.734H-5V32.187h72.565z"/><path d="M142.855 63.374H73.018a2.728 2.728 0 01-2.725-2.733V34.92a2.73 2.73 0 012.725-2.733h69.837a2.73 2.73 0 012.728 2.733v25.72a2.73 2.73 0 01-2.728 2.734zM293.437 63.374H223.6a2.73 2.73 0 01-2.726-2.733V34.92a2.73 2.73 0 012.726-2.733h69.837a2.73 2.73 0 012.728 2.733v25.72a2.73 2.73 0 01-2.728 2.734z"/><path d="M368.728 63.374H298.89a2.73 2.73 0 01-2.728-2.733V34.92a2.73 2.73 0 012.728-2.733h69.837a2.73 2.73 0 012.728 2.733v25.72a2.73 2.73 0 01-2.728 2.734zM444.442 63.374h-69.836a2.73 2.73 0 01-2.728-2.733V34.92a2.73 2.73 0 012.728-2.733h69.836a2.73 2.73 0 012.726 2.733v25.72a2.73 2.73 0 01-2.726 2.734z"/><path d="M519.734 63.374h-69.837a2.73 2.73 0 01-2.728-2.733V34.92a2.73 2.73 0 012.728-2.733h69.837a2.73 2.73 0 012.725 2.733v25.72a2.73 2.73 0 01-2.725 2.734z"/><path d="M595.024 63.374h-69.837a2.732 2.732 0 01-2.728-2.733V34.92a2.732 2.732 0 012.728-2.733h69.837a2.73 2.73 0 012.728 2.733v25.72a2.73 2.73 0 01-2.728 2.734zM745.607 63.374H675.77a2.73 2.73 0 01-2.728-2.733V34.92a2.73 2.73 0 012.728-2.733h69.837a2.73 2.73 0 012.725 2.733v25.72a2.73 2.73 0 01-2.725 2.734z"/><path d="M820.897 63.374H751.06a2.73 2.73 0 01-2.728-2.733V34.92a2.73 2.73 0 012.728-2.733h69.837a2.73 2.73 0 012.728 2.733v25.72a2.73 2.73 0 01-2.728 2.734zM173.164 32.188h-69.837a2.732 2.732 0 01-2.728-2.734V3.734A2.732 2.732 0 01103.327 1h69.837a2.73 2.73 0 012.728 2.733v25.721a2.73 2.73 0 01-2.728 2.733z"/><path d="M248.455 32.188h-69.837a2.73 2.73 0 01-2.728-2.734V3.734A2.73 2.73 0 01178.618 1h69.837a2.73 2.73 0 012.728 2.733v25.721a2.73 2.73 0 01-2.728 2.733z"/><path d="M323.746 32.188H253.91a2.73 2.73 0 01-2.728-2.734V3.734A2.73 2.73 0 01253.91 1h69.837a2.73 2.73 0 012.728 2.733v25.721a2.73 2.73 0 01-2.729 2.733z"/><path d="M399.037 32.188H329.2a2.728 2.728 0 01-2.726-2.734V3.734A2.728 2.728 0 01329.2 1h69.837a2.73 2.73 0 012.728 2.733v25.721a2.73 2.73 0 01-2.728 2.733z"/><path d="M474.328 32.188h-69.837a2.73 2.73 0 01-2.728-2.734V3.734A2.73 2.73 0 01404.491 1h69.837a2.73 2.73 0 012.728 2.733v25.721a2.73 2.73 0 01-2.728 2.733z"/><path d="M549.618 32.188h-69.834a2.73 2.73 0 01-2.728-2.734V3.734A2.73 2.73 0 01479.784 1h69.837a2.73 2.73 0 012.725 2.733v25.721a2.73 2.73 0 01-2.728 2.733z"/><path d="M624.911 32.188h-69.837a2.73 2.73 0 01-2.728-2.734V3.734A2.73 2.73 0 01555.074 1h69.837a2.728 2.728 0 012.726 2.733v25.721a2.73 2.73 0 01-2.726 2.733z"/><path d="M700.201 32.188h-69.836a2.73 2.73 0 01-2.729-2.734V3.734A2.73 2.73 0 01630.365 1H700.2a2.73 2.73 0 012.728 2.733v25.721a2.73 2.73 0 01-2.728 2.733z"/><path d="M775.491 32.188h-69.834a2.73 2.73 0 01-2.728-2.734V3.734A2.73 2.73 0 01705.657 1h69.834a2.73 2.73 0 012.729 2.733v25.721a2.73 2.73 0 01-2.729 2.733zM896.187 63.374h-69.836a2.73 2.73 0 01-2.726-2.733V34.92a2.73 2.73 0 012.728-2.733h69.834a2.73 2.73 0 012.728 2.733v25.72a2.73 2.73 0 01-2.728 2.734z"/><path d="M971.48 63.374h-69.837a2.73 2.73 0 01-2.728-2.733V34.92a2.73 2.73 0 012.728-2.733h69.837a2.73 2.73 0 012.726 2.733v25.72a2.73 2.73 0 01-2.726 2.734zM850.784 32.188h-69.837a2.73 2.73 0 01-2.728-2.734V3.734A2.73 2.73 0 01780.947 1h69.837a2.73 2.73 0 012.728 2.733v25.721a2.73 2.73 0 01-2.728 2.733z"/><path d="M926.074 32.188h-69.836a2.73 2.73 0 01-2.726-2.734V3.734A2.728 2.728 0 01856.238 1h69.836a2.73 2.73 0 012.728 2.733v25.721a2.73 2.73 0 01-2.728 2.733zM22.951 94.688h-27.95V63.5h28.142a2.17 2.17 0 012.167 2.173v26.654a2.36 2.36 0 01-2.359 2.36z"/><path d="M97.873 94.688H28.037a2.73 2.73 0 01-2.728-2.734v-25.72a2.73 2.73 0 012.728-2.734h69.836a2.73 2.73 0 012.726 2.733v25.721a2.73 2.73 0 01-2.726 2.734z"/><path d="M67.565 94.688a2.73 2.73 0 012.728 2.733v25.72a2.73 2.73 0 01-2.728 2.734H-5V94.687h72.565z"/><path d="M142.855 125.874H73.018a2.728 2.728 0 01-2.725-2.733V97.42a2.73 2.73 0 012.725-2.733h69.837a2.73 2.73 0 012.728 2.733v25.72a2.73 2.73 0 01-2.728 2.734z"/><path d="M218.146 125.874H148.31a2.73 2.73 0 01-2.728-2.733V97.42a2.73 2.73 0 012.728-2.733h69.836a2.73 2.73 0 012.729 2.733v25.72a2.732 2.732 0 01-2.729 2.734z"/><path d="M293.437 125.874H223.6a2.73 2.73 0 01-2.726-2.733V97.42a2.73 2.73 0 012.726-2.733h69.837a2.73 2.73 0 012.728 2.733v25.72a2.73 2.73 0 01-2.728 2.734zM519.734 125.874h-69.837a2.73 2.73 0 01-2.728-2.733V97.42a2.73 2.73 0 012.728-2.733h69.837a2.73 2.73 0 012.725 2.733v25.72a2.73 2.73 0 01-2.725 2.734z"/><path d="M595.024 125.874h-69.837a2.732 2.732 0 01-2.728-2.733V97.42a2.732 2.732 0 012.728-2.733h69.837a2.73 2.73 0 012.728 2.733v25.72a2.73 2.73 0 01-2.728 2.734zM820.897 125.874H751.06a2.73 2.73 0 01-2.728-2.733V97.42a2.73 2.73 0 012.728-2.733h69.837a2.73 2.73 0 012.728 2.733v25.72a2.73 2.73 0 01-2.728 2.734zM173.164 94.688h-69.837a2.732 2.732 0 01-2.728-2.734v-25.72a2.732 2.732 0 012.728-2.734h69.837a2.73 2.73 0 012.728 2.733v25.721a2.73 2.73 0 01-2.728 2.734z"/><path d="M248.455 94.688h-69.837a2.73 2.73 0 01-2.728-2.734v-25.72a2.73 2.73 0 012.728-2.734h69.837a2.73 2.73 0 012.728 2.733v25.721a2.73 2.73 0 01-2.728 2.734zM399.037 94.688H329.2a2.728 2.728 0 01-2.726-2.734v-25.72A2.728 2.728 0 01329.2 63.5h69.837a2.73 2.73 0 012.728 2.733v25.721a2.73 2.73 0 01-2.728 2.734z"/><path d="M474.328 94.688h-69.837a2.73 2.73 0 01-2.728-2.734v-25.72a2.73 2.73 0 012.728-2.734h69.837a2.73 2.73 0 012.728 2.733v25.721a2.73 2.73 0 01-2.728 2.734z"/><path d="M549.618 94.688h-69.834a2.73 2.73 0 01-2.728-2.734v-25.72a2.73 2.73 0 012.728-2.734h69.837a2.73 2.73 0 012.725 2.733v25.721a2.73 2.73 0 01-2.728 2.734z"/><path d="M624.911 94.688h-69.837a2.73 2.73 0 01-2.728-2.734v-25.72a2.73 2.73 0 012.728-2.734h69.837a2.728 2.728 0 012.726 2.733v25.721a2.73 2.73 0 01-2.726 2.734z"/><path d="M700.201 94.688h-69.836a2.73 2.73 0 01-2.729-2.734v-25.72a2.73 2.73 0 012.729-2.734H700.2a2.73 2.73 0 012.728 2.733v25.721a2.73 2.73 0 01-2.728 2.734z"/><path d="M775.491 94.688h-69.834a2.73 2.73 0 01-2.728-2.734v-25.72a2.73 2.73 0 012.728-2.734h69.834a2.73 2.73 0 012.729 2.733v25.721a2.73 2.73 0 01-2.729 2.734zM896.187 125.874h-69.836a2.73 2.73 0 01-2.726-2.733V97.42a2.73 2.73 0 012.728-2.733h69.834a2.73 2.73 0 012.728 2.733v25.72a2.73 2.73 0 01-2.728 2.734z"/><path d="M971.48 125.874h-69.837a2.73 2.73 0 01-2.728-2.733V97.42a2.73 2.73 0 012.728-2.733h69.837a2.73 2.73 0 012.726 2.733v25.72a2.73 2.73 0 01-2.726 2.734zM970.935 63.374H901.1a2.73 2.73 0 01-2.729-2.733V34.92a2.73 2.73 0 012.729-2.733h69.836a2.73 2.73 0 012.726 2.733v25.72a2.73 2.73 0 01-2.726 2.734z"/><path d="M1046.225 63.374H976.39a2.73 2.73 0 01-2.728-2.733V34.92a2.73 2.73 0 012.728-2.733h69.836a2.73 2.73 0 012.729 2.733v25.72a2.73 2.73 0 01-2.729 2.734z"/><path d="M1000.82 32.188h-69.834a2.73 2.73 0 01-2.729-2.734V3.734A2.73 2.73 0 01930.986 1h69.834a2.73 2.73 0 012.728 2.733v25.721a2.73 2.73 0 01-2.728 2.733zM1121.516 63.374h-69.837a2.73 2.73 0 01-2.726-2.733V34.92a2.73 2.73 0 012.728-2.733h69.835a2.73 2.73 0 012.728 2.733v25.72a2.73 2.73 0 01-2.728 2.734z"/><path d="M1196.808 63.374h-69.836a2.73 2.73 0 01-2.728-2.733V34.92a2.73 2.73 0 012.728-2.733h69.836a2.73 2.73 0 012.726 2.733v25.72a2.73 2.73 0 01-2.726 2.734zM1076.112 32.188h-69.836a2.73 2.73 0 01-2.728-2.734V3.734A2.73 2.73 0 011006.276 1h69.836a2.73 2.73 0 012.729 2.733v25.721a2.73 2.73 0 01-2.729 2.733z"/><path d="M1151.403 32.188h-69.837a2.73 2.73 0 01-2.726-2.734V3.734A2.728 2.728 0 011081.566 1h69.837a2.73 2.73 0 012.728 2.733v25.721a2.73 2.73 0 01-2.728 2.733zM970.935 125.874H901.1a2.73 2.73 0 01-2.729-2.733V97.42a2.73 2.73 0 012.729-2.733h69.836a2.73 2.73 0 012.726 2.733v25.72a2.73 2.73 0 01-2.726 2.734z"/><path d="M1046.225 125.874H976.39a2.73 2.73 0 01-2.728-2.733V97.42a2.73 2.73 0 012.728-2.733h69.836a2.73 2.73 0 012.729 2.733v25.72a2.73 2.73 0 01-2.729 2.734z"/><path d="M1000.82 94.688h-69.834a2.73 2.73 0 01-2.729-2.734v-25.72a2.73 2.73 0 012.729-2.734h69.834a2.73 2.73 0 012.728 2.733v25.721a2.73 2.73 0 01-2.728 2.734zM1121.516 125.874h-69.837a2.73 2.73 0 01-2.726-2.733V97.42a2.73 2.73 0 012.728-2.733h69.835a2.73 2.73 0 012.728 2.733v25.72a2.73 2.73 0 01-2.728 2.734z"/><path d="M1076.112 94.688h-69.836a2.73 2.73 0 01-2.728-2.734v-25.72a2.73 2.73 0 012.728-2.734h69.836a2.73 2.73 0 012.729 2.733v25.721a2.73 2.73 0 01-2.729 2.734zM1196.475 63.374h-69.836a2.73 2.73 0 01-2.726-2.733V34.92a2.73 2.73 0 012.728-2.733h69.834a2.73 2.73 0 012.729 2.733v25.72a2.73 2.73 0 01-2.729 2.734z"/><path d="M1271.768 63.374h-69.837a2.73 2.73 0 01-2.728-2.733V34.92a2.73 2.73 0 012.728-2.733h69.837a2.73 2.73 0 012.726 2.733v25.72a2.73 2.73 0 01-2.726 2.734z"/><path d="M1226.363 32.188h-69.837a2.73 2.73 0 01-2.726-2.734V3.734A2.728 2.728 0 011156.526 1h69.837a2.73 2.73 0 012.728 2.733v25.721a2.73 2.73 0 01-2.728 2.733zM1271.768 125.874h-69.837a2.73 2.73 0 01-2.728-2.733V97.42a2.73 2.73 0 012.728-2.733h69.837a2.73 2.73 0 012.726 2.733v25.72a2.73 2.73 0 01-2.726 2.734z"/><path d="M1272.056 63.374h-69.836a2.73 2.73 0 01-2.726-2.733V34.92a2.73 2.73 0 012.728-2.733h69.834a2.73 2.73 0 012.728 2.733v25.72a2.73 2.73 0 01-2.728 2.734z"/><path d="M1347.349 63.374h-69.837a2.73 2.73 0 01-2.728-2.733V34.92a2.73 2.73 0 012.728-2.733h69.837a2.73 2.73 0 012.726 2.733v25.72a2.73 2.73 0 01-2.726 2.734z"/><path d="M1301.943 32.188h-69.836a2.73 2.73 0 01-2.726-2.734V3.734A2.728 2.728 0 011232.107 1h69.836a2.73 2.73 0 012.728 2.733v25.721a2.73 2.73 0 01-2.728 2.733zM1272.056 125.874h-69.836a2.73 2.73 0 01-2.726-2.733V97.42a2.73 2.73 0 012.728-2.733h69.834a2.73 2.73 0 012.728 2.733v25.72a2.73 2.73 0 01-2.728 2.734z"/><path d="M1347.349 125.874h-69.837a2.73 2.73 0 01-2.728-2.733V97.42a2.73 2.73 0 012.728-2.733h69.837a2.73 2.73 0 012.726 2.733v25.72a2.73 2.73 0 01-2.726 2.734z"/><path d="M1301.943 94.688h-69.836a2.73 2.73 0 01-2.726-2.734v-25.72a2.728 2.728 0 012.726-2.734h69.836a2.73 2.73 0 012.728 2.733v25.721a2.73 2.73 0 01-2.728 2.734zM1347.637 63.374H1277.8a2.73 2.73 0 01-2.725-2.733V34.92a2.73 2.73 0 012.728-2.733h69.834a2.73 2.73 0 012.728 2.733v25.72a2.73 2.73 0 01-2.728 2.734z"/><path d="M1422.93 63.374h-69.837a2.73 2.73 0 01-2.728-2.733V34.92a2.73 2.73 0 012.728-2.733h69.837a2.73 2.73 0 012.725 2.733v25.72a2.73 2.73 0 01-2.725 2.734z"/><path d="M1377.524 32.188h-69.837a2.73 2.73 0 01-2.725-2.734V3.734A2.728 2.728 0 011307.687 1h69.837a2.73 2.73 0 012.728 2.733v25.721a2.73 2.73 0 01-2.728 2.733zM1453.21 32.188h-69.836a2.73 2.73 0 01-2.726-2.734V3.734A2.728 2.728 0 011383.374 1h69.836a2.73 2.73 0 012.728 2.733v25.721a2.73 2.73 0 01-2.728 2.733zM1347.637 125.874H1277.8a2.73 2.73 0 01-2.725-2.733V97.42a2.73 2.73 0 012.728-2.733h69.834a2.73 2.73 0 012.728 2.733v25.72a2.73 2.73 0 01-2.728 2.734z"/><path d="M1422.93 125.874h-69.837a2.73 2.73 0 01-2.728-2.733V97.42a2.73 2.73 0 012.728-2.733h69.837a2.73 2.73 0 012.725 2.733v25.72a2.73 2.73 0 01-2.725 2.734z"/><path d="M1377.524 94.688h-69.837a2.73 2.73 0 01-2.725-2.734v-25.72a2.728 2.728 0 012.725-2.734h69.837a2.73 2.73 0 012.728 2.733v25.721a2.73 2.73 0 01-2.728 2.734zM1498.801 63.374h-69.837a2.73 2.73 0 01-2.728-2.733V34.92a2.73 2.73 0 012.728-2.733h69.837a2.73 2.73 0 012.726 2.733v25.72a2.73 2.73 0 01-2.726 2.734zM1498.801 125.874h-69.837a2.73 2.73 0 01-2.728-2.733V97.42a2.73 2.73 0 012.728-2.733h69.837a2.73 2.73 0 012.726 2.733v25.72a2.73 2.73 0 01-2.726 2.734z"/><path d="M1498.799 63.374h-69.837a2.73 2.73 0 01-2.726-2.733V34.92a2.73 2.73 0 012.728-2.733h69.835a2.73 2.73 0 012.728 2.733v25.72a2.73 2.73 0 01-2.728 2.734zM1498.799 125.874h-69.837a2.73 2.73 0 01-2.726-2.733V97.42a2.73 2.73 0 012.728-2.733h69.835a2.73 2.73 0 012.728 2.733v25.72a2.73 2.73 0 01-2.728 2.734z"/></g></g></svg>