<svg width="7" height="7" viewBox="0 0 7 7" fill="none" xmlns="http://www.w3.org/2000/svg">
<path d="M3.50945 6.97957C3.26583 6.97388 3.04705 6.8886 2.83768 6.78247C2.35998 6.54369 1.94703 6.21585 1.55881 5.85388C1.07735 5.40664 0.64546 4.9177 0.308615 4.35108C0.236258 4.22979 0.175353 4.09903 0.114449 3.97206C-0.0434301 3.63474 -0.0340118 3.3012 0.118302 2.96198C0.299087 2.55832 0.550304 2.20015 0.833845 1.86472C1.3153 1.2943 1.85573 0.782629 2.49517 0.388446C2.70068 0.261474 2.92524 0.161035 3.1498 0.0700708C3.40284 -0.0341586 3.66358 -0.0152077 3.92047 0.0814413C4.32967 0.234943 4.68546 0.475615 5.02231 0.746622C5.6808 1.27725 6.25741 1.87988 6.69701 2.6057C6.76926 2.72699 6.83016 2.85774 6.88914 2.98662C7.03953 3.30878 7.03193 3.63284 6.89674 3.95879C6.72933 4.35677 6.4915 4.70925 6.22123 5.04279C5.72458 5.65111 5.16317 6.18742 4.49708 6.61002C4.24586 6.76921 3.9833 6.90755 3.68638 6.96251C3.62933 6.97388 3.57035 6.97578 3.51137 6.98146L3.50945 6.97957Z" fill="white"/>
</svg>
