<svg width="16" height="18" viewBox="0 0 16 18" fill="none" xmlns="http://www.w3.org/2000/svg">
<path d="M15.1568 8.10519C15.3842 6.19702 15.6778 4.27274 15.8104 2.3557C15.9232 0.711398 14.4708 -0.526262 12.8752 0.228101C12.2163 0.540193 11.7971 1.13406 11.6055 1.82957C11.5912 1.88128 11.5805 1.94192 11.5697 2.0079C11.5052 2.11312 11.4444 2.22012 11.3889 2.32891C11.3065 2.14344 11.208 1.97224 11.1041 1.82778C10.3304 0.745283 9.03933 -0.0590208 7.73562 0.00339958C4.83983 0.14072 2.80011 2.85682 1.68264 5.29824C0.486311 7.9126 -0.17093 10.0669 0.0385817 12.9631C0.142532 14.388 0.661777 16.2463 1.86345 17.1041C3.06512 17.9619 4.81293 18.0814 6.0558 17.3181C7.17679 16.6297 8.15465 14.8107 9.12344 13.8709C9.06794 14.3737 9.0214 16.1054 9.16644 16.578C9.64097 18.1224 11.2706 18.2847 12.7911 17.6552C14.3384 17.015 15.1478 15.8825 15.4987 14.3327C15.6976 13.4536 15.8516 12.5065 15.3447 11.688C15.3341 11.6719 15.3233 11.6559 15.309 11.6416C15.0171 11.326 14.8416 10.9212 14.8899 10.4949C14.9812 9.69597 15.0511 9.00045 15.1568 8.107V8.10519ZM9.11276 8.98977C8.62564 11.2386 7.44724 12.8935 6.48017 12.6849C5.51319 12.478 5.12277 10.4861 5.60988 8.23724C6.097 5.98842 7.2753 4.33337 8.24238 4.54208C9.20946 4.74897 9.59977 6.74094 9.11276 8.98977Z" fill="white"/>
</svg>
