<svg width="57" height="5" viewBox="0 0 57 5" fill="none" xmlns="http://www.w3.org/2000/svg">
<path d="M56.3304 2.11214C42.1005 -0.419721 27.5686 -0.700995 13.2582 1.40709C10.8016 1.76851 8.30393 2.15125 5.84377 2.66402C5.80807 2.66402 5.77046 2.66764 5.73114 2.67649C4.99271 2.83498 4.2561 3.0006 3.52843 3.19288C3.48911 3.20173 3.44979 3.21068 3.41047 3.22134V3.22667C2.24837 3.53831 1.1094 3.92105 0.0259417 4.45695C-0.0294682 4.4837 0.0134726 4.55489 0.0652622 4.54775C1.10407 4.40003 2.14107 4.25582 3.17807 4.09915C6.02619 3.67176 8.85994 3.16261 11.717 2.79043C15.2875 2.32573 18.8739 1.96793 22.4676 1.74709C29.5406 1.31096 36.6492 1.40528 43.7043 2.08901C47.7717 2.48422 51.8338 3.06114 55.8352 3.89792C57.0116 4.14359 57.4997 2.31869 56.3304 2.11214Z" fill="white"/>
</svg>
