<svg width="19" height="32" viewBox="0 0 19 32" fill="none" xmlns="http://www.w3.org/2000/svg">
<path d="M11.2309 16.6648C11.7669 16.6882 12.3049 16.6756 12.8465 16.562C14.2393 16.268 15.3948 15.2436 15.6356 13.8223C15.833 12.6535 15.3713 11.712 14.5671 11.142C14.3026 10.8481 13.9531 10.6172 13.5311 10.4982C13.0221 10.3557 12.4733 10.3484 11.9299 10.3592C12.006 9.55305 12.0803 8.73601 12.3701 8.00012C12.4461 7.80533 12.5548 7.58168 12.6979 7.39771C12.9696 7.37426 13.1815 7.69891 13.4695 7.92437C14.011 8.34822 14.5834 8.66567 15.2897 8.6873C18.0228 8.76666 19.3757 5.71492 18.5082 3.4207C17.6424 1.13188 15.2734 -0.247899 12.85 0.0370748C10.3145 0.334675 8.28953 2.15094 7.3133 4.43975C6.48378 6.38407 6.3896 8.44202 6.59608 10.4928C5.75931 10.6389 4.96965 10.9509 4.34841 11.6001C3.30518 12.6914 3.03531 14.4517 4.08579 15.6331C4.78672 16.4213 5.70679 16.6756 6.66853 16.7008C6.77719 16.8145 6.86775 16.9786 6.94201 17.2329C7.20463 18.1474 7.24809 19.161 7.30062 20.1044C7.35858 21.154 7.297 22.2199 7.14848 23.2606C7.03076 24.0849 6.91847 25.1726 6.50733 25.9481C6.42402 25.8038 6.32439 25.6469 6.30085 25.5982C5.99296 24.9254 5.74483 24.2815 5.21596 23.7386C4.1673 22.6637 2.53361 22.5139 1.32918 23.4248C-1.07062 25.2429 0.151921 28.8609 2.0609 30.5311C4.18902 32.3925 7.05068 32.4556 9.37623 30.8864C11.6728 29.3371 12.5874 26.9076 12.8302 24.24C12.9352 23.0839 12.8863 21.8773 12.6363 20.7338C12.3828 19.2926 11.8304 17.9761 11.2291 16.6684L11.2309 16.6648Z" fill="white"/>
</svg>
