<svg width="13" height="23" viewBox="0 0 13 23" fill="none" xmlns="http://www.w3.org/2000/svg">
<path d="M8.06024 20.4947C9.40217 18.5738 10.1053 16.0166 10.7191 13.7847C11.3954 11.3217 11.8344 8.78942 12.0645 6.24648C12.1912 4.84624 12.3804 3.26995 12.1003 1.87503C11.9236 0.998939 11.374 0.396527 10.6888 0.218824C8.92753 -0.392471 7.01631 0.334338 5.75648 1.68665C5.05701 2.43659 4.51632 3.4459 4.45921 4.4819C4.39317 5.67609 4.92854 6.51306 5.70479 7.35535C6.42574 8.13723 6.26153 8.98133 6.07947 9.96223C5.82613 11.3395 5.53346 12.7078 5.20686 14.069C4.98033 15.0161 4.81251 16.2654 4.03456 16.9495C3.67945 17.2605 3.35817 17.2428 2.89959 17.2979C2.2233 17.3778 1.60413 17.4737 1.02952 17.8665C-1.15109 19.3574 0.501277 22.2789 2.56947 22.8439C4.7537 23.441 6.83785 22.2504 8.06205 20.4964L8.06024 20.4947Z" fill="white"/>
</svg>
