<svg width="16" height="18" viewBox="0 0 16 18" fill="none" xmlns="http://www.w3.org/2000/svg">
<path d="M15.1567 8.10519C15.3841 6.19702 15.6778 4.27274 15.8104 2.3557C15.9232 0.711398 14.4708 -0.526262 12.8752 0.228101C12.2162 0.540193 11.7971 1.13406 11.6054 1.82957C11.5911 1.88128 11.5805 1.94192 11.5697 2.0079C11.5052 2.11312 11.4443 2.22012 11.3888 2.32891C11.3064 2.14344 11.208 1.97224 11.104 1.82778C10.3304 0.745283 9.03923 -0.0590208 7.73552 0.00339958C4.83972 0.14072 2.80001 2.85682 1.68255 5.29824C0.486314 7.9126 -0.17093 10.0669 0.0385818 12.9631C0.142431 14.388 0.661779 16.2463 1.86345 17.1041C3.06502 17.9619 4.81293 18.0814 6.0557 17.3181C7.17679 16.6297 8.15455 14.8107 9.12344 13.8709C9.06794 14.3737 9.0213 16.1054 9.16635 16.578C9.64097 18.1224 11.2706 18.2847 12.791 17.6552C14.3383 17.015 15.1477 15.8825 15.4987 14.3327C15.6975 13.4536 15.8515 12.5065 15.3447 11.688C15.334 11.6719 15.3233 11.6559 15.3089 11.6416C15.017 11.326 14.8415 10.9212 14.8898 10.4949C14.9812 9.69597 15.051 9.00045 15.1567 8.107V8.10519ZM9.11266 8.98977C8.62555 11.2386 7.44724 12.8935 6.48016 12.6849C5.51308 12.478 5.12267 10.4861 5.60978 8.23724C6.0969 5.98842 7.2753 4.33337 8.24228 4.54208C9.20936 4.74897 9.59977 6.74094 9.11266 8.98977Z" fill="white"/>
</svg>
