<svg width="19" height="25" viewBox="0 0 19 25" fill="none" xmlns="http://www.w3.org/2000/svg">
<path d="M3.46999 11.8212C3.36171 13.8154 2.97926 15.8636 2.05198 17.6512C1.22385 19.2466 -0.324044 20.6748 0.0602401 22.6314C0.273134 23.7201 1.16256 24.5645 2.14392 24.7388C3.20118 25.0514 4.53446 25.0298 5.4942 24.7478C6.50093 24.4513 7.48057 23.6824 7.7926 22.6511C7.95506 22.1158 7.85399 21.5282 7.57616 21.0486C7.44982 20.8294 7.27671 20.6318 7.11069 20.4395C7.01683 20.3353 6.92124 20.2329 6.82565 20.1287C6.80759 20.1072 6.79318 20.0892 6.77877 20.073C6.75167 19.9652 6.72458 19.8574 6.70297 19.7496C7.09801 17.962 8.02894 16.3433 9.162 14.9006C9.76456 14.1335 10.5367 13.3537 11.4153 12.901C11.796 12.7051 12.9579 12.308 12.7666 13.1399C12.5771 13.9628 11.3955 14.6059 10.8163 15.1359C9.99724 15.8833 9.42715 16.7906 9.13673 17.8632C8.57923 19.9239 9.06814 22.2918 10.6883 23.7632C12.3372 25.2599 15.1101 25.5059 16.7844 23.9033C18.3341 22.4194 18.4153 19.7927 16.8583 18.2998C16.4668 17.9243 15.9833 17.6584 15.5251 17.3763C15.3393 17.2613 15.0578 17.1608 15 16.9307C14.8269 16.2498 15.987 15.4845 16.4001 15.1269C18.0437 13.7059 19.4436 11.6397 18.8501 9.36163C18.1465 6.66135 15.2725 5.60135 12.8983 6.92545C11.7978 7.53809 10.8632 8.47772 9.91971 9.30054C9.46511 9.69579 9.0104 10.091 8.55396 10.4845C9.01588 9.11911 9.46866 7.75189 9.80606 6.35054C10.2245 4.61502 11.2944 0.840345 8.87696 0.0929546C7.52928 -0.323853 6.07149 0.757704 4.99444 1.42244C3.92459 2.0836 2.70508 2.81841 2.05016 3.93051C1.38266 5.06597 1.46556 6.48169 2.44347 7.39975C2.76637 7.70338 3.17957 7.89741 3.62332 8.02318C3.61611 8.15073 3.61073 8.2783 3.60525 8.40406C3.55299 9.54307 3.5259 10.6858 3.46461 11.8248L3.46999 11.8212Z" fill="white"/>
</svg>
