<svg width="1275" height="880" viewBox="0 0 1275 880" fill="none" xmlns="http://www.w3.org/2000/svg">
<circle cx="0.5" cy="878.5" r="0.5" fill="white" fill-opacity="0.7"/>
<circle opacity="0.6" cx="450.85" cy="562.868" r="0.5" transform="rotate(-108.757 450.85 562.868)" fill="white" fill-opacity="0.7"/>
<circle cx="66.5" cy="845.5" r="0.5" fill="white" fill-opacity="0.7"/>
<circle cx="398.379" cy="510.985" r="0.5" transform="rotate(-108.757 398.379 510.985)" fill="white" fill-opacity="0.7"/>
<circle cx="59" cy="878" r="1" fill="white" fill-opacity="0.7"/>
<circle cx="431.565" cy="507.636" r="1" transform="rotate(-108.757 431.565 507.636)" fill="white" fill-opacity="0.7"/>
<circle cx="150.5" cy="829.5" r="0.5" fill="white" fill-opacity="0.7"/>
<circle opacity="0.6" cx="440.5" cy="818.5" r="0.5" fill="white" fill-opacity="0.7"/>
<circle cx="899.5" cy="788.5" r="0.5" fill="white" fill-opacity="0.7"/>
<circle cx="532.5" cy="469.5" r="0.5" fill="white" fill-opacity="0.7"/>
<circle cx="858.5" cy="241.5" r="0.5" fill="white" fill-opacity="0.7"/>
<circle cx="594.5" cy="196.5" r="0.5" fill="white" fill-opacity="0.7"/>
<circle cx="1060.5" cy="567.5" r="0.5" fill="white" fill-opacity="0.7"/>
<circle cx="356.217" cy="436.591" r="0.5" transform="rotate(-108.757 356.217 436.591)" fill="white" fill-opacity="0.7"/>
<circle cx="256.5" cy="851.5" r="0.5" fill="white" fill-opacity="0.7"/>
<circle cx="546.5" cy="840.5" r="0.5" fill="white" fill-opacity="0.7"/>
<circle cx="638.5" cy="491.5" r="0.5" fill="white" fill-opacity="0.7"/>
<circle cx="964.5" cy="263.5" r="0.5" fill="white" fill-opacity="0.7"/>
<circle cx="700.5" cy="218.5" r="0.5" fill="white" fill-opacity="0.7"/>
<circle cx="1166.5" cy="589.5" r="0.5" fill="white" fill-opacity="0.7"/>
<circle cx="342.963" cy="329.147" r="0.5" transform="rotate(-108.757 342.963 329.147)" fill="white" fill-opacity="0.7"/>
<circle cx="153.5" cy="718.5" r="0.5" fill="white" fill-opacity="0.7"/>
<circle opacity="0.6" cx="443.5" cy="707.5" r="0.5" fill="white" fill-opacity="0.7"/>
<circle cx="902.5" cy="677.5" r="0.5" fill="white" fill-opacity="0.7"/>
<circle opacity="0.3" cx="535.5" cy="358.5" r="0.5" fill="white" fill-opacity="0.7"/>
<circle opacity="0.3" cx="861.5" cy="130.5" r="0.5" fill="white" fill-opacity="0.7"/>
<circle opacity="0.3" cx="597.5" cy="85.5" r="0.5" fill="white" fill-opacity="0.7"/>
<circle opacity="0.3" cx="1063.5" cy="456.5" r="0.5" fill="white" fill-opacity="0.7"/>
<circle opacity="0.3" cx="250.149" cy="469.444" r="0.5" transform="rotate(-108.757 250.149 469.444)" fill="white" fill-opacity="0.7"/>
<circle opacity="0.3" cx="259.5" cy="740.5" r="0.5" fill="white" fill-opacity="0.7"/>
<circle opacity="0.3" cx="549.5" cy="729.5" r="0.5" fill="white" fill-opacity="0.7"/>
<circle opacity="0.3" cx="1008.5" cy="699.5" r="0.5" fill="white" fill-opacity="0.7"/>
<circle opacity="0.3" cx="641.5" cy="380.5" r="0.5" fill="white" fill-opacity="0.7"/>
<circle opacity="0.3" cx="967.5" cy="152.5" r="0.5" fill="white" fill-opacity="0.7"/>
<circle opacity="0.3" cx="703.5" cy="107.5" r="0.5" fill="white"/>
<circle opacity="0.3" cx="1169.5" cy="478.5" r="0.5" fill="white"/>
<circle opacity="0.3" cx="236.895" cy="361.999" r="0.5" transform="rotate(-108.757 236.895 361.999)" fill="white"/>
<circle opacity="0.3" cx="260.5" cy="628.5" r="0.5" fill="white"/>
<circle opacity="0.3" cx="550.5" cy="617.5" r="0.5" fill="white" fill-opacity="0.2"/>
<circle opacity="0.3" cx="642.5" cy="268.5" r="0.5" fill="white" fill-opacity="0.2"/>
<circle opacity="0.3" cx="968.5" cy="40.5" r="0.5" fill="white" fill-opacity="0.2"/>
<circle opacity="0.3" cx="1170.5" cy="366.5" r="0.5" fill="white"/>
<circle opacity="0.3" cx="130.522" cy="397.067" r="0.5" transform="rotate(-108.757 130.522 397.067)" fill="white"/>
<circle opacity="0.3" cx="216.5" cy="796.5" r="0.5" fill="white"/>
<circle opacity="0.6" cx="506.5" cy="785.5" r="0.5" fill="white"/>
<circle cx="598.5" cy="436.5" r="0.5" fill="white"/>
<circle cx="924.5" cy="208.5" r="0.5" fill="white" fill-opacity="0.4"/>
<circle cx="660.5" cy="163.5" r="0.5" fill="white" fill-opacity="0.4"/>
<circle cx="1126.5" cy="534.5" r="0.5" fill="white" fill-opacity="0.4"/>
<circle cx="303.748" cy="384.708" r="0.5" transform="rotate(-108.757 303.748 384.708)" fill="white" fill-opacity="0.4"/>
<circle opacity="0.6" cx="322.5" cy="818.5" r="0.5" fill="white" fill-opacity="0.4"/>
<circle cx="612.5" cy="807.5" r="0.5" fill="white"/>
<circle cx="704.5" cy="458.5" r="0.5" fill="white"/>
<circle cx="766.5" cy="185.5" r="0.5" fill="white"/>
<circle cx="1232.5" cy="556.5" r="0.5" fill="white"/>
<circle cx="290.494" cy="277.264" r="0.5" transform="rotate(-108.757 290.494 277.264)" fill="white"/>
<circle cx="188.5" cy="656.5" r="0.5" fill="white"/>
<circle opacity="0.6" cx="478.5" cy="645.5" r="0.5" fill="white"/>
<circle cx="570.5" cy="296.5" r="0.5" fill="white"/>
<circle cx="896.5" cy="68.5" r="0.5" fill="white"/>
<circle cx="632.5" cy="23.5" r="0.5" fill="white"/>
<circle cx="1098.5" cy="394.5" r="0.5" fill="white"/>
<circle cx="180.188" cy="456.24" r="0.5" transform="rotate(-108.757 180.188 456.24)" fill="white"/>
<circle opacity="0.6" cx="326.5" cy="595.5" r="0.5" fill="white"/>
<circle cx="616.5" cy="584.5" r="0.5" fill="white"/>
<circle opacity="0.4" cx="771.5" cy="509.5" r="0.5" fill="white"/>
<circle cx="708.5" cy="235.5" r="0.5" fill="white"/>
<circle cx="1034.5" cy="7.5" r="0.5" fill="white"/>
<circle cx="1236.5" cy="333.5" r="0.5" fill="white"/>
<circle cx="78.0509" cy="345.184" r="0.5" transform="rotate(-108.757 78.0509 345.184)" fill="white"/>
<circle cx="157" cy="804" r="1" fill="white"/>
<circle opacity="0.6" cx="447" cy="793" r="1" fill="white"/>
<circle cx="906" cy="763" r="1" fill="white"/>
<circle cx="539" cy="444" r="1" fill="white"/>
<circle cx="865" cy="216" r="1" fill="white"/>
<circle cx="601" cy="171" r="1" fill="white"/>
<circle cx="1067" cy="542" r="1" fill="white"/>
<circle cx="329.983" cy="438.636" r="1" transform="rotate(-108.757 329.983 438.636)" fill="white"/>
<circle opacity="0.6" cx="293" cy="680" r="1" fill="white"/>
<circle cx="583" cy="669" r="1" fill="white"/>
<circle opacity="0.4" cx="738" cy="594" r="1" fill="white"/>
<circle cx="825" cy="505" r="1" fill="white"/>
<circle cx="675" cy="320" r="1" fill="white"/>
<circle opacity="0.5" cx="1001" cy="92" r="1" fill="white"/>
<circle opacity="0.5" cx="737" cy="47" r="1" fill="white"/>
<circle opacity="0.5" cx="1203" cy="418" r="1" fill="white"/>
<circle opacity="0.5" cx="168.836" cy="349.733" r="1" transform="rotate(-108.757 168.836 349.733)" fill="white"/>
<circle opacity="0.6" cx="364" cy="717" r="1" fill="white"/>
<circle opacity="0.5" cx="823" cy="687" r="1" fill="white"/>
<circle opacity="0.4" cx="654" cy="706" r="1" fill="white"/>
<circle opacity="0.5" cx="1113" cy="676" r="1" fill="white"/>
<circle opacity="0.4" cx="809" cy="631" r="1" fill="white"/>
<circle opacity="0.5" cx="746" cy="357" r="1" fill="white"/>
<circle opacity="0.5" cx="1072" cy="129" r="1" fill="white"/>
<circle opacity="0.5" cx="808" cy="84" r="1" fill="white"/>
<circle opacity="0.5" cx="1274" cy="455" r="1" fill="white"/>
<circle opacity="0.5" cx="181.039" cy="270.606" r="1" transform="rotate(-108.757 181.039 270.606)" fill="white"/>
<circle opacity="0.5" cx="243" cy="589" r="1" fill="white"/>
<circle opacity="0.5" cx="533" cy="578" r="1" fill="white"/>
<circle opacity="0.5" cx="625" cy="229" r="1" fill="white"/>
<circle opacity="0.5" cx="951" cy="1" r="1" fill="white"/>
<circle opacity="0.5" cx="1153" cy="327" r="1" fill="white"/>
<circle opacity="0.5" cx="98.7464" cy="426.34" r="1" transform="rotate(-108.757 98.7464 426.34)" fill="white"/>
<circle opacity="0.5" cx="131.5" cy="879.5" r="0.5" fill="white"/>
<circle opacity="0.5" cx="421.5" cy="868.5" r="0.5" fill="white"/>
<circle opacity="0.5" cx="880.5" cy="838.5" r="0.5" fill="white"/>
<circle opacity="0.5" cx="513.5" cy="519.5" r="0.5" fill="white"/>
<circle opacity="0.5" cx="839.5" cy="291.5" r="0.5" fill="white"/>
<circle opacity="0.5" cx="575.5" cy="246.5" r="0.5" fill="white"/>
<circle opacity="0.5" cx="1041.5" cy="617.5" r="0.5" fill="white"/>
<circle opacity="0.5" cx="409.672" cy="438.504" r="0.5" transform="rotate(-108.757 409.672 438.504)" fill="white"/>
<circle opacity="0.5" cx="134.5" cy="768.5" r="0.5" fill="white"/>
<circle opacity="0.6" cx="424.5" cy="757.5" r="0.5" fill="white"/>
<circle opacity="0.5" cx="883.5" cy="727.5" r="0.5" fill="white"/>
<circle opacity="0.5" cx="516.5" cy="408.5" r="0.5" fill="white"/>
<circle opacity="0.5" cx="842.5" cy="180.5" r="0.5" fill="white"/>
<circle opacity="0.5" cx="578.5" cy="135.5" r="0.5" fill="white"/>
<circle opacity="0.5" cx="1044.5" cy="506.5" r="0.5" fill="white"/>
<circle opacity="0.5" cx="303.602" cy="471.357" r="0.5" transform="rotate(-108.757 303.602 471.357)" fill="white"/>
<circle opacity="0.5" cx="241.5" cy="678.5" r="0.5" fill="white"/>
<circle cx="531.5" cy="667.5" r="0.5" fill="white"/>
<circle cx="623.5" cy="318.5" r="0.5" fill="white"/>
<circle opacity="0.25" cx="949.5" cy="90.5" r="0.5" fill="white"/>
<circle opacity="0.25" cx="685.5" cy="45.5" r="0.5" fill="white"/>
<circle opacity="0.25" cx="1151.5" cy="416.5" r="0.5" fill="white"/>
<circle opacity="0.25" cx="183.975" cy="398.98" r="0.5" transform="rotate(-108.757 183.975 398.98)" fill="white"/>
<circle opacity="0.25" cx="197.5" cy="846.5" r="0.5" fill="white"/>
<circle opacity="0.6" cx="487.5" cy="835.5" r="0.5" fill="white"/>
<circle opacity="0.25" cx="579.5" cy="486.5" r="0.5" fill="white"/>
<circle opacity="0.25" cx="905.5" cy="258.5" r="0.5" fill="white"/>
<circle opacity="0.25" cx="641.5" cy="213.5" r="0.5" fill="white"/>
<circle opacity="0.25" cx="1107.5" cy="584.5" r="0.5" fill="white"/>
<circle opacity="0.25" cx="357.201" cy="386.621" r="0.5" transform="rotate(-108.757 357.201 386.621)" fill="white"/>
<circle opacity="0.25" cx="303.5" cy="868.5" r="0.5" fill="white"/>
<circle opacity="0.25" cx="593.5" cy="857.5" r="0.5" fill="white"/>
<circle opacity="0.4" cx="685.5" cy="508.5" r="0.5" fill="white"/>
<circle cx="1011.5" cy="280.5" r="0.5" fill="white"/>
<circle cx="1007.5" cy="240.5" r="0.5" fill="white"/>
<circle cx="1053.5" cy="232.5" r="0.5" fill="white"/>
<circle cx="747.5" cy="235.5" r="0.5" fill="white"/>
<circle cx="1213.5" cy="606.5" r="0.5" fill="white"/>
<circle cx="343.947" cy="279.176" r="0.5" transform="rotate(-108.757 343.947 279.176)" fill="white"/>
<circle cx="200.5" cy="735.5" r="0.5" fill="white"/>
<circle opacity="0.6" cx="490.5" cy="724.5" r="0.5" fill="white"/>
<circle opacity="0.1" cx="949.5" cy="694.5" r="0.5" fill="white"/>
<circle opacity="0.1" cx="582.5" cy="375.5" r="0.5" fill="white"/>
<circle opacity="0.1" cx="908.5" cy="147.5" r="0.5" fill="white"/>
<circle opacity="0.1" cx="644.5" cy="102.5" r="0.5" fill="white"/>
<circle opacity="0.1" cx="1110.5" cy="473.5" r="0.5" fill="white"/>
<circle opacity="0.1" cx="251.133" cy="419.474" r="0.5" transform="rotate(-108.757 251.133 419.474)" fill="white"/>
<circle opacity="0.6" cx="306.5" cy="757.5" r="0.5" fill="white"/>
<circle opacity="0.1" cx="596.5" cy="746.5" r="0.5" fill="white"/>
<circle opacity="0.4" cx="751.5" cy="671.5" r="0.5" fill="white"/>
<circle opacity="0.1" cx="688.5" cy="397.5" r="0.5" fill="white"/>
<circle opacity="0.1" cx="1014.5" cy="169.5" r="0.5" fill="white"/>
<circle opacity="0.1" cx="750.5" cy="124.5" r="0.5" fill="white"/>
<circle opacity="0.1" cx="1216.5" cy="495.5" r="0.5" fill="white"/>
<circle opacity="0.1" cx="237.879" cy="312.029" r="0.5" transform="rotate(-108.757 237.879 312.029)" fill="white"/>
<circle opacity="0.6" cx="307.5" cy="645.5" r="0.5" fill="white"/>
<circle opacity="0.1" cx="597.5" cy="634.5" r="0.5" fill="white"/>
<circle opacity="0.4" cx="752.5" cy="559.5" r="0.5" fill="white"/>
<circle opacity="0.1" cx="839.5" cy="470.5" r="0.5" fill="white"/>
<circle opacity="0.1" cx="689.5" cy="285.5" r="0.5" fill="white"/>
<circle opacity="0.1" cx="1015.5" cy="57.5" r="0.5" fill="white"/>
<circle opacity="0.1" cx="751.5" cy="12.5" r="0.5" fill="white"/>
<circle opacity="0.1" cx="1217.5" cy="383.5" r="0.5" fill="white"/>
<circle opacity="0.1" cx="131.506" cy="347.097" r="0.5" transform="rotate(-108.757 131.506 347.097)" fill="white"/>
<circle opacity="0.1" cx="103" cy="810" r="1" fill="white"/>
<circle opacity="0.6" cx="393" cy="799" r="1" fill="white"/>
<circle opacity="0.1" cx="852" cy="769" r="1" fill="white"/>
<circle opacity="0.1" cx="485" cy="450" r="1" fill="white"/>
<circle opacity="0.1" cx="811" cy="222" r="1" fill="white"/>
<circle opacity="0.1" cx="547" cy="177" r="1" fill="white"/>
<circle opacity="0.1" cx="1013" cy="548" r="1" fill="white"/>
<circle opacity="0.1" cx="353.028" cy="487.839" r="1" transform="rotate(-108.757 353.028 487.839)" fill="white"/>
<circle opacity="0.1" cx="105.5" cy="106.5" r="0.5" fill="white"/>
<circle opacity="0.1" cx="368.5" cy="53.5" r="0.5" fill="white"/>
<circle opacity="0.1" cx="171.5" cy="73.5" r="0.5" fill="white"/>
<circle opacity="0.1" cx="434.5" cy="20.5" r="0.5" fill="white"/>
<circle opacity="0.1" cx="164" cy="106" r="1" fill="white"/>
<circle opacity="0.1" cx="427" cy="53" r="1" fill="white"/>
<circle opacity="0.1" cx="255.5" cy="57.5" r="0.5" fill="white"/>
<circle opacity="0.1" cx="518.5" cy="4.5" r="0.5" fill="white"/>
<circle opacity="0.1" cx="321.5" cy="24.5" r="0.5" fill="white"/>
<circle opacity="0.1" cx="262" cy="192" r="1" fill="white"/>
<circle opacity="0.1" cx="525" cy="139" r="1" fill="white"/>
<circle opacity="0.1" cx="236.5" cy="107.5" r="0.5" fill="white"/>
<circle opacity="0.1" cx="499.5" cy="54.5" r="0.5" fill="white"/>
<circle opacity="0.1" cx="302.5" cy="74.5" r="0.5" fill="white"/>
<circle opacity="0.1" cx="565.5" cy="21.5" r="0.5" fill="white"/>
<circle opacity="0.1" cx="208" cy="38" r="1" fill="white"/>
</svg>
