<svg width="417" height="957" viewBox="0 0 417 957" fill="none" xmlns="http://www.w3.org/2000/svg">
<g opacity="0.9" clip-path="url(#clip0_254_1441)">
<g opacity="0.7" filter="url(#filter0_f_254_1441)">
<path d="M-27.4492 885.579C167.812 885.579 326.102 714.646 326.102 503.79C326.102 292.933 167.812 122 -27.4492 122C-222.71 122 -381 292.933 -381 503.79C-381 714.646 -222.71 885.579 -27.4492 885.579Z" fill="#2CAFC7"/>
</g>
<g opacity="0.3" filter="url(#filter1_f_254_1441)">
<path d="M-27.4492 885.579C167.812 885.579 326.102 714.646 326.102 503.79C326.102 292.933 167.812 122 -27.4492 122C-222.71 122 -381 292.933 -381 503.79C-381 714.646 -222.71 885.579 -27.4492 885.579Z" fill="#2CAFC7"/>
</g>
<g filter="url(#filter2_d_254_1441)">
<path d="M-27.4492 885.579C167.812 885.579 326.102 714.646 326.102 503.79C326.102 292.933 167.812 122 -27.4492 122C-222.71 122 -381 292.933 -381 503.79C-381 714.646 -222.71 885.579 -27.4492 885.579Z" fill="#2CAFC7"/>
</g>
<mask id="mask0_254_1441" style="mask-type:alpha" maskUnits="userSpaceOnUse" x="-381" y="122" width="708" height="764">
<path d="M-27.4492 885.579C167.812 885.579 326.102 714.646 326.102 503.79C326.102 292.933 167.812 122 -27.4492 122C-222.71 122 -381 292.933 -381 503.79C-381 714.646 -222.71 885.579 -27.4492 885.579Z" fill="#2CAFC7"/>
</mask>
<g mask="url(#mask0_254_1441)">
<path d="M139.032 474.362C139.538 461.794 140.69 449.215 140.132 436.653C139.444 421.234 136.206 406.497 133 392C136.417 395.363 139.833 398.725 143.25 402.088C142.669 400.311 144.1 398.224 145.278 398.655C146.456 399.085 147.248 400.9 147.926 402.579C151.709 411.964 155.557 421.594 157.251 432.565C158.072 437.879 158.436 443.673 160.46 447.984C162.485 452.295 167.05 453.783 168.815 449.156C170.162 445.629 169.101 440.92 167.673 437.481C166.246 434.042 164.409 430.74 164.146 426.576C163.887 422.412 166.47 417.692 168.647 419.736C169.812 420.831 170.243 423.229 170.574 425.404C173.3 443.248 176.025 461.091 178.748 478.94C179.478 483.72 180.208 488.5 180.938 493.274C182.388 502.779 183.842 512.301 184.728 521.997C186.123 537.273 186.123 553.057 189.089 567.685C191.081 577.501 194.407 586.815 194.731 597.176C194.988 605.318 193.346 613.319 193.235 621.467C193.145 628.252 194.115 634.934 194.595 641.671C195.293 651.465 194.949 661.367 194.605 671.21C194.037 687.474 193.469 703.737 192.901 720C189.069 709.792 186.645 698.096 185.873 686.095C185.484 680.045 185.493 673.799 184.192 668.115C183.018 662.986 180.847 658.659 179.507 653.65C176.531 642.532 177.956 629.708 178.066 617.521C178.177 605.52 176.937 593.491 174.429 582.253C173.225 576.847 171.684 571.516 169.25 567.44C167.699 564.84 165.827 562.824 164.312 560.164C160.895 554.163 159.25 544.909 154.72 541.584C153.695 540.832 152.478 540.467 151.469 541.279C150.989 541.666 150.586 542.304 150.1 542.68C148.075 544.25 145.791 540.347 145.823 536.603C145.856 532.859 147.306 529.638 148.62 526.613C150.447 522.4 152.176 517.729 152.345 512.524C152.514 507.319 150.567 501.58 147.494 500.856C148.026 511.587 144.263 522.563 138.471 527.169C138.892 526.831 135.664 516.41 139.476 514.563C139.412 501.264 138.484 487.873 139.025 474.362H139.032Z" fill="url(#paint0_linear_254_1441)"/>
<path d="M129.78 359.752C127.345 347.509 124.914 335.266 122.48 323.029C121.766 319.446 121.049 315.836 119.94 312.537C114.812 297.291 103.077 292.625 94.9814 281.487C89.8561 274.436 86.1716 264.534 84.6617 253.758C83.8425 247.904 83.6156 241.674 81.8687 236.411C79.2205 228.446 73.7136 224.496 68.4764 221.838C59.5252 217.297 50.1824 214.89 40.8233 214.715C30.8358 197.998 17.7757 183.108 3.76824 179.546C0.633163 178.748 -2.6006 178.687 -5.61067 177.019C-9.01878 175.132 -11.8973 171.324 -14.7001 167.588C-18.0786 163.08 -21.4604 158.573 -24.8389 154.071C-26.612 151.707 -28.5036 149.022 -28.9148 145.307C-29.6352 138.781 -25.6317 133.907 -22.7401 129.334C-20.0162 125.023 -17.9371 119.618 -14.9665 115.783C-7.32129 105.92 3.48205 109.137 13.157 108.962C29.5331 108.666 45.8138 97.2169 61.9036 102.299C73.3945 105.926 83.5991 117.736 95.1985 120.247C99.2482 121.123 103.433 120.854 107.308 123.01C115.078 127.337 119.782 140.192 123.46 152.369C129.579 172.637 134.803 194.366 134.968 217.046C126.428 214.409 119.263 202.232 117.865 187.976C120.088 206.286 122.51 225.333 129.447 240.027C132.925 247.39 137.372 253.282 141.343 259.917C151.758 277.313 158.87 300.097 161.433 324.271C161.884 328.521 162.219 332.925 163.502 336.672C165.44 342.34 169.447 348.959 166.838 353.822C162.693 339.205 155.686 326.886 147.139 319.189C154.091 328.74 153.048 348.981 160.463 357.514C163.088 360.54 166.562 361.743 168.486 365.983C170.539 370.507 170.085 376.814 169.536 382.405C164.483 385.14 159.686 377.892 155.726 372.006C151.765 366.119 145.333 361.169 141.6 367.454C140.679 357.443 136.251 348.548 130.51 345.173C130.744 350.304 130.51 354.746 129.776 359.746L129.78 359.752Z" fill="url(#paint1_linear_254_1441)"/>
<path d="M-52.6945 1210.01C-45.2974 1156.17 -37.9004 1102.34 -30.5033 1048.5C-33.3559 1074.08 -21.4046 1101.55 -5.84212 1105.19C-11.399 1069.87 -8.02198 1030.95 3.31598 999.648C9.69729 982.027 18.4993 966.633 22.9942 947.478C27.3012 929.131 27.3869 908.343 32.9075 890.908C38.428 873.472 53.4662 861.403 62.1263 874.892C63.9335 868.805 65.744 862.719 67.5512 856.632C71.9605 858.761 76.3664 860.895 80.7756 863.024C84.9836 826.892 95.0849 792.687 109.727 765C136.341 799.26 132.769 866.343 126.616 921.21C120.205 978.364 113.794 1035.52 107.383 1092.67C99.9756 1158.71 92.5159 1225.06 79.0013 1288.4C69.7344 1331.83 57.3016 1374.45 37.7718 1407.26C14.2615 1446.75 -32.0665 1487.16 -52.2558 1424.52C-72.9333 1360.37 -61.8591 1276.76 -52.6879 1210L-52.6945 1210.01Z" fill="url(#paint2_linear_254_1441)"/>
<path d="M223.465 180.023C224.765 224.767 245.009 262.977 247.572 307.574C248 315.018 247.944 322.702 249.569 329.676C251.886 339.618 257.289 346.734 260.201 356.234C266.743 377.572 259.217 403.791 262.4 427.137C265.565 450.373 278.682 466.651 283.167 489.282C284.914 498.1 285.51 508.281 289.623 514.574C293.736 520.867 302.789 516.696 301.486 507.67C305.918 519.782 310.347 531.888 314.78 544C325.55 464.077 328.281 379.786 315.379 300.736C305.754 241.77 286.885 185.956 259.576 144.522C252.85 134.313 232.524 103.334 221.342 115.991C215.215 122.927 222.991 163.816 223.462 180.023H223.465Z" fill="url(#paint3_linear_254_1441)"/>
<path d="M249.327 669.662C248.973 666.142 248.6 662.534 247.531 659.438C246.24 655.708 244.05 653.075 242.535 649.588C234.181 630.374 249.898 599.84 241.237 581C240.164 599.03 248.115 614.504 254.098 629.625C260.183 645.005 264.614 662.198 267.117 680.145C271.171 709.22 270.356 740.867 279 767C269.091 764.901 259.935 754.578 255.075 740.019C256.888 733.909 258.737 727.558 258.872 720.738C259.13 707.964 250.819 684.519 249.327 669.662V669.662Z" fill="url(#paint4_linear_254_1441)"/>
<path d="M-50.293 406.912C-62.3495 433.697 -55.4181 456.727 -60.0845 482.715C-57.1654 480.375 -54.2464 478.034 -51.3305 475.698C-46.5849 484.555 -52.367 500.264 -56.6697 513.98C-61.4413 529.195 -64.4578 544.21 -65.5911 558.427C-65.9125 562.46 -66.075 566.498 -65.0788 569.724C-64.159 572.699 -62.2919 574.836 -61.1767 577.648C-59.2387 582.526 -59.6545 589.126 -59.1895 595.077C-58.7246 601.028 -57.0217 606.804 -52.2078 608.013C-47.3939 609.223 -38.9103 603.328 -37.4702 596.556C-33.335 595.748 -30.0221 597.814 -29.1316 601.747C-24.8044 597.274 -18.864 596.559 -17.0695 600.293C-3.3834 584.678 11.0311 567.871 17.9425 549.362C23.2003 535.274 23.3644 522.094 23.4282 509.449C23.6068 473.425 23.7827 437.399 23.9581 401.38C24.0362 385.61 24.0159 369.37 18.025 358.007C10.3366 343.432 6.72424 329.48 -10.8552 349.659C-23.8752 364.606 -42.3084 389.17 -50.2962 406.916L-50.293 406.912Z" fill="url(#paint5_linear_254_1441)"/>
</g>
</g>
<defs>
<filter id="filter0_f_254_1441" x="-457" y="46" width="859.102" height="915.579" filterUnits="userSpaceOnUse" color-interpolation-filters="sRGB">
<feFlood flood-opacity="0" result="BackgroundImageFix"/>
<feBlend mode="normal" in="SourceGraphic" in2="BackgroundImageFix" result="shape"/>
<feGaussianBlur stdDeviation="38" result="effect1_foregroundBlur_254_1441"/>
</filter>
<filter id="filter1_f_254_1441" x="-393" y="110" width="731.102" height="787.579" filterUnits="userSpaceOnUse" color-interpolation-filters="sRGB">
<feFlood flood-opacity="0" result="BackgroundImageFix"/>
<feBlend mode="normal" in="SourceGraphic" in2="BackgroundImageFix" result="shape"/>
<feGaussianBlur stdDeviation="6" result="effect1_foregroundBlur_254_1441"/>
</filter>
<filter id="filter2_d_254_1441" x="-382.5" y="120" width="711.102" height="767.579" filterUnits="userSpaceOnUse" color-interpolation-filters="sRGB">
<feFlood flood-opacity="0" result="BackgroundImageFix"/>
<feColorMatrix in="SourceAlpha" type="matrix" values="0 0 0 0 0 0 0 0 0 0 0 0 0 0 0 0 0 0 127 0" result="hardAlpha"/>
<feOffset dx="0.5"/>
<feGaussianBlur stdDeviation="1"/>
<feComposite in2="hardAlpha" operator="out"/>
<feColorMatrix type="matrix" values="0 0 0 0 1 0 0 0 0 1 0 0 0 0 1 0 0 0 0.6 0"/>
<feBlend mode="normal" in2="BackgroundImageFix" result="effect1_dropShadow_254_1441"/>
<feBlend mode="normal" in="SourceGraphic" in2="effect1_dropShadow_254_1441" result="shape"/>
</filter>
<linearGradient id="paint0_linear_254_1441" x1="164" y1="392" x2="164" y2="720" gradientUnits="userSpaceOnUse">
<stop stop-color="#C0E0DD"/>
<stop offset="1" stop-color="#C0E0DD" stop-opacity="0"/>
</linearGradient>
<linearGradient id="paint1_linear_254_1441" x1="70.5" y1="101" x2="70.5" y2="383" gradientUnits="userSpaceOnUse">
<stop stop-color="#C0E0DD"/>
<stop offset="1" stop-color="#C0E0DD" stop-opacity="0"/>
</linearGradient>
<linearGradient id="paint2_linear_254_1441" x1="33.5" y1="765" x2="33.5" y2="1457" gradientUnits="userSpaceOnUse">
<stop stop-color="#C0E0DD"/>
<stop offset="1" stop-color="#C0E0DD" stop-opacity="0"/>
</linearGradient>
<linearGradient id="paint3_linear_254_1441" x1="219" y1="113" x2="343.687" y2="113" gradientUnits="userSpaceOnUse">
<stop stop-color="#C0E0DD"/>
<stop offset="1" stop-color="#C0E0DD" stop-opacity="0"/>
</linearGradient>
<linearGradient id="paint4_linear_254_1441" x1="231.643" y1="581" x2="305" y2="581" gradientUnits="userSpaceOnUse">
<stop stop-color="#C0E0DD"/>
<stop offset="1" stop-color="#C0E0DD" stop-opacity="0"/>
</linearGradient>
<linearGradient id="paint5_linear_254_1441" x1="-1.57422" y1="334.399" x2="125.943" y2="426.398" gradientUnits="userSpaceOnUse">
<stop stop-color="#C0E0DD"/>
<stop offset="1" stop-color="#C0E0DD" stop-opacity="0"/>
</linearGradient>
<clipPath id="clip0_254_1441">
<rect width="417" height="957" fill="white"/>
</clipPath>
</defs>
</svg>
