<svg width="594" height="453" viewBox="0 0 594 453" fill="none" xmlns="http://www.w3.org/2000/svg">
<g clip-path="url(#clip0_79_613)">
<path d="M240.39 140.77C237.81 143.47 238.45 150.02 238.45 150.02L265.6 173.13C265.6 173.13 783.22 452.51 785.88 450.58V411.11C785.88 407.82 280.78 143.61 280.78 143.61L246.13 135.22C246.13 135.22 240.46 138.56 239.79 142.23" fill="#D7E5DF"/>
<path d="M240.39 140.77C237.81 143.47 238.45 150.02 238.45 150.02L265.6 173.13C265.6 173.13 783.22 452.51 785.88 450.58V411.11C785.88 407.82 280.78 143.61 280.78 143.61L246.13 135.22C246.13 135.22 240.46 138.56 239.79 142.23" stroke="black" stroke-miterlimit="10"/>
<path d="M785.88 452.1V412.63C785.88 409.34 280.72 145.12 280.72 145.12L246.33 136.37C246.33 136.37 240.45 140.08 239.78 143.75" stroke="white" stroke-miterlimit="10"/>
<path d="M238.45 150.02L222.92 135.61C222.92 135.61 222.45 132.14 224.7 132.51C226.95 132.88 246.13 135.22 246.13 135.22L238.45 150.02Z" fill="#EBC16F"/>
<path d="M224.9 133.62C227.18 133.64 245.69 136.08 245.69 136.08" stroke="#FFE2AE" stroke-miterlimit="10"/>
<mask id="mask0_79_613" style="mask-type:alpha" maskUnits="userSpaceOnUse" x="221" y="132" width="26" height="19">
<path d="M238.45 150.02L222.92 135.61C222.92 135.61 221.14 132.49 224.7 132.51C226.98 132.53 246.13 135.22 246.13 135.22L238.45 150.02Z" fill="#D9D9D9" stroke="black" stroke-miterlimit="10"/>
</mask>
<g mask="url(#mask0_79_613)">
<path d="M225.75 132.66C225.75 132.66 227.13 135.71 224.04 136.64C220.95 137.57 218.79 134.1 218.79 133.72C218.79 133.34 224.33 130.62 224.33 130.62L225.76 132.65L225.75 132.66Z" fill="#766359" stroke="black" stroke-miterlimit="10"/>
</g>
<path d="M238.45 150.02L222.92 135.61C222.92 135.61 221.14 132.49 224.7 132.51C226.98 132.53 246.13 135.22 246.13 135.22L238.45 150.02V150.02Z" stroke="black" stroke-miterlimit="10"/>
<path d="M781.96 422.39L458.49 248.91" stroke="black" stroke-miterlimit="10"/>
<path d="M453.85 246.42L297.71 162.67" stroke="black" stroke-miterlimit="10"/>
<path d="M778.37 429.09L462.02 259.42" stroke="black" stroke-miterlimit="10"/>
<path d="M774.78 435.78L431.12 251.46" stroke="black" stroke-miterlimit="10"/>
<path d="M425.86 248.64L356.21 211.29" stroke="black" stroke-miterlimit="10"/>
<path d="M450.61 253.3L329.85 188.53" stroke="black" stroke-miterlimit="10"/>
<path d="M280.87 143.43C280.59 145.67 279.81 147.84 278.61 149.75" stroke="black" stroke-miterlimit="10"/>
<path d="M266.91 173.71L271.03 167" stroke="black" stroke-miterlimit="10"/>
<path d="M781.73 423.44L458.26 249.95" stroke="white" stroke-miterlimit="10"/>
<path d="M453.62 247.46L297.48 163.71" stroke="white" stroke-miterlimit="10"/>
<path d="M450.38 254.34L329.62 189.57" stroke="white" stroke-miterlimit="10"/>
<path d="M272.46 164.4C272.61 163.8 277.85 153.16 277.85 153.16" stroke="black" stroke-miterlimit="10"/>
<path d="M245.75 152.94L263.55 166.99" stroke="black" stroke-miterlimit="10"/>
<path d="M276.09 175.12L309.76 192.46" stroke="black" stroke-miterlimit="10"/>
<path d="M205.127 127.047C197.606 125.475 190.066 123.865 182.512 122.497C178.483 121.768 174.441 121.176 170.378 120.758C167.755 120.492 156.75 119.209 161.573 125.915C163.753 128.953 168.226 129.69 171.313 131.187C174.401 132.683 177.111 134.339 179.835 136.26C185.257 140.081 190.093 144.949 194.008 150.646C194.855 151.876 194.815 154.239 193.093 154.573C185.19 156.107 177.622 153.191 170.075 150.851C161.466 148.178 152.856 145.519 144.253 142.823C127.047 137.422 109.868 131.946 92.6146 126.758C88.2088 125.429 79.9825 124.275 79.3771 117.629C78.8323 111.621 85.155 108.985 89.2245 107.679C97.5517 105.005 106.235 103.311 114.765 101.64C119.049 100.805 123.354 100.068 127.659 99.4072C131.291 98.8452 135.24 98.7996 138.757 97.5539C140.035 97.1058 142.114 96.3614 142.154 94.5157C142.195 92.8144 139.988 91.508 138.912 90.8244C135.421 88.6065 131.607 86.9963 127.787 85.6519C120.637 83.1302 113.231 81.7174 105.845 80.449C98.4598 79.1805 91.2828 78.1324 84.099 76.3626C80.6349 75.512 77.191 74.5094 73.8345 73.2105C70.9624 72.1016 67.2764 70.9775 64.9288 68.714C63.0858 66.9291 62.319 64.0884 63.7248 61.6731C65.0365 59.4172 67.6665 58.8324 69.866 58.5589C78.617 57.4804 87.442 56.85 96.2132 56.0676C104.984 55.2853 113.776 54.5258 122.56 53.7586C126.421 53.4168 130.289 53.151 134.143 52.7636C136.027 52.5737 138.145 52.4218 139.773 51.1838C142.639 49.0115 141.724 46.0189 139.464 43.8238C133.363 37.8917 125.009 34.1852 117.623 30.8736C110.359 27.6151 102.98 24.6681 95.8701 20.9767C89.0362 17.4296 81.8591 13.1002 76.5789 6.92514C71.8099 1.35009 69.2404 -7.24035 73.7538 -14.0155C75.274 -16.2941 78.6843 -14.2358 77.2381 -11.7141C72.7718 -3.94393 79.8614 3.81861 85.0878 8.07205C90.6438 12.5837 96.832 16.0169 103.114 19.0399C115.673 25.0706 129.273 29.5596 140.54 38.5222C144.885 41.9781 148.39 47.5759 144.609 53.2345C140.594 59.2425 132.441 58.5969 126.515 59.0906C109.827 60.4958 93.146 61.8781 76.4511 63.1618C74.292 63.3289 72.005 63.3061 69.866 63.6707C69.866 63.6707 68.0095 63.9061 67.9288 64.1796C67.6329 65.1973 69.644 65.8202 70.1149 66.048C73.4512 67.6355 76.9556 68.8432 80.4533 69.8761C87.3747 71.9193 94.4576 73.1042 101.527 74.2511C115 76.431 129.872 78.1856 141.831 86.176C145.935 88.9179 149.278 94.736 145.289 99.506C141.3 104.276 133.592 103.843 128.271 104.587C119.836 105.772 111.422 107.261 103.067 109.038C98.9979 109.904 94.9621 110.945 90.8994 111.811C88.4039 112.342 81.3277 113.276 82.4578 117.887C83.4734 122.049 91.7066 123.052 94.6796 123.963L108.892 128.323C117.939 131.095 127.047 133.625 136.121 136.275C145.195 138.926 154.262 141.615 163.329 144.311C168.037 145.709 172.746 147.145 177.461 148.504C182.176 149.864 187.046 151.087 191.977 150.061L190.732 153.51C185.728 145.557 179.223 138.843 171.353 134.68C166.679 132.204 154.302 129.576 157.773 120.507C158.816 117.796 161.351 116.694 163.793 116.406C168.414 115.859 173.371 116.9 177.952 117.576C187.47 118.973 196.611 121.373 205.497 125.498C206.351 125.893 206.048 127.275 205.113 127.077L205.127 127.047Z" fill="#FF6237"/>
</g>
<defs>
<clipPath id="clip0_79_613">
<rect width="786.38" height="507.1" fill="white" transform="matrix(-1 0 0 1 786.38 -55)"/>
</clipPath>
</defs>
</svg>
