<?xml version="1.0" encoding="utf-8"?>
<!-- Generator: Adobe Illustrator 25.2.1, SVG Export Plug-In . SVG Version: 6.00 Build 0)  -->
<svg version="1.1" id="Layer_1" xmlns="http://www.w3.org/2000/svg" xmlns:xlink="http://www.w3.org/1999/xlink" x="0px" y="0px"
	 viewBox="0 0 803 501" style="enable-background:new 0 0 803 501;" xml:space="preserve">
<style type="text/css">
	.st0{fill-rule:evenodd;clip-rule:evenodd;fill:#FEF4C6;}
	.st1{fill-rule:evenodd;clip-rule:evenodd;fill:#FFFAE6;}
	.st2{fill:none;stroke:#D4B383;stroke-width:2;}
	.st3{fill-rule:evenodd;clip-rule:evenodd;fill:#DD5E3B;}
	.st4{fill-rule:evenodd;clip-rule:evenodd;fill:#D4B383;}
	.st5{fill:none;stroke:#D4B383;}
</style>
<path class="st0" d="M633.8,421.9H169.7c-24.5,0-44.3-19.8-44.3-44.3V44.3c0-24.4,19.8-44.3,44.3-44.3h464.1
	c24.5,0,44.3,19.8,44.3,44.3v333.3C678.1,402,658.3,421.9,633.8,421.9z"/>
<path class="st0" d="M797.7,500.2H5.9c-4.6,0-6.8-5.8-3.2-8.8l122.2-104.6c0.9-0.8,2.1-1.2,3.2-1.2h546.9c1.2,0,2.3,0.4,3.2,1.2
	l122.7,104.6C804.4,494.5,802.3,500.2,797.7,500.2z"/>
<path class="st1" d="M642.5,392.6H161.1c-9.7,0-17.5-7.8-17.5-17.5V46.8c0-9.7,7.8-17.5,17.5-17.5h481.5c9.7,0,17.5,7.8,17.5,17.5
	v328.3C660.1,384.8,652.2,392.6,642.5,392.6z"/>
<path class="st2" d="M642.5,392.6H161.1c-9.7,0-17.5-7.8-17.5-17.5V46.8c0-9.7,7.8-17.5,17.5-17.5h481.5c9.7,0,17.5,7.8,17.5,17.5
	v328.3C660.1,384.8,652.2,392.6,642.5,392.6z"/>
<path class="st3" d="M476.9,18.1H326.6c-1.5,0-2.7-1.2-2.7-2.7s1.2-2.7,2.7-2.7h150.3c1.5,0,2.7,1.2,2.7,2.7S478.4,18.1,476.9,18.1z
	"/>
<path class="st3" d="M316.4,18.1c-1.5,0-2.7-1.2-2.7-2.7s1.2-2.7,2.7-2.7c1.5,0,2.7,1.2,2.7,2.7S317.9,18.1,316.4,18.1z"/>
<path class="st3" d="M485.9,18.1c-1.5,0-2.7-1.2-2.7-2.7s1.2-2.7,2.7-2.7c1.5,0,2.7,1.2,2.7,2.7S487.4,18.1,485.9,18.1z"/>
<path class="st3" d="M395.5,403.6h-45c-0.7,0-1.4-0.6-1.4-1.4c0-0.7,0.6-1.4,1.4-1.4h45c0.7,0,1.4,0.6,1.4,1.4
	C396.9,403,396.3,403.6,395.5,403.6z"/>
<path class="st3" d="M458.8,403.6h-45c-0.7,0-1.4-0.6-1.4-1.4c0-0.7,0.6-1.4,1.4-1.4h45c0.7,0,1.4,0.6,1.4,1.4
	C460.1,403,459.5,403.6,458.8,403.6z"/>
<path class="st4" d="M669.2,413.6H126.8c-0.7,0-1.4-0.6-1.4-1.4c0-0.7,0.6-1.4,1.4-1.4h542.4c0.7,0,1.4,0.6,1.4,1.4
	C670.6,413,670,413.6,669.2,413.6z"/>
<path class="st5" d="M118.1,426.4l-60.1,56.5"/>
<path class="st5" d="M675,426.4l60.1,56.5"/>
<path class="st5" d="M143.5,64.2h516.5"/>
<path class="st5" d="M143.5,91.3h516.5"/>
<path class="st5" d="M143.5,118.4h516.5"/>
<path class="st5" d="M143.5,145.5h516.5"/>
<path class="st5" d="M143.5,172.6h516.5"/>
<path class="st5" d="M143.5,199.7h516.5"/>
<path class="st5" d="M143.5,226.7h516.5"/>
<path class="st5" d="M143.5,253.8h516.5"/>
<path class="st5" d="M143.5,280.9h516.5"/>
<path class="st5" d="M143.5,308h516.5"/>
<path class="st5" d="M143.5,335.1h516.5"/>
<path class="st5" d="M143.5,362.2h516.5"/>
<path class="st5" d="M469.5,29.3v363.3"/>
<path class="st5" d="M442.4,29.3v363.3"/>
<path class="st5" d="M496.5,30.5v363.3"/>
<path class="st5" d="M523.6,30.5v363.3"/>
<path class="st5" d="M415.3,29.3v363.3"/>
<path class="st5" d="M388.2,29.3v363.3"/>
<path class="st5" d="M361.1,29.3v363.3"/>
<path class="st5" d="M334,29.3v363.3"/>
<path class="st5" d="M306.9,29.3v363.3"/>
<path class="st5" d="M279.8,29.3v363.3"/>
<path class="st5" d="M252.7,29.3v363.3"/>
<path class="st5" d="M225.6,29.3v363.3"/>
<path class="st5" d="M198.5,29.3v363.3"/>
<path class="st5" d="M171.4,29.3v363.3"/>
<path class="st5" d="M550.7,30.5v363.3"/>
<path class="st5" d="M577.8,30.5v363.3"/>
<path class="st5" d="M604.9,30.5v363.3"/>
<path class="st5" d="M632,30.5v363.3"/>
<path class="st5" d="M703.8,453.4H89.3"/>
<path class="st5" d="M694.2,444.4H98.9"/>
<path class="st5" d="M684.6,435.4H108.5"/>
<path class="st5" d="M675,426.4H118.1"/>
<path class="st5" d="M713.4,462.5H79.7"/>
<path class="st5" d="M723,471.5H70.1"/>
</svg>
