<?xml version="1.0" encoding="utf-8"?>
<!-- Generator: Adobe Illustrator 25.2.1, SVG Export Plug-In . SVG Version: 6.00 Build 0)  -->
<svg version="1.1" id="Layer_1" xmlns="http://www.w3.org/2000/svg" xmlns:xlink="http://www.w3.org/1999/xlink" x="0px" y="0px"
	 viewBox="0 0 551.7 630.5" style="enable-background:new 0 0 551.7 630.5;" xml:space="preserve">
<style type="text/css">
	.st0{fill:none;stroke:#020202;stroke-miterlimit:10;}
	.st1{fill:#CE7E15;stroke:#282828;stroke-miterlimit:10;}
	.st2{fill:#F5A21E;stroke:#282828;stroke-miterlimit:10;}
	.st3{fill:url(#SVGID_1_);}
	.st4{clip-path:url(#SVGID_3_);}
	.st5{fill:#FFFFFF;stroke:#110D0D;stroke-miterlimit:10;}
	.st6{fill:#D7E7FF;stroke:#050505;stroke-miterlimit:10;}
	.st7{fill:#F05057;stroke:#110D0D;stroke-miterlimit:10;}
	.st8{fill:#FFFFFF;}
	.st9{opacity:0.8;fill:#C2F4FF;enable-background:new    ;}
	.st10{opacity:0.6;fill:#C2F4FF;enable-background:new    ;}
	.st11{opacity:0.4;fill:#C2F4FF;enable-background:new    ;}
	.st12{opacity:0.2;fill:#C2F4FF;enable-background:new    ;}
	.st13{fill:none;stroke:#282828;stroke-miterlimit:10;}
	.st14{fill:none;stroke:#FFFFFF;stroke-miterlimit:10;}
</style>
<path class="st0" d="M98.4,201.8h258.2"/>
<path class="st0" d="M340.7,235.1c35.1,0.7,70.1,0.5,105.2-0.6"/>
<path class="st0" d="M191.3,398.6c41.9,0.7,83.8,0.5,125.7-0.6"/>
<path class="st0" d="M147.8,48.4h288.4"/>
<path class="st0" d="M364.9,21.9h129.9"/>
<polygon class="st1" points="81.8,630 41,23.3 58.7,0.5 492.7,23.3 551.2,607.2 533.5,630 "/>
<polygon class="st2" points="98.9,607.2 58,0.5 509.7,0.5 550.6,607.2 "/>
<linearGradient id="SVGID_1_" gradientUnits="userSpaceOnUse" x1="213.0447" y1="3.7841" x2="357.5846" y2="482.4841" gradientTransform="matrix(1 0 0 -1 0 632)">
	<stop  offset="0.11" style="stop-color:#6CAFFF"/>
	<stop  offset="0.46" style="stop-color:#6CCBFF"/>
	<stop  offset="0.72" style="stop-color:#6CDCFF"/>
</linearGradient>
<polygon class="st3" points="138.9,572.3 104.9,43.7 480.6,43.7 514.6,572.3 "/>
<g>
	<defs>
		<polygon id="SVGID_2_" points="138.9,572.3 104.9,43.7 480.6,43.7 514.6,572.3 		"/>
	</defs>
	<clipPath id="SVGID_3_">
		<use xlink:href="#SVGID_2_"  style="overflow:visible;"/>
	</clipPath>
	<g class="st4">
		<path class="st5" d="M432.1,573c19.5-20.8,30-48.4,29.4-76.9c-1.2-59.6-49.6-107-108.1-105.8s-104.9,50.5-103.6,110.1
			c0.5,28.5,12.2,55.6,32.5,75.6L432.1,573z"/>
		<path class="st6" d="M272,527.6c23.3-15.1,23.8-22.9,87.3-27.5c28.7-2.1,70,13.7,97.5,26.8c0,0-4,24.3-24.8,46l-112.8,2.7
			l-34.8-36L272,527.6z"/>
		<path d="M391.4,445.4c-18.1-11.5-43.2-10.5-60.3,2.3s-24.4,37.9-18.4,58.5l17.7-3.9l24.4-2.4l20.6,0.3l25,4.2
			c3.3-6,5.5-15.3,5-22.1s-2.3-13.5-4-20c0.4,3.5-1.8,6.8-4.2,9.4c-3.2,3.5-7.6,6.8-12.3,6.2c-1.7-0.3-3.4-0.8-4.9-1.7
			c-2.9-1.3-5.4-3.3-7.2-5.9c-3.4-5.2-1.7-12.6,2.6-17s10.6-6.5,16.8-7.3"/>
		<path d="M391.8,444.8c-14.9-9.4-34.2-10.6-50.3-3.8c-7.8,3.3-14.7,8.5-19.9,15.2c-10.8,14.4-14.4,32.9-9.6,50.3
			c0.1,0.4,0.5,0.6,0.9,0.5c5.9-1.3,11.7-2.6,17.6-3.9c0.3-0.1-0.3,0,0.2,0l1.2-0.1l4.6-0.5l12.2-1.2c2.1-0.2,4.2-0.5,6.3-0.6
			c2.8-0.1,5.7,0.1,8.5,0.1l10.9,0.2h1c0,0-0.2,0,0.2,0l3.2,0.5l21,3.6l0.5,0.1c0.3,0.1,0.7-0.1,0.9-0.3c3.1-6,4.9-12.5,5.1-19.3
			c0.3-7.9-2.1-15.9-4.1-23.5c-0.2-0.8-1.5-0.7-1.5,0.2c0.4,5-4,9.6-7.8,12.3c-1.9,1.5-4.2,2.4-6.7,2.6c-2.6,0.1-5-1.1-7.3-2.4
			c-4.1-2.3-7.2-5.8-7.2-10.8c0.1-4.4,2.1-8.6,5.5-11.4c4.1-3.6,9.6-5.2,14.9-5.8c1-0.1,1-1.6,0-1.5c-5.4,0.7-10.7,2.2-15.1,5.5
			c-4,3-6.5,7.5-6.8,12.5c-0.3,5.3,2.6,9.5,7,12.2c2.3,1.6,4.9,2.7,7.7,3.1c2.6,0.2,5.2-0.5,7.5-1.9c2.6-1.6,4.9-3.7,6.8-6.1
			c1.9-2.4,3.4-5.2,3.1-8.3l-1.5,0.2c2,7.3,4.3,15,4.1,22.7c-0.2,6.6-1.9,13-4.9,18.9l0.9-0.3l-19.2-3.2c-2-0.3-4-0.8-6-1
			c-2.9-0.2-5.9-0.1-8.8-0.1c-5.1-0.2-10.3-0.2-15.4,0.2c-6.9,0.7-13.7,1.2-20.6,2c-2.2,0.3-4.5,1-6.7,1.4l-10.7,2.4l-0.7,0.2
			l0.9,0.5c-4.4-15.8-1.6-32.7,7.5-46.4c9.5-14.1,26-21.7,42.8-21.5c9.7,0.1,19.1,2.8,27.3,7.9C391.9,446.7,392.7,445.4,391.8,444.8
			L391.8,444.8z"/>
		<path class="st7" d="M340.3,574.9c0-0.8,0-1.6,0-2.5c-0.6-28.4-24.1-51-52.6-50.4c-28.4,0.6-51,24.1-50.4,52.6
			c0,0.8,0.1,1.7,0.1,2.5L340.3,574.9z"/>
		<path class="st8" d="M300.8,533.4c0.1,0,0.6,0.1,0.3,0c-0.3-0.1,0.3,0,0.4,0.1l0.9,0.2c1.7,0.4,3.3,0.9,4.9,1.6
			c5.4,2.4,10.1,6.1,13.6,10.8c3,4,5.5,8.4,7.2,13.1c0.7,1.8,3.6,1,2.9-0.8c-4.7-12.4-13.9-24.2-27.3-27.4c-1-0.2-1.9-0.4-2.9-0.5
			C298.9,530.2,298.9,533.2,300.8,533.4L300.8,533.4z"/>
		<path class="st5" d="M173.6,382.6c-30.4,0.6-60,13.6-80.9,32.5l3.4,165l177-3.8c40-53.6,29-129.5-24.6-169.5
			C226.9,390.6,200.6,382.1,173.6,382.6L173.6,382.6z"/>
		<path d="M235.8,422.3c-23.1-14.7-55.3-13.5-77.2,3c-21.9,16.4-31.2,48.5-23.5,74.8l16.8-4.8l5.8-0.2l13.6-3.3l18.2-0.4l27.3-0.6
			l31.9,5.4c4.2-7.7,5.5-18,4.9-26.7s-2.9-17.2-5.1-25.6c0.5,4.5-2.4,8.7-5.4,12c-4.1,4.5-9.7,8.6-15.8,7.9
			c-2.2-0.4-4.3-1.1-6.2-2.2c-3.6-1.8-7.1-4.1-9.2-7.5c-4.3-6.7-2.1-16.1,3.4-21.8s13.5-8.3,21.4-9.3"/>
		<path d="M236.2,421.7c-18.9-12-43.6-13.5-64.2-4.8c-10,4.2-18.8,10.9-25.5,19.5c-13.7,18.3-18.2,41.9-12.1,63.9
			c0.1,0.4,0.5,0.6,0.9,0.5l11.9-3.4c1.6-0.5,3.2-1,4.8-1.4c0.2,0-0.2,0-0.1,0c0.1,0,0.2,0,0.4,0c0.6,0,1.1,0,1.7,0
			c1.2,0,2.4,0,3.6-0.1c1.4-0.2,2.8-0.5,4.1-0.9l7.6-1.9c0.7-0.2,1.4-0.4,2.1-0.5c0.3-0.1-0.2,0,0,0h0.6l6.4-0.1l22.1-0.5l14.5-0.3
			h1.5c0.4,0-0.2-0.1,0.2,0c1.3,0.2,2.5,0.4,3.8,0.6l27.2,4.6l0.7,0.1c0.3,0.1,0.7-0.1,0.9-0.3c8.9-16.5,4.4-35.8-0.2-52.9
			c-0.2-0.8-1.6-0.7-1.5,0.2c0.3,3.4-1.2,6.4-3.2,9.1c-1.9,2.6-4.2,4.9-6.8,6.8c-2.4,1.9-5.4,3.1-8.5,3.4c-3.4,0.2-6.7-1.4-9.6-3.1
			c-2.8-1.4-5.2-3.5-7-6c-1.6-2.4-2.4-5.2-2.4-8c0.1-5.8,2.7-11.2,7.2-14.9c5.3-4.5,12.4-6.6,19.2-7.4c1-0.1,1-1.6,0-1.5
			c-6.7,0.9-13.5,2.7-19,6.9c-5,3.7-8.2,9.4-8.8,15.6c-0.2,3,0.4,5.9,1.7,8.6c1.7,2.9,4.1,5.4,7,7.1c2.9,1.8,6.3,3.6,9.8,4
			c3.3,0.3,6.5-0.5,9.3-2.3c3.3-2,6.2-4.7,8.6-7.7c2.4-3,4.4-6.6,4-10.6l-1.5,0.2c4.5,16.6,9,35.6,0.4,51.8l0.9-0.3l-24.9-4.2
			c-2.4-0.6-4.9-1-7.4-1.2c-3.9-0.2-7.9,0.2-11.8,0.2l-22.4,0.5l-7.9,0.2c-1.1,0-2.3,0-3.4,0.1c-1.9,0.3-3.8,0.9-5.7,1.4l-7,1.7
			c-0.2,0.1-0.5,0.1-0.7,0.2h0.1c-0.1,0-0.2,0-0.4,0c-1.2,0-2.5,0.1-3.7,0.1c-1.2,0-2.4,0.2-3.6,0.6l-14,4l-1.2,0.3l0.9,0.5
			c-5.7-19.8-2-42.2,9.5-59.3c5.9-8.7,13.9-15.8,23.3-20.5c9.9-4.9,20.7-7.3,31.8-7.1c12.4,0.1,24.5,3.6,35.1,10.1
			C236.2,423.5,237,422.2,236.2,421.7L236.2,421.7z"/>
		<path class="st6" d="M296,516.5c-57.6-37.5-141.8-32.2-201.2-0.3l1.3,63.8l176.9-3.6c0,0,4.3-6,7.3-10.9s9.6-18.8,9.9-21
			c0.1-1,1.9-4.7,3.2-9.8c1.5-5.9,2.5-11.8,3.2-17.8"/>
		<path class="st8" d="M284.3,521.2c0,0.6,0,1.3,0,1.9c-0.1,1.7-0.3,3.5-0.6,5.2c-1.5,7.3-4,14.3-7.4,20.9
			c-3.1,6-6.6,11.8-10.6,17.3c-1.1,1.6,1.5,3.1,2.6,1.5c6.2-8.9,11.8-18.4,15.5-28.7c1.9-5,3.1-10.3,3.5-15.7c0.1-0.8,0.1-1.6,0-2.5
			C287.1,519.3,284.1,519.3,284.3,521.2L284.3,521.2z"/>
		<path class="st8" d="M443.9,532.1C443.9,532.5,443.9,532,443.9,532.1c-0.1,0.4-0.1,0.7-0.2,1.1c-0.3,1.4-0.7,2.8-1.1,4.2
			c-1.8,5.4-4.2,10.5-7.2,15.3c-2.6,4.2-5.4,8.2-8.5,12c-1.2,1.5,0.9,3.6,2.1,2.1c5.2-6.3,9.6-13.1,13.2-20.4
			c1.9-3.8,3.4-7.8,4.3-12c0.2-0.8,0.3-1.5,0.4-2.3C447,530.2,444,530.2,443.9,532.1L443.9,532.1z"/>
		<path class="st9" d="M505,324.6c-1.2-33.2,0.9-66.6-2.8-99.6c-1.4-0.9-2.7-2.1-3.9-3.4c-11.1-12.5,2.3-24.5-8.9-37
			s-24.6-0.5-35.7-13s2.3-24.5-8.9-37s-24.6-0.5-35.7-13s2.3-24.5-8.9-37s-24.6-0.5-35.7-13c-9.2-10.3-1.7-20.3-5-30.4H245.3
			c0.4,0.3,0.7,0.7,1.1,1.1c11.2,12.5-2.3,24.5,8.9,37c11.2,12.5,24.6,0.5,35.7,13s-2.3,24.5,8.9,37s24.6,0.5,35.7,13
			s-2.3,24.5,8.9,37s24.6,0.5,35.7,13s-2.3,24.5,8.9,37s24.6,0.5,35.7,13s-2.3,24.5,8.9,37s24.6,0.5,35.7,13s-2.3,24.5,8.9,37
			c8.4,9.4,18.1,5,27.1,7.5C505.3,332.7,505.1,328.7,505,324.6z"/>
		<path class="st10" d="M516.3,445.8c-0.7-6.1-1.3-12.2-2-18.3c-11.8-13.4,1.5-25.3-10.4-38.7c-12-13.4-25.4-1.4-37.4-14.9
			s1.4-25.4-10.5-38.8s-25.4-1.4-37.4-14.9s1.4-25.4-10.5-38.8s-25.4-1.4-37.4-14.9s1.4-25.4-10.5-38.8s-25.4-1.4-37.4-14.9
			s1.4-25.4-10.5-38.8s-25.4-1.4-37.4-14.9s1.4-25.4-10.5-38.8s-25.4-1.4-37.4-14.9s1.4-25.4-10.6-38.8s-25.4-1.4-37.4-14.9
			c-2.7-2.9-4.5-6.6-5.1-10.5H144c6.6,11.8-3.1,22.7,7.6,34.8c12,13.4,25.4,1.4,37.4,14.9s-1.4,25.4,10.6,38.8s25.4,1.4,37.4,14.9
			s-1.4,25.4,10.6,38.8s25.4,1.4,37.4,14.9s-1.4,25.4,10.5,38.8s25.4,1.4,37.4,14.9s-1.4,25.4,10.5,38.8s25.4,1.4,37.4,14.9
			s-1.4,25.4,10.6,38.8s25.4,1.4,37.4,14.9s-1.4,25.4,10.5,38.8s25.4,1.4,37.4,14.9s-1.4,25.4,10.6,38.8c9.9,11.1,20.8,4.8,31,9.9
			C517.7,456.5,517,451.1,516.3,445.8z"/>
		<path class="st11" d="M511.5,515.2c-10.7-6.4-22.1,0.9-32.5-10.8c-12.1-13.5,1.4-25.5-10.7-39s-25.5-1.5-37.5-15s1.4-25.5-10.7-39
			s-25.5-1.5-37.5-15s1.4-25.5-10.7-39s-25.5-1.5-37.5-15s1.4-25.5-10.7-39s-25.5-1.5-37.5-15s1.4-25.5-10.7-39s-25.5-1.5-37.5-15
			s1.4-25.5-10.7-39s-25.5-1.5-37.5-15s1.4-25.5-10.7-39s-25.5-1.5-37.5-15s1.4-25.5-10.7-39c-7.7-8.6-16-6.8-24.1-8
			c0.3,4.6,0.7,9.2,1,13.9c3.7,1.1,7.1,3.3,9.6,6.2c12.1,13.5-1.4,25.5,10.7,39s25.5,1.5,37.5,15s-1.4,25.5,10.7,39
			c12.1,13.5,25.5,1.5,37.5,15s-1.4,25.5,10.6,39s25.5,1.5,37.5,15c12.1,13.5-1.4,25.5,10.7,39s25.5,1.5,37.5,15s-1.4,25.5,10.7,39
			s25.5,1.5,37.5,15s-1.4,25.5,10.7,39s25.5,1.5,37.5,15s-1.4,25.5,10.7,39s25.5,1.5,37.5,15s-1.4,25.5,10.7,39
			c12,13.5,25.5,1.5,37.5,15c12.1,13.5-1.4,25.5,10.7,39c0.4,0.5,0.9,0.9,1.3,1.3C514.5,552.9,511.6,534.1,511.5,515.2z"/>
		<path class="st12" d="M471,579.1c-19.2-47.9-43.2-39.5-51.8-49.8c-10-12,1.1-22.6-8.9-34.6s-21.2-1.3-31.2-13.3s1.2-22.6-8.8-34.6
			s-21.1-1.3-31.2-13.3s1.1-22.6-8.9-34.6s-21.1-1.4-31.2-13.3s1.1-22.6-8.9-34.6s-21.1-1.3-31.2-13.3s1.1-22.6-8.9-34.6
			s-21.2-1.3-31.2-13.3s1.1-22.6-8.9-34.6s-21.1-1.3-31.2-13.3s1.1-22.6-8.9-34.6s-21.1-1.3-31.2-13.3s1.1-22.6-8.9-34.6
			c-6.4-7.7-13.3-6.1-20-7.1c0.3,4.1,0.5,8.2,0.8,12.3c3.2,1,5.9,2.9,8,5.6c10,12-1.1,22.6,8.9,34.6s21.2,1.4,31.2,13.3
			s-1.1,22.6,8.9,34.6s21.1,1.3,31.1,13.3s-1.1,22.6,8.9,34.6s21.1,1.4,31.2,13.4s-1.1,22.6,8.9,34.6c10,12,21.1,1.4,31.2,13.4
			s-1.1,22.6,8.9,34.6s21.2,1.4,31.2,13.3s-1.1,22.6,8.9,34.6s21.1,1.3,31.1,13.3s-1.1,22.6,8.9,34.6s21.1,1.3,31.2,13.3
			c10,12-1.1,22.6,8.9,34.6s21.1,1.3,31.2,13.3S438,576,448,588c0.4,0.4,0.7,0.8,1.1,1.2C448.7,572.3,471.1,595.9,471,579.1z"/>
	</g>
</g>
<polygon class="st13" points="138.9,572.3 104.9,43.7 480.6,43.7 514.6,572.3 "/>
<polyline class="st14" points="305.2,9.9 503.4,9.3 514.8,193.7 "/>
</svg>
