<svg xmlns="http://www.w3.org/2000/svg" width="22" height="22"><path d="M10.505 5.61a5.38 5.38 0 0 1 5.386 5.386 5.38 5.38 0 0 1-5.386 5.386 5.38 5.38 0 0 1-5.386-5.386 5.38 5.38 0 0 1 5.386-5.386zm0 8.887a3.51 3.51 0 0 0 3.502-3.502c0-1.93-1.57-3.502-3.502-3.502s-3.502 1.57-3.502 3.502a3.51 3.51 0 0 0 3.502 3.502zm6.863-9.108c0 .698-.562 1.256-1.256 1.256s-1.256-.562-1.256-1.256.562-1.256 1.256-1.256 1.256.562 1.256 1.256zm3.567 1.275c.098 1.734.098 6.928 0 8.662-.084 1.683-.47 3.173-1.697 4.402s-2.72 1.617-4.402 1.697c-1.734.098-6.933.098-8.667 0-1.683-.084-3.17-.47-4.402-1.697S.15 17.01.07 15.327c-.098-1.734-.098-6.933 0-8.667.084-1.683.464-3.173 1.697-4.402S4.49.645 6.17.566c1.734-.098 6.933-.098 8.667 0 1.683.084 3.173.47 4.402 1.697s1.617 2.72 1.697 4.402zm-2.24 10.523c.548-1.378.422-4.664.422-6.192s.127-4.81-.422-6.192c-.37-.923-1.078-1.63-1.997-1.997-1.378-.544-4.664-.422-6.192-.422s-4.81-.127-6.192.422c-.923.37-1.63 1.078-1.997 1.997-.544 1.378-.422 4.664-.422 6.192s-.127 4.81.422 6.192c.37.923 1.078 1.63 1.997 1.997 1.378.544 4.664.422 6.192.422s4.81.127 6.192-.422c.923-.37 1.63-1.078 1.997-1.997z" fill="#ffb24b" fill-rule="nonzero"/></svg>