<svg width="803" height="501" viewBox="0 0 803 501" fill="none" xmlns="http://www.w3.org/2000/svg">
<path fill-rule="evenodd" clip-rule="evenodd" d="M633.844 421.855H169.741C145.282 421.855 125.453 402.04 125.453 377.595V44.2604C125.453 19.8157 145.282 0 169.741 0H633.844C658.303 0 678.131 19.8157 678.131 44.2604V377.595C678.131 402.04 658.303 421.855 633.844 421.855Z" fill="#FEF4C6"/>
<path fill-rule="evenodd" clip-rule="evenodd" d="M797.673 500.233H5.86434C1.2335 500.233 -0.896739 494.474 2.6211 491.464L124.796 386.898C125.7 386.125 126.85 385.7 128.04 385.7H674.927C676.112 385.7 677.259 386.121 678.162 386.89L800.908 491.456C804.436 494.462 802.31 500.233 797.673 500.233Z" fill="#FEF4C6"/>
<path fill-rule="evenodd" clip-rule="evenodd" d="M642.532 392.599H161.053C151.37 392.599 143.521 384.755 143.521 375.079V46.7773C143.521 37.1005 151.37 29.2566 161.053 29.2566H642.532C652.215 29.2566 660.064 37.1005 660.064 46.7773V375.079C660.064 384.755 652.215 392.599 642.532 392.599Z" fill="#FFFAE6"/>
<path fill-rule="evenodd" clip-rule="evenodd" d="M642.532 392.599H161.053C151.37 392.599 143.521 384.755 143.521 375.079V46.7773C143.521 37.1005 151.37 29.2566 161.053 29.2566H642.532C652.215 29.2566 660.064 37.1005 660.064 46.7773V375.079C660.064 384.755 652.215 392.599 642.532 392.599Z" stroke="#D4B383" stroke-width="2"/>
<path fill-rule="evenodd" clip-rule="evenodd" d="M476.939 18.1329H326.646C325.149 18.1329 323.936 16.9203 323.936 15.4243C323.936 13.9283 325.149 12.7158 326.646 12.7158H476.939C478.436 12.7158 479.649 13.9283 479.649 15.4243C479.649 16.9203 478.436 18.1329 476.939 18.1329Z" fill="#DD5E3B"/>
<path fill-rule="evenodd" clip-rule="evenodd" d="M316.443 18.1329C314.946 18.1329 313.732 16.9203 313.732 15.4243C313.732 13.9283 314.946 12.7158 316.443 12.7158C317.94 12.7158 319.153 13.9283 319.153 15.4243C319.153 16.9203 317.94 18.1329 316.443 18.1329Z" fill="#DD5E3B"/>
<path fill-rule="evenodd" clip-rule="evenodd" d="M485.872 18.1329C484.376 18.1329 483.162 16.9203 483.162 15.4243C483.162 13.9283 484.376 12.7158 485.872 12.7158C487.369 12.7158 488.583 13.9283 488.583 15.4243C488.583 16.9203 487.369 18.1329 485.872 18.1329Z" fill="#DD5E3B"/>
<path fill-rule="evenodd" clip-rule="evenodd" d="M395.53 403.619H350.57C349.821 403.619 349.215 403.012 349.215 402.264C349.215 401.516 349.821 400.91 350.57 400.91H395.53C396.278 400.91 396.886 401.516 396.886 402.264C396.886 403.012 396.278 403.619 395.53 403.619Z" fill="#DD5E3B"/>
<path fill-rule="evenodd" clip-rule="evenodd" d="M458.769 403.619H413.808C413.059 403.619 412.453 403.012 412.453 402.264C412.453 401.516 413.059 400.91 413.808 400.91H458.769C459.517 400.91 460.124 401.516 460.124 402.264C460.124 403.012 459.517 403.619 458.769 403.619Z" fill="#DD5E3B"/>
<path fill-rule="evenodd" clip-rule="evenodd" d="M669.236 413.632H126.808C126.06 413.632 125.453 413.025 125.453 412.278C125.453 411.529 126.06 410.923 126.808 410.923H669.236C669.984 410.923 670.591 411.529 670.591 412.278C670.591 413.025 669.984 413.632 669.236 413.632Z" fill="#D4B383"/>
<path d="M118.145 426.353L58.0942 482.824" stroke="#D4B383"/>
<path d="M675.001 426.353L735.053 482.824" stroke="#D4B383"/>
<path d="M143.521 64.2355H660.063" stroke="#D4B383"/>
<path d="M143.521 91.321H660.063" stroke="#D4B383"/>
<path d="M143.521 118.406H660.063" stroke="#D4B383"/>
<path d="M143.521 145.492H660.063" stroke="#D4B383"/>
<path d="M143.521 172.577H660.063" stroke="#D4B383"/>
<path d="M143.521 199.663H660.063" stroke="#D4B383"/>
<path d="M143.521 226.748H660.063" stroke="#D4B383"/>
<path d="M143.521 253.834H660.063" stroke="#D4B383"/>
<path d="M143.521 280.919H660.063" stroke="#D4B383"/>
<path d="M143.521 308.005H660.063" stroke="#D4B383"/>
<path d="M143.521 335.09H660.063" stroke="#D4B383"/>
<path d="M143.521 362.176H660.063" stroke="#D4B383"/>
<path d="M469.548 29.2562V392.599" stroke="#D4B383"/>
<path d="M442.446 29.2562V392.599" stroke="#D4B383"/>
<path d="M496.54 30.4685V393.81" stroke="#D4B383"/>
<path d="M523.642 30.4685V393.81" stroke="#D4B383"/>
<path d="M415.344 29.2562V392.599" stroke="#D4B383"/>
<path d="M388.242 29.2562V392.599" stroke="#D4B383"/>
<path d="M361.14 29.2562V392.599" stroke="#D4B383"/>
<path d="M334.038 29.2562V392.599" stroke="#D4B383"/>
<path d="M306.936 29.2562V392.599" stroke="#D4B383"/>
<path d="M279.834 29.2562V392.599" stroke="#D4B383"/>
<path d="M252.732 29.2562V392.599" stroke="#D4B383"/>
<path d="M225.63 29.2562V392.599" stroke="#D4B383"/>
<path d="M198.528 29.2562V392.599" stroke="#D4B383"/>
<path d="M171.426 29.2562V392.599" stroke="#D4B383"/>
<path d="M550.744 30.4685V393.81" stroke="#D4B383"/>
<path d="M577.846 30.4685V393.81" stroke="#D4B383"/>
<path d="M604.948 30.4685V393.81" stroke="#D4B383"/>
<path d="M632.05 30.4685V393.81" stroke="#D4B383"/>
<path d="M480.892 205.892L488.141 213.034" stroke="#D4B383"/>
<path d="M488.09 205.841L480.942 213.085" stroke="#D4B383"/>
<path d="M703.805 453.438H89.3428" stroke="#D4B383"/>
<path d="M694.203 444.41H98.9434" stroke="#D4B383"/>
<path d="M684.603 435.381H108.544" stroke="#D4B383"/>
<path d="M675.001 426.353H118.145" stroke="#D4B383"/>
<path d="M713.405 462.467H79.7422" stroke="#D4B383"/>
<path d="M723.006 471.495H70.1421" stroke="#D4B383"/>
</svg>
