<svg width="50" height="11" viewBox="0 0 50 11" fill="none" xmlns="http://www.w3.org/2000/svg">
<g clip-path="url(#clip0)">
<path d="M0.00878906 0H10.755V1.99659H2.93635V4.40535H7.65856V6.24671H2.93635V10.7966H0.00878906V0Z" fill="#FFD24B"/>
<path d="M7.61719 6.78467L10.5447 6.39927C10.5611 8.21922 11.0703 9.02749 12.1787 9.02749C13.1346 9.02749 13.6439 8.47348 13.6439 7.33869V0H16.5714V7.57153C16.5714 9.83041 15.0409 11.0027 12.1461 11.0027C9.16403 11.0027 7.63353 9.68321 7.61719 6.78467Z" fill="#FFD24B"/>
<path d="M20.7052 0H24.2755L28.001 10.7939H24.94L24.3681 9.01946H20.4329L19.861 10.7939H16.9961L20.7052 0ZM23.9051 7.24769L23.1453 4.68102C22.873 3.80851 22.6905 3.09124 22.4863 2.18929H22.3202C22.1241 3.09124 21.9362 3.80851 21.6774 4.68637L20.9095 7.24769H23.9051Z" fill="#FFD24B"/>
<path d="M28.8531 0H31.7779V2.32847C31.7892 3.10327 31.7078 3.87669 31.5356 4.63285L31.6772 4.70243L35.5824 0H38.6788L35.1031 4.218L38.736 10.7939H35.566L33.1151 6.03795L31.7725 7.52336V10.7939H28.8477L28.8531 0Z" fill="#FFD24B"/>
<path d="M42.7039 0H46.2742L49.9997 10.7939H46.9414L46.3695 9.01946H42.4371L41.8651 10.7939H39.0029L42.7039 0ZM45.9065 7.24769L45.144 4.68102C44.8717 3.80851 44.6892 3.09124 44.485 2.18929H44.3216C44.1255 3.09124 43.9376 3.80851 43.6789 4.68637L42.9082 7.24769H45.9065Z" fill="#FFD24B"/>
</g>
<defs>
<clipPath id="clip0">
<rect width="50" height="11" fill="white"/>
</clipPath>
</defs>
</svg>
