<svg width="483" height="395" viewBox="0 0 483 395" fill="none" xmlns="http://www.w3.org/2000/svg">
<g clip-path="url(#clip0)">
<path d="M67.5722 266.819C68.3623 267.759 69.2787 268.668 70.3137 269.537C71.3486 270.406 71.8938 270.88 71.957 270.951C72.6601 271.788 72.5416 273.076 71.6094 274.829C70.6771 276.583 69.1365 278.36 66.9876 280.161C66.0633 280.935 65.2258 281.346 64.4595 281.401C63.701 281.449 63.0295 281.133 62.4449 280.438C62.1289 280.066 61.9471 279.64 61.8997 279.166C61.8523 278.692 61.9313 277.989 62.1447 277.057C62.1921 276.859 62.2632 276.583 62.3422 276.212C62.7451 274.813 62.832 273.7 62.6108 272.854C62.3422 271.78 61.8286 270.619 61.0623 269.387C60.296 268.154 59.103 266.567 57.4755 264.631C55.7137 262.538 54.4575 261.219 53.707 260.666C52.9565 260.113 52.3165 259.955 51.7872 260.192C51.1552 260.453 50.0412 261.172 48.4532 262.356C46.8573 263.541 44.9533 265.066 42.7333 266.93C41.493 267.973 41.7458 269.537 43.4839 271.606C45.3326 273.81 46.6756 275.09 47.5052 275.445C48.3347 275.809 49.3302 275.698 50.4836 275.122C50.8471 274.94 51.3369 274.648 51.9689 274.237C53.7149 273.076 55.0659 273.06 56.0218 274.197C56.8593 275.193 56.8435 276.401 55.9823 277.823C55.1212 279.245 53.1698 281.228 50.136 283.779C46.7309 286.639 44.2502 288.361 42.7175 288.945C41.1769 289.53 39.9524 289.277 39.0438 288.195C38.1906 287.184 38.4434 285.959 39.7786 284.529C40.3553 283.921 40.7819 283.431 41.0426 283.06C41.809 282.025 42.0776 281.07 41.8564 280.193C41.6352 279.316 40.616 277.799 38.7989 275.635L38.2617 274.995C37.2346 273.771 36.4999 273.131 36.0575 273.076C35.615 273.02 34.7934 273.502 33.5846 274.513C29.4132 278.021 26.7824 280.295 25.7 281.346C24.6098 282.397 24.0014 283.163 23.8592 283.645C23.7249 284.063 23.8197 284.766 24.1436 285.77C24.2779 286.141 24.3648 286.433 24.4123 286.631C24.6414 287.436 24.6888 288.092 24.5782 288.582C24.4597 289.071 24.1357 289.545 23.6064 289.988C22.5557 290.865 21.3943 290.928 20.1065 290.177C18.8188 289.427 16.5592 287.12 13.328 283.273C10.1678 279.513 8.31119 276.907 7.76607 275.461C7.22094 274.016 7.45795 272.862 8.485 271.993C9.42515 271.203 10.6102 271.117 12.0481 271.725C13.486 272.333 14.3313 272.633 14.5999 272.625C15.1925 272.578 16.9069 271.488 19.7352 269.355C22.5636 267.222 26.2609 264.236 30.8432 260.39C34.4616 257.348 37.3057 254.836 39.3677 252.862C41.4298 250.887 42.5358 249.607 42.6859 249.03C42.7649 248.722 42.6148 247.822 42.2514 246.329C41.888 244.836 42.1724 243.691 43.1204 242.901C44.1001 242.079 45.143 241.961 46.249 242.545C47.3551 243.13 49.5356 245.349 52.7906 249.22L67.5722 266.819Z" fill="#016556"/>
<path d="M71.4514 310.557C71.009 311.095 70.4244 311.837 69.6738 312.769C68.9312 313.701 68.4098 314.365 68.1095 314.744C66.3636 316.995 65.0758 318.749 64.262 320.013C63.4483 321.269 63.0217 322.153 62.9822 322.651C62.9664 322.904 63.2824 323.725 63.9381 325.131C64.5939 326.538 64.5465 327.722 63.7959 328.694C62.9585 329.776 61.7418 330.045 60.1538 329.5C58.5658 328.955 56.0061 327.312 52.4667 324.571C48.8246 321.743 46.5493 319.641 45.6328 318.259C44.7243 316.877 44.6927 315.637 45.5459 314.539C46.2965 313.567 47.442 313.227 48.9747 313.528C50.5074 313.82 51.4002 313.938 51.6609 313.867C52.2376 313.693 53.6755 312.272 55.9903 309.594C58.3051 306.916 61.2915 303.211 64.9652 298.487C67.8646 294.751 70.1162 291.702 71.72 289.34C73.3238 286.97 74.1376 285.493 74.1613 284.893C74.1692 284.577 73.8373 283.724 73.1737 282.341C72.5022 280.959 72.5417 279.774 73.3001 278.81C73.9796 277.934 74.8881 277.562 76.01 277.705C77.1318 277.847 78.4433 278.495 79.9523 279.664C80.9398 280.43 82.1012 281.362 83.4285 282.444C84.7557 283.534 85.609 284.229 85.9961 284.522C87.4024 285.62 89.3459 287.034 91.8266 288.779C94.2994 290.525 96.0217 291.773 96.9935 292.524C101.592 296.094 104.349 299.704 105.273 303.377C106.197 307.042 105.265 310.668 102.484 314.262C100.47 316.861 98.0284 318.575 95.1764 319.397C92.3243 320.218 89.5513 319.997 86.8651 318.733C86.6992 318.757 86.5965 318.773 86.5333 318.788C86.4701 318.804 86.4385 318.82 86.4306 318.836C86.399 318.875 86.3832 318.923 86.3753 318.994C86.3674 319.057 86.3753 319.175 86.3911 319.341C87.1259 320.321 87.6947 321.292 88.0818 322.264C88.4768 323.228 88.7296 324.223 88.8402 325.25C88.9034 326 88.8876 326.782 88.7849 327.588C88.6901 328.394 88.5005 329.215 88.2319 330.061C87.8922 331.174 87.2681 332.723 86.3516 334.697C85.4352 336.672 84.9137 338.118 84.7794 339.042C84.6767 340.045 85.0954 341.151 86.0356 342.352C86.2647 342.62 86.4464 342.841 86.5649 343.031C87.0389 343.75 87.2839 344.366 87.3234 344.895C87.3629 345.425 87.1733 345.938 86.7782 346.451C85.9408 347.534 84.653 347.897 82.9307 347.557C81.2005 347.21 79.2412 346.191 77.0449 344.485C75.5991 343.363 74.4773 342.225 73.6793 341.08C72.8814 339.935 72.3837 338.75 72.1783 337.541C71.8227 335.416 72.5496 332.138 74.3509 327.699C74.7538 326.688 75.054 325.937 75.2594 325.455C76.721 321.601 77.2819 318.788 76.9422 317.011C76.6025 315.234 75.3147 313.48 73.071 311.742C72.6523 311.411 72.3205 311.174 72.0993 311.008C71.8622 310.818 71.6489 310.676 71.4514 310.557ZM77.5268 302.729L75.9468 304.759C76.2628 305.067 76.6025 305.368 76.958 305.676C77.3135 305.976 77.835 306.402 78.5302 306.94C81.4613 309.215 83.9894 310.368 86.1146 310.407C88.2398 310.447 90.1517 309.373 91.8424 307.192C93.4304 305.139 94.0387 303.077 93.6595 300.991C93.2803 298.906 91.9372 296.971 89.6303 295.178C88.4926 294.293 87.5841 293.772 86.9046 293.614C86.2252 293.448 85.5695 293.582 84.9453 294.009C84.4871 294.301 83.8156 294.941 82.9307 295.944C82.0617 296.955 80.2604 299.214 77.5268 302.729Z" fill="#016556"/>
<path d="M129.978 313.693C133.991 315.826 136.551 317.493 137.657 318.686C138.771 319.878 139 321.095 138.344 322.319C137.767 323.401 136.709 323.923 135.168 323.883C133.628 323.836 132.711 323.899 132.419 324.057C131.913 324.318 130.91 325.661 129.409 328.086C127.908 330.519 126.043 333.821 123.823 337.991C121.011 343.268 118.862 347.518 117.369 350.725C115.875 353.932 115.156 355.82 115.228 356.381C115.259 356.665 115.725 357.439 116.626 358.719C117.527 359.998 117.685 361.175 117.108 362.258C116.468 363.466 115.314 363.94 113.655 363.672C111.996 363.403 109.207 362.226 105.273 360.141C101.323 358.04 98.771 356.373 97.6254 355.148C96.4799 353.924 96.2271 352.708 96.867 351.499C97.4437 350.417 98.5024 349.88 100.043 349.903C101.584 349.919 102.476 349.88 102.713 349.769C103.227 349.493 104.404 347.842 106.237 344.808C108.07 341.783 110.392 337.628 113.205 332.351C115.425 328.173 117.124 324.784 118.301 322.185C119.478 319.578 120.023 317.983 119.944 317.39C119.913 317.114 119.454 316.34 118.569 315.084C117.685 313.828 117.534 312.659 118.111 311.576C118.767 310.352 119.92 309.87 121.572 310.147C123.223 310.407 126.027 311.592 129.978 313.693Z" fill="#016556"/>
<path d="M175.263 332.778C176.424 333.181 177.673 333.489 179.008 333.702C180.343 333.915 181.054 334.042 181.141 334.073C182.168 334.429 182.729 335.598 182.824 337.573C182.911 339.555 182.5 341.87 181.591 344.516C181.196 345.654 180.69 346.444 180.058 346.878C179.434 347.312 178.7 347.384 177.87 347.099C176.993 346.799 176.337 345.875 175.903 344.327C175.468 342.778 175.136 341.83 174.915 341.483C174.291 340.511 173.304 339.627 171.953 338.829C170.594 338.031 168.634 337.194 166.075 336.309C163.112 335.29 161.169 334.737 160.228 334.642C159.288 334.555 158.656 334.745 158.317 335.219C157.921 335.724 157.345 336.886 156.594 338.726C155.836 340.559 154.983 342.873 154.027 345.654C153.497 347.186 154.516 348.395 157.076 349.279C159.794 350.219 161.595 350.622 162.488 350.496C163.373 350.369 164.179 349.769 164.89 348.695C165.103 348.355 165.364 347.85 165.664 347.194C166.588 345.282 167.758 344.571 169.164 345.053C170.388 345.48 170.997 346.523 170.989 348.181C170.981 349.848 170.325 352.55 169.037 356.294C167.584 360.504 166.351 363.253 165.332 364.541C164.313 365.828 163.128 366.247 161.793 365.789C160.521 365.354 160.102 364.177 160.544 362.266C160.726 361.444 160.837 360.812 160.868 360.354C160.971 359.066 160.702 358.103 160.078 357.471C159.454 356.839 157.803 356.057 155.125 355.141L154.73 355.006C153.023 354.414 151.965 354.185 151.57 354.303C151.175 354.422 150.78 355.054 150.384 356.191L149.895 357.605C148.836 360.67 148.07 363.087 147.604 364.849C147.13 366.61 146.916 367.858 146.964 368.577C147.003 369.454 147.493 370.236 148.409 370.931C149.334 371.626 150.89 372.353 153.086 373.111C156.484 374.28 159.13 374.936 161.018 375.07C162.907 375.205 164.463 374.889 165.688 374.107C166.478 373.593 167.568 372.574 168.95 371.042C170.333 369.509 171.558 368.925 172.608 369.288C173.422 369.565 173.92 370.117 174.117 370.931C174.315 371.745 174.196 372.787 173.754 374.059C172.608 377.393 171.147 380.157 169.385 382.353C167.623 384.549 166.225 385.474 165.198 385.118C165.087 385.079 164.826 384.913 164.408 384.628C163.041 383.688 161.595 382.962 160.086 382.44L136.187 374.209C131.716 372.669 129.014 371.484 128.09 370.663C127.157 369.841 126.904 368.822 127.315 367.621C127.718 366.46 128.674 365.765 130.199 365.544C131.724 365.323 132.593 365.141 132.814 364.991C133.28 364.635 134.181 362.819 135.516 359.54C136.851 356.262 138.494 351.799 140.446 346.143C141.986 341.672 143.132 338.063 143.89 335.306C144.641 332.549 144.933 330.882 144.767 330.313C144.688 330.045 144.119 329.358 143.053 328.252C141.986 327.146 141.655 326.016 142.057 324.855C142.476 323.646 143.298 323.007 144.538 322.936C145.779 322.864 148.765 323.639 153.497 325.266L175.263 332.778Z" fill="#016556"/>
<path d="M200.995 358.427C200.821 358.34 200.694 358.284 200.631 358.261C200.56 358.245 200.505 358.229 200.457 358.221C200.252 358.198 200.062 358.261 199.896 358.403C199.731 358.545 199.596 358.766 199.493 359.059C199.454 359.43 199.383 359.983 199.28 360.717C199.004 362.645 198.83 363.925 198.759 364.541C198.19 369.77 197.819 374.059 197.653 377.416C197.487 380.766 197.534 382.701 197.811 383.222C197.945 383.443 198.672 383.989 199.975 384.842C201.279 385.695 201.872 386.73 201.737 387.954C201.603 389.218 200.837 390.055 199.454 390.45C198.071 390.845 195.757 390.869 192.502 390.513C189.089 390.142 186.742 389.621 185.47 388.941C184.19 388.27 183.622 387.282 183.764 385.995C183.898 384.771 184.68 383.886 186.118 383.333C187.556 382.78 188.362 382.409 188.551 382.219C188.931 381.769 189.397 379.802 189.966 376.303C190.534 372.811 191.143 368.087 191.791 362.147C192.304 357.447 192.62 353.671 192.747 350.812C192.873 347.96 192.794 346.286 192.525 345.788C192.367 345.488 191.656 344.927 190.384 344.105C189.112 343.284 188.544 342.257 188.67 341.033C188.804 339.769 189.547 338.916 190.89 338.497C192.233 338.07 194.35 338.015 197.258 338.331C199.628 338.592 201.263 338.9 202.156 339.263C203.049 339.627 203.807 340.195 204.423 340.962C207.275 344.516 211.202 349.714 216.211 356.562C221.212 363.411 224.949 368.253 227.414 371.089C227.587 371.176 227.714 371.239 227.793 371.271C227.872 371.302 227.935 371.318 227.982 371.326C228.212 371.35 228.409 371.279 228.583 371.113C228.749 370.947 228.883 370.678 228.97 370.315C229.025 369.999 229.088 369.636 229.144 369.233C229.199 368.83 229.27 368.261 229.349 367.527C229.878 362.684 230.202 358.656 230.337 355.425C230.463 352.202 230.392 350.338 230.123 349.84C229.981 349.619 229.27 349.082 227.99 348.229C226.71 347.376 226.134 346.341 226.268 345.124C226.41 343.837 227.184 342.984 228.591 342.581C229.997 342.178 232.304 342.146 235.512 342.494C238.877 342.857 241.208 343.387 242.511 344.074C243.815 344.761 244.392 345.764 244.249 347.076C244.115 348.3 243.317 349.185 241.863 349.738C240.402 350.29 239.58 350.662 239.399 350.851C238.996 351.317 238.514 353.332 237.953 356.886C237.392 360.441 236.744 365.544 236.025 372.203C235.993 372.456 235.835 374.178 235.535 377.377C235.235 380.576 234.927 383.609 234.611 386.493C234.208 390.205 233.71 392.583 233.118 393.626C232.525 394.668 231.609 395.119 230.36 394.984C228.978 394.834 226.624 392.441 223.305 387.812C222.152 386.216 221.228 384.96 220.532 384.052C218.968 381.943 216.819 379.067 214.093 375.41C206.928 365.797 202.583 360.133 200.995 358.427Z" fill="#016556"/>
<path d="M281.808 391.746C279.651 392.046 276.799 392.37 273.252 392.717C269.705 393.065 267.255 393.333 265.904 393.523C265.288 393.61 264.451 393.736 263.408 393.902C262.365 394.068 261.614 394.186 261.156 394.25C260.374 394.36 259.695 394.431 259.118 394.463C258.541 394.494 258.012 394.502 257.538 394.471C256.448 394.384 255.634 394.131 255.081 393.705C254.528 393.278 254.196 392.638 254.078 391.793C253.912 390.576 254.457 389.526 255.713 388.633C256.969 387.749 257.664 387.188 257.799 386.959C258.051 386.429 258.036 384.407 257.751 380.876C257.467 377.345 256.914 372.622 256.092 366.697C255.444 362.013 254.836 358.269 254.259 355.472C253.682 352.676 253.193 351.057 252.782 350.622C252.592 350.417 251.771 350.061 250.317 349.556C248.863 349.05 248.057 348.197 247.891 346.981C247.718 345.693 248.184 344.729 249.298 344.082C250.412 343.434 252.916 342.849 256.795 342.312C259.323 341.965 262.262 341.514 265.628 340.954C268.993 340.393 271.095 340.061 271.948 339.943C276.562 339.303 280.307 339.121 283.175 339.374C286.043 339.634 288.594 340.345 290.838 341.507C294.433 343.323 297.34 345.993 299.56 349.516C301.78 353.039 303.226 357.265 303.905 362.202C305.011 370.236 303.589 376.895 299.639 382.18C295.705 387.456 289.756 390.648 281.808 391.746ZM289.993 365.03C289.116 358.695 287.078 353.806 283.862 350.362C280.647 346.918 276.815 345.511 272.359 346.12C270.755 346.341 269.523 346.688 268.677 347.17C267.832 347.652 267.358 348.268 267.247 349.034C267.097 349.967 267.129 351.791 267.35 354.509C267.571 357.226 267.966 360.638 268.535 364.754C269.23 369.786 269.894 374.075 270.542 377.638C271.182 381.2 271.68 383.357 272.011 384.099C272.304 384.715 273.102 385.189 274.405 385.521C275.701 385.861 277.131 385.916 278.695 385.703C283.104 385.094 286.295 382.985 288.263 379.383C290.238 375.789 290.814 371.002 289.993 365.03Z" fill="#016556"/>
<path d="M373.413 345.203C375.91 350.559 376.471 355.117 375.088 358.869C373.706 362.621 370.316 365.757 364.92 368.277C360.069 370.544 355.764 371.334 352.003 370.662C348.243 369.983 345.572 367.945 343.984 364.541C342.997 362.416 342.831 360.394 343.486 358.458C344.142 356.531 345.493 355.085 347.532 354.137C349.293 353.316 350.945 353.166 352.485 353.687C354.018 354.208 355.179 355.299 355.953 356.957C356.23 357.542 356.483 358.316 356.712 359.272C356.941 360.228 357.123 360.852 357.257 361.144C357.668 362.029 358.316 362.597 359.193 362.866C360.069 363.135 361.018 363.032 362.021 362.558C363.972 361.65 364.952 360.22 364.952 358.277C364.952 356.333 363.648 352.565 361.041 346.981C358.276 341.056 355.882 336.167 353.868 332.312C351.853 328.457 350.486 326.158 349.783 325.416C349.451 325.037 348.645 324.847 347.374 324.855L347.137 324.847C346.07 324.863 345.288 324.736 344.798 324.484C344.308 324.231 343.913 323.773 343.605 323.125C343.02 321.861 343.305 320.668 344.482 319.531C345.651 318.393 348.306 316.861 352.446 314.934C356.562 313.014 359.43 311.971 361.057 311.798C362.677 311.632 363.783 312.177 364.375 313.433C364.897 314.547 364.683 315.7 363.743 316.893C362.803 318.085 362.305 318.844 362.258 319.175C362.179 319.72 362.606 321.229 363.538 323.678C364.47 326.135 365.782 329.184 367.48 332.809C368.057 334.05 369.021 336.048 370.364 338.813C371.699 341.586 372.718 343.71 373.413 345.203Z" fill="#016556"/>
<path d="M392.359 289.387C393.354 288.661 394.318 287.816 395.258 286.844C396.198 285.872 396.704 285.359 396.783 285.304C397.66 284.664 398.94 284.869 400.614 285.936C402.289 286.994 403.948 288.661 405.6 290.928C406.311 291.899 406.658 292.768 406.658 293.535C406.658 294.301 406.295 294.941 405.584 295.454C404.833 295.999 403.704 296.007 402.179 295.478C400.662 294.949 399.698 294.68 399.279 294.664C398.126 294.617 396.83 294.917 395.4 295.573C393.97 296.228 392.161 297.35 389.965 298.946C387.437 300.786 385.864 302.066 385.256 302.785C384.648 303.503 384.434 304.135 384.632 304.68C384.821 305.289 385.446 306.434 386.52 308.101C387.595 309.767 388.993 311.798 390.731 314.175C391.687 315.486 393.259 315.344 395.455 313.749C397.778 312.058 399.145 310.81 399.556 310.012C399.967 309.214 399.927 308.211 399.453 307.011C399.295 306.639 399.034 306.142 398.671 305.518C397.636 303.661 397.715 302.295 398.916 301.426C399.967 300.66 401.167 300.762 402.526 301.718C403.885 302.682 405.734 304.759 408.065 307.966C410.68 311.568 412.228 314.152 412.702 315.731C413.176 317.311 412.836 318.512 411.699 319.341C410.608 320.131 409.408 319.799 408.096 318.354C407.527 317.73 407.069 317.28 406.714 316.995C405.718 316.174 404.778 315.842 403.901 315.992C403.024 316.142 401.436 317.051 399.153 318.717L398.813 318.962C397.352 320.029 396.554 320.755 396.427 321.15C396.301 321.545 396.593 322.232 397.296 323.204L398.173 324.413C400.085 327.035 401.626 329.049 402.795 330.44C403.972 331.838 404.865 332.723 405.489 333.102C406.232 333.568 407.148 333.623 408.254 333.26C409.352 332.904 410.846 332.043 412.718 330.677C415.625 328.56 417.671 326.774 418.864 325.297C420.057 323.828 420.689 322.367 420.753 320.913C420.784 319.973 420.571 318.496 420.105 316.482C419.647 314.467 419.86 313.132 420.761 312.477C421.456 311.971 422.19 311.877 422.973 312.177C423.755 312.485 424.537 313.18 425.335 314.27C427.405 317.122 428.843 319.894 429.633 322.604C430.423 325.305 430.383 326.98 429.498 327.62C429.404 327.691 429.119 327.809 428.645 327.983C427.097 328.568 425.667 329.334 424.379 330.274L403.941 345.148C400.117 347.929 397.604 349.469 396.396 349.753C395.187 350.046 394.207 349.674 393.457 348.639C392.73 347.644 392.714 346.459 393.409 345.085C394.097 343.71 394.444 342.889 394.46 342.628C394.436 342.044 393.465 340.266 391.545 337.288C389.625 334.318 386.907 330.408 383.384 325.574C380.603 321.751 378.296 318.741 376.471 316.545C374.646 314.349 373.445 313.156 372.876 312.967C372.607 312.872 371.715 312.951 370.206 313.196C368.689 313.441 367.575 313.061 366.848 312.066C366.097 311.039 366.05 309.989 366.698 308.93C367.346 307.872 369.692 305.865 373.745 302.927L392.359 289.387Z" fill="#016556"/>
<path d="M428.084 282.958C427.91 283.052 427.8 283.123 427.744 283.163C427.689 283.21 427.65 283.25 427.618 283.281C427.484 283.439 427.428 283.629 427.444 283.85C427.468 284.071 427.571 284.308 427.752 284.553C428.029 284.798 428.448 285.169 428.993 285.675C430.415 287.002 431.363 287.871 431.837 288.282C435.811 291.734 439.121 294.483 441.783 296.528C444.438 298.574 446.058 299.641 446.642 299.712C446.903 299.728 447.764 299.443 449.21 298.859C450.656 298.274 451.841 298.385 452.773 299.19C453.737 300.028 453.982 301.126 453.523 302.492C453.057 303.859 451.754 305.77 449.613 308.235C447.361 310.826 445.591 312.453 444.312 313.117C443.024 313.78 441.894 313.686 440.914 312.84C439.99 312.035 439.706 310.881 440.069 309.388C440.433 307.895 440.591 307.019 440.535 306.758C440.377 306.197 439.034 304.68 436.482 302.224C433.938 299.767 430.407 296.576 425.888 292.65C422.317 289.546 419.402 287.128 417.126 285.398C414.851 283.668 413.437 282.776 412.868 282.713C412.536 282.673 411.667 282.934 410.261 283.511C408.855 284.087 407.685 283.969 406.761 283.163C405.797 282.326 405.528 281.236 405.939 279.893C406.358 278.55 407.519 276.772 409.439 274.569C411.003 272.768 412.196 271.606 413.002 271.077C413.808 270.556 414.709 270.256 415.688 270.185C420.231 269.869 426.749 269.608 435.226 269.41C443.711 269.213 449.818 268.905 453.547 268.502C453.721 268.407 453.847 268.336 453.919 268.289C453.99 268.241 454.037 268.202 454.069 268.17C454.219 267.996 454.274 267.791 454.235 267.554C454.195 267.317 454.045 267.064 453.8 266.78C453.571 266.551 453.31 266.298 453.01 266.022C452.71 265.745 452.283 265.366 451.722 264.876C448.049 261.685 444.92 259.11 442.344 257.167C439.769 255.223 438.197 254.22 437.636 254.157C437.375 254.141 436.522 254.418 435.092 254.986C433.662 255.555 432.485 255.437 431.552 254.631C430.573 253.778 430.32 252.656 430.786 251.274C431.252 249.884 432.548 247.972 434.665 245.547C436.885 242.995 438.647 241.376 439.958 240.705C441.27 240.033 442.423 240.128 443.419 240.989C444.343 241.795 444.62 242.956 444.241 244.465C443.861 245.981 443.695 246.866 443.751 247.127C443.909 247.727 445.283 249.267 447.883 251.756C450.482 254.244 454.306 257.688 459.362 262.08C459.552 262.246 460.879 263.368 463.328 265.437C465.785 267.507 468.1 269.497 470.288 271.393C473.109 273.842 474.776 275.603 475.289 276.686C475.811 277.768 475.661 278.779 474.839 279.727C473.93 280.777 470.62 281.346 464.924 281.433C462.957 281.473 461.4 281.512 460.247 281.559C457.624 281.646 454.037 281.765 449.478 281.915C437.525 282.294 430.391 282.634 428.084 282.958Z" fill="#016556"/>
<path d="M14.5052 231.755C14.5052 235.76 11.2581 239.006 7.25259 239.006C3.24707 239.006 0 235.76 0 231.755C0 227.75 3.24707 224.503 7.25259 224.503C11.2581 224.503 14.5052 227.75 14.5052 231.755Z" fill="#016556"/>
<path d="M483 234.915C483 238.919 479.753 242.166 475.747 242.166C471.742 242.166 468.495 238.919 468.495 234.915C468.495 230.91 471.742 227.663 475.747 227.663C479.753 227.663 483 230.91 483 234.915Z" fill="#016556"/>
<path d="M391.316 142.612C385.54 117.69 354.768 108.069 335.847 125.329C332.434 128.441 329.218 131.775 325.948 135.045C322.89 137.28 319.999 139.927 316.807 141.862C309.72 144.413 301.725 144.208 294.741 140.875C292.221 139.674 289.866 138.134 287.789 136.254C285.482 134.168 283.601 130.906 281.745 128.425C278.277 123.812 274.469 119.681 269.839 116.205C266.299 113.551 262.42 112.161 258.336 110.463C257.917 110.02 257.514 109.562 257.135 109.08C254.575 105.794 252.995 101.837 251.834 97.8634C250.53 93.3924 249.4 88.645 249.495 83.9607C249.59 79.5767 251.067 75.4059 253.264 71.6459C253.983 70.4215 254.773 69.2524 255.602 68.1149C258.984 64.7262 262.389 61.369 265.754 57.9723C272.241 51.4239 275.733 43.5879 275.788 34.2984C275.962 13.6736 258.249 -2.29863 237.55 0.268614C223.858 1.96694 214.109 9.28951 209.464 22.5602C204.85 35.744 207.607 47.4743 217.127 57.5932C221.496 62.2379 226.055 66.701 230.55 71.2272C230.985 71.6617 231.395 72.1119 231.798 72.5622C234.168 77.357 235.354 82.6969 235.188 88.0841C234.982 94.7353 232.573 101.221 228.52 106.489C227.54 107.011 226.537 107.469 225.604 107.895C221.638 109.72 217.83 111.805 214.259 114.325C207.11 119.357 200.924 125.724 196.167 133.062C194.848 135.1 193.639 137.241 192.707 139.476C184.822 144.192 175.555 147.162 166.699 143.45C164.874 142.241 163.065 140.772 161.263 139.002C156.926 134.753 152.66 130.432 148.307 126.198C141.852 119.918 134.141 116.632 125.095 116.632C112.075 116.687 100.248 123.504 94.7182 134.903C88.9114 146.886 89.3143 159.027 96.7407 170.141C108.528 187.772 133.201 189.944 148.654 175.11C152.739 171.184 156.602 167.029 160.75 163.166C163.175 160.907 165.759 158.679 168.619 157.036C171.273 155.512 173.912 154.643 176.543 154.311C180.422 154.193 184.309 155.243 187.635 157.313C190.203 158.908 192.233 161.097 193.837 163.648C193.861 163.687 193.884 163.727 193.908 163.766C194.572 165.386 195.275 166.981 196.049 168.553C198.048 172.621 200.394 176.516 203.112 180.142C208.389 187.188 215.042 193.325 222.981 197.259C224.846 198.183 226.821 199.06 228.82 199.692C229.057 199.929 229.286 200.166 229.507 200.419C231.388 202.599 232.336 205.411 232.889 208.192C233.513 211.304 233.726 214.535 233.805 217.702C233.884 220.988 233.434 224.211 232.13 227.245C231.696 228.248 231.182 229.204 230.605 230.12C227.666 233.208 224.459 236.052 221.512 239.141C217.214 243.651 212.608 247.814 210.12 253.889C200.726 276.788 216.78 301.229 241.437 301.252C255.997 301.268 267.587 293.78 273.015 280.856C278.561 267.649 275.677 253.501 265.336 243.201C261.678 239.559 258.02 235.926 254.386 232.268C253.556 231.439 252.79 230.617 252.079 229.796C250.799 227.094 249.898 224.203 249.416 221.225C248.863 217.821 248.879 214.274 249.511 210.885C250.151 207.433 251.368 203.713 253.556 200.893C268.559 195.885 280.813 184.407 286.722 169.636C287.33 168.119 287.852 166.586 288.31 165.022C288.523 164.462 288.729 163.901 288.934 163.324C289.132 163.04 289.337 162.755 289.55 162.479C291.849 159.611 295.413 157.597 298.865 156.468C304.498 154.627 310.518 155.117 315.748 157.605C317.636 158.774 319.509 160.236 321.373 161.989C325.94 166.286 330.277 170.82 334.772 175.197C341.298 181.548 349.08 184.913 358.245 184.889C380.611 184.897 396.427 164.659 391.316 142.612ZM241.389 182.456C224.332 182.456 210.499 168.632 210.499 151.57C210.499 134.508 224.325 120.684 241.389 120.684C258.446 120.684 272.28 134.508 272.28 151.57C272.28 168.632 258.446 182.456 241.389 182.456Z" fill="#016556"/>
<path d="M259.9 133.07C255.16 128.331 248.626 125.408 241.389 125.408C234.153 125.408 227.627 128.331 222.879 133.07C218.138 137.81 215.215 144.342 215.215 151.578C215.215 158.814 218.138 165.338 222.879 170.086C227.619 174.825 234.153 177.748 241.389 177.748C248.626 177.748 255.152 174.825 259.9 170.086C264.64 165.346 267.564 158.814 267.564 151.578C267.564 144.342 264.64 137.81 259.9 133.07ZM241.626 165.481C233.813 165.481 227.477 159.145 227.477 151.333C227.477 143.521 233.813 137.186 241.626 137.186C249.44 137.186 255.776 143.521 255.776 151.333C255.776 159.153 249.44 165.481 241.626 165.481Z" fill="#016556"/>
<path d="M296.503 130.203C294.204 125.574 292.189 121.316 288.816 117.485L314.342 110.099L313.844 105.794L286.856 114.207L321.184 79.3713L318.189 76.4328L284.897 111.008L289.163 87.7523L285.608 87.5943L281.081 109.775C280.947 109.815 281.2 109.704 281.081 109.775C275.63 104.751 272.454 103.954 265.367 101.26C265.723 100.162 266.102 98.9692 266.489 97.7685C269.009 89.9483 271.522 82.136 274.05 74.3158C279.778 56.6057 297.901 51.5108 311.885 63.6597C312.169 63.9046 312.477 64.1258 312.762 64.347C321.555 59.8523 329.029 60.4685 335.033 67.5777C339.939 73.3916 339.694 80.2086 334.448 88.8029C339.062 94.5061 340.911 101.07 339.576 108.511C338.509 114.452 332.126 123.449 323.972 124.784C314.776 126.285 304.885 128.362 296.503 130.203Z" fill="#016556"/>
<path d="M186.553 128.868C188.852 124.239 191.656 119.981 195.03 116.15L169.504 108.764L170.001 104.459L196.989 112.872L162.662 78.0363L165.656 75.0978L198.948 109.673L194.682 86.4174L198.237 86.2594L202.764 108.44C202.899 108.48 202.646 108.369 202.764 108.44C208.216 103.416 211.392 102.619 218.478 99.925C218.123 98.827 217.743 97.6342 217.356 96.4336C214.836 88.6133 212.324 80.801 209.796 72.9808C204.068 55.2708 185.944 50.1758 171.961 62.3248C171.676 62.5697 171.368 62.7908 171.084 63.012C162.29 58.5174 154.817 59.1335 148.812 66.2428C143.906 72.0566 144.151 78.8736 149.397 87.468C144.783 93.1712 142.934 99.7354 144.27 107.176C145.336 113.117 151.72 122.114 159.873 123.449C169.069 124.958 178.17 127.027 186.553 128.868Z" fill="#016556"/>
<path d="M297.293 174.96C294.994 179.589 292.189 183.846 288.816 187.677L314.342 195.063L313.844 199.368L286.856 190.956L321.184 225.791L318.189 228.73L284.897 194.155L289.163 217.41L285.608 217.568L281.081 195.387C280.947 195.348 281.2 195.458 281.081 195.387C275.63 200.411 272.454 201.209 265.367 203.902C265.723 205 266.102 206.193 266.489 207.394C269.009 215.214 271.522 223.026 274.05 230.847C279.778 248.557 297.901 253.652 311.885 241.503C312.169 241.258 312.477 241.037 312.762 240.815C321.555 245.31 329.029 244.694 335.033 237.585C339.939 231.771 339.694 224.954 334.448 216.359C339.062 210.656 340.911 204.092 339.576 196.651C338.509 190.711 332.126 181.714 323.972 180.379C314.776 178.878 305.675 176.8 297.293 174.96Z" fill="#016556"/>
<path d="M186.553 176.295C188.852 180.923 191.656 185.181 195.03 189.012L169.504 196.398L170.001 200.703L196.989 192.29L162.662 227.126L165.656 230.064L198.948 195.49L194.682 218.745L198.237 218.903L202.764 196.722C202.899 196.682 202.646 196.793 202.764 196.722C208.216 201.746 211.392 202.544 218.478 205.237C218.123 206.335 217.743 207.528 217.356 208.729C214.836 216.549 212.324 224.361 209.796 232.181C204.068 249.891 185.944 254.987 171.961 242.838C171.676 242.593 171.368 242.371 171.084 242.15C162.29 246.645 154.817 246.029 148.812 238.919C143.906 233.106 144.151 226.289 149.397 217.694C144.783 211.991 142.934 205.427 144.27 197.986C145.336 192.046 151.72 183.048 159.873 181.713C169.069 180.205 178.17 178.135 186.553 176.295Z" fill="#016556"/>
</g>
<defs>
<clipPath id="clip0">
<rect width="483" height="395" fill="white"/>
</clipPath>
</defs>
</svg>
