<svg width="557" height="276" viewBox="0 0 557 276" fill="none" xmlns="http://www.w3.org/2000/svg">
<path d="M126.997 143.399C134.041 143.399 139.432 143.073 143.186 142.422C143.318 142.422 143.449 142.422 143.593 142.409C145.737 142.215 148.081 141.645 149.479 140.161C150.751 139.203 151.391 138 151.391 136.559C151.391 134.881 150.582 133.484 148.971 132.369C148.457 131.661 147.881 130.998 147.329 130.396C145.8 128.737 144.07 127.584 142.841 125.686C140.949 122.755 139.507 119.605 138.473 116.31C138.015 113.711 137.821 111.043 137.777 108.475C137.683 102.161 137.909 95.8227 138.172 89.4967C138.466 88.0499 138.642 86.7221 138.792 85.0999C139.256 80.0704 141.086 75.185 143.832 70.9635C147.216 65.7524 152.024 61.9819 157.608 59.3388C160.447 57.9922 163.425 56.9587 166.402 55.9691C168.809 55.1674 171.667 54.0901 174.318 54.3782C173.829 58.3617 175.402 63.8045 179.37 65.9403C194.061 73.8447 207.104 62.3264 210.984 51.923C212.99 46.5365 212.006 40.5363 208.258 36.0956C204.773 31.9743 198.192 30.0389 192.971 29.375C180.416 27.7716 167.38 32.7697 157.182 39.7909C149.78 44.8893 143.499 51.2215 137.808 58.0924C137.896 55.8376 137.833 53.5765 137.57 51.3155C137.169 47.8894 136.386 44.169 132.97 42.5343C129.222 40.743 123.643 42.6658 119.77 43.2483C115.138 43.9435 110.093 44.2003 105.699 45.9165C102.314 47.2443 99.3058 49.6494 98.0397 53.1444C96.6232 57.0464 98.5536 59.677 101.888 61.6186C105.154 63.5227 109.716 64.2868 111.659 67.8507C113.245 70.7694 113.822 74.4272 114.098 77.991C114.267 82.0997 114.348 87.5363 114.348 94.2944V100.013C114.348 102.073 114.38 104.698 114.442 107.886C114.486 110.166 114.518 111.919 114.53 113.178C114.474 115.076 114.411 116.974 114.336 118.866C114.323 119.122 114.342 119.367 114.38 119.586C114.217 121.947 113.928 123.801 113.508 125.135C112.819 127.321 111.634 128.887 109.942 129.82C109.441 130.071 108.563 130.446 107.316 130.947C104.188 132.075 102.628 133.728 102.628 135.914C102.628 138.789 104.22 140.756 107.41 141.821C110.581 142.867 117.112 143.399 126.997 143.399Z" fill="#016556"/>
<path d="M220.969 136.553C220.969 134.054 219.314 132.206 215.998 131.023C214.369 130.396 213.153 129.864 212.338 129.432C210.896 128.68 209.9 127.027 209.336 124.465C208.772 121.903 208.91 121.897 208.49 115.721L208.327 113.272C208.327 108.262 209.724 90.8684 209.756 89.3715C209.787 87.8683 209.8 85.9329 209.8 83.5591C209.8 80.559 209.411 78.4357 208.627 77.183C207.844 75.9304 206.578 75.3103 204.829 75.3103C202.767 75.3103 199.295 75.9178 194.412 77.1392C189.536 78.3605 184.622 79.9389 179.683 81.8743C176.869 83.0017 174.851 84.1416 173.629 85.2941C172.406 86.4528 171.798 87.7493 171.798 89.1836C171.798 91.3695 173.766 93.0919 177.709 94.3383C179.771 94.9646 181.306 95.5283 182.303 96.0231C182.447 96.0983 182.616 96.1735 182.798 96.2549C184.522 97.9084 188.627 104.372 183.419 126.338C183.406 126.369 183.394 126.4 183.381 126.438C182.692 128.624 183.049 128.868 181.363 129.801C180.861 130.052 180.015 130.396 178.831 130.835C175.64 132.025 174.048 133.71 174.048 135.896C174.048 138.77 175.659 140.737 178.881 141.802C182.102 142.867 188.684 143.393 198.63 143.393C207.136 143.393 212.984 142.879 216.174 141.846C219.377 140.818 220.969 139.052 220.969 136.553Z" fill="#016556"/>
<path d="M259.96 92.9604H261.276H308.19C313.067 92.9604 316.1 92.3216 317.291 91.0376C318.476 89.7598 319.071 87.1167 319.071 83.1144C319.071 70.926 315.398 61.2554 308.046 54.0964C300.694 46.9374 290.735 43.3611 278.162 43.3611C263.276 43.3611 251.06 48.2841 241.527 58.13C231.987 67.976 227.218 80.5214 227.218 95.7726C227.218 109.777 231.862 121.509 241.151 130.979C250.439 140.449 262.028 145.184 275.911 145.184C282.104 145.184 287.826 144.169 293.079 142.134C298.331 140.098 303.809 136.741 309.5 132.056C312.252 129.87 314.439 127.634 316.069 125.354C316.138 125.254 316.2 125.16 316.269 125.06C317.492 123.682 318.407 122.185 318.645 120.607C319.353 115.959 314.959 112.27 310.773 111.519C306.185 110.692 300.337 112.515 297.861 116.68C296.419 119.11 295.862 122.191 296.351 125.022C295.147 125.574 293.931 126.043 292.703 126.438C289.387 127.503 285.946 128.029 282.38 128.029C274.063 128.029 266.993 125.11 261.176 119.26C255.36 113.416 252.451 106.433 252.451 98.303C252.451 95.8666 252.796 94.3634 253.486 93.7997C254.175 93.2423 256.337 92.9604 259.96 92.9604ZM259.496 62.2513C263.564 57.9734 268.691 55.8314 274.884 55.8314C281.327 55.8314 286.661 57.9734 290.879 62.2513C295.103 66.5354 297.209 71.8279 297.209 78.1414C297.209 79.5819 296.802 80.5465 295.987 81.0475C295.172 81.5486 293.518 81.7992 291.017 81.7992H259.302C256.864 81.7992 255.266 81.5486 254.52 81.0475C253.768 80.5465 253.392 79.5819 253.392 78.1414C253.398 71.8342 255.429 66.5354 259.496 62.2513Z" fill="#016556"/>
<path d="M372.422 141.852C375.612 140.819 377.204 139.052 377.204 136.553C377.204 134.054 375.549 132.206 372.234 131.023C370.604 130.396 369.388 129.864 368.573 129.432C367.195 128.68 366.242 127.258 365.709 125.166C365.176 123.074 364.913 118.872 364.913 112.558C364.913 99.6183 365.195 90.6179 365.759 85.5572C366.323 80.4964 367.32 76.5567 368.761 73.7445C370.454 70.2433 372.873 67.4499 376.032 65.3516C379.191 63.2597 382.519 62.2137 386.023 62.2137C392.905 62.2137 397.668 64.838 400.332 70.0867C402.989 75.3354 404.318 88.3381 404.318 109.088C404.318 116.154 404.005 121.108 403.378 123.951C402.751 126.795 401.692 128.624 400.188 129.438C399.436 129.876 398.22 130.409 396.528 131.029C393.275 132.219 391.651 134.06 391.651 136.559C391.651 139.059 393.199 140.793 396.296 141.764C399.392 142.735 405.503 143.217 414.635 143.217C424.638 143.217 431.15 142.704 434.153 141.67C437.155 140.637 438.653 138.72 438.653 135.902C438.653 133.716 437.061 132.025 433.871 130.841C432.805 130.465 431.959 130.121 431.338 129.808C429.709 128.868 428.568 127.446 427.916 125.542C427.258 123.638 426.932 120.369 426.932 115.746C426.932 114.682 426.964 112.84 427.026 110.216C427.089 107.592 427.12 105.468 427.12 103.84V90.6179C427.12 80.1143 426.493 72.3979 425.246 67.4624C423.993 62.5269 421.868 58.2741 418.866 54.7102C415.863 51.209 412.191 48.4469 407.841 46.4113C403.491 44.382 398.972 43.3611 394.284 43.3611C386.029 43.3611 378.364 46.6744 371.3 53.301C370.422 54.1152 369.733 54.7416 369.238 55.1737L366.988 57.2344C366.925 57.297 366.787 57.3722 366.568 57.4661C366.348 57.5601 366.179 57.6039 366.054 57.6039C365.74 57.5413 365.54 57.4473 365.446 57.322C365.352 57.1968 365.308 56.8836 365.308 56.3825V49.9251C365.308 47.7392 364.901 46.1608 364.086 45.19C363.271 44.2192 361.961 43.7369 360.143 43.7369C357.956 43.7369 354.578 44.3006 350.008 45.4217C345.439 46.5491 340.751 48.0461 335.937 49.9251C333.123 51.0525 331.105 52.1924 329.889 53.3448C328.667 54.5035 328.059 55.8001 328.059 57.2344C328.059 59.4203 330.027 61.1427 333.969 62.3891C336.031 63.0154 337.567 63.5791 338.564 64.0739C339.88 64.7629 340.782 66.6669 341.284 69.7923C341.785 72.9177 342.036 79.607 342.036 89.8538V99.9816C342.036 102.042 342.067 104.667 342.13 107.855C342.193 111.043 342.224 113.229 342.224 114.419C342.224 119.354 341.879 122.918 341.19 125.104C340.5 127.29 339.316 128.856 337.623 129.789C337.122 130.039 336.276 130.384 335.091 130.822C331.901 132.012 330.309 133.697 330.309 135.883C330.309 138.758 331.92 140.725 335.141 141.789C338.363 142.854 344.944 143.38 354.891 143.38C363.384 143.399 369.238 142.885 372.422 141.852Z" fill="#016556"/>
<path d="M551.798 127.227C548.325 126.444 546.088 125.711 545.091 125.022C544.026 124.208 543.274 120.663 542.841 114.381C542.402 108.099 542.183 94.4886 542.183 73.5503C542.183 52.612 542.528 32.4879 543.217 13.1718C543.343 10.3595 543.405 8.70602 543.405 8.20495C543.405 5.33008 542.923 3.26945 541.951 2.01678C540.98 0.764113 539.4 0.144043 537.213 0.144043C534.524 0.144043 531.472 0.507316 528.068 1.22134C524.659 1.94162 521.048 2.9876 517.231 4.35927C512.292 6.17563 509.039 7.70389 507.472 8.95029C505.912 10.203 505.128 11.6999 505.128 13.4536C505.128 15.7648 507.128 17.4872 511.133 18.6083C512.261 18.9215 513.132 19.172 513.759 19.3599C516.197 20.2368 517.839 21.5646 518.685 23.3434C519.532 25.1222 519.951 28.2977 519.951 32.8574V44.2943C519.951 46.167 519.845 47.451 519.626 48.14C519.406 48.8289 519.049 49.1734 518.548 49.1734C518.297 49.1734 517.482 48.8602 516.109 48.2339C508.977 44.9832 502.07 43.361 495.376 43.361C481.43 43.361 470.06 48.3654 461.273 58.3617C452.486 68.3643 448.092 81.298 448.092 97.1756C448.092 111.237 451.922 122.661 459.587 131.442C467.246 140.223 477.181 144.614 489.378 144.614C493.376 144.614 497.256 143.925 501.01 142.553C504.765 141.182 508.576 139.021 512.455 136.083C513.64 135.207 515.081 134.117 516.774 132.801C518.522 131.43 519.525 130.741 519.776 130.741C519.964 130.741 520.133 130.973 520.29 131.442C520.447 131.912 520.522 132.52 520.522 133.271V138.05C520.522 140.236 520.929 141.833 521.744 142.829C522.559 143.831 523.869 144.332 525.686 144.332C527.56 144.332 530.049 144.05 533.145 143.487C536.241 142.923 539.137 142.209 541.826 141.332L542.86 140.956C552.305 137.894 557.025 134.862 557.025 131.862C557 129.557 555.264 128.01 551.798 127.227ZM519.569 104.679C519.569 111.932 517.739 117.444 514.079 121.227C510.418 125.01 505.116 126.901 498.177 126.901C490.857 126.901 484.84 123.463 480.12 116.586C475.394 109.709 473.038 100.802 473.038 89.8663C473.038 79.6132 475.194 71.521 479.512 65.5833C483.831 59.6457 489.616 56.6769 496.867 56.6769C500.866 56.6769 504.796 57.5851 508.645 59.3952C512.493 61.2115 515.476 63.554 517.601 66.4289C518.291 67.3058 518.773 68.4457 519.055 69.8487C519.337 71.2579 519.506 73.9574 519.569 77.9597V104.679V104.679Z" fill="#016556"/>
<path d="M96.7361 151.109C93.8968 150.182 86.7077 149.719 75.1688 149.719C63.63 149.719 56.4221 150.195 53.5515 151.153C50.6808 152.111 49.2455 153.852 49.2455 156.383C49.2455 158.976 50.9441 160.961 54.3349 162.352C57.7258 163.742 59.7628 164.895 60.446 165.822C61.3736 167.243 62.063 173.914 62.5268 185.852C62.9907 197.783 63.2226 199.594 63.2226 222.167C63.2226 232.958 63.0659 240.13 62.7587 243.675C62.6647 244.758 62.5456 245.748 62.414 246.656C61.2357 249.03 59.6312 251.216 57.6192 253.07C54.9554 255.531 51.6085 257.373 48.0735 258.231C44.8393 259.014 42.6707 258.419 40.7841 256.703C42.9527 253.439 44.2188 249.531 44.2188 245.322C44.2188 233.948 34.9927 224.728 23.6106 224.728C17.3303 224.728 11.7081 227.541 7.92871 231.969C7.72814 232.175 7.53384 232.388 7.34581 232.608C6.1236 234.036 5.19598 235.689 4.5316 237.537C3.55384 239.936 3.00854 242.56 3.00854 245.31C3.00854 248.097 3.56637 250.759 4.56921 253.183C6.28656 258.469 9.78395 263.11 15.0739 267.106C22.9086 273.025 32.7865 275.987 44.6952 275.987C52.2227 275.987 59.042 274.71 65.153 272.148C71.264 269.593 76.2594 265.935 80.1517 261.187C82.8029 257.918 84.7021 254.016 85.8428 249.487C86.9835 244.953 87.5539 236.923 87.5539 225.386C87.5539 223.288 87.5225 218.277 87.4598 210.354C87.3972 202.431 87.3658 197.282 87.3658 191.489C87.3658 178.355 87.6291 182.288 88.1556 175.843C88.6758 169.398 89.5282 165.684 90.7003 164.694C91.5025 164.08 92.919 163.366 94.956 162.565C98.9674 161.087 100.973 159.02 100.973 156.364C100.992 153.79 99.5754 152.036 96.7361 151.109Z" fill="#016556"/>
<path d="M313.261 259.208C312.208 258.839 311.381 258.5 310.76 258.193C309.155 257.266 308.027 255.863 307.382 253.984C306.736 252.105 306.41 248.88 306.41 244.314C306.41 243.268 306.442 241.445 306.504 238.858C306.567 236.265 306.598 234.174 306.598 232.57V219.524C306.598 209.164 305.984 201.548 304.749 196.675C303.515 191.802 301.415 187.612 298.456 184.092C295.492 180.641 291.869 177.91 287.582 175.906C283.295 173.901 278.832 172.899 274.207 172.899C266.059 172.899 258.5 176.169 251.524 182.708C250.659 183.509 249.982 184.129 249.487 184.555L247.268 186.591C247.205 186.654 247.067 186.729 246.854 186.823C246.635 186.917 246.466 186.96 246.347 186.96C246.04 186.898 245.839 186.81 245.745 186.685C245.651 186.56 245.607 186.253 245.607 185.758V179.376C245.607 177.215 245.206 175.661 244.404 174.703C243.601 173.745 242.304 173.269 240.518 173.269C238.355 173.269 235.021 173.826 230.521 174.935C226.014 176.043 221.389 177.528 216.638 179.376C213.861 180.484 211.868 181.612 210.664 182.752C209.461 183.891 208.859 185.169 208.859 186.591C208.859 188.752 210.802 190.443 214.695 191.677C216.732 192.291 218.242 192.848 219.232 193.343C220.53 194.019 221.42 195.905 221.915 198.986C222.41 202.074 222.655 208.669 222.655 218.784V228.775C222.655 230.81 222.686 233.397 222.749 236.547C222.811 239.692 222.843 241.852 222.843 243.024C222.843 247.896 222.504 251.41 221.827 253.571C221.15 255.732 219.978 257.273 218.311 258.2C217.816 258.444 216.982 258.788 215.81 259.214C212.664 260.386 211.091 262.052 211.091 264.212C211.091 267.05 212.676 268.991 215.86 270.044C219.038 271.09 225.538 271.616 235.347 271.616C243.739 271.616 249.512 271.108 252.658 270.087C255.805 269.073 257.378 267.325 257.378 264.858C257.378 262.39 255.742 260.573 252.47 259.402C250.866 258.788 249.662 258.262 248.86 257.83C247.5 257.091 246.56 255.688 246.04 253.621C245.513 251.554 245.25 247.408 245.25 241.176C245.25 228.411 245.526 219.53 246.083 214.532C246.641 209.534 247.625 205.65 249.048 202.876C250.715 199.425 253.103 196.662 256.225 194.595C259.34 192.529 262.624 191.495 266.084 191.495C272.872 191.495 277.579 194.088 280.199 199.268C282.825 204.448 284.135 217.275 284.135 237.75C284.135 244.721 283.828 249.606 283.207 252.412C282.593 255.218 281.54 257.022 280.061 257.824C279.321 258.256 278.118 258.782 276.451 259.396C273.241 260.567 271.637 262.39 271.637 264.851C271.637 267.319 273.166 269.029 276.219 269.987C279.271 270.946 285.307 271.422 294.32 271.422C304.191 271.422 310.616 270.914 313.574 269.893C316.539 268.879 318.018 266.981 318.018 264.206C317.98 262.045 316.407 260.379 313.261 259.208Z" fill="#016556"/>
<path d="M481.418 234.424C482.596 233.867 483.95 233.579 485.529 233.579C487.178 233.579 488.412 233.954 489.334 234.631C490.242 235.295 491.208 236.616 492.091 238.633C492.605 239.848 493.113 240.856 493.621 241.683C494.135 242.51 494.642 243.149 495.225 243.606C496.322 244.464 497.745 244.852 499.368 244.852C500.183 244.852 500.96 244.733 501.669 244.477C502.377 244.226 503.029 243.838 503.586 243.331C504.144 242.823 504.583 242.222 504.871 241.545C505.16 240.869 505.298 240.13 505.298 239.347C505.298 237.512 504.827 235.764 503.912 234.167C502.991 232.57 501.631 231.123 499.87 229.814C496.328 227.184 492.029 225.875 487.09 225.881C483.712 225.881 480.59 226.457 477.738 227.616C474.887 228.775 472.317 230.522 470.048 232.821C465.498 237.43 463.21 243.305 463.216 250.239C463.21 256.703 465.372 262.233 469.666 266.63C471.809 268.829 474.228 270.495 476.911 271.603C479.594 272.712 482.533 273.263 485.705 273.263C488.713 273.263 491.521 272.768 494.11 271.779C496.698 270.783 499.174 269.242 501.531 267.175L501.537 267.169C502.559 266.298 503.405 265.296 504.075 264.181C504.733 263.066 505.122 262.058 505.128 261.062C505.128 260.667 505.072 260.279 504.94 259.922C504.809 259.559 504.602 259.227 504.326 258.958C504.05 258.682 503.718 258.475 503.355 258.344C502.991 258.212 502.609 258.156 502.214 258.156C501.549 258.162 500.898 258.369 500.208 258.72C499.525 259.064 498.792 259.559 497.996 260.198C497.281 260.749 496.736 261.156 496.36 261.425C495.319 262.127 494.204 262.653 492.994 263.016C491.784 263.379 490.506 263.561 489.133 263.561C487.159 263.561 485.398 263.179 483.812 262.427C482.226 261.676 480.81 260.542 479.543 259.001C477.024 255.926 475.733 251.943 475.733 246.901C475.733 242.529 476.654 239.247 478.371 236.973C479.236 235.815 480.239 234.981 481.418 234.424Z" fill="#016556"/>
<path d="M547.849 232.276C545.756 230.146 543.349 228.543 540.654 227.472C537.959 226.401 534.975 225.875 531.729 225.875C528.357 225.875 525.235 226.438 522.39 227.578C519.544 228.718 516.987 230.428 514.73 232.689C512.474 234.95 510.769 237.518 509.635 240.368C508.5 243.218 507.936 246.349 507.936 249.732C507.93 256.433 510.092 262.114 514.405 266.555C516.554 268.778 519.005 270.463 521.738 271.578C524.471 272.699 527.473 273.25 530.719 273.25C534.016 273.25 537.075 272.662 539.87 271.478C542.666 270.294 545.185 268.515 547.417 266.167C551.892 261.475 554.142 255.55 554.129 248.592C554.129 245.31 553.609 242.291 552.562 239.56C551.522 236.842 549.943 234.399 547.849 232.276ZM538.792 262.039C537.977 263.141 537.062 263.937 536.047 264.469C535.032 264.995 533.903 265.265 532.606 265.265C531.02 265.265 529.591 264.839 528.237 263.962C526.89 263.085 525.618 261.738 524.445 259.878C522.114 256.177 520.923 251.535 520.923 245.88C520.923 242.103 521.769 239.19 523.38 237.036C524.188 235.952 525.097 235.176 526.113 234.656C527.134 234.136 528.275 233.873 529.585 233.873C531.139 233.873 532.55 234.299 533.897 235.169C535.238 236.046 536.517 237.387 537.702 239.24C540.058 242.93 541.262 247.521 541.262 253.082C541.268 256.891 540.416 259.841 538.792 262.039Z" fill="#016556"/>
<path d="M138.636 222.442H139.952H186.866C191.742 222.442 194.776 221.803 195.967 220.519C196.186 220.281 196.38 219.981 196.562 219.649C197.584 218.302 198.098 215.803 198.098 212.12C198.098 200.095 194.469 190.549 187.223 183.491C180.73 177.165 172.162 173.682 161.532 173.024C160.015 172.905 158.454 172.849 156.85 172.849C141.964 172.849 129.748 177.772 120.215 187.618C110.676 197.464 105.906 210.009 105.906 225.261C105.906 239.259 110.55 250.997 119.839 260.467C129.128 269.937 140.717 274.672 154.6 274.672C160.792 274.672 166.515 273.657 171.767 271.622C177.019 269.586 182.491 266.229 188.188 261.544C190.94 259.358 193.127 257.122 194.757 254.842C195.522 253.771 196.098 252.788 196.499 251.874C200.906 244.815 192.049 238.94 185.299 240.6C181.827 241.451 178.154 243.7 176.556 246.994C175.628 248.911 175.39 251.241 175.766 253.439C174.556 253.997 173.328 254.473 172.093 254.867C168.821 255.92 165.43 256.44 161.908 256.44C153.697 256.44 146.727 253.558 140.986 247.79C135.245 242.021 132.374 235.132 132.374 227.115C132.374 224.935 132.656 223.526 133.214 222.862C134.299 222.58 136.097 222.442 138.636 222.442ZM139.306 191.539C142.541 188.132 146.458 186.102 151.058 185.445C151.873 185.363 152.701 185.319 153.553 185.319C159.996 185.319 165.33 187.461 169.548 191.739C173.773 196.023 175.879 201.316 175.879 207.629C175.879 208.813 175.597 209.678 175.045 210.222C174.174 210.623 172.632 210.824 170.407 210.824H139.118C136.712 210.824 135.138 210.579 134.399 210.085C133.659 209.59 133.289 208.638 133.289 207.216C133.289 200.99 135.289 195.76 139.306 191.539Z" fill="#016556"/>
<path d="M463.191 161.162C456.842 154.817 447.302 154.942 439.819 159.251C435.87 161.525 432.536 165.007 430.806 169.248C429.477 172.492 428.875 176.519 431.107 179.225C432.216 181.48 434.378 183.209 437.869 183.791C441.881 184.461 445.917 182.789 448.575 179.77C449.327 178.918 450.004 177.904 450.53 176.814C450.844 177.747 451.007 178.831 451.007 180.071C451.007 183.772 449.389 187.311 446.149 190.675C442.909 194.038 438.133 197.182 431.821 200.101L429.552 201.197C405.484 212.415 393.456 221.985 393.456 229.914C393.456 230.428 393.488 230.917 393.532 231.393C393.005 238.545 400.576 243.456 407.465 240.881C413.701 238.552 418.985 229.25 413.751 223.588C414.303 223.532 414.873 223.501 415.456 223.501C419.16 223.501 422.112 224.872 424.306 227.609C426.5 230.347 427.597 234.011 427.597 238.602C427.597 245.955 424.895 251.905 419.492 256.44C414.09 260.981 406.901 263.248 397.919 263.248C387.427 263.248 378.777 259.884 371.964 253.151C365.151 246.425 361.748 237.894 361.748 227.566C361.748 222.712 362.556 218.321 364.174 214.381C365.722 210.611 367.928 207.429 370.767 204.83C375.932 209.427 384.801 209.928 388.931 203.383C391.093 199.957 388.918 196.105 385.114 195.291C383.472 194.94 381.949 194.84 380.419 194.426C378.702 193.518 377.329 192.591 376.302 191.652C374.891 190.293 373.845 188.821 373.168 187.23C372.491 185.639 372.152 183.854 372.152 181.868C372.152 177.014 373.443 173.181 376.026 170.369C378.608 167.55 382.118 166.141 386.556 166.141C387.884 166.141 389.276 166.273 390.724 166.529C389.608 170.325 391.112 174.86 395.293 176.156C400.564 177.791 407.007 175.085 409.314 170.037C410.423 167.613 410.222 164.826 408.587 162.74C407.565 160.611 405.497 158.669 402.369 156.909C397.725 154.303 392.084 152.994 385.459 152.994C375.543 152.994 367.452 155.731 361.184 161.212C354.922 166.686 351.789 173.682 351.789 182.182C351.789 185.05 352.378 187.806 353.55 190.437C354.722 193.073 356.483 195.616 358.833 198.065L358.52 198.692C351.369 203.596 346.185 208.732 342.976 214.106C339.767 219.48 338.162 225.662 338.162 232.651C338.162 245.278 343.158 255.463 353.155 263.204C363.152 270.952 376.421 274.822 392.967 274.822C402.726 274.822 411.326 273.463 418.765 270.751C426.205 268.039 432.404 263.993 437.362 258.626C440.439 255.337 442.79 251.73 444.407 247.79C446.024 243.85 446.832 239.873 446.832 235.858C446.832 230.278 445.529 225.467 442.915 221.421C440.502 217.688 437.03 214.726 432.517 212.527C433.783 212.026 435.061 211.538 436.34 211.03C440.966 209.195 445.585 207.247 449.903 204.755C457.889 200.151 464.752 193.487 467.873 184.662C470.737 176.632 469.327 167.294 463.191 161.162Z" fill="#016556"/>
<path d="M26.5062 143.856C36.6975 143.856 43.6108 143.293 47.2586 142.159C50.9064 141.025 52.7304 139.015 52.7304 136.127C52.7304 133.49 50.7184 131.386 46.6945 129.814C44.6199 129 43.1721 128.273 42.3573 127.647C41.1601 126.77 40.3453 124.409 39.9066 120.575C39.4678 116.742 39.2485 107.535 39.2485 92.9541V85.4131C39.2485 81.2667 39.5619 78.6424 40.1949 77.54C40.8217 76.4377 42.0502 75.8928 43.8741 75.8928H59.9132C65.1342 75.8928 68.782 76.6444 70.8566 78.1539C72.9312 79.6633 74.2537 82.4568 74.8178 86.5467C74.8805 86.9851 74.9432 87.5238 75.0058 88.1501C76.0714 95.0649 78.3403 98.5222 81.8 98.5222C84.6895 98.5222 86.6575 96.7622 87.698 93.2422C88.7322 89.7222 89.2524 81.7114 89.2524 69.2036C89.2524 56.5704 88.7196 48.4782 87.6478 44.9269C86.5761 41.3756 84.6268 39.603 81.8 39.603C78.3403 39.603 76.109 43.0291 75.0999 49.8812C74.9745 50.6328 74.8805 51.2027 74.8178 51.5785C74.191 55.7249 72.8497 58.5371 70.8065 60.0152C68.7632 61.4934 65.1279 62.2325 59.9132 62.2325H43.6798C41.7932 62.2325 40.5835 61.8567 40.0445 61.0988C39.5055 60.3409 39.2422 58.3993 39.2422 55.2551V47.3257C39.2422 39.0331 39.4929 32.7447 39.9943 28.4731C40.4958 24.2015 41.2792 21.4018 42.351 20.0802C43.5419 18.5081 45.7606 17.3807 49.0011 16.6855C52.2415 15.9965 57.0363 15.6458 63.3855 15.6458H76.8736C81.2109 15.6458 84.8587 16.1782 87.8171 17.2492C90.7692 18.3202 92.9441 19.861 94.3292 21.8716C95.0814 23.0052 96.0591 24.546 97.2563 26.4939C99.9576 31.016 102.446 33.2833 104.709 33.2833C106.658 33.2833 108.181 32.4816 109.284 30.8782C110.387 29.2748 110.932 27.0325 110.932 24.1389C110.932 20.9947 110.331 17.1615 109.14 12.6394C107.943 8.11728 106.652 4.69124 105.273 2.36128C104.834 1.60968 104.251 1.02719 103.53 0.62007C102.809 0.20669 101.976 0 101.036 0C100.91 0 99.1992 0.363273 95.8962 1.08356C92.5931 1.8101 89.3715 2.16711 86.2251 2.16711H25.9421C14.6853 2.16711 7.54634 2.63686 4.5253 3.58263C1.51052 4.52213 0 6.25707 0 8.76866C0 11.4744 1.74243 13.5601 5.23355 15.0383C8.72467 16.5164 10.7805 17.6939 11.4135 18.577C12.1656 19.836 12.8426 25.4604 13.4443 35.4505C14.0397 45.4405 14.3405 57.5099 14.3405 71.6525C14.3405 87.2419 14.071 99.9816 13.5383 109.878C13.0055 119.78 12.2973 125.386 11.4135 126.707C10.7178 127.653 8.64319 128.812 5.18967 130.196C1.72989 131.568 0 133.484 0 135.939C0 138.958 1.77377 141.031 5.32756 142.159C8.88136 143.293 15.9451 143.856 26.5062 143.856Z" fill="#016556"/>
</svg>
