<svg xmlns="http://www.w3.org/2000/svg" xmlns:xlink="http://www.w3.org/1999/xlink" width="1440" height="127"><style><![CDATA[.B{fill:#13493e}.C{stroke:#1d1e1b}.D{fill:#961f12}.E{stroke-linecap:round}.F{stroke-linejoin:round}]]></style><g fill="none" fill-rule="evenodd"><path d="M1385.82 82.804V109.8l-11.988 12.35c-9.302-16.653-13.12-27.797-11.452-33.43s9.48-7.602 23.44-5.906z" class="B"/><path d="M1373.38 122.69l12.068-12.73" class="C D E"/><g class="B"><path d="M1403.286 82.07l.714 14.352-89-2.28V82.07z"/><path d="M1339.352 109.724l-14.352.522 2.28-65h12.072z"/></g><g class="C D E"><path d="M1372.5 95.5l12.95-13.795M1326.52 94.7l12.507-12.62"/><path d="M1339.027 82.07l.325-49.57m.078 49.027H1404" class="F"/></g><path d="M254.988 84.62v28.17L243 125.14c-9.302-16.653-13.12-27.797-11.452-33.43s9.48-7.997 23.44-7.09z" class="B"/><path d="M242.55 125.69l12.068-12.73" class="C D E"/><g class="B"><path d="M248.478 84.534L249 98.886l-65-2.28V84.534z"/><path d="M196.068 59.292h12.068v40.606h-12.068z"/></g><g class="C D E"><path d="M242.55 97.718l12.18-12.45m-59.2 11.887l12.507-12.62"/><path d="M208.027 84.534l47.04.17" class="F"/><path d="M254.988 84.704v28.364"/></g><path d="M555.988 84.62v28.17L544 125.14c-9.302-16.653-13.12-27.797-11.452-33.43s9.48-7.997 23.44-7.09z" class="B"/><path d="M543.55 125.7l12.068-12.73M543.55 97.718l12.18-12.45m.258-.564v28.364" class="C D E"/><path d="M1081.82 85.804V112.8l-11.988 12.35c-9.302-16.653-13.12-27.797-11.452-33.43s9.48-7.602 23.44-5.906z" class="B"/><path d="M1069.38 125.7l12.068-12.73m.372-28.256v28.364" class="C D E"/><path d="M167.294 51.07L168 65.422l-88-2.28V51.07z" class="B"/><g class="C D E"><path d="M122.55 64.254l12.18-12.45"/><path d="M104.027 51.07H168" class="F"/></g><g class="B"><path d="M619.294 51.07L620 65.422l-88-2.28V51.07z"/><path d="M556.352 78.724L542 79.246l2.28-65h12.072z"/></g><g class="C D E"><path d="M574.55 64.254l12.18-12.45M543.52 63.7l12.507-12.62"/><g class="F"><path d="M556.027 51.07H620"/><path d="M556.027 51.07l.325-49.57"/></g></g><g class="B"><path d="M874.668 85.07L876 99.422l-166-2.28V85.07z"/><path d="M734.352 112.724l-14.352.522 2.28-65h12.072z"/></g><g class="C D E"><path d="M767.55 98.254l12.18-12.45m62.82 12.45l12.18-12.45M721.52 97.7l12.507-12.62"/><g class="F"><path d="M734.027 85.07H876"/><path d="M734.027 85.07l.325-49.57"/></g></g><g class="B"><path d="M1080.438 85.07l.562 14.352-70-2.28V85.07z"/><path d="M1035.352 112.724l-14.352.522 2.28-65h12.072z"/></g><g class="C D E"><path d="M1068.55 98.254l12.9-13.55M1022.52 97.7l12.507-12.62"/><path d="M1035.027 85.07l.325-49.57m.078 49.027h46.02" class="F"/></g><path d="M1204.438 85.07l.562 14.352-56.55-4.216 9.98-10.68z" class="B"/><g class="C D E"><path d="M1146.5 96.422l11.527-11.352"/><path d="M1158.43 84.527h46.02" class="F"/><path d="M208.027 56.17v28.364"/></g><path d="M104.352 101.54L90 102.246l2.28-88h12.072z" class="B"/><g class="C"><g class="D E"><path d="M91.52 63.69l12.507-12.62"/><path d="M104.027 51.07l.325-49.57" class="F"/></g><g fill="#1d7260" stroke-width="1.2"><path d="M44.873 32.188h-69.837a2.73 2.73 0 0 1-2.728-2.733V3.733A2.73 2.73 0 0 1-24.963 1h69.837a2.73 2.73 0 0 1 2.726 2.733v25.72a2.73 2.73 0 0 1-2.726 2.733z"/><path d="M14.565 32.188a2.73 2.73 0 0 1 2.728 2.733v25.72a2.73 2.73 0 0 1-2.728 2.733H-58V32.188h72.565z"/><path d="M89.855 63.374H20.018a2.73 2.73 0 0 1-2.726-2.733V34.92a2.73 2.73 0 0 1 2.726-2.733h69.837a2.73 2.73 0 0 1 2.728 2.733v25.72a2.73 2.73 0 0 1-2.728 2.733zm150.582 0H170.6a2.73 2.73 0 0 1-2.726-2.733V34.92a2.73 2.73 0 0 1 2.726-2.733h69.837a2.73 2.73 0 0 1 2.728 2.733v25.72a2.73 2.73 0 0 1-2.728 2.733z"/><path d="M315.728 63.374H245.89a2.73 2.73 0 0 1-2.728-2.733V34.92a2.73 2.73 0 0 1 2.728-2.733h69.837a2.73 2.73 0 0 1 2.728 2.733v25.72a2.73 2.73 0 0 1-2.728 2.733z"/><use xlink:href="#B"/><use xlink:href="#B" x="75.292"/><path d="M542.024 63.374h-69.837c-1.504 0-2.728-1.224-2.728-2.733V34.92a2.74 2.74 0 0 1 2.728-2.733h69.837a2.73 2.73 0 0 1 2.728 2.733v25.72a2.73 2.73 0 0 1-2.728 2.733zm150.583 0H622.77a2.73 2.73 0 0 1-2.728-2.733V34.92a2.73 2.73 0 0 1 2.728-2.733h69.837a2.73 2.73 0 0 1 2.726 2.733v25.72a2.73 2.73 0 0 1-2.726 2.733z"/><path d="M767.897 63.374H698.06a2.73 2.73 0 0 1-2.728-2.733V34.92a2.73 2.73 0 0 1 2.728-2.733h69.837a2.73 2.73 0 0 1 2.728 2.733v25.72a2.73 2.73 0 0 1-2.728 2.733zM120.164 32.188H50.327c-1.504 0-2.728-1.224-2.728-2.733V3.733C47.6 2.224 48.823 1 50.327 1h69.837a2.73 2.73 0 0 1 2.728 2.733v25.72a2.73 2.73 0 0 1-2.728 2.733z"/><path d="M195.455 32.188h-69.837a2.73 2.73 0 0 1-2.728-2.733V3.733A2.73 2.73 0 0 1 125.618 1h69.837a2.73 2.73 0 0 1 2.728 2.733v25.72a2.73 2.73 0 0 1-2.728 2.733z"/><path d="M270.746 32.188H200.9a2.73 2.73 0 0 1-2.728-2.733V3.733A2.73 2.73 0 0 1 200.91 1h69.837a2.73 2.73 0 0 1 2.728 2.733v25.72a2.73 2.73 0 0 1-2.728 2.733z"/><path d="M346.037 32.188H276.2a2.73 2.73 0 0 1-2.726-2.733V3.733A2.73 2.73 0 0 1 276.2 1h69.837a2.73 2.73 0 0 1 2.728 2.733v25.72a2.73 2.73 0 0 1-2.728 2.733z"/><path d="M421.328 32.188H351.49a2.73 2.73 0 0 1-2.728-2.733V3.733A2.73 2.73 0 0 1 351.491 1h69.837a2.73 2.73 0 0 1 2.728 2.733v25.72a2.73 2.73 0 0 1-2.728 2.733z"/><path d="M496.618 32.188h-69.834a2.73 2.73 0 0 1-2.728-2.733V3.733A2.73 2.73 0 0 1 426.784 1h69.837a2.73 2.73 0 0 1 2.726 2.733v25.72a2.73 2.73 0 0 1-2.728 2.733z"/><path d="M571.91 32.188h-69.837a2.73 2.73 0 0 1-2.728-2.733V3.733A2.73 2.73 0 0 1 502.074 1h69.837a2.73 2.73 0 0 1 2.726 2.733v25.72a2.73 2.73 0 0 1-2.726 2.733z"/><path d="M647.2 32.188h-69.837a2.73 2.73 0 0 1-2.728-2.733V3.733A2.73 2.73 0 0 1 577.365 1H647.2a2.73 2.73 0 0 1 2.728 2.733v25.72a2.73 2.73 0 0 1-2.728 2.733z"/><path d="M722.5 32.188h-69.834a2.73 2.73 0 0 1-2.728-2.733V3.733A2.73 2.73 0 0 1 652.657 1h69.834a2.73 2.73 0 0 1 2.728 2.733v25.72a2.73 2.73 0 0 1-2.728 2.733zm120.697 31.186H773.35a2.73 2.73 0 0 1-2.726-2.733V34.92a2.73 2.73 0 0 1 2.728-2.733h69.834a2.73 2.73 0 0 1 2.728 2.733v25.72a2.73 2.73 0 0 1-2.728 2.733z"/><use xlink:href="#B" x="527.038"/><path d="M797.784 32.188h-69.837a2.73 2.73 0 0 1-2.728-2.733V3.733A2.73 2.73 0 0 1 727.947 1h69.837a2.73 2.73 0 0 1 2.728 2.733v25.72a2.73 2.73 0 0 1-2.728 2.733z"/><path d="M873.074 32.188h-69.837a2.73 2.73 0 0 1-2.726-2.733V3.733A2.73 2.73 0 0 1 803.238 1h69.837a2.73 2.73 0 0 1 2.728 2.733v25.72a2.73 2.73 0 0 1-2.728 2.733z"/><use xlink:href="#C"/><path d="M14.565 94.688a2.73 2.73 0 0 1 2.728 2.733v25.72a2.73 2.73 0 0 1-2.728 2.733H-58V94.688h72.565z"/><path d="M89.855 125.874H20.018a2.73 2.73 0 0 1-2.726-2.733V97.42a2.73 2.73 0 0 1 2.726-2.733h69.837a2.73 2.73 0 0 1 2.728 2.733v25.72a2.73 2.73 0 0 1-2.728 2.733z"/><path d="M165.146 125.874H95.3a2.73 2.73 0 0 1-2.728-2.733V97.42a2.73 2.73 0 0 1 2.728-2.733h69.837a2.73 2.73 0 0 1 2.728 2.733v25.72c0 1.5-1.224 2.733-2.728 2.733z"/><path d="M240.437 125.874H170.6a2.73 2.73 0 0 1-2.726-2.733V97.42a2.73 2.73 0 0 1 2.726-2.733h69.837a2.73 2.73 0 0 1 2.728 2.733v25.72a2.73 2.73 0 0 1-2.728 2.733z"/><use xlink:href="#D"/><path d="M542.024 125.874h-69.837c-1.504 0-2.728-1.224-2.728-2.733V97.42a2.74 2.74 0 0 1 2.728-2.733h69.837a2.73 2.73 0 0 1 2.728 2.733v25.72a2.73 2.73 0 0 1-2.728 2.733zm225.873 0H698.06a2.73 2.73 0 0 1-2.728-2.733V97.42a2.73 2.73 0 0 1 2.728-2.733h69.837a2.73 2.73 0 0 1 2.728 2.733v25.72a2.73 2.73 0 0 1-2.728 2.733zM120.164 94.688H50.327c-1.504 0-2.728-1.224-2.728-2.733v-25.72a2.74 2.74 0 0 1 2.728-2.733h69.837a2.73 2.73 0 0 1 2.728 2.733v25.72a2.73 2.73 0 0 1-2.728 2.733z"/><use xlink:href="#E"/><path d="M346.037 94.688H276.2a2.73 2.73 0 0 1-2.726-2.733v-25.72A2.73 2.73 0 0 1 276.2 63.5h69.837a2.73 2.73 0 0 1 2.728 2.733v25.72a2.73 2.73 0 0 1-2.728 2.733z"/><path d="M421.328 94.688H351.49a2.73 2.73 0 0 1-2.728-2.733v-25.72a2.73 2.73 0 0 1 2.728-2.733h69.837a2.73 2.73 0 0 1 2.728 2.733v25.72a2.73 2.73 0 0 1-2.728 2.733z"/><path d="M496.618 94.688h-69.834a2.73 2.73 0 0 1-2.728-2.733v-25.72a2.73 2.73 0 0 1 2.728-2.733h69.837a2.73 2.73 0 0 1 2.726 2.733v25.72a2.73 2.73 0 0 1-2.728 2.733z"/><use xlink:href="#C" x="527.037"/><path d="M647.2 94.688h-69.837a2.73 2.73 0 0 1-2.728-2.733v-25.72a2.73 2.73 0 0 1 2.728-2.733H647.2a2.73 2.73 0 0 1 2.728 2.733v25.72a2.73 2.73 0 0 1-2.728 2.733z"/><use xlink:href="#F"/><path d="M843.187 125.874H773.35a2.73 2.73 0 0 1-2.726-2.733V97.42a2.73 2.73 0 0 1 2.728-2.733h69.834a2.73 2.73 0 0 1 2.728 2.733v25.72a2.73 2.73 0 0 1-2.728 2.733z"/><use xlink:href="#D" x="451.746"/><path d="M917.935 63.374H848.1a2.73 2.73 0 0 1-2.728-2.733V34.92a2.73 2.73 0 0 1 2.728-2.733h69.837a2.73 2.73 0 0 1 2.726 2.733v25.72a2.73 2.73 0 0 1-2.726 2.733z"/><path d="M993.225 63.374H923.39a2.73 2.73 0 0 1-2.728-2.733V34.92a2.73 2.73 0 0 1 2.728-2.733h69.837a2.73 2.73 0 0 1 2.728 2.733v25.72a2.73 2.73 0 0 1-2.728 2.733z"/><path d="M947.82 32.188h-69.834a2.73 2.73 0 0 1-2.728-2.733V3.733A2.73 2.73 0 0 1 877.986 1h69.834a2.73 2.73 0 0 1 2.728 2.733v25.72a2.73 2.73 0 0 1-2.728 2.733zm120.696 31.186H998.68a2.73 2.73 0 0 1-2.726-2.733V34.92a2.73 2.73 0 0 1 2.728-2.733h69.834a2.73 2.73 0 0 1 2.728 2.733v25.72a2.73 2.73 0 0 1-2.728 2.733z"/><use xlink:href="#B" x="752.366"/><path d="M1023.112 32.188h-69.837a2.73 2.73 0 0 1-2.728-2.733V3.733A2.73 2.73 0 0 1 953.276 1h69.837a2.73 2.73 0 0 1 2.728 2.733v25.72a2.73 2.73 0 0 1-2.728 2.733z"/><path d="M1098.403 32.188h-69.837a2.73 2.73 0 0 1-2.726-2.733V3.733A2.73 2.73 0 0 1 1028.566 1h69.837a2.73 2.73 0 0 1 2.728 2.733v25.72a2.73 2.73 0 0 1-2.728 2.733zm-180.468 93.686H848.1a2.73 2.73 0 0 1-2.728-2.733V97.42a2.73 2.73 0 0 1 2.728-2.733h69.837a2.73 2.73 0 0 1 2.726 2.733v25.72a2.73 2.73 0 0 1-2.726 2.733z"/><path d="M993.225 125.874H923.39a2.73 2.73 0 0 1-2.728-2.733V97.42a2.73 2.73 0 0 1 2.728-2.733h69.837a2.73 2.73 0 0 1 2.728 2.733v25.72a2.73 2.73 0 0 1-2.728 2.733z"/><use xlink:href="#F" x="225.33"/><path d="M1068.516 125.874H998.68a2.73 2.73 0 0 1-2.726-2.733V97.42a2.73 2.73 0 0 1 2.728-2.733h69.834a2.73 2.73 0 0 1 2.728 2.733v25.72a2.73 2.73 0 0 1-2.728 2.733z"/><use xlink:href="#E" x="827.657"/><use xlink:href="#G"/><use xlink:href="#B" x="827.326"/><path d="M1173.363 32.188h-69.837a2.73 2.73 0 0 1-2.726-2.733V3.733A2.73 2.73 0 0 1 1103.526 1h69.837a2.73 2.73 0 0 1 2.728 2.733v25.72a2.73 2.73 0 0 1-2.728 2.733z"/><use xlink:href="#D" x="752.034"/><use xlink:href="#G" x="75.581"/><use xlink:href="#B" x="902.908"/><path d="M1248.943 32.188h-69.837a2.73 2.73 0 0 1-2.726-2.733V3.733A2.73 2.73 0 0 1 1179.107 1h69.837a2.73 2.73 0 0 1 2.728 2.733v25.72a2.73 2.73 0 0 1-2.728 2.733z"/><use xlink:href="#H"/><use xlink:href="#D" x="827.616"/><use xlink:href="#I"/><path d="M1294.637 63.374H1224.8a2.73 2.73 0 0 1-2.726-2.733V34.92a2.73 2.73 0 0 1 2.728-2.733h69.834a2.73 2.73 0 0 1 2.728 2.733v25.72a2.73 2.73 0 0 1-2.728 2.733z"/><use xlink:href="#B" x="978.488"/><path d="M1324.524 32.188h-69.837a2.73 2.73 0 0 1-2.726-2.733V3.733A2.73 2.73 0 0 1 1254.687 1h69.837a2.73 2.73 0 0 1 2.728 2.733v25.72a2.73 2.73 0 0 1-2.728 2.733zm75.676 0h-69.837a2.73 2.73 0 0 1-2.726-2.733V3.733A2.73 2.73 0 0 1 1330.374 1h69.837a2.73 2.73 0 0 1 2.728 2.733v25.72a2.73 2.73 0 0 1-2.728 2.733zm-105.563 93.686H1224.8a2.73 2.73 0 0 1-2.726-2.733V97.42a2.73 2.73 0 0 1 2.728-2.733h69.834a2.73 2.73 0 0 1 2.728 2.733v25.72a2.73 2.73 0 0 1-2.728 2.733z"/><use xlink:href="#D" x="903.196"/><use xlink:href="#I" x="75.581"/><use xlink:href="#B" x="1054.358"/><use xlink:href="#D" x="979.066"/><use xlink:href="#G" x="302.325"/><path d="M1475.976 32.188h-69.837a2.73 2.73 0 0 1-2.726-2.733V3.733A2.73 2.73 0 0 1 1406.14 1h69.837a2.73 2.73 0 0 1 2.728 2.733v25.72a2.73 2.73 0 0 1-2.728 2.733z"/><use xlink:href="#H" x="226.744"/><use xlink:href="#I" x="227.033"/></g></g></g><defs ><path id="B" d="M391.442 63.374h-69.837a2.73 2.73 0 0 1-2.728-2.733V34.92a2.73 2.73 0 0 1 2.728-2.733h69.837a2.73 2.73 0 0 1 2.726 2.733v25.72a2.73 2.73 0 0 1-2.726 2.733z"/><path id="C" d="M44.873 94.688h-69.837a2.73 2.73 0 0 1-2.728-2.733v-25.72a2.73 2.73 0 0 1 2.728-2.733h69.837a2.73 2.73 0 0 1 2.726 2.733v25.72a2.73 2.73 0 0 1-2.726 2.733z"/><path id="D" d="M466.734 125.874h-69.837a2.73 2.73 0 0 1-2.728-2.733V97.42a2.73 2.73 0 0 1 2.728-2.733h69.837a2.73 2.73 0 0 1 2.726 2.733v25.72a2.73 2.73 0 0 1-2.726 2.733z"/><path id="E" d="M195.455 94.688h-69.837a2.73 2.73 0 0 1-2.728-2.733v-25.72a2.73 2.73 0 0 1 2.728-2.733h69.837a2.73 2.73 0 0 1 2.728 2.733v25.72a2.73 2.73 0 0 1-2.728 2.733z"/><path id="F" d="M722.49 94.688h-69.834a2.73 2.73 0 0 1-2.728-2.733v-25.72a2.73 2.73 0 0 1 2.728-2.733h69.834a2.73 2.73 0 0 1 2.728 2.733v25.72a2.73 2.73 0 0 1-2.728 2.733z"/><path id="G" d="M1143.475 63.374h-69.837a2.73 2.73 0 0 1-2.726-2.733V34.92a2.73 2.73 0 0 1 2.728-2.733h69.834a2.73 2.73 0 0 1 2.728 2.733v25.72a2.73 2.73 0 0 1-2.728 2.733z"/><path id="H" d="M1219.056 125.874h-69.837a2.73 2.73 0 0 1-2.726-2.733V97.42a2.73 2.73 0 0 1 2.728-2.733h69.834a2.73 2.73 0 0 1 2.728 2.733v25.72a2.73 2.73 0 0 1-2.728 2.733z"/><path id="I" d="M1248.943 94.688h-69.837a2.73 2.73 0 0 1-2.726-2.733v-25.72a2.73 2.73 0 0 1 2.726-2.733h69.837a2.73 2.73 0 0 1 2.728 2.733v25.72a2.73 2.73 0 0 1-2.728 2.733z"/></defs></svg>