<svg width="80" height="80" viewBox="0 0 80 80" fill="none" xmlns="http://www.w3.org/2000/svg">
<path d="M59.3838 62.6635C59.2711 61.0606 58.5935 59.5497 57.4713 58.3994C57.333 58.2333 57.2114 58.054 57.108 57.864C57.0711 57.8001 57.0516 57.7276 57.0516 57.6537C57.0516 57.5799 57.0711 57.5073 57.108 57.4434C57.2993 57.0992 57.4904 56.755 57.6625 56.3917C57.9594 55.6944 58.1652 54.9617 58.2746 54.2118C58.4719 52.7681 58.2872 51.2979 57.7391 49.9478C57.4516 49.1846 57.0728 48.4591 56.6108 47.787C56.2092 47.2134 55.7309 46.678 55.2911 46.1235C56.4194 45.6837 57.6053 45.3778 58.7719 45.0144L62.8263 43.8098C65.4846 43.0067 68.2192 42.3757 70.801 41.3622C73.1807 40.471 75.3542 39.1048 77.1888 37.3468C78.0541 36.6594 78.7552 35.7879 79.2415 34.7956C79.7278 33.8034 79.987 32.7153 80 31.6103C79.8093 29.7159 79.0765 27.9166 77.8894 26.4278C76.7022 24.9391 75.1111 23.824 73.3064 23.216C71.5269 22.6517 69.6164 22.6517 67.8369 23.216C66.668 23.6395 65.5248 24.1311 64.4135 24.6884L60.5886 26.6005C57.7391 28.0155 54.8511 29.4879 52.0972 30.922L47.7753 33.1783C47.0868 33.5607 46.379 33.924 45.6714 34.2873C45.3272 34.4785 45.0022 34.6698 44.658 34.8227C44.493 34.8879 44.3187 34.9267 44.1416 34.9374C44.1291 34.7312 44.1754 34.5256 44.2754 34.3447C44.5049 33.873 44.7535 33.4141 45.0212 32.9679C45.6391 32.0293 46.3296 31.1406 47.0866 30.3101L51.4088 25.2238C54.3642 22.1225 56.9328 18.6747 59.0586 14.9556C59.7647 13.6801 60.1975 12.2716 60.3292 10.8198C60.4609 9.36799 60.2887 7.90465 59.8236 6.52301C59.2245 5.13107 58.3447 3.87772 57.239 2.84132C56.1333 1.80492 54.8257 1.00777 53.3978 0.499778C52.0329 -0.0274417 50.5428 -0.140509 49.1139 0.174717C47.5183 0.632652 46.0856 1.53452 44.983 2.77523C41.9995 5.81554 40.8138 9.8884 38.7484 13.5024C37.6774 15.4145 36.3769 17.1545 35.1338 18.9137C33.8907 20.6729 32.5711 22.5468 31.3089 24.3633L29.3965 27.0403C28.9061 27.8095 28.2534 28.4622 27.484 28.9525C26.8023 29.3297 26.0218 29.4898 25.2466 29.4114C24.3183 29.3157 23.3825 29.3157 22.4543 29.4114C18.7738 29.8956 15.3849 31.671 12.892 34.4212C10.3766 37.2324 8.65976 40.6656 7.91969 44.3643C7.7412 45.2567 7.6074 46.1745 7.51815 47.1178C7.49313 48.0399 7.41008 48.9596 7.26953 49.8713C6.83299 51.6012 5.75221 53.0991 4.24794 54.0589C3.38734 54.6708 2.4883 55.2253 1.66595 55.8563C1.0996 56.2344 0.628395 56.7383 0.289043 57.3286C-0.456812 58.7054 0.403818 60.1777 1.03493 61.4397C2.90634 65.2841 5.32169 68.8389 8.20661 71.9948C9.69529 73.6141 11.3065 75.1164 13.026 76.4883C13.8866 77.1958 14.7855 77.8459 15.7035 78.4005C16.3718 78.8996 17.0895 79.3289 17.8454 79.6816C18.3713 79.9227 18.9487 80.0297 19.5261 79.9929C20.1034 79.9562 20.6628 79.777 21.1539 79.4713C21.7705 79.0552 22.3354 78.5674 22.8369 78.018C23.5827 77.2532 24.3096 76.4692 25.0745 75.7234C25.4043 75.3439 25.7994 75.0266 26.2411 74.7865C26.7375 74.6105 27.2647 74.5389 27.7901 74.5762C28.8037 74.5762 29.8172 74.5762 30.8308 74.5762C32.8382 74.5791 34.8417 74.3999 36.8168 74.0408C38.716 73.7327 40.5674 73.18 42.3246 72.3963C43.1329 71.9447 43.9774 71.5609 44.8492 71.249C45.7242 71.0535 46.6129 70.9257 47.5075 70.8666C51.0592 70.4274 54.3733 68.851 56.9549 66.3731C58.2125 65.4958 59.0827 64.1668 59.3838 62.6635ZM41.8657 37.1938C42.324 37.5075 42.8864 37.6309 43.434 37.538C44.1062 37.4196 44.753 37.1867 45.3464 36.8496L47.603 35.8553C53.6846 33.1783 59.2308 29.4496 65.3889 26.9447C67.6391 25.745 70.2471 25.3987 72.7326 25.9695C74.0179 26.372 75.1642 27.1273 76.0411 28.1494C77.0464 29.2057 77.6019 30.6112 77.5903 32.0692C77.2628 33.3499 76.5481 34.4984 75.5438 35.3581C73.3905 37.4047 70.7616 38.8833 67.8941 39.6604C64.7768 40.5974 61.6406 41.3814 58.5424 42.3566C55.4442 43.3318 52.3651 44.5173 49.3434 45.7984L47.0866 46.7354L45.9775 47.2325C45.748 47.2325 45.3847 47.5767 45.1361 47.5002C44.8875 47.4238 44.8108 47.1943 44.696 47.0413L44.065 46.0661C43.6634 45.4542 43.2618 44.8424 42.8985 44.154C42.1151 42.876 41.5587 41.4722 41.2538 40.0046C41.0022 38.5212 40.4277 37.1112 39.5708 35.8744C38.728 34.7212 37.6773 33.7355 36.4727 32.9679C35.1164 32.1768 33.7039 31.4865 32.2462 30.9028L31.1368 30.4248C30.9647 30.4248 30.5631 30.2527 30.4484 30.0997C30.4943 29.9917 30.5519 29.8891 30.6204 29.7938L31.4046 28.6848L34.369 24.4972C36.2815 21.7054 38.1939 18.9328 40.1064 16.1029C41.0173 14.7346 41.8411 13.3104 42.5733 11.8388C43.3191 10.3855 43.9502 8.87497 44.7343 7.44086C45.2725 6.25482 46.0831 5.21244 47.0999 4.39843C48.1168 3.58443 49.3113 3.02173 50.5865 2.75609C51.723 2.73365 52.8492 2.97391 53.8775 3.45815C54.9059 3.94239 55.8086 4.65754 56.5151 5.54783C57.1454 6.4617 57.5473 7.5134 57.687 8.61468C57.8268 9.71597 57.7005 10.8347 57.3184 11.877C56.259 14.6725 54.7186 17.2611 52.7668 19.5256C50.6631 22.2408 48.502 24.8605 46.341 27.4992C45.2509 28.8377 44.1606 30.138 43.1088 31.4956C42.0816 32.596 41.4144 33.9835 41.1963 35.4728C41.1738 35.7913 41.2221 36.1108 41.3378 36.4084C41.4536 36.706 41.6339 36.9742 41.8657 37.1938V37.1938ZM40.4313 63.2945C40.4313 63.0459 40.2975 62.74 40.221 62.4914L40.8139 62.6635C42.0967 63.0097 43.4281 63.139 44.7535 63.046C47.5026 62.7734 50.1625 61.9195 52.5564 60.541C53.2534 60.1138 54.0156 59.8038 54.813 59.6232C55.1403 59.6059 55.4653 59.688 55.7451 59.8586C56.025 60.0292 56.2468 60.2804 56.3813 60.5793C56.7688 61.215 56.9305 61.9628 56.8403 62.7018C56.6284 63.4271 56.2331 64.0857 55.6926 64.6139V64.6139C53.6116 66.4027 51.1332 67.668 48.4637 68.3044C47.0931 68.6296 45.6652 68.6296 44.2945 68.3044C42.966 67.7937 41.889 66.7854 41.2921 65.4935C40.9291 64.7926 40.6405 64.0556 40.4313 63.2945V63.2945ZM55.5397 55.0532C54.7002 56.5429 53.4349 57.748 51.906 58.5142C50.3776 59.4325 48.7019 60.0794 46.9528 60.4263C45.9807 60.6007 44.9952 60.6903 44.0076 60.694C42.9384 60.7775 41.8631 60.6674 40.8331 60.3689C39.8882 60.0018 39.0935 59.3286 38.5763 58.4568C38.3016 58.0059 38.0525 57.5399 37.8304 57.0609C37.7638 56.9312 37.7064 56.7971 37.6584 56.6594C38.1891 56.8216 38.733 56.9368 39.2839 57.0036C40.1375 57.0869 40.9991 57.0157 41.8274 56.7932C43.4806 56.3567 44.9124 55.3206 45.8437 53.8868C46.3119 53.177 46.5644 52.3468 46.5704 51.4966C46.5704 50.7509 46.1305 50.0051 46.972 49.5845C47.431 49.355 47.909 49.1829 48.368 48.9343C48.827 48.6858 49.286 48.4372 49.7641 48.2269C50.4944 47.8631 51.2851 47.6362 52.0972 47.5576C52.7046 47.5421 53.3015 47.7186 53.8028 48.0619C54.3041 48.4052 54.6845 48.8978 54.8895 49.4697C55.2949 50.3805 55.5593 51.3477 55.6737 52.338C55.8652 53.2393 55.819 54.175 55.5397 55.0532V55.0532ZM6.58107 56.2387C7.10577 55.7285 7.77236 55.3886 8.49352 55.2635C9.23771 55.4074 9.91156 55.7981 10.406 56.3726C11.3431 57.1757 12.3183 57.9979 13.1789 58.8392C16.8783 61.8528 20.007 65.5055 22.4162 69.6237C22.7222 70.1974 22.9898 70.771 23.2384 71.3447C23.3517 71.6006 23.4102 71.8774 23.4102 72.1573C23.4102 72.4372 23.3517 72.714 23.2384 72.97C22.7721 73.7816 22.1997 74.5276 21.5363 75.1881C18.3566 69.4169 13.9026 64.4468 8.51267 60.6558C7.1357 59.6615 5.73947 58.7436 4.30514 57.8067C5.14662 57.1757 5.87347 56.755 6.58107 56.2387V56.2387ZM25.8968 70.0062C24.9183 67.867 23.7198 65.8356 22.3205 63.9446C19.4914 60.2416 16.089 57.0141 12.2418 54.3839C11.4098 53.871 10.7452 53.1268 10.3294 52.2423C10.0454 51.2876 9.98007 50.2811 10.1382 49.2977C10.2474 47.1737 10.6004 45.0693 11.1901 43.0258C12.2984 38.9339 14.9426 35.427 18.5722 33.2356C20.4552 32.3804 22.4995 31.9379 24.5677 31.9379C26.6359 31.9379 28.6802 32.3804 30.5633 33.2356C31.6783 33.6547 32.7699 34.1334 33.8335 34.6697C34.9093 35.1094 35.9196 35.6949 36.8359 36.4098C38.5189 37.9778 38.7485 40.4635 39.59 42.5287C40.4093 44.7033 41.5225 46.7556 42.8985 48.6284C43.5216 49.3019 43.974 50.115 44.2179 50.9995C44.2595 51.342 44.2284 51.6894 44.1262 52.0189C44.024 52.3484 43.8532 52.6527 43.6252 52.9116C43.2317 53.5036 42.6969 53.9883 42.0692 54.3221C41.4416 54.6559 40.7407 54.8283 40.0298 54.8237C38.1566 54.6402 36.3829 53.8935 34.9426 52.6821C34.0376 51.927 33.1996 51.0954 32.4374 50.1964C31.8283 49.3751 31.15 48.6075 30.4101 47.9018C30.1453 47.6893 29.8342 47.5423 29.502 47.4725C29.1697 47.4028 28.8256 47.4123 28.4977 47.5002C27.6562 47.7488 27.006 48.3798 26.1262 48.6284C25.6861 48.7212 25.2374 48.7661 24.7876 48.7623C24.3593 48.8342 23.9534 49.0043 23.6019 49.2594C23.4687 49.3391 23.3718 49.4678 23.3325 49.618C23.2932 49.7682 23.3145 49.9278 23.3916 50.0625C23.636 50.5139 23.9913 50.8956 24.4241 51.1715C24.8576 51.3858 25.3368 51.4909 25.8202 51.4775C26.7112 51.4162 27.5758 51.1477 28.3447 50.6935C28.643 50.4847 28.9947 50.3652 29.3584 50.3493C29.76 50.4449 30.0851 51.0568 30.3146 51.3436C31.0868 52.2784 31.9662 53.1191 32.9347 53.8485C33.3662 54.1632 33.7694 54.5151 34.1395 54.9002C34.499 55.3381 34.801 55.82 35.0383 56.3343C35.5547 57.4242 36.0519 58.495 36.6639 59.5276C37.2844 60.3476 37.6977 61.3054 37.8687 62.3193C37.8687 62.7974 37.8687 63.2754 37.8687 63.7343C37.9378 64.2303 38.0595 64.7175 38.232 65.1876C39.1461 67.0551 40.4504 68.7049 42.0569 70.0253C41.3655 70.3816 40.6498 70.6883 39.9149 70.9431C38.9587 71.249 38.0027 71.5359 37.0082 71.7844C35.1416 72.314 33.2111 72.5842 31.2709 72.5875C30.2594 72.5822 29.2517 72.4603 28.2682 72.2242C27.7206 72.0833 27.2176 71.8059 26.8063 71.4181C26.3949 71.0302 26.0887 70.5445 25.9159 70.0062H25.8968Z" fill="#F5B1BC"/>
</svg>
