<svg width="1440" height="704" viewBox="0 0 1440 704" fill="none" xmlns="http://www.w3.org/2000/svg">
<g clip-path="url(#clip0)">
<path fill-rule="evenodd" clip-rule="evenodd" d="M-6.37964 699.351H1440.52V-0.621155H-6.37964V699.351Z" fill="#F6E545"/>
<path fill-rule="evenodd" clip-rule="evenodd" d="M-6.37964 699.351H1440.52V-0.621887H-6.37964V699.351Z" stroke="black"/>
<path fill-rule="evenodd" clip-rule="evenodd" d="M-6.37964 698.7H1440.52V589.747H-6.37964V698.7Z" fill="#E2C72D"/>
<path fill-rule="evenodd" clip-rule="evenodd" d="M-4.93262 156.113H1440.52V78.2786H-4.93262V156.113Z" stroke="#020202"/>
<path fill-rule="evenodd" clip-rule="evenodd" d="M-12.3608 307.782H1440.52V229.948H-12.3608V307.782Z" stroke="#020202"/>
<path fill-rule="evenodd" clip-rule="evenodd" d="M-9.44434 465.58H1440.52V387.746H-9.44434V465.58Z" stroke="#020202"/>
<path fill-rule="evenodd" clip-rule="evenodd" d="M1215.19 229.503H1441.79V244.834L1216.52 230.502L1215.19 229.503Z" fill="#020202"/>
<path fill-rule="evenodd" clip-rule="evenodd" d="M221.001 -0.223389H-5.59668V15.1073L219.671 0.775361L221.001 -0.223389Z" fill="#020202"/>
<path d="M72.1084 279.928H301.321" stroke="#020202"/>
<path d="M637.777 444.815H832.473" stroke="#020202"/>
<path d="M69.4524 443.257H259.512" stroke="#020202"/>
<path d="M180.708 421.193H324.411" stroke="#020202"/>
<path d="M187.129 175.86H323.107" stroke="#020202"/>
<path d="M751.858 417.641H946.555" stroke="#020202"/>
<path d="M626.276 354.52H816.336" stroke="#020202"/>
<path d="M737.531 332.456H881.235" stroke="#020202"/>
<path d="M4.04272 668.82H194.104" stroke="#020202"/>
<path d="M301.322 632.853H445.026" stroke="#020202"/>
<path d="M841.164 578.382H1121.59" stroke="#282828"/>
<path d="M314.032 668.482H574.519" stroke="#282828"/>
<path d="M658.84 665.283H1069.51" stroke="#282828"/>
<path d="M899.641 620.976H1063.11" stroke="#282828"/>
<path fill-rule="evenodd" clip-rule="evenodd" d="M1273.16 78.2784L1405.97 88.6711L1435.2 85.6741L1440.52 96.6611V78.6829L1273.16 78.2784Z" fill="#282828"/>
<path fill-rule="evenodd" clip-rule="evenodd" d="M-9.44434 589.746H1440.52V465.579H-9.44434V589.746Z" stroke="#020202"/>
<path fill-rule="evenodd" clip-rule="evenodd" d="M220.218 307.782H-6.37915V323.112L218.889 308.781L220.218 307.782Z" fill="#020202"/>
<path d="M228.625 621.785C221.636 645.763 218.105 675.465 218.177 700.439" stroke="#3165C5"/>
<path fill-rule="evenodd" clip-rule="evenodd" d="M210.087 657.998C206.429 656.389 202.193 654.777 198.585 656.492C196.696 657.39 195.32 659.073 194.009 660.701C192.844 662.15 191.678 663.598 190.513 665.045C195.364 667.922 200.936 669.57 206.571 669.796C209.311 669.906 212.175 669.65 214.53 668.246C216.142 667.286 217.449 665.691 217.921 663.861C218.112 663.119 218.402 661.81 217.626 661.33C216.561 660.672 215.24 660.266 214.093 659.761C212.758 659.174 211.422 658.585 210.087 657.998Z" fill="#3165C5"/>
<path fill-rule="evenodd" clip-rule="evenodd" d="M210.087 657.998C206.429 656.389 202.193 654.777 198.585 656.492C196.696 657.39 195.32 659.073 194.009 660.701C192.844 662.15 191.678 663.598 190.513 665.045C195.364 667.922 200.936 669.57 206.571 669.796C209.311 669.906 212.175 669.65 214.53 668.246C216.142 667.286 217.449 665.691 217.921 663.861C218.112 663.119 218.402 661.81 217.626 661.33C216.561 660.672 215.24 660.266 214.093 659.761C212.758 659.174 211.422 658.585 210.087 657.998Z" stroke="#3165C5"/>
<path fill-rule="evenodd" clip-rule="evenodd" d="M228.37 599.269C226.247 602.366 224.026 605.829 224.453 609.559C224.693 611.666 225.763 613.575 226.812 615.418C227.662 616.911 228.511 618.404 229.359 619.897C230.788 616.257 233.381 613.221 235.693 610.067C238.004 606.912 240.13 603.391 240.37 599.488C240.531 596.853 239.601 594.042 237.708 592.167C237.088 591.554 235.542 590.203 234.571 590.523C234.023 590.703 233.653 591.561 233.355 591.995L231.832 594.217C230.678 595.902 229.524 597.586 228.37 599.269Z" fill="#3165C5"/>
<path fill-rule="evenodd" clip-rule="evenodd" d="M228.37 599.269C226.247 602.366 224.026 605.829 224.453 609.559C224.693 611.666 225.763 613.575 226.812 615.418C227.662 616.911 228.511 618.404 229.359 619.897C230.788 616.257 233.381 613.221 235.693 610.067C238.004 606.912 240.13 603.391 240.37 599.488C240.531 596.853 239.601 594.042 237.708 592.167C237.088 591.554 235.542 590.203 234.571 590.523C234.023 590.703 233.653 591.561 233.355 591.995L231.832 594.217C230.678 595.902 229.524 597.586 228.37 599.269Z" stroke="#3165C5"/>
<path fill-rule="evenodd" clip-rule="evenodd" d="M206.873 676.503C202.894 676.15 198.364 675.981 195.496 678.762C193.995 680.217 193.23 682.251 192.511 684.214C191.872 685.959 191.233 687.704 190.594 689.449C196.111 690.62 201.918 690.396 207.328 688.804C209.958 688.03 212.589 686.871 214.369 684.786C215.588 683.36 216.314 681.431 216.175 679.546C216.118 678.781 215.972 677.449 215.085 677.243C213.863 676.96 212.482 676.999 211.234 676.889L206.873 676.503Z" fill="#3165C5"/>
<path fill-rule="evenodd" clip-rule="evenodd" d="M206.873 676.503C202.894 676.15 198.364 675.981 195.496 678.762C193.995 680.217 193.23 682.251 192.511 684.214C191.872 685.959 191.233 687.704 190.594 689.449C196.111 690.62 201.918 690.396 207.328 688.804C209.958 688.03 212.589 686.871 214.369 684.786C215.588 683.36 216.314 681.431 216.175 679.546C216.118 678.781 215.972 677.449 215.085 677.243C213.863 676.96 212.482 676.999 211.234 676.889L206.873 676.503Z" stroke="#3165C5"/>
<path fill-rule="evenodd" clip-rule="evenodd" d="M212.606 639.842C209.108 637.912 205.034 635.927 201.287 637.312C199.324 638.038 197.803 639.588 196.351 641.093C195.061 642.432 193.77 643.769 192.48 645.107C197.052 648.406 202.454 650.548 208.046 651.278C210.765 651.632 213.642 651.634 216.113 650.447C217.804 649.635 219.249 648.164 219.883 646.384C220.14 645.662 220.546 644.382 219.817 643.836C218.815 643.085 217.536 642.562 216.438 641.957C215.162 641.252 213.884 640.547 212.606 639.842Z" fill="#3165C5"/>
<path fill-rule="evenodd" clip-rule="evenodd" d="M212.606 639.842C209.108 637.912 205.034 635.927 201.287 637.312C199.324 638.038 197.803 639.588 196.351 641.093C195.061 642.432 193.77 643.769 192.48 645.107C197.052 648.406 202.454 650.548 208.046 651.278C210.765 651.632 213.642 651.634 216.113 650.447C217.804 649.635 219.249 648.164 219.883 646.384C220.14 645.662 220.546 644.382 219.817 643.836C218.815 643.085 217.536 642.562 216.438 641.957C215.162 641.252 213.884 640.547 212.606 639.842Z" stroke="#3165C5"/>
<path fill-rule="evenodd" clip-rule="evenodd" d="M218.695 621.703C216.089 618.674 212.964 615.395 208.967 615.387C206.875 615.383 204.908 616.308 203.022 617.213C201.346 618.017 199.67 618.822 197.994 619.625C201.129 624.311 205.446 628.2 210.433 630.832C212.858 632.112 215.553 633.115 218.283 632.864C220.152 632.692 222.018 631.817 223.234 630.368C223.727 629.782 224.553 628.724 224.06 627.958C223.383 626.904 222.366 625.97 221.549 625.019L218.695 621.703Z" fill="#3165C5"/>
<path fill-rule="evenodd" clip-rule="evenodd" d="M218.695 621.703C216.089 618.674 212.964 615.395 208.967 615.387C206.875 615.383 204.908 616.308 203.022 617.213C201.346 618.017 199.67 618.822 197.994 619.625C201.129 624.311 205.446 628.2 210.433 630.832C212.858 632.112 215.553 633.115 218.283 632.864C220.152 632.692 222.018 631.817 223.234 630.368C223.727 629.782 224.553 628.724 224.06 627.958C223.383 626.904 222.366 625.97 221.549 625.019L218.695 621.703Z" stroke="#3165C5"/>
<path fill-rule="evenodd" clip-rule="evenodd" d="M230.851 670.71C234.186 672.911 238.088 675.213 241.935 674.128C243.948 673.561 245.588 672.135 247.154 670.75C248.547 669.519 249.939 668.287 251.332 667.056C247.036 663.405 241.82 660.842 236.303 659.672C233.621 659.103 230.754 658.873 228.197 659.86C226.446 660.536 224.89 661.888 224.115 663.613C223.802 664.312 223.297 665.554 223.98 666.157C224.92 666.986 226.153 667.608 227.198 668.299C228.417 669.102 229.634 669.906 230.851 670.71Z" fill="#3165C5"/>
<path fill-rule="evenodd" clip-rule="evenodd" d="M230.851 670.71C234.186 672.911 238.088 675.213 241.935 674.128C243.948 673.561 245.588 672.135 247.154 670.75C248.547 669.519 249.939 668.287 251.332 667.056C247.036 663.405 241.82 660.842 236.303 659.672C233.621 659.103 230.754 658.873 228.197 659.86C226.446 660.536 224.89 661.888 224.115 663.613C223.802 664.312 223.297 665.554 223.98 666.157C224.92 666.986 226.153 667.608 227.198 668.299C228.417 669.102 229.634 669.906 230.851 670.71Z" stroke="#3165C5"/>
<path fill-rule="evenodd" clip-rule="evenodd" d="M234.053 654.092C237.81 655.454 242.143 656.781 245.629 654.829C247.454 653.808 248.716 652.038 249.915 650.326C250.982 648.804 252.048 647.281 253.114 645.759C248.083 643.212 242.414 641.937 236.776 642.087C234.036 642.159 231.194 642.605 228.938 644.162C227.394 645.227 226.195 646.905 225.846 648.763C225.705 649.516 225.503 650.842 226.309 651.268C227.415 651.854 228.761 652.172 229.938 652.6C231.31 653.097 232.682 653.594 234.053 654.092Z" fill="#3165C5"/>
<path fill-rule="evenodd" clip-rule="evenodd" d="M234.053 654.092C237.81 655.454 242.143 656.781 245.629 654.829C247.454 653.808 248.716 652.038 249.915 650.326C250.982 648.804 252.048 647.281 253.114 645.759C248.083 643.212 242.414 641.937 236.776 642.087C234.036 642.159 231.194 642.605 228.938 644.162C227.394 645.227 226.195 646.905 225.846 648.763C225.705 649.516 225.503 650.842 226.309 651.268C227.415 651.854 228.761 652.172 229.938 652.6C231.31 653.097 232.682 653.594 234.053 654.092Z" stroke="#3165C5"/>
<path fill-rule="evenodd" clip-rule="evenodd" d="M226.525 687.095C229.172 690.088 232.344 693.325 236.338 693.277C238.43 693.252 240.385 692.301 242.258 691.371C243.922 690.544 245.587 689.716 247.253 688.89C244.054 684.248 239.684 680.418 234.662 677.854C232.219 676.608 229.511 675.641 226.784 675.93C224.918 676.127 223.063 677.029 221.868 678.493C221.383 679.087 220.572 680.155 221.075 680.915C221.767 681.959 222.795 682.88 223.625 683.818C224.593 684.911 225.559 686.003 226.525 687.095Z" fill="#3165C5"/>
<path fill-rule="evenodd" clip-rule="evenodd" d="M226.525 687.095C229.172 690.088 232.344 693.325 236.338 693.277C238.43 693.252 240.385 692.301 242.258 691.371C243.922 690.544 245.587 689.716 247.253 688.89C244.054 684.248 239.684 680.418 234.662 677.854C232.219 676.608 229.511 675.641 226.784 675.93C224.918 676.127 223.063 677.029 221.868 678.493C221.383 679.087 220.572 680.155 221.075 680.915C221.767 681.959 222.795 682.88 223.625 683.818C224.593 684.911 225.559 686.003 226.525 687.095Z" stroke="#3165C5"/>
<path fill-rule="evenodd" clip-rule="evenodd" d="M238.521 635.872C242.515 636.026 247.047 635.971 249.772 633.051C251.199 631.523 251.861 629.454 252.482 627.457C253.034 625.682 253.586 623.908 254.138 622.133C248.57 621.238 242.781 621.75 237.456 623.608C234.868 624.512 232.297 625.801 230.623 627.971C229.477 629.456 228.847 631.419 229.081 633.294C229.175 634.055 229.388 635.379 230.285 635.54C231.517 635.762 232.894 635.655 234.147 635.703C235.606 635.759 237.063 635.816 238.521 635.872Z" fill="#3165C5"/>
<path fill-rule="evenodd" clip-rule="evenodd" d="M238.521 635.872C242.515 636.026 247.047 635.971 249.772 633.051C251.199 631.523 251.861 629.454 252.482 627.457C253.034 625.682 253.586 623.908 254.138 622.133C248.57 621.238 242.781 621.75 237.456 623.608C234.868 624.512 232.297 625.801 230.623 627.971C229.477 629.456 228.847 631.419 229.081 633.294C229.175 634.055 229.388 635.379 230.285 635.54C231.517 635.762 232.894 635.655 234.147 635.703C235.606 635.759 237.063 635.816 238.521 635.872Z" stroke="#3165C5"/>
<path d="M1368.63 617.996C1361.78 641.497 1358.31 670.61 1358.39 695.088" stroke="#3165C5"/>
<path fill-rule="evenodd" clip-rule="evenodd" d="M1350.46 653.49C1346.87 651.912 1342.72 650.333 1339.18 652.014C1337.33 652.894 1335.98 654.542 1334.7 656.139C1333.56 657.558 1332.41 658.977 1331.27 660.397C1336.03 663.216 1341.49 664.832 1347.01 665.053C1349.7 665.16 1352.5 664.91 1354.81 663.534C1356.39 662.593 1357.67 661.03 1358.13 659.236C1358.32 658.509 1358.61 657.225 1357.85 656.755C1356.8 656.11 1355.51 655.712 1354.38 655.217C1353.07 654.641 1351.76 654.066 1350.46 653.49Z" fill="#3165C5"/>
<path fill-rule="evenodd" clip-rule="evenodd" d="M1350.46 653.49C1346.87 651.912 1342.72 650.333 1339.18 652.014C1337.33 652.894 1335.98 654.542 1334.7 656.139C1333.56 657.558 1332.41 658.977 1331.27 660.397C1336.03 663.216 1341.49 664.832 1347.01 665.053C1349.7 665.16 1352.5 664.91 1354.81 663.534C1356.39 662.593 1357.67 661.03 1358.13 659.236C1358.32 658.509 1358.61 657.225 1357.85 656.755C1356.8 656.11 1355.51 655.712 1354.38 655.217C1353.07 654.641 1351.76 654.066 1350.46 653.49Z" stroke="#3165C5"/>
<path fill-rule="evenodd" clip-rule="evenodd" d="M1368.38 595.928C1366.3 598.963 1364.12 602.357 1364.54 606.014C1364.77 608.078 1365.82 609.948 1366.85 611.756L1369.35 616.145C1370.75 612.577 1373.29 609.603 1375.55 606.511C1377.82 603.418 1379.9 599.967 1380.14 596.141C1380.3 593.559 1379.38 590.803 1377.53 588.966C1376.92 588.365 1375.41 587.04 1374.45 587.354C1373.92 587.532 1373.55 588.371 1373.26 588.797C1372.76 589.524 1372.27 590.25 1371.77 590.976C1370.64 592.626 1369.51 594.277 1368.38 595.928Z" fill="#3165C5"/>
<path fill-rule="evenodd" clip-rule="evenodd" d="M1368.38 595.928C1366.3 598.963 1364.12 602.357 1364.54 606.014C1364.77 608.078 1365.82 609.948 1366.85 611.756L1369.35 616.145C1370.75 612.577 1373.29 609.603 1375.55 606.511C1377.82 603.418 1379.9 599.967 1380.14 596.141C1380.3 593.559 1379.38 590.803 1377.53 588.966C1376.92 588.365 1375.41 587.04 1374.45 587.354C1373.92 587.532 1373.55 588.371 1373.26 588.797C1372.76 589.524 1372.27 590.25 1371.77 590.976C1370.64 592.626 1369.51 594.277 1368.38 595.928Z" stroke="#3165C5"/>
<path fill-rule="evenodd" clip-rule="evenodd" d="M1347.31 671.627C1343.41 671.282 1338.97 671.115 1336.16 673.84C1334.68 675.268 1333.94 677.261 1333.23 679.185C1332.6 680.896 1331.98 682.605 1331.35 684.316C1336.76 685.464 1342.45 685.244 1347.75 683.684C1350.33 682.926 1352.91 681.788 1354.65 679.746C1355.85 678.348 1356.56 676.457 1356.42 674.609C1356.37 673.861 1356.22 672.553 1355.35 672.353C1354.16 672.076 1352.8 672.113 1351.58 672.005C1350.16 671.879 1348.73 671.752 1347.31 671.627Z" fill="#3165C5"/>
<path fill-rule="evenodd" clip-rule="evenodd" d="M1347.31 671.627C1343.41 671.282 1338.97 671.115 1336.16 673.84C1334.68 675.268 1333.94 677.261 1333.23 679.185C1332.6 680.896 1331.98 682.605 1331.35 684.316C1336.76 685.464 1342.45 685.244 1347.75 683.684C1350.33 682.926 1352.91 681.788 1354.65 679.746C1355.85 678.348 1356.56 676.457 1356.42 674.609C1356.37 673.861 1356.22 672.553 1355.35 672.353C1354.16 672.076 1352.8 672.113 1351.58 672.005C1350.16 671.879 1348.73 671.752 1347.31 671.627Z" stroke="#3165C5"/>
<path fill-rule="evenodd" clip-rule="evenodd" d="M1352.93 635.694C1349.5 633.802 1345.5 631.857 1341.83 633.214C1339.91 633.925 1338.42 635.446 1336.99 636.921C1335.73 638.232 1334.46 639.543 1333.2 640.854C1337.68 644.089 1342.98 646.188 1348.46 646.903C1351.12 647.251 1353.94 647.252 1356.36 646.089C1358.02 645.292 1359.44 643.851 1360.06 642.106C1360.31 641.398 1360.71 640.145 1359.99 639.609C1359.01 638.873 1357.76 638.361 1356.68 637.767C1355.43 637.076 1354.18 636.385 1352.93 635.694Z" fill="#3165C5"/>
<path fill-rule="evenodd" clip-rule="evenodd" d="M1352.93 635.694C1349.5 633.802 1345.5 631.857 1341.83 633.214C1339.91 633.925 1338.42 635.446 1336.99 636.921C1335.73 638.232 1334.46 639.543 1333.2 640.854C1337.68 644.089 1342.98 646.188 1348.46 646.903C1351.12 647.251 1353.94 647.252 1356.36 646.089C1358.02 645.292 1359.44 643.851 1360.06 642.106C1360.31 641.398 1360.71 640.145 1359.99 639.609C1359.01 638.873 1357.76 638.361 1356.68 637.767C1355.43 637.076 1354.18 636.385 1352.93 635.694Z" stroke="#3165C5"/>
<path fill-rule="evenodd" clip-rule="evenodd" d="M1358.89 617.915C1356.34 614.948 1353.28 611.732 1349.36 611.725C1347.31 611.721 1345.38 612.627 1343.53 613.514C1341.89 614.302 1340.25 615.091 1338.6 615.879C1341.68 620.472 1345.91 624.284 1350.8 626.863C1353.17 628.117 1355.81 629.102 1358.49 628.855C1360.32 628.686 1362.15 627.828 1363.34 626.408C1363.83 625.834 1364.64 624.798 1364.15 624.046C1363.49 623.014 1362.49 622.097 1361.69 621.166C1360.76 620.082 1359.83 618.998 1358.89 617.915Z" fill="#3165C5"/>
<path fill-rule="evenodd" clip-rule="evenodd" d="M1358.89 617.915C1356.34 614.948 1353.28 611.732 1349.36 611.725C1347.31 611.721 1345.38 612.627 1343.53 613.514C1341.89 614.302 1340.25 615.091 1338.6 615.879C1341.68 620.472 1345.91 624.284 1350.8 626.863C1353.17 628.117 1355.81 629.102 1358.49 628.855C1360.32 628.686 1362.15 627.828 1363.34 626.408C1363.83 625.834 1364.64 624.798 1364.15 624.046C1363.49 623.014 1362.49 622.097 1361.69 621.166C1360.76 620.082 1359.83 618.998 1358.89 617.915Z" stroke="#3165C5"/>
<path fill-rule="evenodd" clip-rule="evenodd" d="M1370.81 665.949C1374.08 668.106 1377.9 670.362 1381.67 669.3C1383.64 668.744 1385.25 667.346 1386.79 665.988C1388.15 664.782 1389.52 663.575 1390.88 662.368C1386.67 658.788 1381.56 656.277 1376.15 655.13C1373.52 654.573 1370.71 654.347 1368.21 655.315C1366.49 655.977 1364.96 657.303 1364.21 658.993C1363.9 659.679 1363.4 660.896 1364.07 661.486C1364.99 662.298 1366.2 662.908 1367.23 663.585C1368.42 664.373 1369.62 665.161 1370.81 665.949Z" fill="#3165C5"/>
<path fill-rule="evenodd" clip-rule="evenodd" d="M1370.81 665.949C1374.08 668.106 1377.9 670.362 1381.67 669.3C1383.64 668.744 1385.25 667.346 1386.79 665.988C1388.15 664.782 1389.52 663.575 1390.88 662.368C1386.67 658.788 1381.56 656.277 1376.15 655.13C1373.52 654.573 1370.71 654.347 1368.21 655.315C1366.49 655.977 1364.96 657.303 1364.21 658.993C1363.9 659.679 1363.4 660.896 1364.07 661.486C1364.99 662.298 1366.2 662.908 1367.23 663.585C1368.42 664.373 1369.62 665.161 1370.81 665.949Z" stroke="#3165C5"/>
<path fill-rule="evenodd" clip-rule="evenodd" d="M1373.95 649.661C1377.63 650.996 1381.88 652.297 1385.29 650.384C1387.08 649.383 1388.32 647.649 1389.49 645.97C1390.54 644.478 1391.58 642.986 1392.63 641.494C1387.7 638.997 1382.14 637.748 1376.62 637.894C1373.93 637.965 1371.14 638.402 1368.93 639.928C1367.42 640.973 1366.25 642.617 1365.9 644.438C1365.76 645.176 1365.57 646.476 1366.36 646.894C1367.44 647.469 1368.76 647.78 1369.91 648.198C1371.26 648.686 1372.6 649.174 1373.95 649.661Z" fill="#3165C5"/>
<path fill-rule="evenodd" clip-rule="evenodd" d="M1373.95 649.661C1377.63 650.996 1381.88 652.297 1385.29 650.384C1387.08 649.383 1388.32 647.649 1389.49 645.97C1390.54 644.478 1391.58 642.986 1392.63 641.494C1387.7 638.997 1382.14 637.748 1376.62 637.894C1373.93 637.965 1371.14 638.402 1368.93 639.928C1367.42 640.973 1366.25 642.617 1365.9 644.438C1365.76 645.176 1365.57 646.476 1366.36 646.894C1367.44 647.469 1368.76 647.78 1369.91 648.198C1371.26 648.686 1372.6 649.174 1373.95 649.661Z" stroke="#3165C5"/>
<path fill-rule="evenodd" clip-rule="evenodd" d="M1366.57 682.01C1369.16 684.942 1372.27 688.115 1376.19 688.068C1378.24 688.044 1380.15 687.111 1381.99 686.199C1383.62 685.389 1385.25 684.578 1386.88 683.767C1383.75 679.217 1379.47 675.465 1374.54 672.952C1372.15 671.73 1369.49 670.782 1366.82 671.065C1364.99 671.259 1363.17 672.142 1362 673.578C1361.53 674.159 1360.73 675.207 1361.23 675.951C1361.9 676.974 1362.91 677.878 1363.73 678.797C1364.67 679.868 1365.62 680.939 1366.57 682.01Z" fill="#3165C5"/>
<path fill-rule="evenodd" clip-rule="evenodd" d="M1366.57 682.01C1369.16 684.942 1372.27 688.115 1376.19 688.068C1378.24 688.044 1380.15 687.111 1381.99 686.199C1383.62 685.389 1385.25 684.578 1386.88 683.767C1383.75 679.217 1379.47 675.465 1374.54 672.952C1372.15 671.73 1369.49 670.782 1366.82 671.065C1364.99 671.259 1363.17 672.142 1362 673.578C1361.53 674.159 1360.73 675.207 1361.23 675.951C1361.9 676.974 1362.91 677.878 1363.73 678.797C1364.67 679.868 1365.62 680.939 1366.57 682.01Z" stroke="#3165C5"/>
<path fill-rule="evenodd" clip-rule="evenodd" d="M1378.33 631.803C1382.24 631.954 1386.68 631.9 1389.35 629.038C1390.75 627.54 1391.4 625.511 1392.01 623.555C1392.55 621.816 1393.09 620.077 1393.63 618.337C1388.17 617.459 1382.5 617.961 1377.28 619.783C1374.75 620.669 1372.23 621.932 1370.58 624.06C1369.46 625.514 1368.84 627.438 1369.07 629.277C1369.17 630.022 1369.37 631.32 1370.25 631.478C1371.46 631.695 1372.81 631.59 1374.04 631.637L1378.33 631.803Z" fill="#3165C5"/>
<path fill-rule="evenodd" clip-rule="evenodd" d="M1378.33 631.803C1382.24 631.954 1386.68 631.9 1389.35 629.038C1390.75 627.54 1391.4 625.511 1392.01 623.555C1392.55 621.816 1393.09 620.077 1393.63 618.337C1388.17 617.459 1382.5 617.961 1377.28 619.783C1374.75 620.669 1372.23 621.932 1370.58 624.06C1369.46 625.514 1368.84 627.438 1369.07 629.277C1369.17 630.022 1369.37 631.32 1370.25 631.478C1371.46 631.695 1372.81 631.59 1374.04 631.637L1378.33 631.803Z" stroke="#3165C5"/>
<path d="M140.94 572.224C129.477 611.551 123.686 660.269 123.805 701.229" stroke="#3165C5"/>
<path fill-rule="evenodd" clip-rule="evenodd" d="M110.535 631.619C104.536 628.981 97.589 626.336 91.671 629.15C88.573 630.623 86.316 633.381 84.166 636.054C82.2549 638.428 80.3438 640.803 78.4319 643.178C86.3868 647.895 95.5264 650.599 104.769 650.969C109.263 651.15 113.962 650.73 117.824 648.427C120.467 646.852 122.61 644.237 123.384 641.236C123.699 640.018 124.173 637.87 122.901 637.085C121.154 636.004 118.988 635.338 117.107 634.51C114.916 633.547 112.726 632.583 110.535 631.619Z" fill="#3165C5"/>
<path fill-rule="evenodd" clip-rule="evenodd" d="M110.535 631.619C104.536 628.981 97.589 626.336 91.671 629.15C88.573 630.623 86.316 633.381 84.166 636.054C82.2549 638.428 80.3438 640.803 78.4319 643.178C86.3868 647.895 95.5264 650.599 104.769 650.969C109.263 651.15 113.962 650.73 117.824 648.427C120.467 646.852 122.61 644.237 123.384 641.236C123.699 640.018 124.173 637.87 122.901 637.085C121.154 636.004 118.988 635.338 117.107 634.51C114.916 633.547 112.726 632.583 110.535 631.619Z" stroke="#3165C5"/>
<path fill-rule="evenodd" clip-rule="evenodd" d="M140.522 535.294C137.04 540.375 133.399 546.055 134.098 552.172C134.492 555.628 136.248 558.758 137.967 561.782C139.36 564.23 140.753 566.679 142.145 569.127C144.49 563.157 148.743 558.179 152.533 553.005C156.324 547.832 159.812 542.055 160.204 535.655C160.47 531.332 158.943 526.721 155.837 523.646C154.822 522.641 152.286 520.424 150.693 520.949C149.794 521.246 149.188 522.651 148.699 523.364C147.866 524.579 147.033 525.794 146.2 527.009C144.307 529.771 142.415 532.533 140.522 535.294Z" fill="#3165C5"/>
<path fill-rule="evenodd" clip-rule="evenodd" d="M140.522 535.294C137.04 540.375 133.399 546.055 134.098 552.172C134.492 555.628 136.248 558.758 137.967 561.782C139.36 564.23 140.753 566.679 142.145 569.127C144.49 563.157 148.743 558.179 152.533 553.005C156.324 547.832 159.812 542.055 160.204 535.655C160.47 531.332 158.943 526.721 155.837 523.646C154.822 522.641 152.286 520.424 150.693 520.949C149.794 521.246 149.188 522.651 148.699 523.364C147.866 524.579 147.033 525.794 146.2 527.009C144.307 529.771 142.415 532.533 140.522 535.294Z" stroke="#3165C5"/>
<path fill-rule="evenodd" clip-rule="evenodd" d="M105.265 661.97C98.7367 661.392 91.3078 661.113 86.6046 665.675C84.1426 668.063 82.8894 671.399 81.7092 674.618L78.563 683.204C87.6114 685.125 97.1361 684.758 106.01 682.147C110.324 680.877 114.64 678.974 117.56 675.556C119.559 673.217 120.75 670.052 120.52 666.961C120.427 665.709 120.188 663.522 118.731 663.184C116.729 662.721 114.465 662.784 112.417 662.603C110.033 662.392 107.649 662.181 105.265 661.97Z" fill="#3165C5"/>
<path fill-rule="evenodd" clip-rule="evenodd" d="M105.265 661.97C98.7367 661.392 91.3078 661.113 86.6046 665.675C84.1426 668.063 82.8894 671.399 81.7092 674.618L78.563 683.204C87.6114 685.125 97.1361 684.758 106.01 682.147C110.324 680.877 114.64 678.974 117.56 675.556C119.559 673.217 120.75 670.052 120.52 666.961C120.427 665.709 120.188 663.522 118.731 663.184C116.729 662.721 114.465 662.784 112.417 662.603C110.033 662.392 107.649 662.181 105.265 661.97Z" stroke="#3165C5"/>
<path fill-rule="evenodd" clip-rule="evenodd" d="M114.668 601.841C108.93 598.676 102.249 595.42 96.1009 597.691C92.8838 598.88 90.3879 601.425 88.0065 603.894L81.6567 610.476C89.1565 615.888 98.0165 619.4 107.188 620.596C111.648 621.178 116.366 621.182 120.419 619.235C123.193 617.903 125.563 615.489 126.603 612.569C127.024 611.386 127.689 609.289 126.493 608.392C124.85 607.16 122.753 606.302 120.954 605.309C118.859 604.153 116.763 602.997 114.668 601.841Z" fill="#3165C5"/>
<path fill-rule="evenodd" clip-rule="evenodd" d="M114.668 601.841C108.93 598.676 102.249 595.42 96.1009 597.691C92.8838 598.88 90.3879 601.425 88.0065 603.894L81.6567 610.476C89.1565 615.888 98.0165 619.4 107.188 620.596C111.648 621.178 116.366 621.182 120.419 619.235C123.193 617.903 125.563 615.489 126.603 612.569C127.024 611.386 127.689 609.289 126.493 608.392C124.85 607.16 122.753 606.302 120.954 605.309C118.859 604.153 116.763 602.997 114.668 601.841Z" stroke="#3165C5"/>
<path fill-rule="evenodd" clip-rule="evenodd" d="M124.654 572.09C120.379 567.123 115.252 561.744 108.699 561.731C105.268 561.725 102.041 563.241 98.9487 564.725C96.1996 566.044 93.4513 567.363 90.7014 568.683C95.8439 576.368 102.923 582.746 111.103 587.063C115.079 589.162 119.5 590.809 123.979 590.396C127.043 590.114 130.105 588.678 132.099 586.303C132.906 585.34 134.261 583.606 133.454 582.349C132.342 580.621 130.676 579.088 129.335 577.53C127.775 575.716 126.214 573.903 124.654 572.09Z" fill="#3165C5"/>
<path fill-rule="evenodd" clip-rule="evenodd" d="M124.654 572.09C120.379 567.123 115.252 561.744 108.699 561.731C105.268 561.725 102.041 563.241 98.9487 564.725C96.1996 566.044 93.4513 567.363 90.7014 568.683C95.8439 576.368 102.923 582.746 111.103 587.063C115.079 589.162 119.5 590.809 123.979 590.396C127.043 590.114 130.105 588.678 132.099 586.303C132.906 585.34 134.261 583.606 133.454 582.349C132.342 580.621 130.676 579.088 129.335 577.53C127.775 575.716 126.214 573.903 124.654 572.09Z" stroke="#3165C5"/>
<path fill-rule="evenodd" clip-rule="evenodd" d="M144.592 652.469C150.06 656.079 156.463 659.855 162.771 658.076C166.073 657.146 168.762 654.807 171.331 652.535C173.615 650.515 175.9 648.495 178.183 646.476C171.137 640.487 162.583 636.285 153.534 634.365C149.135 633.431 144.433 633.055 140.238 634.674C137.367 635.783 134.814 638 133.545 640.829C133.031 641.975 132.202 644.012 133.322 645.001C134.863 646.361 136.885 647.381 138.601 648.514C140.598 649.832 142.595 651.151 144.592 652.469Z" fill="#3165C5"/>
<path fill-rule="evenodd" clip-rule="evenodd" d="M144.592 652.469C150.06 656.079 156.463 659.855 162.771 658.076C166.073 657.146 168.762 654.807 171.331 652.535C173.615 650.515 175.9 648.495 178.183 646.476C171.137 640.487 162.583 636.285 153.534 634.365C149.135 633.431 144.433 633.055 140.238 634.674C137.367 635.783 134.814 638 133.545 640.829C133.031 641.975 132.202 644.012 133.322 645.001C134.863 646.361 136.885 647.381 138.601 648.514C140.598 649.832 142.595 651.151 144.592 652.469Z" stroke="#3165C5"/>
<path fill-rule="evenodd" clip-rule="evenodd" d="M149.844 625.213C156.005 627.447 163.112 629.623 168.831 626.422C171.824 624.747 173.893 621.845 175.859 619.036C177.609 616.54 179.358 614.043 181.107 611.546C172.856 607.368 163.556 605.276 154.31 605.522C149.814 605.641 145.154 606.371 141.453 608.925C138.921 610.674 136.956 613.426 136.383 616.473C136.151 617.707 135.821 619.882 137.142 620.582C138.957 621.543 141.162 622.064 143.095 622.765C145.344 623.581 147.594 624.396 149.844 625.213Z" fill="#3165C5"/>
<path fill-rule="evenodd" clip-rule="evenodd" d="M149.844 625.213C156.005 627.447 163.112 629.623 168.831 626.422C171.824 624.747 173.893 621.845 175.859 619.036C177.609 616.54 179.358 614.043 181.107 611.546C172.856 607.368 163.556 605.276 154.31 605.522C149.814 605.641 145.154 606.371 141.453 608.925C138.921 610.674 136.956 613.426 136.383 616.473C136.151 617.707 135.821 619.882 137.142 620.582C138.957 621.543 141.162 622.064 143.095 622.765C145.344 623.581 147.594 624.396 149.844 625.213Z" stroke="#3165C5"/>
<path fill-rule="evenodd" clip-rule="evenodd" d="M137.497 679.344C141.839 684.252 147.039 689.561 153.593 689.483C157.023 689.442 160.229 687.883 163.3 686.357C166.031 684.999 168.762 683.643 171.492 682.286C166.245 674.672 159.079 668.391 150.841 664.187C146.837 662.142 142.393 660.556 137.921 661.031C134.86 661.355 131.819 662.833 129.857 665.235C129.063 666.208 127.732 667.96 128.557 669.206C129.692 670.918 131.38 672.429 132.741 673.969C134.326 675.761 135.912 677.552 137.497 679.344Z" fill="#3165C5"/>
<path fill-rule="evenodd" clip-rule="evenodd" d="M137.497 679.344C141.839 684.252 147.039 689.561 153.593 689.483C157.023 689.442 160.229 687.883 163.3 686.357C166.031 684.999 168.762 683.643 171.492 682.286C166.245 674.672 159.079 668.391 150.841 664.187C146.837 662.142 142.393 660.556 137.921 661.031C134.86 661.355 131.819 662.833 129.857 665.235C129.063 666.208 127.732 667.96 128.557 669.206C129.692 670.918 131.38 672.429 132.741 673.969C134.326 675.761 135.912 677.552 137.497 679.344Z" stroke="#3165C5"/>
<path fill-rule="evenodd" clip-rule="evenodd" d="M157.172 595.329C163.721 595.582 171.155 595.492 175.626 590.702C177.966 588.195 179.052 584.801 180.071 581.527C180.976 578.617 181.881 575.705 182.786 572.796C173.653 571.327 164.159 572.166 155.427 575.214C151.181 576.697 146.964 578.811 144.218 582.371C142.337 584.806 141.305 588.026 141.688 591.102C141.844 592.348 142.191 594.52 143.663 594.785C145.685 595.149 147.944 594.972 149.998 595.052C152.389 595.145 154.781 595.237 157.172 595.329Z" fill="#3165C5"/>
<path fill-rule="evenodd" clip-rule="evenodd" d="M157.172 595.329C163.721 595.582 171.155 595.492 175.626 590.702C177.966 588.195 179.052 584.801 180.071 581.527C180.976 578.617 181.881 575.705 182.786 572.796C173.653 571.327 164.159 572.166 155.427 575.214C151.181 576.697 146.964 578.811 144.218 582.371C142.337 584.806 141.305 588.026 141.688 591.102C141.844 592.348 142.191 594.52 143.663 594.785C145.685 595.149 147.944 594.972 149.998 595.052C152.389 595.145 154.781 595.237 157.172 595.329Z" stroke="#3165C5"/>
<path d="M274.629 527.022H464.689" stroke="#020202"/>
<path d="M60.0632 498.734H203.767" stroke="#020202"/>
<path d="M1264.28 527.022H1454.34" stroke="#020202"/>
<path d="M950.257 506.725H1093.96" stroke="#020202"/>
<path fill-rule="evenodd" clip-rule="evenodd" d="M426.673 156.38C429.85 163.077 436.909 167.268 444.154 168.843C451.4 170.418 458.921 169.756 466.306 169.087C484.747 167.414 503.187 165.743 521.629 164.071C528.323 163.464 535.807 161.429 539.917 156.113" fill="#020202"/>
<path d="M426.673 156.38C429.85 163.077 436.909 167.268 444.154 168.843C451.4 170.418 458.921 169.756 466.306 169.087C484.747 167.414 503.187 165.743 521.629 164.071C528.323 163.464 535.807 161.429 539.917 156.113" stroke="#020202" stroke-linecap="round" stroke-linejoin="round"/>
<path fill-rule="evenodd" clip-rule="evenodd" d="M1414.69 397.275C1427.27 402.66 1438.66 411.958 1444.04 424.53C1447.33 412.474 1447.74 399.647 1445.23 387.406C1445.23 387.418 1405.86 387.482 1402.28 387.489C1398.7 387.496 1395.12 387.503 1391.54 387.509C1389.71 387.513 1387.88 387.517 1386.05 387.52C1384.65 387.523 1383.1 387.324 1381.75 387.741C1381.35 387.864 1379.57 388.485 1379.68 389.114C1379.79 389.705 1382.57 389.659 1383.08 389.716C1386.4 390.087 1389.71 390.537 1393 391.108C1400.42 392.395 1407.76 394.306 1414.69 397.275Z" fill="#020202"/>
<path fill-rule="evenodd" clip-rule="evenodd" d="M1414.69 397.275C1427.27 402.66 1438.66 411.958 1444.04 424.53C1447.33 412.474 1447.74 399.647 1445.23 387.406C1445.23 387.418 1405.86 387.482 1402.28 387.489C1398.7 387.496 1395.12 387.503 1391.54 387.509C1389.71 387.513 1387.88 387.517 1386.05 387.52C1384.65 387.523 1383.1 387.324 1381.75 387.741C1381.35 387.864 1379.57 388.485 1379.68 389.114C1379.79 389.705 1382.57 389.659 1383.08 389.716C1386.4 390.087 1389.71 390.537 1393 391.108C1400.42 392.395 1407.76 394.306 1414.69 397.275Z" stroke="#020202" stroke-linecap="round" stroke-linejoin="round"/>
<path fill-rule="evenodd" clip-rule="evenodd" d="M1089.42 244.834C1089.86 245.314 1090.41 245.836 1091.05 245.741C1091.65 245.653 1092.03 245.073 1092.33 244.549C1095.13 239.662 1097.92 234.776 1100.72 229.889C1100.59 230.115 1098.63 230.132 1098.32 230.164C1097.52 230.247 1096.72 230.321 1095.92 230.386C1094.28 230.52 1092.63 230.616 1090.99 230.675C1087.74 230.792 1084.48 230.763 1081.23 230.59C1080.32 230.541 1079.41 230.482 1078.5 230.411C1077.79 230.354 1076.72 230.056 1076.03 230.231C1076.09 230.53 1076.49 230.764 1076.7 230.975C1077.16 231.434 1077.59 231.935 1078.03 232.416L1080.75 235.383C1082.59 237.388 1084.43 239.393 1086.26 241.398C1087.31 242.543 1088.36 243.688 1089.42 244.834Z" fill="#020202"/>
<path fill-rule="evenodd" clip-rule="evenodd" d="M1089.42 244.834C1089.86 245.314 1090.41 245.836 1091.05 245.741C1091.65 245.653 1092.03 245.073 1092.33 244.549C1095.13 239.662 1097.92 234.776 1100.72 229.889C1100.59 230.115 1098.63 230.132 1098.32 230.164C1097.52 230.247 1096.72 230.321 1095.92 230.386C1094.28 230.52 1092.63 230.616 1090.99 230.675C1087.74 230.792 1084.48 230.763 1081.23 230.59C1080.32 230.541 1079.41 230.482 1078.5 230.411C1077.79 230.354 1076.72 230.056 1076.03 230.231C1076.09 230.53 1076.49 230.764 1076.7 230.975C1077.16 231.434 1077.59 231.935 1078.03 232.416L1080.75 235.383C1082.59 237.388 1084.43 239.393 1086.26 241.398C1087.31 242.543 1088.36 243.688 1089.42 244.834Z" stroke="#020202" stroke-linecap="round" stroke-linejoin="round"/>
<path fill-rule="evenodd" clip-rule="evenodd" d="M453.267 471.221C460.414 472.184 467.563 473.148 474.71 474.111C480.707 474.92 486.825 475.725 492.775 474.62C500.03 473.272 506.45 469.778 512.517 465.58C505.947 465.652 499.378 465.14 492.807 465.212C486.237 465.285 479.668 465.358 473.098 465.43C466.554 465.501 460.009 465.574 453.465 465.646L433.679 465.865L423.862 465.972C421.997 465.993 419.59 465.678 417.777 466.19C417.624 466.234 417.48 466.24 417.35 466.31C417.904 466.591 418.699 466.562 419.309 466.645L422.948 467.134C425.373 467.462 427.798 467.788 430.224 468.116C435.126 468.776 440.028 469.437 444.929 470.098C447.708 470.472 450.488 470.847 453.267 471.221Z" fill="#020202"/>
<path fill-rule="evenodd" clip-rule="evenodd" d="M453.267 471.221C460.414 472.184 467.563 473.148 474.71 474.111C480.707 474.92 486.825 475.725 492.775 474.62C500.03 473.272 506.45 469.778 512.517 465.58C505.947 465.652 499.378 465.14 492.807 465.212C486.237 465.285 479.668 465.358 473.098 465.43C466.554 465.501 460.009 465.574 453.465 465.646L433.679 465.865L423.862 465.972C421.997 465.993 419.59 465.678 417.777 466.19C417.624 466.234 417.48 466.24 417.35 466.31C417.904 466.591 418.699 466.562 419.309 466.645L422.948 467.134C425.373 467.462 427.798 467.788 430.224 468.116C435.126 468.776 440.028 469.437 444.929 470.098C447.708 470.472 450.488 470.847 453.267 471.221Z" stroke="#020202" stroke-linecap="round" stroke-linejoin="round"/>
<path d="M1096.4 604.311C1104.58 634.576 1108.7 672.067 1108.62 703.59" stroke="#3165C5"/>
<path fill-rule="evenodd" clip-rule="evenodd" d="M1118.08 650.02C1122.36 647.989 1127.31 645.954 1131.54 648.12C1133.74 649.252 1135.35 651.376 1136.89 653.432C1138.25 655.259 1139.61 657.087 1140.98 658.915C1135.3 662.546 1128.79 664.627 1122.19 664.912C1118.99 665.05 1115.64 664.727 1112.89 662.955C1111 661.742 1109.47 659.73 1108.92 657.419C1108.7 656.483 1108.36 654.831 1109.26 654.225C1110.51 653.394 1112.05 652.882 1113.4 652.245C1114.96 651.503 1116.52 650.761 1118.08 650.02Z" fill="#3165C5"/>
<path fill-rule="evenodd" clip-rule="evenodd" d="M1118.08 650.02C1122.36 647.989 1127.31 645.954 1131.54 648.12C1133.74 649.252 1135.35 651.376 1136.89 653.432C1138.25 655.259 1139.61 657.087 1140.98 658.915C1135.3 662.546 1128.79 664.627 1122.19 664.912C1118.99 665.05 1115.64 664.727 1112.89 662.955C1111 661.742 1109.47 659.73 1108.92 657.419C1108.7 656.483 1108.36 654.831 1109.26 654.225C1110.51 653.394 1112.05 652.882 1113.4 652.245C1114.96 651.503 1116.52 650.761 1118.08 650.02Z" stroke="#3165C5"/>
<path fill-rule="evenodd" clip-rule="evenodd" d="M1096.7 575.89C1099.18 579.799 1101.78 584.171 1101.28 588.879C1101 591.538 1099.75 593.948 1098.52 596.274C1097.53 598.158 1096.53 600.043 1095.54 601.927C1093.87 597.333 1090.84 593.502 1088.13 589.52C1085.43 585.538 1082.94 581.093 1082.66 576.167C1082.47 572.841 1083.56 569.292 1085.78 566.926C1086.5 566.152 1088.31 564.446 1089.45 564.85C1090.09 565.078 1090.52 566.16 1090.87 566.709C1091.46 567.644 1092.06 568.579 1092.65 569.514C1094 571.639 1095.35 573.765 1096.7 575.89Z" fill="#3165C5"/>
<path fill-rule="evenodd" clip-rule="evenodd" d="M1096.7 575.89C1099.18 579.799 1101.78 584.171 1101.28 588.879C1101 591.538 1099.75 593.948 1098.52 596.274C1097.53 598.158 1096.53 600.043 1095.54 601.927C1093.87 597.333 1090.84 593.502 1088.13 589.52C1085.43 585.538 1082.94 581.093 1082.66 576.167C1082.47 572.841 1083.56 569.292 1085.78 566.926C1086.5 566.152 1088.31 564.446 1089.45 564.85C1090.09 565.078 1090.52 566.16 1090.87 566.709C1091.46 567.644 1092.06 568.579 1092.65 569.514C1094 571.639 1095.35 573.765 1096.7 575.89Z" stroke="#3165C5"/>
<path fill-rule="evenodd" clip-rule="evenodd" d="M1121.84 673.377C1126.5 672.932 1131.79 672.718 1135.15 676.228C1136.9 678.066 1137.8 680.633 1138.64 683.111C1139.39 685.313 1140.13 687.516 1140.88 689.718C1134.43 691.196 1127.64 690.913 1121.31 688.905C1118.23 687.928 1115.16 686.464 1113.07 683.833C1111.65 682.032 1110.8 679.597 1110.96 677.219C1111.03 676.254 1111.2 674.571 1112.24 674.311C1113.67 673.955 1115.28 674.003 1116.74 673.864C1118.44 673.702 1120.14 673.539 1121.84 673.377Z" fill="#3165C5"/>
<path fill-rule="evenodd" clip-rule="evenodd" d="M1121.84 673.377C1126.5 672.932 1131.79 672.718 1135.15 676.228C1136.9 678.066 1137.8 680.633 1138.64 683.111C1139.39 685.313 1140.13 687.516 1140.88 689.718C1134.43 691.196 1127.64 690.913 1121.31 688.905C1118.23 687.928 1115.16 686.464 1113.07 683.833C1111.65 682.032 1110.8 679.597 1110.96 677.219C1111.03 676.254 1111.2 674.571 1112.24 674.311C1113.67 673.955 1115.28 674.003 1116.74 673.864C1118.44 673.702 1120.14 673.539 1121.84 673.377Z" stroke="#3165C5"/>
<path fill-rule="evenodd" clip-rule="evenodd" d="M1115.14 627.103C1119.23 624.667 1123.99 622.161 1128.38 623.909C1130.67 624.825 1132.45 626.783 1134.15 628.683C1135.66 630.371 1137.17 632.06 1138.68 633.748C1133.33 637.913 1127.01 640.616 1120.47 641.537C1117.29 641.985 1113.92 641.987 1111.03 640.488C1109.06 639.463 1107.37 637.607 1106.62 635.359C1106.32 634.448 1105.85 632.834 1106.7 632.144C1107.87 631.196 1109.37 630.536 1110.65 629.772C1112.15 628.882 1113.64 627.993 1115.14 627.103Z" fill="#3165C5"/>
<path fill-rule="evenodd" clip-rule="evenodd" d="M1115.14 627.103C1119.23 624.667 1123.99 622.161 1128.38 623.909C1130.67 624.825 1132.45 626.783 1134.15 628.683C1135.66 630.371 1137.17 632.06 1138.68 633.748C1133.33 637.913 1127.01 640.616 1120.47 641.537C1117.29 641.985 1113.92 641.987 1111.03 640.488C1109.06 639.463 1107.37 637.607 1106.62 635.359C1106.32 634.448 1105.85 632.834 1106.7 632.144C1107.87 631.196 1109.37 630.536 1110.65 629.772C1112.15 628.882 1113.64 627.993 1115.14 627.103Z" stroke="#3165C5"/>
<path fill-rule="evenodd" clip-rule="evenodd" d="M1108.01 604.207C1111.06 600.385 1114.72 596.245 1119.39 596.235C1121.84 596.23 1124.14 597.397 1126.34 598.54C1128.31 599.554 1130.27 600.57 1132.23 601.585C1128.56 607.499 1123.51 612.408 1117.68 615.73C1114.84 617.345 1111.69 618.613 1108.5 618.295C1106.31 618.078 1104.13 616.972 1102.71 615.145C1102.13 614.404 1101.16 613.071 1101.74 612.102C1102.53 610.773 1103.72 609.592 1104.68 608.394C1105.79 606.997 1106.9 605.602 1108.01 604.207Z" fill="#3165C5"/>
<path fill-rule="evenodd" clip-rule="evenodd" d="M1108.01 604.207C1111.06 600.385 1114.72 596.245 1119.39 596.235C1121.84 596.23 1124.14 597.397 1126.34 598.54C1128.31 599.554 1130.27 600.57 1132.23 601.585C1128.56 607.499 1123.51 612.408 1117.68 615.73C1114.84 617.345 1111.69 618.613 1108.5 618.295C1106.31 618.078 1104.13 616.972 1102.71 615.145C1102.13 614.404 1101.16 613.071 1101.74 612.102C1102.53 610.773 1103.72 609.592 1104.68 608.394C1105.79 606.997 1106.9 605.602 1108.01 604.207Z" stroke="#3165C5"/>
<path fill-rule="evenodd" clip-rule="evenodd" d="M1093.8 666.065C1089.9 668.843 1085.33 671.749 1080.83 670.38C1078.48 669.664 1076.56 667.865 1074.73 666.116C1073.1 664.562 1071.47 663.007 1069.84 661.453C1074.87 656.845 1080.97 653.61 1087.42 652.133C1090.56 651.415 1093.91 651.124 1096.9 652.371C1098.95 653.223 1100.77 654.93 1101.67 657.107C1102.04 657.989 1102.63 659.558 1101.83 660.318C1100.73 661.365 1099.29 662.15 1098.07 663.021C1096.64 664.036 1095.22 665.05 1093.8 666.065Z" fill="#3165C5"/>
<path fill-rule="evenodd" clip-rule="evenodd" d="M1093.8 666.065C1089.9 668.843 1085.33 671.749 1080.83 670.38C1078.48 669.664 1076.56 667.865 1074.73 666.116C1073.1 664.562 1071.47 663.007 1069.84 661.453C1074.87 656.845 1080.97 653.61 1087.42 652.133C1090.56 651.415 1093.91 651.124 1096.9 652.371C1098.95 653.223 1100.77 654.93 1101.67 657.107C1102.04 657.989 1102.63 659.558 1101.83 660.318C1100.73 661.365 1099.29 662.15 1098.07 663.021C1096.64 664.036 1095.22 665.05 1093.8 666.065Z" stroke="#3165C5"/>
<path fill-rule="evenodd" clip-rule="evenodd" d="M1090.05 645.089C1085.66 646.808 1080.59 648.484 1076.51 646.021C1074.38 644.731 1072.9 642.498 1071.5 640.336C1070.25 638.415 1069 636.493 1067.76 634.572C1073.64 631.356 1080.27 629.747 1086.87 629.936C1090.07 630.028 1093.39 630.59 1096.03 632.555C1097.84 633.901 1099.24 636.018 1099.65 638.363C1099.82 639.313 1100.05 640.987 1099.11 641.525C1097.81 642.266 1096.24 642.666 1094.86 643.205C1093.26 643.833 1091.65 644.461 1090.05 645.089Z" fill="#3165C5"/>
<path fill-rule="evenodd" clip-rule="evenodd" d="M1090.05 645.089C1085.66 646.808 1080.59 648.484 1076.51 646.021C1074.38 644.731 1072.9 642.498 1071.5 640.336C1070.25 638.415 1069 636.493 1067.76 634.572C1073.64 631.356 1080.27 629.747 1086.87 629.936C1090.07 630.028 1093.39 630.59 1096.03 632.555C1097.84 633.901 1099.24 636.018 1099.65 638.363C1099.82 639.313 1100.05 640.987 1099.11 641.525C1097.81 642.266 1096.24 642.666 1094.86 643.205C1093.26 643.833 1091.65 644.461 1090.05 645.089Z" stroke="#3165C5"/>
<path fill-rule="evenodd" clip-rule="evenodd" d="M1098.86 686.748C1095.76 690.525 1092.05 694.61 1087.38 694.55C1084.93 694.519 1082.65 693.318 1080.45 692.144C1078.51 691.1 1076.56 690.056 1074.61 689.012C1078.35 683.152 1083.47 678.318 1089.34 675.083C1092.2 673.51 1095.36 672.289 1098.55 672.654C1100.74 672.904 1102.9 674.041 1104.3 675.889C1104.87 676.639 1105.82 677.987 1105.23 678.946C1104.42 680.264 1103.22 681.427 1102.25 682.611L1098.86 686.748Z" fill="#3165C5"/>
<path fill-rule="evenodd" clip-rule="evenodd" d="M1098.86 686.748C1095.76 690.525 1092.05 694.61 1087.38 694.55C1084.93 694.519 1082.65 693.318 1080.45 692.144C1078.51 691.1 1076.56 690.056 1074.61 689.012C1078.35 683.152 1083.47 678.318 1089.34 675.083C1092.2 673.51 1095.36 672.289 1098.55 672.654C1100.74 672.904 1102.9 674.041 1104.3 675.889C1104.87 676.639 1105.82 677.987 1105.23 678.946C1104.42 680.264 1103.22 681.427 1102.25 682.611L1098.86 686.748Z" stroke="#3165C5"/>
<path fill-rule="evenodd" clip-rule="evenodd" d="M1084.82 622.092C1080.15 622.286 1074.85 622.217 1071.66 618.531C1070 616.602 1069.22 613.99 1068.5 611.469L1066.56 604.751C1073.07 603.62 1079.84 604.266 1086.07 606.612C1089.1 607.752 1092.1 609.38 1094.06 612.119C1095.4 613.993 1096.14 616.471 1095.87 618.839C1095.76 619.797 1095.51 621.47 1094.46 621.672C1093.02 621.952 1091.4 621.818 1089.94 621.879C1088.24 621.95 1086.53 622.02 1084.82 622.092Z" fill="#3165C5"/>
<path fill-rule="evenodd" clip-rule="evenodd" d="M1084.82 622.092C1080.15 622.286 1074.85 622.217 1071.66 618.531C1070 616.602 1069.22 613.99 1068.5 611.469L1066.56 604.751C1073.07 603.62 1079.84 604.266 1086.07 606.612C1089.1 607.752 1092.1 609.38 1094.06 612.119C1095.4 613.993 1096.14 616.471 1095.87 618.839C1095.76 619.797 1095.51 621.47 1094.46 621.672C1093.02 621.952 1091.4 621.818 1089.94 621.879C1088.24 621.95 1086.53 622.02 1084.82 622.092Z" stroke="#3165C5"/>
<path d="M1250.01 560.153C1237.73 602.263 1231.53 654.427 1231.66 698.287" stroke="#3165C5"/>
<path fill-rule="evenodd" clip-rule="evenodd" d="M1217.45 623.751C1211.03 620.926 1203.59 618.094 1197.25 621.107C1193.94 622.684 1191.52 625.638 1189.22 628.499C1187.17 631.041 1185.12 633.585 1183.08 636.128C1191.59 641.18 1201.38 644.074 1211.28 644.471C1216.09 644.663 1221.12 644.214 1225.26 641.749C1228.09 640.062 1230.38 637.261 1231.21 634.047C1231.55 632.744 1232.05 630.444 1230.69 629.603C1228.82 628.446 1226.5 627.733 1224.49 626.846C1222.14 625.815 1219.8 624.783 1217.45 623.751Z" fill="#3165C5"/>
<path fill-rule="evenodd" clip-rule="evenodd" d="M1217.45 623.751C1211.03 620.926 1203.59 618.094 1197.25 621.107C1193.94 622.684 1191.52 625.638 1189.22 628.499C1187.17 631.041 1185.12 633.585 1183.08 636.128C1191.59 641.18 1201.38 644.074 1211.28 644.471C1216.09 644.663 1221.12 644.214 1225.26 641.749C1228.09 640.062 1230.38 637.261 1231.21 634.047C1231.55 632.744 1232.05 630.444 1230.69 629.603C1228.82 628.446 1226.5 627.733 1224.49 626.846C1222.14 625.815 1219.8 624.783 1217.45 623.751Z" stroke="#3165C5"/>
<path fill-rule="evenodd" clip-rule="evenodd" d="M1249.56 520.611C1245.83 526.051 1241.93 532.132 1242.68 538.683C1243.1 542.383 1244.98 545.734 1246.83 548.972C1248.32 551.594 1249.81 554.216 1251.3 556.837C1253.81 550.445 1258.36 545.115 1262.42 539.575C1266.48 534.034 1270.21 527.849 1270.64 520.995C1270.92 516.368 1269.28 511.431 1265.96 508.138C1264.87 507.062 1262.16 504.688 1260.45 505.25C1259.49 505.567 1258.84 507.072 1258.31 507.835C1257.42 509.137 1256.53 510.438 1255.64 511.739C1253.61 514.696 1251.59 517.653 1249.56 520.611Z" fill="#3165C5"/>
<path fill-rule="evenodd" clip-rule="evenodd" d="M1249.56 520.611C1245.83 526.051 1241.93 532.132 1242.68 538.683C1243.1 542.383 1244.98 545.734 1246.83 548.972C1248.32 551.594 1249.81 554.216 1251.3 556.837C1253.81 550.445 1258.36 545.115 1262.42 539.575C1266.48 534.034 1270.21 527.849 1270.64 520.995C1270.92 516.368 1269.28 511.431 1265.96 508.138C1264.87 507.062 1262.16 504.688 1260.45 505.25C1259.49 505.567 1258.84 507.072 1258.31 507.835C1257.42 509.137 1256.53 510.438 1255.64 511.739C1253.61 514.696 1251.59 517.653 1249.56 520.611Z" stroke="#3165C5"/>
<path fill-rule="evenodd" clip-rule="evenodd" d="M1211.81 656.249C1204.82 655.631 1196.86 655.332 1191.83 660.216C1189.19 662.773 1187.85 666.345 1186.59 669.792C1185.46 672.857 1184.34 675.921 1183.22 678.986C1192.91 681.042 1203.1 680.649 1212.61 677.853C1217.22 676.495 1221.85 674.457 1224.97 670.796C1227.11 668.292 1228.39 664.904 1228.14 661.594C1228.04 660.252 1227.79 657.91 1226.23 657.55C1224.08 657.053 1221.66 657.121 1219.47 656.926C1216.91 656.701 1214.36 656.475 1211.81 656.249Z" fill="#3165C5"/>
<path fill-rule="evenodd" clip-rule="evenodd" d="M1211.81 656.249C1204.82 655.631 1196.86 655.332 1191.83 660.216C1189.19 662.773 1187.85 666.345 1186.59 669.792C1185.46 672.857 1184.34 675.921 1183.22 678.986C1192.91 681.042 1203.1 680.649 1212.61 677.853C1217.22 676.495 1221.85 674.457 1224.97 670.796C1227.11 668.292 1228.39 664.904 1228.14 661.594C1228.04 660.252 1227.79 657.91 1226.23 657.55C1224.08 657.053 1221.66 657.121 1219.47 656.926C1216.91 656.701 1214.36 656.475 1211.81 656.249Z" stroke="#3165C5"/>
<path fill-rule="evenodd" clip-rule="evenodd" d="M1221.88 591.866C1215.73 588.476 1208.58 584.989 1202 587.423C1198.55 588.695 1195.88 591.421 1193.33 594.064C1191.06 596.413 1188.8 598.762 1186.53 601.111C1194.56 606.906 1204.05 610.667 1213.87 611.948C1218.64 612.571 1223.69 612.575 1228.04 610.49C1231.01 609.064 1233.54 606.48 1234.66 603.353C1235.11 602.085 1235.82 599.841 1234.54 598.88C1232.78 597.561 1230.53 596.643 1228.61 595.58C1226.36 594.341 1224.12 593.104 1221.88 591.866Z" fill="#3165C5"/>
<path fill-rule="evenodd" clip-rule="evenodd" d="M1221.88 591.866C1215.73 588.476 1208.58 584.989 1202 587.423C1198.55 588.695 1195.88 591.421 1193.33 594.064C1191.06 596.413 1188.8 598.762 1186.53 601.111C1194.56 606.906 1204.05 610.667 1213.87 611.948C1218.64 612.571 1223.69 612.575 1228.04 610.49C1231.01 609.064 1233.54 606.48 1234.66 603.353C1235.11 602.085 1235.82 599.841 1234.54 598.88C1232.78 597.561 1230.53 596.643 1228.61 595.58C1226.36 594.341 1224.12 593.104 1221.88 591.866Z" stroke="#3165C5"/>
<path fill-rule="evenodd" clip-rule="evenodd" d="M1232.57 560.009C1227.99 554.691 1222.5 548.931 1215.48 548.917C1211.81 548.911 1208.36 550.534 1205.05 552.123C1202.1 553.536 1199.16 554.948 1196.22 556.361C1201.72 564.59 1209.3 571.419 1218.06 576.042C1222.32 578.29 1227.05 580.053 1231.85 579.61C1235.13 579.308 1238.41 577.771 1240.54 575.228C1241.41 574.197 1242.86 572.341 1241.99 570.995C1240.8 569.145 1239.02 567.502 1237.58 565.834C1235.91 563.893 1234.24 561.951 1232.57 560.009Z" fill="#3165C5"/>
<path fill-rule="evenodd" clip-rule="evenodd" d="M1232.57 560.009C1227.99 554.691 1222.5 548.931 1215.48 548.917C1211.81 548.911 1208.36 550.534 1205.05 552.123C1202.1 553.536 1199.16 554.948 1196.22 556.361C1201.72 564.59 1209.3 571.419 1218.06 576.043C1222.32 578.29 1227.05 580.053 1231.85 579.61C1235.13 579.308 1238.41 577.771 1240.54 575.228C1241.41 574.197 1242.86 572.341 1241.99 570.995C1240.8 569.145 1239.02 567.502 1237.58 565.834C1235.91 563.893 1234.24 561.951 1232.57 560.009Z" stroke="#3165C5"/>
<path fill-rule="evenodd" clip-rule="evenodd" d="M1253.92 646.075C1259.77 649.941 1266.63 653.984 1273.38 652.08C1276.92 651.083 1279.8 648.579 1282.55 646.147L1289.89 639.659C1282.34 633.247 1273.18 628.745 1263.49 626.691C1258.78 625.691 1253.75 625.287 1249.26 627.021C1246.18 628.208 1243.45 630.583 1242.09 633.612C1241.54 634.84 1240.65 637.021 1241.85 638.08C1243.5 639.535 1245.67 640.628 1247.5 641.841C1249.64 643.252 1251.78 644.664 1253.92 646.075Z" fill="#3165C5"/>
<path fill-rule="evenodd" clip-rule="evenodd" d="M1253.92 646.075C1259.77 649.941 1266.63 653.984 1273.38 652.08C1276.92 651.083 1279.8 648.579 1282.55 646.147L1289.89 639.659C1282.34 633.247 1273.18 628.745 1263.49 626.691C1258.78 625.691 1253.75 625.287 1249.26 627.021C1246.18 628.208 1243.45 630.583 1242.09 633.612C1241.54 634.84 1240.65 637.021 1241.85 638.08C1243.5 639.535 1245.67 640.628 1247.5 641.841C1249.64 643.252 1251.78 644.664 1253.92 646.075Z" stroke="#3165C5"/>
<path fill-rule="evenodd" clip-rule="evenodd" d="M1259.54 616.891C1266.14 619.284 1273.75 621.614 1279.87 618.187C1283.08 616.393 1285.29 613.285 1287.4 610.278C1289.27 607.604 1291.14 604.931 1293.02 602.257C1284.18 597.783 1274.22 595.544 1264.32 595.807C1259.51 595.935 1254.52 596.718 1250.56 599.452C1247.85 601.323 1245.74 604.27 1245.13 607.532C1244.88 608.854 1244.53 611.183 1245.94 611.932C1247.88 612.962 1250.25 613.519 1252.32 614.27C1254.72 615.144 1257.13 616.017 1259.54 616.891Z" fill="#3165C5"/>
<path fill-rule="evenodd" clip-rule="evenodd" d="M1259.54 616.891C1266.14 619.284 1273.75 621.614 1279.87 618.187C1283.08 616.393 1285.29 613.285 1287.4 610.278C1289.27 607.604 1291.14 604.931 1293.02 602.257C1284.18 597.783 1274.22 595.544 1264.32 595.807C1259.51 595.935 1254.52 596.718 1250.56 599.452C1247.85 601.323 1245.74 604.27 1245.13 607.532C1244.88 608.854 1244.53 611.183 1245.94 611.932C1247.88 612.962 1250.25 613.519 1252.32 614.27C1254.72 615.144 1257.13 616.017 1259.54 616.891Z" stroke="#3165C5"/>
<path fill-rule="evenodd" clip-rule="evenodd" d="M1246.32 674.853C1250.97 680.108 1256.54 685.792 1263.56 685.709C1267.23 685.665 1270.66 683.995 1273.95 682.361L1282.72 678.003C1277.1 669.849 1269.43 663.125 1260.61 658.622C1256.32 656.433 1251.56 654.736 1246.78 655.243C1243.5 655.591 1240.24 657.172 1238.14 659.744C1237.29 660.787 1235.87 662.663 1236.75 663.997C1237.96 665.83 1239.77 667.449 1241.23 669.097C1242.93 671.015 1244.62 672.935 1246.32 674.853Z" fill="#3165C5"/>
<path fill-rule="evenodd" clip-rule="evenodd" d="M1246.32 674.853C1250.97 680.108 1256.54 685.792 1263.56 685.709C1267.23 685.665 1270.66 683.995 1273.95 682.361L1282.72 678.003C1277.1 669.849 1269.43 663.125 1260.61 658.622C1256.32 656.433 1251.56 654.736 1246.78 655.243C1243.5 655.591 1240.24 657.172 1238.14 659.744C1237.29 660.787 1235.87 662.663 1236.75 663.997C1237.96 665.83 1239.77 667.449 1241.23 669.097C1242.93 671.015 1244.62 672.935 1246.32 674.853Z" stroke="#3165C5"/>
<path fill-rule="evenodd" clip-rule="evenodd" d="M1267.39 584.893C1274.4 585.164 1282.36 585.067 1287.15 579.939C1289.65 577.254 1290.82 573.62 1291.91 570.115C1292.88 566.998 1293.84 563.882 1294.81 560.765C1285.04 559.193 1274.87 560.091 1265.52 563.355C1260.97 564.942 1256.46 567.207 1253.52 571.017C1251.5 573.625 1250.4 577.072 1250.81 580.366C1250.98 581.702 1251.35 584.028 1252.92 584.31C1255.09 584.699 1257.51 584.512 1259.71 584.596C1262.27 584.695 1264.83 584.794 1267.39 584.893Z" fill="#3165C5"/>
<path fill-rule="evenodd" clip-rule="evenodd" d="M1267.39 584.893C1274.4 585.164 1282.36 585.067 1287.15 579.939C1289.65 577.254 1290.82 573.62 1291.91 570.115C1292.88 566.998 1293.84 563.882 1294.81 560.765C1285.04 559.193 1274.87 560.091 1265.52 563.355C1260.97 564.942 1256.46 567.207 1253.52 571.017C1251.5 573.625 1250.4 577.072 1250.81 580.366C1250.98 581.702 1251.35 584.028 1252.92 584.31C1255.09 584.699 1257.51 584.512 1259.71 584.596C1262.27 584.695 1264.83 584.794 1267.39 584.893Z" stroke="#3165C5"/>
</g>
<defs>
<clipPath id="clip0">
<rect width="1468" height="705" fill="white" transform="translate(-13 -1)"/>
</clipPath>
</defs>
</svg>
