<?xml version="1.0" encoding="UTF-8"?>
<svg width="158px" height="40px" viewBox="0 0 158 40" version="1.1" xmlns="http://www.w3.org/2000/svg" xmlns:xlink="http://www.w3.org/1999/xlink">
    <g id="Page-1" stroke="none" stroke-width="1" fill="none" fill-rule="evenodd">
        <g id="Case-page" transform="translate(-646.000000, -38.000000)" fill="#ffd6bb" fill-rule="nonzero">
            <g id="logo-clean" transform="translate(646.000000, 38.000000)">
                <g id="Group">
                    <polygon id="Path" points="62.3663804 9.63106796 61.9592638 10.368932 59.2839264 14.9708738 65.4294479 14.9708738"></polygon>
                    <path d="M56.5116564,19.8252427 L56.3759509,20.0582524 L53.487362,25.0485437 L71.2841718,25.0485437 L68.2598773,19.8058252 L56.5116564,19.8058252 L56.5116564,19.8252427 Z M58.2564417,24.0970874 L58.9931288,22.815534 L68.8608589,22.815534 L69.597546,24.0970874 L58.2564417,24.0970874 Z" id="Shape"></path>
                    <path d="M113.430429,19.8834951 L104.784049,19.8834951 L104.784049,19.8834951 L96.3121472,19.8834951 L107.091043,28.9708738 L107.866503,29.5728155 L108.331779,28.7572816 L113.430429,19.8834951 L113.430429,19.8834951 L113.430429,19.8834951 Z M107.556319,28.1165049 L101.352638,22.8737864 L110.580613,22.8737864 L107.556319,28.1165049 Z" id="Shape"></path>
                    <polygon id="Path" points="124.887853 9.68932039 124.480736 10.407767 121.805399 15.0291262 127.95092 15.0291262"></polygon>
                    <path d="M119.033129,19.8834951 L118.897423,20.1165049 L116.008834,25.1067961 L133.805644,25.1067961 L130.78135,19.8640777 L119.033129,19.8640777 L119.033129,19.8834951 Z M120.777914,24.1553398 L121.514601,22.8737864 L131.382331,22.8737864 L132.119018,24.1553398 L120.777914,24.1553398 Z" id="Shape"></path>
                    <polygon id="Path" points="110.503067 8.52427184 110.503067 8.52427184 110.483681 8.52427184"></polygon>
                    <path d="M155.809325,16.3106796 C155.28589,14.9320388 153.967607,13.961165 152.416687,13.961165 C150.400491,13.961165 148.772025,15.592233 148.772025,17.6116505 C148.772025,17.7669903 148.791411,17.9029126 148.791411,18.0582524 C148.616933,17.6893204 148.384294,17.3592233 148.112883,17.0679612 C147.802699,16.7572816 147.414969,16.5048544 146.988466,16.3300971 C146.813988,15.8446602 146.542577,15.3980583 146.19362,15.0485437 C145.573252,14.4271845 144.720245,14.0582524 143.789693,14.0582524 L134.891288,14.0582524 L132.022086,9.08737864 L137.198282,9.08737864 C138.128834,9.08737864 138.98184,8.69902913 139.602209,8.09708738 C140.222577,7.47572816 140.59092,6.62135922 140.59092,5.68932039 C140.59092,4.75728155 140.20319,3.90291262 139.602209,3.2815534 C139.292025,2.97087379 138.904294,2.69902913 138.477791,2.54368932 C138.303313,2.05825243 138.031902,1.61165049 137.682945,1.26213592 C137.062577,0.640776699 136.209571,0.27184466 135.279018,0.27184466 L114.53546,0.27184466 C113.604908,0.27184466 112.751902,0.660194175 112.131534,1.26213592 C111.530552,1.86407767 111.162209,2.69902913 111.142822,3.63106796 C111.084663,3.55339806 111.026503,3.45631068 110.948957,3.37864078 L110.948957,3.37864078 C110.580613,2.93203883 110.134724,2.62135922 109.630675,2.38834951 C109.494969,2.01941748 109.281718,1.66990291 109.029693,1.33980583 L109.029693,1.33980583 C108.312393,0.485436893 107.265521,0.0388349515 106.238037,0.0388349515 C105.404417,0.0388349515 104.570798,0.310679612 103.89227,0.893203883 L103.89227,0.893203883 L92.4736196,10.4854369 L92.4736196,5.68932039 C92.4736196,4.19417476 91.5818405,2.91262136 90.3023313,2.34951456 C89.7788957,0.990291262 88.4606135,0.0194174757 86.9096933,0.0194174757 C84.8934969,0.0194174757 83.2650307,1.65048544 83.2650307,3.66990291 L83.2844172,3.66990291 L83.2844172,14.0194175 L73.1646626,14.0194175 L70.2954601,9.04854369 L74.6961963,9.04854369 C75.6267485,9.04854369 76.4797546,8.66019417 77.1001227,8.05825243 C77.7204908,7.4368932 78.0888344,6.58252427 78.0888344,5.65048544 C78.0888344,4.7184466 77.7011043,3.86407767 77.1001227,3.24271845 C76.7899387,2.93203883 76.4022086,2.67961165 75.9757055,2.50485437 C75.801227,2.01941748 75.529816,1.57281553 75.1808589,1.22330097 C74.5604908,0.601941748 73.7074847,0.233009709 72.7769325,0.233009709 L52.0333742,0.233009709 C51.1028221,0.233009709 50.249816,0.621359223 49.6294479,1.22330097 C49.0090798,1.84466019 48.6407362,2.69902913 48.6407362,3.63106796 C48.6407362,4.5631068 49.0284663,5.41747573 49.6294479,6.03883495 C49.9396319,6.34951456 50.327362,6.62135922 50.753865,6.77669903 C50.9283436,7.26213592 51.1997546,7.70873786 51.5487117,8.05825243 C52.1690798,8.67961165 53.0220859,9.04854369 53.952638,9.04854369 L56.0269939,9.04854369 L53.1577914,14.0194175 L47.8458896,14.0194175 L47.8458896,5.65048544 C47.8458896,4.7184466 47.4581595,3.86407767 46.8571779,3.24271845 C46.5469939,2.93203883 46.1592638,2.67961165 45.7327607,2.50485437 C45.5582822,2.01941748 45.2868712,1.57281553 44.9379141,1.22330097 C44.317546,0.601941748 43.4645399,0.233009709 42.5339877,0.233009709 C41.6034356,0.233009709 40.7504294,0.621359223 40.1300613,1.22330097 C39.5096933,1.84466019 39.1413497,2.69902913 39.1413497,3.63106796 L39.1413497,14.0194175 L26.8890798,14.0194175 L26.8890798,9.04854369 L33.3835583,9.04854369 C34.3141104,9.04854369 35.1671166,8.66019417 35.7874847,8.05825243 C36.4078528,7.4368932 36.7761963,6.58252427 36.7761963,5.65048544 C36.7761963,4.7184466 36.3884663,3.86407767 35.7874847,3.24271845 C35.4773006,2.93203883 35.0895706,2.66019417 34.6630675,2.50485437 C34.488589,2.01941748 34.2171779,1.57281553 33.8682209,1.22330097 C33.2478528,0.601941748 32.3948466,0.233009709 31.4642945,0.233009709 L21.5771779,0.233009709 C21.2282209,0.233009709 20.8986503,0.27184466 20.5690798,0.388349515 L20.5690798,0.388349515 C20.5690798,0.388349515 20.5690798,0.388349515 20.5496933,0.388349515 C20.5496933,0.388349515 20.5496933,0.388349515 20.5303067,0.388349515 L20.5303067,0.388349515 C19.7936196,0.621359223 19.1732515,1.08737864 18.7467485,1.70873786 L18.7467485,1.70873786 C18.3977914,2.25242718 18.1651534,2.89320388 18.1651534,3.61165049 L18.1651534,14 L11.0890798,14 C10.1585276,14 9.30552147,14.3883495 8.68515337,14.9902913 C8.18110429,15.4951456 7.85153374,16.1553398 7.73521472,16.8932039 C7.44441718,16.6407767 7.11484663,16.4271845 6.74650307,16.2718447 C6.28122699,14.9514563 5.02110429,14 3.54773006,14 C1.66723926,14 0.155092025,15.5145631 0.155092025,17.3980583 C0.155092025,18.815534 1.02748466,20.038835 2.26822086,20.5436893 C2.73349693,21.8640777 3.99361963,22.815534 5.46699387,22.815534 C7.17300613,22.815534 8.56883436,21.5533981 8.8208589,19.9223301 C9.11165644,20.1747573 9.44122699,20.3883495 9.80957055,20.5436893 C9.80957055,20.5436893 9.80957055,20.5436893 9.80957055,20.5436893 C9.98404908,20.9708738 10.2942331,21.5145631 10.6238037,21.8252427 C11.2441718,22.4466019 12.0971779,22.815534 13.0277301,22.815534 L18.1457669,22.815534 L18.1457669,34.5825243 C18.1457669,35.5145631 18.5334969,36.368932 19.1344785,36.9902913 C19.4446626,37.3009709 19.8323926,37.5728155 20.2588957,37.7281553 C20.4333742,38.2135922 20.7047853,38.6601942 21.0537423,39.0097087 C21.6741104,39.631068 22.5271166,40 23.4576687,40 C24.3882209,40 25.241227,39.6116505 25.8615951,39.0097087 C26.4819632,38.3883495 26.8503067,37.5339806 26.8503067,36.6019417 L26.8503067,36.6019417 L26.8696933,27.5145631 C27.1992638,27.8640777 27.5869939,28.1359223 28.0328834,28.3106796 C28.4981595,29.631068 29.7582822,30.5825243 31.2316564,30.5825243 C31.2704294,30.5825243 31.3092025,30.5825243 31.367362,30.5825243 L30.3398773,32.368932 L30.3398773,32.368932 C30.0296933,32.9126214 29.8939877,33.4951456 29.8939877,34.0582524 C29.8939877,34.6407767 30.0490798,35.223301 30.3398773,35.7281553 C30.6306748,36.2330097 31.0571779,36.6796117 31.6,37.0097087 L31.6,37.0097087 C31.7357055,37.0873786 31.871411,37.1456311 32.0265031,37.2038835 C32.0846626,37.3980583 32.1815951,37.5728155 32.2785276,37.7475728 C32.5693252,38.2524272 32.9958282,38.6990291 33.5386503,39.0291262 L33.5386503,39.0291262 C34.0814724,39.3398058 34.6630675,39.4757282 35.2446626,39.4757282 C35.8262577,39.4757282 36.4078528,39.3203883 36.9119018,39.0291262 C37.4159509,38.7378641 37.8618405,38.3106796 38.1720245,37.7669903 L46.7990184,22.815534 L48.0785276,22.815534 L42.5921472,32.3300971 L42.5921472,32.3300971 C42.2819632,32.8737864 42.1462577,33.4563107 42.1462577,34.0194175 C42.1462577,34.6019417 42.3013497,35.184466 42.5921472,35.6893204 C42.8829448,36.1941748 43.3094479,36.6407767 43.8522699,36.9708738 L43.8522699,36.9708738 C43.9879755,37.0485437 44.123681,37.1262136 44.278773,37.184466 C44.3369325,37.3786408 44.4144785,37.5533981 44.511411,37.7281553 C44.8022086,38.2330097 45.2287117,38.6796117 45.7715337,39.0097087 L45.7715337,39.0097087 C46.3143558,39.3203883 46.8959509,39.4563107 47.477546,39.4563107 C48.0591411,39.4563107 48.6407362,39.3009709 49.1447853,39.0097087 C49.6488344,38.7184466 50.0947239,38.2912621 50.404908,37.7475728 L50.404908,37.7475728 L53.1965644,32.8932039 L74.6961963,32.8932039 L76.3246626,35.7087379 C76.6348466,36.2524272 77.0807362,36.6796117 77.5847853,36.9708738 C77.6817178,37.0291262 77.7980368,37.0873786 77.8949693,37.1262136 L78.2439264,37.7281553 C78.5541104,38.2718447 79,38.6990291 79.5040491,38.9902913 C80.0080982,39.2815534 80.5896933,39.4368932 81.1712883,39.4368932 C81.7528834,39.4368932 82.3344785,39.2815534 82.8773006,38.9902913 L82.8773006,38.9902913 C83.4201227,38.6796117 83.8466258,38.2330097 84.1374233,37.7087379 C84.3312883,37.3592233 84.4669939,36.9902913 84.5251534,36.6019417 C84.7965644,36.8349515 85.087362,37.0291262 85.4169325,37.1650485 C85.9403681,38.5242718 87.2586503,39.4951456 88.8095706,39.4951456 C90.8257669,39.4951456 92.4542331,37.8640777 92.4542331,35.8446602 L92.4542331,25.5533981 L107.49816,38.407767 C107.711411,38.6407767 107.963436,38.8349515 108.254233,39.0097087 L108.254233,39.0097087 C108.797055,39.3203883 109.37865,39.4563107 109.960245,39.4563107 C110.54184,39.4563107 111.123436,39.3009709 111.627485,39.0097087 C112.131534,38.7184466 112.577423,38.2912621 112.887607,37.7475728 L113.643681,36.4466019 L113.643681,36.4466019 L113.643681,36.4466019 L115.679264,32.9126214 L137.178896,32.9126214 L138.807362,35.7281553 C139.117546,36.2718447 139.563436,36.6990291 140.067485,36.9902913 C140.164417,37.0485437 140.280736,37.1067961 140.377669,37.1456311 L140.726626,37.7475728 C141.03681,38.2912621 141.482699,38.7184466 141.986748,39.0097087 C142.490798,39.3009709 143.072393,39.4563107 143.653988,39.4563107 C144.235583,39.4563107 144.817178,39.3009709 145.36,39.0097087 L145.36,39.0097087 C145.902822,38.6990291 146.329325,38.2524272 146.620123,37.7281553 C146.91092,37.223301 147.066012,36.6407767 147.066012,36.0582524 C147.066012,35.4757282 146.91092,34.8932039 146.620123,34.368932 L139.970552,22.8737864 L145.728344,22.8737864 C146.658896,22.8737864 147.511902,22.4854369 148.13227,21.8834951 C148.752638,21.2621359 149.120982,20.407767 149.120982,19.4757282 C149.120982,19.3592233 149.120982,19.223301 149.101595,19.1067961 C149.469939,19.9223301 150.12908,20.5825243 150.962699,20.9514563 C151.486135,22.3106796 152.804417,23.2815534 154.355337,23.2815534 C156.371534,23.2815534 158,21.6504854 158,19.631068 C158,18.1553398 157.088834,16.8737864 155.809325,16.3106796 Z M111.801963,5.74757282 C111.801963,5.72815534 111.801963,5.70873786 111.801963,5.70873786 C111.898896,5.84466019 111.995828,5.96116505 112.112147,6.0776699 C112.422331,6.38834951 112.810061,6.66019417 113.236564,6.81553398 C113.411043,7.30097087 113.682454,7.74757282 114.031411,8.09708738 C114.651779,8.7184466 115.504785,9.08737864 116.435337,9.08737864 L118.509693,9.08737864 L115.640491,14.0582524 L115.485399,14.0582524 L103.950429,14 L110.464294,8.52427184 C111.356074,7.80582524 111.801963,6.77669903 111.801963,5.74757282 Z M1.10503067,17.3980583 C1.10503067,16.7184466 1.37644172,16.1165049 1.82233129,15.6893204 C2.26822086,15.2427184 2.86920245,14.9708738 3.52834356,14.9708738 C4.20687117,14.9708738 4.80785276,15.2427184 5.23435583,15.6893204 C5.6802454,16.1359223 5.95165644,16.7378641 5.95165644,17.3980583 C5.95165644,18.0776699 5.6802454,18.6796117 5.23435583,19.1067961 C4.78846626,19.5533981 4.18748466,19.8252427 3.52834356,19.8252427 C2.84981595,19.8252427 2.24883436,19.5533981 1.82233129,19.1067961 C1.37644172,18.6796117 1.10503067,18.0776699 1.10503067,17.3980583 Z M34.2365644,25.6116505 C33.8682209,24.9126214 33.2478528,24.3495146 32.5111656,24.0582524 C32.3560736,23.592233 32.0846626,23.184466 31.755092,22.8349515 L35.8262577,22.8349515 L34.2365644,25.6116505 Z M26.8890798,25.1650485 C26.8890798,24.4854369 27.1604908,23.8834951 27.6063804,23.4563107 C28.0522699,23.0097087 28.6532515,22.7378641 29.3123926,22.7378641 C29.9909202,22.7378641 30.5919018,23.0097087 31.0184049,23.4563107 C31.4642945,23.9029126 31.7357055,24.5048544 31.7357055,25.1650485 C31.7357055,25.8446602 31.4642945,26.4466019 31.0184049,26.8737864 C30.5725153,27.3203883 29.9715337,27.592233 29.3123926,27.592233 C28.633865,27.592233 28.0328834,27.3203883 27.6063804,26.8737864 C27.1604908,26.4466019 26.8890798,25.8446602 26.8890798,25.1650485 Z M78.2245399,22.8349515 L83.2262577,22.8349515 L83.2262577,32.0776699 L78.2245399,22.8349515 Z M109.708221,37.0485437 C109.785767,37.0097087 109.843926,36.9708738 109.921472,36.9126214 C109.863313,36.9902913 109.805153,37.0485437 109.708221,37.0485437 Z M139.660368,35.3009709 L139.660368,35.3009709 L136.597301,29.961165 L113.740613,29.961165 L113.197791,29.961165 L110.871411,33.9805825 C110.677546,34.2718447 110.561227,34.4660194 110.464294,34.6407767 C110.367362,34.7961165 110.289816,34.9514563 110.15411,35.1456311 C109.843926,35.5145631 109.456196,35.8058252 109.04908,36.0194175 C108.622577,36.2330097 108.176687,36.3495146 107.769571,36.3495146 C107.265521,36.3495146 106.800245,36.1941748 106.393129,35.8640777 L89.5462577,21.4757282 L89.5462577,33.8640777 C89.5462577,34.6019417 89.2554601,35.2815534 88.7707975,35.7669903 C88.286135,36.2524272 87.6269939,36.5436893 86.8709202,36.5436893 C86.1342331,36.5436893 85.4557055,36.2524272 84.9710429,35.7669903 C84.4863804,35.2815534 84.1955828,34.6213592 84.1955828,33.8640777 L84.1955828,19.8252427 L83.7109202,19.8252427 L73.8431902,19.8252427 L81.3457669,32.815534 C81.5590184,33.2038835 81.6753374,33.6116505 81.6753374,34.038835 C81.6753374,34.4660194 81.5590184,34.8737864 81.3651534,35.2427184 C81.1519018,35.6116505 80.8611043,35.9223301 80.4733742,36.1553398 C80.0856442,36.368932 79.6785276,36.4854369 79.2520245,36.4854369 C78.8255215,36.4854369 78.4184049,36.368932 78.0500613,36.1747573 C77.6817178,35.961165 77.3715337,35.6699029 77.1582822,35.2815534 L77.1582822,35.2815534 L74.0952147,29.9417476 L51.2191411,29.9417476 C51.2191411,29.9417476 51.1803681,29.9417476 51.1415951,29.9417476 C51.1028221,29.9417476 51.0446626,29.9223301 50.9671166,29.9223301 L50.6957055,29.9223301 L47.6132515,35.2621359 L47.6132515,35.2621359 C47.4,35.6504854 47.0704294,35.961165 46.7214724,36.1553398 C46.3531288,36.368932 45.9460123,36.4660194 45.5195092,36.4660194 C45.1123926,36.4660194 44.6858896,36.368932 44.2981595,36.1359223 C43.9104294,35.9029126 43.6002454,35.592233 43.4063804,35.223301 C43.1931288,34.8543689 43.0961963,34.4466019 43.0961963,34.0194175 C43.0961963,33.6116505 43.1931288,33.184466 43.4257669,32.7961165 L43.4257669,32.7961165 L50.9283436,19.7864078 L44.317546,19.7864078 L35.4191411,35.2427184 L35.4191411,35.2427184 C35.2058896,35.631068 34.876319,35.9417476 34.527362,36.1359223 C34.1590184,36.3495146 33.7519018,36.4466019 33.3253988,36.4466019 C32.9182822,36.4466019 32.4917791,36.3495146 32.1040491,36.1165049 C31.716319,35.8834951 31.406135,35.5728155 31.2122699,35.2038835 C30.9990184,34.8349515 30.9020859,34.4271845 30.9020859,34 C30.9020859,33.592233 30.9990184,33.1650485 31.2316564,32.776699 L38.7342331,19.7669903 L23.9811043,19.7669903 L23.9617178,34.5242718 L23.9617178,34.5242718 C23.9617178,35.2038835 23.6903067,35.8058252 23.2444172,36.2330097 C22.7985276,36.6796117 22.197546,36.9514563 21.5384049,36.9514563 C20.8598773,36.9514563 20.2588957,36.6796117 19.8323926,36.2330097 C19.3865031,35.7864078 19.115092,35.184466 19.115092,34.5242718 L19.115092,19.7669903 L11.0696933,19.7669903 C10.3911656,19.7669903 9.79018405,19.4951456 9.36368098,19.0485437 C8.91779141,18.6019417 8.64638037,18 8.64638037,17.3398058 C8.64638037,16.6601942 8.91779141,16.0582524 9.36368098,15.631068 C9.80957055,15.184466 10.4105521,14.9126214 11.0696933,14.9126214 L19.115092,14.9126214 L19.115092,3.55339806 C19.115092,3.04854369 19.270184,2.58252427 19.5415951,2.19417476 C19.8517791,1.74757282 20.2976687,1.39805825 20.8404908,1.24271845 L20.8598773,1.24271845 L20.8792638,1.24271845 C21.0925153,1.16504854 21.3251534,1.12621359 21.5965644,1.12621359 L31.483681,1.12621359 C32.1622086,1.12621359 32.7631902,1.39805825 33.1896933,1.84466019 C33.6355828,2.29126214 33.9069939,2.89320388 33.9069939,3.55339806 C33.9069939,4.23300971 33.6355828,4.83495146 33.1896933,5.26213592 C32.7438037,5.70873786 32.1428221,5.98058252 31.483681,5.98058252 L23.9811043,5.98058252 L23.9811043,14.9126214 L40.0719018,14.9126214 L40.0719018,3.55339806 C40.0719018,2.87378641 40.3433129,2.27184466 40.7892025,1.84466019 C41.235092,1.39805825 41.8360736,1.12621359 42.4952147,1.12621359 C43.1737423,1.12621359 43.7747239,1.39805825 44.201227,1.84466019 C44.6471166,2.29126214 44.9185276,2.89320388 44.9185276,3.55339806 L44.9185276,14.9126214 L53.7006135,14.9126214 L58.8574233,5.98058252 L52.0139877,5.98058252 C51.3354601,5.98058252 50.7344785,5.70873786 50.3079755,5.26213592 C49.8620859,4.81553398 49.5906748,4.21359223 49.5906748,3.55339806 C49.5906748,2.87378641 49.8620859,2.27184466 50.3079755,1.84466019 C50.753865,1.39805825 51.3548466,1.12621359 52.0139877,1.12621359 L72.757546,1.12621359 C73.4360736,1.12621359 74.0370552,1.39805825 74.4635583,1.84466019 C74.9094479,2.29126214 75.1808589,2.89320388 75.1808589,3.55339806 C75.1808589,4.23300971 74.9094479,4.83495146 74.4635583,5.26213592 C74.0176687,5.70873786 73.4166871,5.98058252 72.757546,5.98058252 L65.9141104,5.98058252 L71.0709202,14.9126214 L83.2844172,14.9126214 L83.2844172,14.9126214 L84.2537423,14.9126214 L84.2537423,3.59223301 L84.2343558,3.59223301 C84.2343558,2.85436893 84.5251534,2.17475728 85.009816,1.68932039 C85.4944785,1.2038835 86.1536196,0.912621359 86.9096933,0.912621359 C87.6463804,0.912621359 88.324908,1.2038835 88.8095706,1.68932039 C89.2942331,2.17475728 89.5850307,2.83495146 89.5850307,3.59223301 L89.5850307,14.1747573 L104.512638,1.65048544 C105.016687,1.22330097 105.637055,1.02912621 106.238037,1.02912621 C106.99411,1.02912621 107.750184,1.33980583 108.293006,1.98058252 C108.719509,2.50485437 108.932761,3.10679612 108.932761,3.72815534 C108.932761,4.48543689 108.60319,5.24271845 107.963436,5.76699029 L107.963436,5.76699029 L97.0100613,14.9514563 L106.141104,14.9902913 L106.141104,14.9902913 L116.222086,15.0291262 L121.378896,6.09708738 L114.53546,6.09708738 C113.856933,6.09708738 113.255951,5.82524272 112.829448,5.37864078 C112.383558,4.93203883 112.112147,4.33009709 112.112147,3.66990291 C112.112147,2.99029126 112.383558,2.38834951 112.829448,1.96116505 C113.275337,1.51456311 113.876319,1.24271845 114.53546,1.24271845 L135.279018,1.24271845 C135.957546,1.24271845 136.558528,1.51456311 136.985031,1.96116505 C137.43092,2.40776699 137.702331,3.00970874 137.702331,3.66990291 C137.702331,4.34951456 137.43092,4.95145631 136.985031,5.37864078 C136.539141,5.82524272 135.93816,6.09708738 135.279018,6.09708738 L128.435583,6.09708738 L133.592393,15.0291262 L143.80908,15.0291262 C144.487607,15.0291262 145.088589,15.3009709 145.515092,15.7475728 C145.960982,16.1941748 146.232393,16.7961165 146.232393,17.4563107 C146.232393,18.1359223 145.960982,18.7378641 145.515092,19.1650485 C145.069202,19.6116505 144.468221,19.8834951 143.80908,19.8834951 L136.384049,19.8834951 L143.886626,32.8737864 C144.099877,33.2621359 144.216196,33.6699029 144.216196,34.0970874 C144.216196,34.5242718 144.099877,34.9320388 143.906012,35.3009709 C143.692761,35.6699029 143.401963,35.9805825 143.014233,36.2135922 C142.626503,36.4271845 142.219387,36.5436893 141.792883,36.5436893 C141.36638,36.5436893 140.959264,36.4271845 140.59092,36.2330097 C140.20319,36 139.87362,35.6893204 139.660368,35.3009709 Z M145.146748,34.2718447 C145.146748,34.2135922 145.146748,34.1553398 145.146748,34.0776699 C145.224294,34.2330097 145.204908,34.2718447 145.146748,34.2718447 Z M149.74135,17.6116505 C149.74135,16.8737864 150.032147,16.1941748 150.51681,15.7087379 C151.001472,15.223301 151.660613,14.9320388 152.416687,14.9320388 C153.153374,14.9320388 153.831902,15.223301 154.316564,15.7087379 C154.801227,16.1941748 155.092025,16.8543689 155.092025,17.6116505 C155.092025,18.3495146 154.801227,19.0291262 154.316564,19.5145631 C153.831902,20 153.172761,20.2912621 152.416687,20.2912621 C151.68,20.2912621 151.001472,20 150.51681,19.5145631 C150.051534,19.0291262 149.74135,18.368932 149.74135,17.6116505 Z" id="Shape"></path>
                </g>
            </g>
        </g>
    </g>
</svg>