<svg width="1445" height="104" viewBox="0 0 1445 104" fill="none" xmlns="http://www.w3.org/2000/svg">
<g clip-path="url(#clip0)">
<path fill-rule="evenodd" clip-rule="evenodd" d="M1062.25 70.4754V90.7976L1053.21 100.095C1046.19 87.5584 1043.31 79.1693 1044.57 74.9289C1045.83 70.6884 1051.72 69.2062 1062.25 70.4829V70.4754Z" fill="#274980"/>
<path fill-rule="evenodd" clip-rule="evenodd" d="M1052.87 100.501L1061.97 90.9177L1052.87 100.501Z" fill="#961F12"/>
<path d="M1052.87 100.501L1061.97 90.9177" stroke="#1D1E1B" stroke-linecap="round"/>
<path fill-rule="evenodd" clip-rule="evenodd" d="M1075.42 69.9229L1075.96 80.7268L1008.83 79.0105V69.9229H1075.42Z" fill="#093466"/>
<path fill-rule="evenodd" clip-rule="evenodd" d="M1027.2 90.7404L1016.38 91.1333L1018.1 42.2021H1027.2V90.7404Z" fill="#093466"/>
<path fill-rule="evenodd" clip-rule="evenodd" d="M1017.52 79.4305L1026.96 69.9304L1017.52 79.4305ZM1052.2 80.0327L1061.97 69.6481L1052.2 80.0327Z" fill="#961F12"/>
<path d="M1052.2 80.0327L1061.97 69.6481L1052.2 80.0327ZM1017.52 79.4305L1026.96 69.9304L1017.52 79.4305Z" stroke="#041D45" stroke-linecap="round"/>
<path fill-rule="evenodd" clip-rule="evenodd" d="M1027.26 69.5141H1075.96H1027.26ZM1026.96 69.9228L1027.2 32.6072L1026.96 69.9228Z" fill="#961F12"/>
<path d="M1026.96 69.9228L1027.2 32.6072L1026.96 69.9228ZM1027.26 69.5141H1075.96H1027.26Z" stroke="#041D45" stroke-linecap="round" stroke-linejoin="round"/>
<path fill-rule="evenodd" clip-rule="evenodd" d="M209.627 71.8423V93.048L200.585 102.345C193.569 89.8091 190.689 81.42 191.948 77.1796C193.206 72.9391 199.098 71.1595 209.627 71.8423Z" fill="#093466"/>
<path fill-rule="evenodd" clip-rule="evenodd" d="M209.627 71.8423V93.048L200.585 102.345C193.569 89.8091 190.689 81.42 191.948 77.1796C193.206 72.9391 199.098 71.1595 209.627 71.8423Z" stroke="#041D45"/>
<path fill-rule="evenodd" clip-rule="evenodd" d="M199.965 102.759L209.067 93.176L199.965 102.759Z" fill="#961F12"/>
<path d="M199.965 102.759L209.067 93.176" stroke="#1D1E1B" stroke-linecap="round"/>
<path fill-rule="evenodd" clip-rule="evenodd" d="M204.717 71.7777L205.11 82.5817L156.085 80.8653V71.7777H204.717Z" fill="#093466"/>
<path fill-rule="evenodd" clip-rule="evenodd" d="M165.188 83.343H174.289V52.7754H165.188V83.343Z" fill="#093466"/>
<path fill-rule="evenodd" clip-rule="evenodd" d="M164.502 81.2786L173.935 71.7784L164.502 81.2786ZM199.966 81.7024L209.152 72.3302L199.966 81.7024Z" fill="#961F12"/>
<path d="M199.966 81.7024L209.152 72.3302L199.966 81.7024ZM164.502 81.2786L173.935 71.7784L164.502 81.2786Z" stroke="#041D45" stroke-linecap="round"/>
<path fill-rule="evenodd" clip-rule="evenodd" d="M173.928 71.7777L209.406 71.9057L173.928 71.7777Z" fill="#961F12"/>
<path d="M173.928 71.7777L209.406 71.9057" stroke="#041D45" stroke-linecap="round" stroke-linejoin="round"/>
<path d="M209.347 71.9055V93.258" stroke="#041D45" stroke-linecap="round"/>
<path fill-rule="evenodd" clip-rule="evenodd" d="M436.368 71.8423V93.048L427.327 102.345C420.311 89.8091 417.431 81.42 418.689 77.1796C419.947 72.9391 425.839 71.1595 436.368 71.8423Z" fill="#093466"/>
<path fill-rule="evenodd" clip-rule="evenodd" d="M436.368 71.9055V93.258V71.9055ZM426.987 81.7023L436.174 72.3301L426.987 81.7023ZM426.987 102.767L436.089 93.184L426.987 102.767Z" fill="#961F12"/>
<path d="M426.987 102.767L436.089 93.184L426.987 102.767ZM436.368 71.9055V93.258V71.9055ZM426.987 81.7023L436.174 72.3301L426.987 81.7023Z" stroke="#041D45" stroke-linecap="round"/>
<path fill-rule="evenodd" clip-rule="evenodd" d="M832.963 72.7337V93.056L823.922 102.353C816.906 89.8167 814.026 81.4276 815.284 77.1872C816.542 72.9467 822.434 71.4645 832.963 72.7412V72.7337Z" fill="#093466"/>
<path fill-rule="evenodd" clip-rule="evenodd" d="M832.964 71.9132V93.265V71.9132ZM823.581 102.767L832.683 93.184L823.581 102.767Z" fill="#961F12"/>
<path d="M823.581 102.767L832.683 93.184L823.581 102.767ZM832.964 71.9132V93.265V71.9132Z" stroke="#041D45" stroke-linecap="round"/>
<path fill-rule="evenodd" clip-rule="evenodd" d="M143.486 46.5864L144.018 57.3904L77.6465 55.6741V46.5864H143.486Z" fill="#093466"/>
<path fill-rule="evenodd" clip-rule="evenodd" d="M109.458 56.511L118.646 47.1388L109.458 56.511Z" fill="#961F12"/>
<path d="M109.458 56.511L118.646 47.1388" stroke="#041D45" stroke-linecap="round"/>
<path d="M95.4883 46.5865H143.738" stroke="#041D45" stroke-linecap="round" stroke-linejoin="round"/>
<path fill-rule="evenodd" clip-rule="evenodd" d="M484.115 46.5864L484.648 57.3904L418.276 55.6741V46.5864H484.115Z" fill="#093466"/>
<path fill-rule="evenodd" clip-rule="evenodd" d="M436.643 67.4039L425.817 67.7968L427.538 18.8657H436.643V67.4039Z" fill="#093466"/>
<path fill-rule="evenodd" clip-rule="evenodd" d="M426.965 56.094L436.398 46.5939L426.965 56.094ZM450.368 56.5111L459.555 47.1389L450.368 56.5111Z" fill="#961F12"/>
<path d="M450.368 56.5111L459.555 47.1389L450.368 56.5111ZM426.965 56.094L436.398 46.5939L426.965 56.094Z" stroke="#041D45" stroke-linecap="round"/>
<path d="M436.398 46.5865H484.648" stroke="#041D45" stroke-linecap="round" stroke-linejoin="round"/>
<path fill-rule="evenodd" clip-rule="evenodd" d="M436.398 46.5865L436.643 13.0822L436.398 46.5865Z" fill="#961F12"/>
<path d="M436.398 46.5865L436.643 13.0822" stroke="#041D45" stroke-linecap="round" stroke-linejoin="round"/>
<path fill-rule="evenodd" clip-rule="evenodd" d="M676.724 72.1812L677.729 82.9852L552.528 81.2689V72.1812H676.724Z" fill="#093466"/>
<path fill-rule="evenodd" clip-rule="evenodd" d="M570.895 92.9991L560.069 93.392L561.79 44.4604H570.895V92.9991Z" fill="#093466"/>
<path fill-rule="evenodd" clip-rule="evenodd" d="M561.217 81.6888L570.65 72.1887L561.217 81.6888ZM652.5 82.1059L661.687 72.7337L652.5 82.1059ZM595.933 82.1059L605.12 72.7337L595.933 82.1059Z" fill="#961F12"/>
<path d="M595.933 82.1059L605.12 72.7337L595.933 82.1059ZM561.217 81.6888L570.65 72.1887L561.217 81.6888ZM652.5 82.1059L661.687 72.7337L652.5 82.1059Z" stroke="#041D45" stroke-linecap="round"/>
<path d="M570.649 72.1812H677.729" stroke="#041D45" stroke-linecap="round" stroke-linejoin="round"/>
<path fill-rule="evenodd" clip-rule="evenodd" d="M570.649 72.1812L570.895 34.8656L570.649 72.1812Z" fill="#961F12"/>
<path d="M570.649 72.1812L570.895 34.8656" stroke="#041D45" stroke-linecap="round" stroke-linejoin="round"/>
<path fill-rule="evenodd" clip-rule="evenodd" d="M831.921 72.1812L832.345 82.9852L779.549 81.2689V72.1812H831.921Z" fill="#093466"/>
<path fill-rule="evenodd" clip-rule="evenodd" d="M797.916 92.9991L787.091 93.392L788.811 44.4604H797.916V92.9991Z" fill="#093466"/>
<path fill-rule="evenodd" clip-rule="evenodd" d="M788.238 81.6888L797.671 72.1886L788.238 81.6888ZM822.955 82.1059L832.684 71.9056L822.955 82.1059Z" fill="#961F12"/>
<path d="M822.955 82.1059L832.684 71.9056L822.955 82.1059ZM788.238 81.6888L797.671 72.1886L788.238 81.6888Z" stroke="#041D45" stroke-linecap="round"/>
<path fill-rule="evenodd" clip-rule="evenodd" d="M797.975 71.7724H832.685H797.975ZM797.671 72.1812L797.917 34.8656L797.671 72.1812Z" fill="#961F12"/>
<path d="M797.671 72.1812L797.917 34.8656L797.671 72.1812ZM797.975 71.7724H832.685H797.975Z" stroke="#041D45" stroke-linecap="round" stroke-linejoin="round"/>
<path fill-rule="evenodd" clip-rule="evenodd" d="M925.445 72.1812L925.869 82.9852L883.218 79.8114L890.745 71.7717L925.445 72.1812Z" fill="#093466"/>
<path fill-rule="evenodd" clip-rule="evenodd" d="M881.746 80.7265L890.44 72.1809L881.746 80.7265Z" fill="#961F12"/>
<path d="M881.746 80.7265L890.44 72.1809" stroke="#041D45" stroke-linecap="round"/>
<path d="M890.745 71.7725H925.454" stroke="#041D45" stroke-linecap="round" stroke-linejoin="round"/>
<path d="M173.928 50.4254V71.7775" stroke="#041D45" stroke-linecap="round"/>
<path fill-rule="evenodd" clip-rule="evenodd" d="M96.0134 84.5793L85.188 85.1108L86.9084 18.8656H96.0134V84.5793Z" fill="#093466"/>
<path fill-rule="evenodd" clip-rule="evenodd" d="M86.0552 56.0863L95.4883 46.5862L86.0552 56.0863Z" fill="#961F12"/>
<path d="M86.0552 56.0863L95.4883 46.5862" stroke="#041D45" stroke-linecap="round"/>
<path fill-rule="evenodd" clip-rule="evenodd" d="M95.4883 46.5865L95.7334 14.8867L95.4883 46.5865Z" fill="#961F12"/>
<path d="M95.4883 46.5865L95.7334 14.8867" stroke="#041D45" stroke-linecap="round" stroke-linejoin="round"/>
<path fill-rule="evenodd" clip-rule="evenodd" d="M52.9301 6.51453V30.3131C52.9309 31.4483 52.0107 32.369 50.8734 32.3705L50.8726 32.372H-1.79941C-2.93678 32.3712 -3.85769 31.4506 -3.85693 30.3154V30.3146V10.9514" fill="#274980"/>
<path d="M52.9301 6.51453V30.3131C52.9309 31.4483 52.0107 32.369 50.8734 32.3705L50.8726 32.372H-1.79941C-2.93678 32.3712 -3.85769 31.4506 -3.85693 30.3154V30.3146V10.9514" stroke="#041D45"/>
<path fill-rule="evenodd" clip-rule="evenodd" d="M28.014 32.3722C29.1514 32.3729 30.0723 33.2944 30.0715 34.4288V34.4295V53.7912C30.0723 54.9264 29.1521 55.8478 28.0147 55.8486H28.014H-26.7163V32.3722H28.014Z" fill="#274980"/>
<path fill-rule="evenodd" clip-rule="evenodd" d="M28.014 32.3722C29.1514 32.3729 30.0723 33.2944 30.0715 34.4288V34.4295V53.7912C30.0723 54.9264 29.1521 55.8478 28.0147 55.8486H28.014H-26.7163V32.3722H28.014Z" stroke="#041D45"/>
<path fill-rule="evenodd" clip-rule="evenodd" d="M198.372 55.8484H145.7C144.562 55.8469 143.643 54.9255 143.644 53.7911V34.4287C143.643 33.2942 144.562 32.3728 145.7 32.3713H198.372C199.51 32.3721 200.431 33.2927 200.43 34.4279V34.4287V53.7903C200.431 54.9255 199.511 55.847 198.373 55.8477H198.372V55.8484ZM84.7999 55.8484H32.1271C30.9897 55.8469 30.0703 54.9255 30.0703 53.7911V34.4287C30.0703 33.2942 30.9897 32.3728 32.1271 32.3713H84.7999C85.9372 32.3721 86.8574 33.2927 86.8574 34.4279V34.4287V53.7903C86.8581 54.9255 85.938 55.847 84.8006 55.8477H84.7999V55.8484Z" fill="#274980"/>
<path fill-rule="evenodd" clip-rule="evenodd" d="M198.372 55.8484H145.7C144.562 55.8469 143.643 54.9255 143.644 53.7911V34.4287C143.643 33.2942 144.562 32.3728 145.7 32.3713H198.372C199.51 32.3721 200.431 33.2927 200.43 34.4279V34.4287V53.7903C200.431 54.9255 199.511 55.847 198.373 55.8477H198.372V55.8484ZM84.7999 55.8484H32.1271C30.9897 55.8469 30.0703 54.9255 30.0703 53.7911V34.4287C30.0703 33.2942 30.9897 32.3728 32.1271 32.3713H84.7999C85.9372 32.3721 86.8574 33.2927 86.8574 34.4279V34.4287V53.7903C86.8581 54.9255 85.938 55.847 84.8006 55.8477H84.7999V55.8484Z" stroke="#041D45"/>
<path fill-rule="evenodd" clip-rule="evenodd" d="M255.158 55.8484H202.485C201.347 55.8477 200.426 54.927 200.427 53.7918V53.7911V34.4287C200.426 33.2942 201.347 32.3728 202.484 32.3713H202.485H255.158C256.295 32.3721 257.216 33.2927 257.215 34.4279V34.4287V53.7903C257.217 54.9255 256.296 55.847 255.158 55.8477V55.8484Z" fill="#274980"/>
<path fill-rule="evenodd" clip-rule="evenodd" d="M255.158 55.8484H202.485C201.347 55.8477 200.426 54.927 200.427 53.7918V53.7911V34.4287C200.426 33.2942 201.347 32.3728 202.484 32.3713H202.485H255.158C256.295 32.3721 257.216 33.2927 257.215 34.4279V34.4287V53.7903C257.217 54.9255 256.296 55.847 255.158 55.8477V55.8484Z" stroke="#041D45"/>
<path fill-rule="evenodd" clip-rule="evenodd" d="M312.264 55.8484H259.591C258.454 55.8477 257.533 54.927 257.534 53.7918V53.7911V34.4287C257.533 33.2942 258.453 32.3728 259.59 32.3713H259.591H312.264C313.401 32.3728 314.322 33.2942 314.32 34.4287V53.7903C314.322 54.9248 313.401 55.8462 312.264 55.8477V55.8484Z" fill="#274980"/>
<path fill-rule="evenodd" clip-rule="evenodd" d="M312.264 55.8484H259.591C258.454 55.8477 257.533 54.927 257.534 53.7918V53.7911V34.4287C257.533 33.2942 258.453 32.3728 259.59 32.3713H259.591H312.264C313.401 32.3728 314.322 33.2942 314.32 34.4287V53.7903C314.322 54.9248 313.401 55.8462 312.264 55.8477V55.8484Z" stroke="#041D45"/>
<path fill-rule="evenodd" clip-rule="evenodd" d="M369.051 55.8484H316.378C315.241 55.8477 314.32 54.927 314.321 53.7918V53.7911V34.4287C314.32 33.2942 315.24 32.3728 316.378 32.3713H369.051C370.188 32.3728 371.109 33.2942 371.107 34.4287V53.7903C371.109 54.9248 370.188 55.8462 369.051 55.8477V55.8484Z" fill="#274980"/>
<path fill-rule="evenodd" clip-rule="evenodd" d="M369.051 55.8484H316.378C315.241 55.8477 314.32 54.927 314.321 53.7918V53.7911V34.4287C314.32 33.2942 315.24 32.3728 316.378 32.3713H369.051C370.188 32.3728 371.109 33.2942 371.107 34.4287V53.7903C371.109 54.9248 370.188 55.8462 369.051 55.8477V55.8484Z" stroke="#041D45"/>
<path fill-rule="evenodd" clip-rule="evenodd" d="M539.41 55.8484H486.737C485.6 55.8477 484.679 54.927 484.679 53.7918V53.7911V34.4287C484.679 33.2942 485.599 32.3728 486.736 32.3713H486.737H539.41C540.546 32.3728 541.467 33.2942 541.466 34.4287V53.7903C541.467 54.9248 540.546 55.8462 539.41 55.8477V55.8484ZM425.836 55.8484H373.163C372.029 55.8484 371.106 54.927 371.106 53.7911V34.4287C371.108 33.295 372.028 32.3766 373.163 32.3713H425.836C426.974 32.3721 427.895 33.2927 427.894 34.4279V34.4287V53.7903C427.895 54.9255 426.974 55.847 425.837 55.8477H425.836V55.8484Z" fill="#274980"/>
<path fill-rule="evenodd" clip-rule="evenodd" d="M539.41 55.8484H486.737C485.6 55.8477 484.679 54.927 484.679 53.7918V53.7911V34.4287C484.679 33.2942 485.599 32.3728 486.736 32.3713H486.737H539.41C540.546 32.3728 541.467 33.2942 541.466 34.4287V53.7903C541.467 54.9248 540.546 55.8462 539.41 55.8477V55.8484ZM425.836 55.8484H373.163C372.029 55.8484 371.106 54.927 371.106 53.7911V34.4287C371.108 33.295 372.028 32.3766 373.163 32.3713H425.836C426.974 32.3721 427.895 33.2927 427.894 34.4279V34.4287V53.7903C427.895 54.9255 426.974 55.847 425.837 55.8477H425.836V55.8484Z" stroke="#041D45"/>
<path fill-rule="evenodd" clip-rule="evenodd" d="M109.717 10.9508V30.3132C109.718 31.4484 108.797 32.3698 107.659 32.3706V32.3721H54.9867C53.8524 32.3721 52.9292 31.4507 52.9292 30.3147V10.9515L109.717 10.9508ZM596.195 55.8485H543.523C542.385 55.8477 541.464 54.9271 541.465 53.7919V34.4287C541.464 33.2942 542.385 32.3728 543.522 32.3713H596.195C597.333 32.3721 598.253 33.2928 598.252 34.428V53.7903C598.254 54.9255 597.334 55.847 596.196 55.8477L596.195 55.8485Z" fill="#274980"/>
<path d="M109.717 30.3132C109.718 31.4484 108.797 32.3698 107.659 32.3706V32.3721H54.9867C53.8524 32.3721 52.9292 31.4506 52.9292 30.3147V10.9515M596.195 55.8485H543.523C542.385 55.8477 541.464 54.927 541.465 53.7918V34.4287C541.464 33.2942 542.385 32.3728 543.522 32.3713H596.195C597.333 32.3721 598.253 33.2928 598.252 34.428V53.7903C598.254 54.9255 597.334 55.847 596.196 55.8477L596.195 55.8485Z" stroke="#041D45"/>
<path fill-rule="evenodd" clip-rule="evenodd" d="M166.503 13.0834V10.9515V30.3132C166.504 31.4484 165.583 32.3698 164.446 32.3706H164.445V32.3721H111.773C110.635 32.3713 109.714 31.4507 109.715 30.3155V30.3147V4.71094" fill="#274980"/>
<path d="M166.503 13.0834V10.9515V30.3132C166.504 31.4484 165.583 32.3698 164.446 32.3706H164.445V32.3721H111.773C110.635 32.3713 109.714 31.4507 109.715 30.3155V30.3147V4.71094" stroke="#041D45"/>
<path fill-rule="evenodd" clip-rule="evenodd" d="M223.29 10.9508V10.9516V30.3132C223.291 31.4484 222.37 32.3698 221.233 32.3706H221.232V32.3721H168.552C167.415 32.3714 166.493 31.4507 166.494 30.3155V30.3147V15.9177" fill="#274980"/>
<path d="M223.29 10.9508V10.9516V30.3132C223.291 31.4484 222.37 32.3698 221.233 32.3706H221.232V32.3721H168.552C167.415 32.3714 166.493 31.4507 166.494 30.3155V30.3147V15.9177" stroke="#041D45"/>
<path fill-rule="evenodd" clip-rule="evenodd" d="M280.076 10.9508V10.9516V30.3132C280.077 31.4484 279.156 32.3698 278.018 32.3706V32.3721H225.346C224.209 32.3706 223.288 31.4492 223.29 30.3147V10.9516" fill="#274980"/>
<path d="M280.076 10.9508V10.9516V30.3132C280.077 31.4484 279.156 32.3698 278.018 32.3706V32.3721H225.346C224.209 32.3706 223.288 31.4492 223.29 30.3147V10.9516" stroke="#041D45"/>
<path fill-rule="evenodd" clip-rule="evenodd" d="M336.862 8.8943V10.9516V30.3133C336.863 31.4485 335.942 32.3699 334.805 32.3707H334.804V32.3722H282.131C280.994 32.3714 280.072 31.4508 280.074 30.3155V30.3148V-0.44104" fill="#274980"/>
<path d="M336.862 8.8943V10.9516V30.3133C336.863 31.4485 335.942 32.3699 334.805 32.3707H334.804V32.3722H282.131C280.994 32.3714 280.072 31.4507 280.074 30.3155V30.3148V-0.44104" stroke="#041D45"/>
<path fill-rule="evenodd" clip-rule="evenodd" d="M393.649 10.9515V30.3132C393.649 31.4484 392.728 32.3698 391.591 32.3706H391.59V32.3721H338.92C337.782 32.3713 336.861 31.4507 336.862 30.3155V30.3147V10.9515" fill="#274980"/>
<path d="M393.649 10.9515V30.3132C393.649 31.4484 392.728 32.3698 391.591 32.3706H391.59V32.3721H338.92C337.782 32.3713 336.861 31.4507 336.862 30.3155V30.3147V10.9515" stroke="#041D45"/>
<path fill-rule="evenodd" clip-rule="evenodd" d="M450.434 10.9515V30.3132C450.435 31.4484 449.515 32.3691 448.377 32.3706L448.376 32.3721H395.704C394.567 32.3713 393.645 31.4507 393.647 30.3155V30.3147V10.9515" fill="#274980"/>
<path d="M450.434 10.9515V30.3132C450.435 31.4484 449.515 32.3691 448.377 32.3706L448.376 32.3721H395.704C394.567 32.3713 393.645 31.4507 393.647 30.3155V30.3147V10.9515" stroke="#041D45"/>
<path fill-rule="evenodd" clip-rule="evenodd" d="M507.22 10.9508V10.9516V30.3132C507.221 31.4484 506.3 32.3698 505.163 32.3706H505.162V32.3721H452.49C451.353 32.3714 450.431 31.4507 450.433 30.3155V30.3147V10.9516" fill="#274980"/>
<path d="M507.22 10.9508V10.9516V30.3132C507.221 31.4484 506.3 32.3698 505.163 32.3706H505.162V32.3721H452.49C451.353 32.3714 450.431 31.4507 450.433 30.3155V30.3147V10.9516" stroke="#041D45"/>
<path fill-rule="evenodd" clip-rule="evenodd" d="M652.988 55.8486H600.308C599.171 55.8471 598.251 54.9256 598.252 53.7912V34.4288C598.251 33.2944 599.171 32.3729 600.309 32.3714H652.98C654.117 32.3722 655.038 33.2928 655.037 34.428V34.4288V53.7905C655.039 54.9257 654.118 55.8471 652.981 55.8478H652.98L652.988 55.8486ZM564.006 10.9509V10.9516V30.3133C564.007 31.4485 563.087 32.3699 561.95 32.3707H561.949L561.956 32.3722H509.285C508.148 32.3714 507.227 31.4507 507.228 30.3155V30.3148V10.9516L564.006 10.9509Z" fill="#274980"/>
<path d="M564.006 30.3133C564.007 31.4485 563.087 32.3699 561.95 32.3707L561.956 32.3722H509.285C508.148 32.3715 507.227 31.4508 507.228 30.3156V10.9517M652.988 55.8486H600.308C599.171 55.8471 598.251 54.9256 598.252 53.7912V34.4288C598.251 33.2944 599.171 32.3729 600.309 32.3714H652.98C654.117 32.3722 655.038 33.2928 655.037 34.428V53.7905C655.039 54.9257 654.118 55.8471 652.981 55.8479L652.988 55.8486Z" stroke="#041D45"/>
<path fill-rule="evenodd" clip-rule="evenodd" d="M709.769 55.8484H657.096C655.958 55.8477 655.037 54.927 655.038 53.7918V53.7911V34.4287C655.037 33.2942 655.957 32.3728 657.095 32.3713H657.096H709.769C710.905 32.3728 711.826 33.2942 711.825 34.4287V53.7903C711.826 54.9248 710.905 55.8462 709.769 55.8477V55.8484Z" fill="#274980"/>
<path fill-rule="evenodd" clip-rule="evenodd" d="M709.769 55.8484H657.096C655.958 55.8477 655.037 54.927 655.038 53.7918V53.7911V34.4287C655.037 33.2942 655.957 32.3728 657.095 32.3713H657.096H709.769C710.905 32.3728 711.826 33.2942 711.825 34.4287V53.7903C711.826 54.9248 710.905 55.8462 709.769 55.8477V55.8484Z" stroke="#041D45"/>
<path fill-rule="evenodd" clip-rule="evenodd" d="M620.795 10.9509V10.9517V30.3133C620.795 31.4485 619.875 32.3699 618.737 32.3707H618.736V32.3722H566.064C564.927 32.3714 564.005 31.4508 564.007 30.3156V30.3148V-0.44104" fill="#274980"/>
<path d="M620.795 10.9509V10.9517V30.3133C620.795 31.4485 619.875 32.3699 618.737 32.3707H618.736V32.3722H566.064C564.927 32.3714 564.005 31.4508 564.007 30.3156V30.3148V-0.44104" stroke="#041D45"/>
<path fill-rule="evenodd" clip-rule="evenodd" d="M677.581 10.9508V10.9515V30.3132C677.582 31.4484 676.661 32.3698 675.524 32.3706H675.523V32.3721H622.85C621.713 32.3706 620.792 31.4491 620.794 30.3147V4.71094" fill="#274980"/>
<path d="M677.581 10.9508V10.9515V30.3132C677.582 31.4484 676.661 32.3698 675.524 32.3706H675.523V32.3721H622.85C621.713 32.3706 620.792 31.4491 620.794 30.3147V4.71094" stroke="#041D45"/>
<path fill-rule="evenodd" clip-rule="evenodd" d="M50.8726 79.4213H-1.80015C-2.93752 79.4206 -3.85769 78.4999 -3.85693 77.3647V77.3639V58.0023C-3.85844 56.8678 -2.93828 55.9464 -1.80091 55.9449H-1.80015H50.8726C52.01 55.9464 52.9301 56.8678 52.9294 58.0023V77.3639C52.9301 78.4984 52.01 79.4198 50.8726 79.4213Z" fill="#274980"/>
<path fill-rule="evenodd" clip-rule="evenodd" d="M50.8726 79.4213H-1.80015C-2.93752 79.4206 -3.85769 78.4999 -3.85693 77.3647V77.3639V58.0023C-3.85844 56.8678 -2.93828 55.9464 -1.80091 55.9449H-1.80015H50.8726C52.01 55.9464 52.9301 56.8678 52.9294 58.0023V77.3639C52.9301 78.4984 52.01 79.4198 50.8726 79.4213Z" stroke="#041D45"/>
<path fill-rule="evenodd" clip-rule="evenodd" d="M28.014 79.4213C29.1514 79.422 30.0723 80.3434 30.0715 81.4779V81.4786V100.84C30.0723 101.975 29.1521 102.897 28.0147 102.898H28.014H-26.7163V79.4213H28.014Z" fill="#274980"/>
<path fill-rule="evenodd" clip-rule="evenodd" d="M28.014 79.4213C29.1514 79.422 30.0723 80.3434 30.0715 81.4779V81.4786V100.84C30.0723 101.975 29.1521 102.897 28.0147 102.898H28.014H-26.7163V79.4213H28.014Z" stroke="#041D45"/>
<path fill-rule="evenodd" clip-rule="evenodd" d="M84.7996 102.898H32.1268C30.9895 102.896 30.07 101.975 30.0708 100.84V81.4779C30.07 80.3435 30.9895 79.422 32.1268 79.4205H84.7996C85.937 79.4213 86.8579 80.3419 86.8571 81.4771V81.4779V100.84C86.8579 101.975 85.9377 102.896 84.8003 102.897H84.7996V102.898Z" fill="#274980"/>
<path fill-rule="evenodd" clip-rule="evenodd" d="M84.7996 102.898H32.1268C30.9895 102.896 30.07 101.975 30.0708 100.84V81.4779C30.07 80.3435 30.9895 79.422 32.1268 79.4205H84.7996C85.937 79.4213 86.8579 80.3419 86.8571 81.4771V81.4779V100.84C86.8579 101.975 85.9377 102.896 84.8003 102.897H84.7996V102.898Z" stroke="#041D45"/>
<path fill-rule="evenodd" clip-rule="evenodd" d="M141.586 102.898H88.9054C87.7688 102.897 86.8479 101.976 86.8486 100.841V100.84V81.4779C86.8471 80.3435 87.7688 79.422 88.9047 79.4205H88.9054H141.579C142.716 79.4213 143.637 80.3419 143.636 81.4771V81.4779V100.84C143.636 101.969 142.713 102.897 141.579 102.897L141.586 102.898Z" fill="#274980"/>
<path fill-rule="evenodd" clip-rule="evenodd" d="M141.586 102.898H88.9054C87.7688 102.897 86.8479 101.976 86.8486 100.841V100.84V81.4779C86.8471 80.3435 87.7688 79.422 88.9047 79.4205H88.9054H141.579C142.716 79.4213 143.637 80.3419 143.636 81.4771V81.4779V100.84C143.636 101.969 142.713 102.897 141.579 102.897L141.586 102.898Z" stroke="#041D45"/>
<path fill-rule="evenodd" clip-rule="evenodd" d="M198.372 102.898H145.7C144.562 102.896 143.643 101.975 143.644 100.84V81.4779C143.643 80.3435 144.562 79.422 145.7 79.4205H198.372C199.51 79.4213 200.431 80.3419 200.43 81.4771V81.4779V100.84C200.431 101.975 199.51 102.896 198.373 102.897H198.372V102.898Z" fill="#274980"/>
<path fill-rule="evenodd" clip-rule="evenodd" d="M198.372 102.898H145.7C144.562 102.896 143.643 101.975 143.644 100.84V81.4779C143.643 80.3435 144.562 79.422 145.7 79.4205H198.372C199.51 79.4213 200.431 80.3419 200.43 81.4771V81.4779V100.84C200.431 101.975 199.51 102.896 198.373 102.897H198.372V102.898Z" stroke="#041D45"/>
<path fill-rule="evenodd" clip-rule="evenodd" d="M369.051 102.898H316.378C315.241 102.897 314.32 101.976 314.321 100.841V100.84V81.4779C314.32 80.3435 315.24 79.422 316.378 79.4205H369.051C370.188 79.422 371.109 80.3435 371.107 81.4779V100.84C371.109 101.974 370.188 102.895 369.051 102.897V102.898Z" fill="#274980"/>
<path fill-rule="evenodd" clip-rule="evenodd" d="M369.051 102.898H316.378C315.241 102.897 314.32 101.976 314.321 100.841V100.84V81.4779C314.32 80.3435 315.24 79.422 316.378 79.4205H369.051C370.188 79.422 371.109 80.3435 371.107 81.4779V100.84C371.109 101.974 370.188 102.895 369.051 102.897V102.898Z" stroke="#041D45"/>
<path fill-rule="evenodd" clip-rule="evenodd" d="M107.659 79.4213H54.9864C53.8521 79.4213 52.9297 78.4999 52.9297 77.3639V58.0023C52.932 56.8693 53.8506 55.9502 54.9864 55.9449H107.659C108.797 55.9456 109.717 56.867 109.717 58.0015V58.0023V77.3639C109.717 78.4991 108.797 79.4205 107.66 79.4213H107.659ZM596.195 102.898H543.522C542.386 102.897 541.464 101.976 541.465 100.841V100.84V81.4779C541.464 80.3435 542.385 79.422 543.522 79.4205H596.195C597.332 79.4213 598.253 80.3419 598.253 81.4771V81.4779V100.84C598.254 101.975 597.333 102.896 596.196 102.897H596.195V102.898ZM425.836 102.898H373.163C372.03 102.898 371.106 101.976 371.106 100.84V81.4779C371.109 80.3442 372.028 79.4258 373.163 79.4205H425.836C426.974 79.4213 427.894 80.3419 427.894 81.4771V81.4779V100.84C427.895 101.975 426.974 102.896 425.837 102.897H425.836V102.898Z" fill="#274980"/>
<path fill-rule="evenodd" clip-rule="evenodd" d="M107.659 79.4213H54.9864C53.8521 79.4213 52.9297 78.4999 52.9297 77.3639V58.0023C52.932 56.8693 53.8506 55.9502 54.9864 55.9449H107.659C108.797 55.9456 109.717 56.867 109.717 58.0015V58.0023V77.3639C109.717 78.4991 108.797 79.4205 107.66 79.4213H107.659ZM596.195 102.898H543.522C542.386 102.897 541.464 101.976 541.465 100.841V100.84V81.4779C541.464 80.3435 542.385 79.422 543.522 79.4205H596.195C597.332 79.4213 598.253 80.3419 598.253 81.4771V81.4779V100.84C598.254 101.975 597.333 102.896 596.196 102.897H596.195V102.898ZM425.836 102.898H373.163C372.03 102.898 371.106 101.976 371.106 100.84V81.4779C371.109 80.3442 372.028 79.4258 373.163 79.4205H425.836C426.974 79.4213 427.894 80.3419 427.894 81.4771V81.4779V100.84C427.895 101.975 426.974 102.896 425.837 102.897H425.836V102.898Z" stroke="#041D45"/>
<path fill-rule="evenodd" clip-rule="evenodd" d="M164.445 79.4213H111.773C110.635 79.4206 109.714 78.4999 109.716 77.3647V77.3639V58.0023C109.714 56.8678 110.634 55.9464 111.772 55.9449H111.773H164.445C165.583 55.9456 166.504 56.867 166.504 58.0015V58.0023V77.3639C166.504 78.4991 165.583 79.4206 164.446 79.4213H164.445Z" fill="#274980"/>
<path fill-rule="evenodd" clip-rule="evenodd" d="M164.445 79.4213H111.773C110.635 79.4206 109.714 78.4999 109.716 77.3647V77.3639V58.0023C109.714 56.8678 110.634 55.9464 111.772 55.9449H111.773H164.445C165.583 55.9456 166.504 56.867 166.504 58.0015V58.0023V77.3639C166.504 78.4991 165.583 79.4206 164.446 79.4213H164.445Z" stroke="#041D45"/>
<path fill-rule="evenodd" clip-rule="evenodd" d="M278.018 79.4213H225.345C224.208 79.4198 223.288 78.4984 223.289 77.3639V58.0023C223.288 56.8678 224.207 55.9456 225.344 55.9434H225.345H278.018C279.155 55.9441 280.076 56.8655 280.076 58V58.0007V77.3624C280.076 78.4976 279.156 79.419 278.019 79.4198H278.018V79.4213Z" fill="#274980"/>
<path fill-rule="evenodd" clip-rule="evenodd" d="M278.018 79.4213H225.345C224.208 79.4198 223.288 78.4984 223.289 77.3639V58.0023C223.288 56.8678 224.207 55.9456 225.344 55.9434H225.345H278.018C279.155 55.9441 280.076 56.8655 280.076 58V58.0007V77.3624C280.076 78.4976 279.156 79.419 278.019 79.4198H278.018V79.4213Z" stroke="#041D45"/>
<path fill-rule="evenodd" clip-rule="evenodd" d="M334.805 79.4213H282.131C280.994 79.4206 280.073 78.4999 280.074 77.3647V77.3639V58.0023C280.073 56.8678 280.993 55.9464 282.13 55.9449H282.131H334.804C335.941 55.9456 336.863 56.867 336.862 58.0015V58.0023V77.3639C336.863 78.4991 335.942 79.4206 334.805 79.4213H334.804H334.805Z" fill="#274980"/>
<path d="M334.805 79.4213H282.131C280.994 79.4206 280.073 78.4999 280.074 77.3647V77.3639V58.0023C280.073 56.8678 280.993 55.9464 282.13 55.9449H282.131H334.804C335.941 55.9456 336.863 56.867 336.862 58.0015V58.0023V77.3639C336.863 78.4991 335.942 79.4206 334.805 79.4213ZM334.805 79.4213H334.804H334.805Z" stroke="#041D45"/>
<path fill-rule="evenodd" clip-rule="evenodd" d="M391.59 79.4213H338.919C337.782 79.4206 336.861 78.4999 336.862 77.3647V77.3639V58.0023C336.861 56.8678 337.781 55.9464 338.919 55.9449H391.592C392.729 55.9464 393.649 56.8678 393.648 58.0023V77.3639C393.649 78.4991 392.729 79.4206 391.591 79.4213H391.59Z" fill="#274980"/>
<path fill-rule="evenodd" clip-rule="evenodd" d="M391.59 79.4213H338.919C337.782 79.4206 336.861 78.4999 336.862 77.3647V77.3639V58.0023C336.861 56.8678 337.781 55.9464 338.919 55.9449H391.592C392.729 55.9464 393.649 56.8678 393.648 58.0023V77.3639C393.649 78.4991 392.729 79.4206 391.591 79.4213H391.59Z" stroke="#041D45"/>
<path fill-rule="evenodd" clip-rule="evenodd" d="M448.377 79.4213H395.704C394.567 79.4206 393.646 78.4999 393.647 77.3647V77.3639V58.0023C393.646 56.8678 394.566 55.9464 395.703 55.9449H395.704H448.377C449.514 55.9464 450.435 56.8678 450.434 58.0023V77.3639C450.435 78.4984 449.514 79.4198 448.377 79.4213Z" fill="#274980"/>
<path fill-rule="evenodd" clip-rule="evenodd" d="M448.377 79.4213H395.704C394.567 79.4206 393.646 78.4999 393.647 77.3647V77.3639V58.0023C393.646 56.8678 394.566 55.9464 395.703 55.9449H395.704H448.377C449.514 55.9464 450.435 56.8678 450.434 58.0023V77.3639C450.435 78.4984 449.514 79.4198 448.377 79.4213Z" stroke="#041D45"/>
<path fill-rule="evenodd" clip-rule="evenodd" d="M505.163 79.4213H452.49C451.352 79.4206 450.432 78.4999 450.433 77.3647V77.3639V58.0023C450.432 56.8678 451.352 55.9464 452.489 55.9449H452.49H505.163C506.3 55.9456 507.221 56.867 507.221 58.0015V58.0023V77.3639C507.221 78.4991 506.301 79.4206 505.163 79.4213Z" fill="#274980"/>
<path fill-rule="evenodd" clip-rule="evenodd" d="M505.163 79.4213H452.49C451.352 79.4206 450.432 78.4999 450.433 77.3647V77.3639V58.0023C450.432 56.8678 451.352 55.9464 452.489 55.9449H452.49H505.163C506.3 55.9456 507.221 56.867 507.221 58.0015V58.0023V77.3639C507.221 78.4991 506.301 79.4206 505.163 79.4213Z" stroke="#041D45"/>
<path fill-rule="evenodd" clip-rule="evenodd" d="M561.948 79.4213H509.277C508.14 79.4206 507.219 78.4999 507.22 77.3647V77.3639V58.0023C507.219 56.8678 508.139 55.9464 509.277 55.9449H561.948C563.085 55.9456 564.006 56.867 564.006 58.0015V58.0023V77.3639C564.006 78.4991 563.086 79.4206 561.949 79.4213H561.948Z" fill="#274980"/>
<path fill-rule="evenodd" clip-rule="evenodd" d="M561.948 79.4213H509.277C508.14 79.4206 507.219 78.4999 507.22 77.3647V77.3639V58.0023C507.219 56.8678 508.139 55.9464 509.277 55.9449H561.948C563.085 55.9456 564.006 56.867 564.006 58.0015V58.0023V77.3639C564.006 78.4991 563.086 79.4206 561.949 79.4213H561.948Z" stroke="#041D45"/>
<path fill-rule="evenodd" clip-rule="evenodd" d="M652.981 102.898H600.308C599.171 102.896 598.251 101.975 598.252 100.84V81.4779C598.251 80.3435 599.171 79.422 600.309 79.4205H652.98C654.117 79.4213 655.038 80.3419 655.037 81.4771V81.4779V100.84C655.039 101.975 654.118 102.896 652.981 102.897H652.98L652.981 102.898Z" fill="#274980"/>
<path fill-rule="evenodd" clip-rule="evenodd" d="M652.981 102.898H600.308C599.171 102.896 598.251 101.975 598.252 100.84V81.4779C598.251 80.3435 599.171 79.422 600.309 79.4205H652.98C654.117 79.4213 655.038 80.3419 655.037 81.4771V81.4779V100.84C655.039 101.975 654.118 102.896 652.981 102.897H652.98L652.981 102.898Z" stroke="#041D45"/>
<path fill-rule="evenodd" clip-rule="evenodd" d="M709.769 102.898H657.096C655.958 102.897 655.037 101.976 655.038 100.841V100.84V81.4779C655.037 80.3435 655.957 79.422 657.095 79.4205H657.096H709.769C710.905 79.422 711.826 80.3435 711.825 81.4779V100.84C711.826 101.974 710.905 102.895 709.769 102.897V102.898Z" fill="#274980"/>
<path fill-rule="evenodd" clip-rule="evenodd" d="M709.769 102.898H657.096C655.958 102.897 655.037 101.976 655.038 100.841V100.84V81.4779C655.037 80.3435 655.957 79.422 657.095 79.4205H657.096H709.769C710.905 79.422 711.826 80.3435 711.825 81.4779V100.84C711.826 101.974 710.905 102.895 709.769 102.897V102.898Z" stroke="#041D45"/>
<path fill-rule="evenodd" clip-rule="evenodd" d="M709.358 55.8484H656.686C655.549 55.8477 654.628 54.927 654.629 53.7918V53.7911V34.4287C654.627 33.2942 655.548 32.3728 656.686 32.3713H709.359C710.496 32.3728 711.416 33.2942 711.415 34.4287V53.7903C711.416 54.9248 710.496 55.8462 709.359 55.8477L709.358 55.8484Z" fill="#274980"/>
<path fill-rule="evenodd" clip-rule="evenodd" d="M709.358 55.8484H656.686C655.549 55.8477 654.628 54.927 654.629 53.7918V53.7911V34.4287C654.627 33.2942 655.548 32.3728 656.686 32.3713H709.359C710.496 32.3728 711.416 33.2942 711.415 34.4287V53.7903C711.416 54.9248 710.496 55.8462 709.359 55.8477L709.358 55.8484Z" stroke="#041D45"/>
<path fill-rule="evenodd" clip-rule="evenodd" d="M766.143 55.8484H713.472C712.335 55.8477 711.414 54.927 711.415 53.7918V53.7911V34.4287C711.413 33.2942 712.334 32.3728 713.471 32.3713H713.472H766.145C767.282 32.3721 768.202 33.2927 768.202 34.4279V34.4287V53.7903C768.203 54.9255 767.283 55.847 766.146 55.8477H766.145L766.143 55.8484Z" fill="#274980"/>
<path fill-rule="evenodd" clip-rule="evenodd" d="M766.143 55.8484H713.472C712.335 55.8477 711.414 54.927 711.415 53.7918V53.7911V34.4287C711.413 33.2942 712.334 32.3728 713.471 32.3713H713.472H766.145C767.282 32.3721 768.202 33.2927 768.202 34.4279V34.4287V53.7903C768.203 54.9255 767.283 55.847 766.146 55.8477H766.145L766.143 55.8484Z" stroke="#041D45"/>
<path fill-rule="evenodd" clip-rule="evenodd" d="M822.93 55.8486H770.257C769.12 55.8471 768.2 54.9256 768.201 53.7912V34.4288C768.2 33.2944 769.121 32.3729 770.258 32.3714H770.259H822.93C824.067 32.3722 824.988 33.2928 824.987 34.428V34.4288V53.7905C824.988 54.9257 824.068 55.8471 822.93 55.8478V55.8486ZM733.954 10.9509V10.9516V30.3133C733.956 31.4485 733.035 32.3699 731.898 32.3707V32.3722H679.227C678.09 32.3714 677.168 31.4507 677.169 30.3155V30.3148V10.9516L733.954 10.9509Z" fill="#274980"/>
<path d="M733.954 30.3133C733.956 31.4485 733.035 32.3699 731.898 32.3707V32.3722H679.227C678.09 32.3715 677.168 31.4508 677.169 30.3156V10.9517M822.93 55.8486H770.257C769.12 55.8471 768.2 54.9256 768.201 53.7912V34.4288C768.2 33.2944 769.121 32.3729 770.258 32.3714H822.93C824.067 32.3722 824.988 33.2928 824.987 34.428V53.7905C824.988 54.9257 824.068 55.8478 822.93 55.8486Z" stroke="#041D45"/>
<path fill-rule="evenodd" clip-rule="evenodd" d="M879.717 55.8484H827.044C825.907 55.8477 824.986 54.927 824.986 53.7918V53.7911V34.4287C824.985 33.2942 825.906 32.3728 827.043 32.3713H827.044H879.717C880.853 32.3728 881.774 33.2942 881.773 34.4287V53.7903C881.774 54.9248 880.853 55.8462 879.717 55.8477V55.8484Z" fill="#274980"/>
<path fill-rule="evenodd" clip-rule="evenodd" d="M879.717 55.8484H827.044C825.907 55.8477 824.986 54.927 824.986 53.7918V53.7911V34.4287C824.985 33.2942 825.906 32.3728 827.043 32.3713H827.044H879.717C880.853 32.3728 881.774 33.2942 881.773 34.4287V53.7903C881.774 54.9248 880.853 55.8462 879.717 55.8477V55.8484Z" stroke="#041D45"/>
<path fill-rule="evenodd" clip-rule="evenodd" d="M790.743 10.9508V10.9516V30.3132C790.744 31.4484 789.823 32.3698 788.686 32.3706H788.685L788.684 32.3721H736.012C734.875 32.3714 733.953 31.4507 733.954 30.3155V30.3147V10.9516" fill="#274980"/>
<path d="M790.743 10.9508V10.9516V30.3132C790.744 31.4484 789.823 32.3698 788.686 32.3706H788.685L788.684 32.3721H736.012C734.875 32.3714 733.953 31.4507 733.954 30.3155V30.3147V10.9516" stroke="#041D45"/>
<path fill-rule="evenodd" clip-rule="evenodd" d="M709.358 102.898H656.686C655.549 102.897 654.628 101.976 654.629 100.841V100.84V81.4779C654.627 80.3435 655.548 79.4221 656.686 79.4206H709.359C710.496 79.4221 711.416 80.3435 711.415 81.4779V100.84C711.416 101.974 710.496 102.895 709.359 102.897L709.358 102.898ZM847.529 10.9509V10.9516V30.3133C847.529 31.4485 846.609 32.3699 845.472 32.3707H845.471V32.3722H792.798C791.661 32.3707 790.741 31.4493 790.742 30.3148V10.9516L847.529 10.9509Z" fill="#274980"/>
<path d="M847.529 30.3133C847.529 31.4485 846.609 32.3699 845.472 32.3707L845.471 32.3722H792.798C791.661 32.3707 790.741 31.4493 790.742 30.3148V10.9517M709.358 102.898H656.686C655.549 102.897 654.628 101.976 654.629 100.841V81.478C654.627 80.3435 655.548 79.4221 656.686 79.4206H709.359C710.496 79.4221 711.416 80.3435 711.415 81.478V100.84C711.416 101.974 710.496 102.895 709.359 102.897L709.358 102.898Z" stroke="#041D45"/>
<path fill-rule="evenodd" clip-rule="evenodd" d="M766.143 102.898H713.472C712.335 102.897 711.414 101.976 711.415 100.841V100.84V81.4779C711.413 80.3435 712.334 79.422 713.471 79.4205H713.472H766.145C767.282 79.4213 768.202 80.3419 768.202 81.4771V81.4779V100.84C768.203 101.975 767.283 102.896 766.146 102.897H766.145L766.143 102.898Z" fill="#274980"/>
<path fill-rule="evenodd" clip-rule="evenodd" d="M766.143 102.898H713.472C712.335 102.897 711.414 101.976 711.415 100.841V100.84V81.4779C711.413 80.3435 712.334 79.422 713.471 79.4205H713.472H766.145C767.282 79.4213 768.202 80.3419 768.202 81.4771V81.4779V100.84C768.203 101.975 767.283 102.896 766.146 102.897H766.145L766.143 102.898Z" stroke="#041D45"/>
<path fill-rule="evenodd" clip-rule="evenodd" d="M731.898 79.4213H679.227C678.09 79.4206 677.169 78.4999 677.169 77.3647V77.3639V58.0023C677.169 56.8678 678.089 55.9464 679.226 55.9449H679.227H731.898C733.035 55.9456 733.956 56.867 733.955 58.0015V58.0023V77.3639C733.956 78.4991 733.036 79.4206 731.899 79.4213H731.898Z" fill="#274980"/>
<path fill-rule="evenodd" clip-rule="evenodd" d="M731.898 79.4213H679.227C678.09 79.4206 677.169 78.4999 677.169 77.3647V77.3639V58.0023C677.169 56.8678 678.089 55.9464 679.226 55.9449H679.227H731.898C733.035 55.9456 733.956 56.867 733.955 58.0015V58.0023V77.3639C733.956 78.4991 733.036 79.4206 731.899 79.4213H731.898Z" stroke="#041D45"/>
<path fill-rule="evenodd" clip-rule="evenodd" d="M822.929 102.898H770.257C769.12 102.896 768.2 101.975 768.201 100.84V81.4779C768.2 80.3435 769.121 79.422 770.258 79.4205H770.259H822.929C824.067 79.4213 824.988 80.3419 824.987 81.4771V81.4779V100.84C824.988 101.975 824.068 102.896 822.93 102.897H822.929V102.898Z" fill="#274980"/>
<path fill-rule="evenodd" clip-rule="evenodd" d="M822.929 102.898H770.257C769.12 102.896 768.2 101.975 768.201 100.84V81.4779C768.2 80.3435 769.121 79.422 770.258 79.4205H770.259H822.929C824.067 79.4213 824.988 80.3419 824.987 81.4771V81.4779V100.84C824.988 101.975 824.068 102.896 822.93 102.897H822.929V102.898Z" stroke="#041D45"/>
<path fill-rule="evenodd" clip-rule="evenodd" d="M788.684 79.4213H736.012C734.874 79.4206 733.953 78.4999 733.954 77.3647V77.3639V58.0023C733.953 56.8678 734.874 55.9464 736.011 55.9449H736.012H788.684C789.822 55.9456 790.743 56.867 790.742 58.0015V58.0023V77.3639C790.743 78.4991 789.823 79.4206 788.685 79.4213H788.684Z" fill="#274980"/>
<path fill-rule="evenodd" clip-rule="evenodd" d="M788.684 79.4213H736.012C734.874 79.4206 733.953 78.4999 733.954 77.3647V77.3639V58.0023C733.953 56.8678 734.874 55.9464 736.011 55.9449H736.012H788.684C789.822 55.9456 790.743 56.867 790.742 58.0015V58.0023V77.3639C790.743 78.4991 789.823 79.4206 788.685 79.4213H788.684Z" stroke="#041D45"/>
<path fill-rule="evenodd" clip-rule="evenodd" d="M879.465 55.8484H826.792C825.655 55.8469 824.735 54.9255 824.736 53.7911V34.4287C824.735 33.2942 825.656 32.3728 826.793 32.3713H826.794H879.464C880.602 32.3721 881.523 33.2927 881.522 34.4279V34.4287V53.7903C881.523 54.9255 880.603 55.847 879.465 55.8477H879.464L879.465 55.8484Z" fill="#274980"/>
<path fill-rule="evenodd" clip-rule="evenodd" d="M879.465 55.8484H826.792C825.655 55.8469 824.735 54.9255 824.736 53.7911V34.4287C824.735 33.2942 825.656 32.3728 826.793 32.3713H826.794H879.464C880.602 32.3721 881.523 33.2927 881.522 34.4279V34.4287V53.7903C881.523 54.9255 880.603 55.847 879.465 55.8477H879.464L879.465 55.8484Z" stroke="#041D45"/>
<path fill-rule="evenodd" clip-rule="evenodd" d="M936.253 55.8484H883.58C882.443 55.8477 881.522 54.927 881.523 53.7918V53.7911V34.4287C881.521 33.2942 882.442 32.3728 883.58 32.3713H936.253C937.39 32.3728 938.311 33.2942 938.309 34.4287V53.7903C938.311 54.9248 937.39 55.8462 936.253 55.8477V55.8484Z" fill="#274980"/>
<path fill-rule="evenodd" clip-rule="evenodd" d="M936.253 55.8484H883.58C882.443 55.8477 881.522 54.927 881.523 53.7918V53.7911V34.4287C881.521 33.2942 882.442 32.3728 883.58 32.3713H936.253C937.39 32.3728 938.311 33.2942 938.309 34.4287V53.7903C938.311 54.9248 937.39 55.8462 936.253 55.8477V55.8484Z" stroke="#041D45"/>
<path fill-rule="evenodd" clip-rule="evenodd" d="M904.066 10.9509V10.9517V30.3133C904.066 31.4485 903.145 32.3699 902.008 32.3707H902.007V32.3722H849.335C848.198 32.3707 847.278 31.4493 847.279 30.3148V-0.44104" fill="#274980"/>
<path d="M904.066 10.9509V10.9517V30.3133C904.066 31.4485 903.145 32.3699 902.008 32.3707H902.007V32.3722H849.335C848.198 32.3707 847.278 31.4493 847.279 30.3148V-0.44104" stroke="#041D45"/>
<path fill-rule="evenodd" clip-rule="evenodd" d="M936.253 102.898H883.58C882.443 102.897 881.522 101.976 881.523 100.841V100.84V81.4779C881.521 80.3435 882.442 79.422 883.58 79.4205H936.253C937.39 79.422 938.311 80.3435 938.309 81.4779V100.84C938.311 101.974 937.39 102.895 936.253 102.897V102.898Z" fill="#274980"/>
<path fill-rule="evenodd" clip-rule="evenodd" d="M936.253 102.898H883.58C882.443 102.897 881.522 101.976 881.523 100.841V100.84V81.4779C881.521 80.3435 882.442 79.422 883.58 79.4205H936.253C937.39 79.422 938.311 80.3435 938.309 81.4779V100.84C938.311 101.974 937.39 102.895 936.253 102.897V102.898Z" stroke="#041D45"/>
<path fill-rule="evenodd" clip-rule="evenodd" d="M936.471 55.8484H883.797C882.66 55.8469 881.74 54.9255 881.742 53.7911V34.4287C881.74 33.2942 882.661 32.3728 883.799 32.3713H936.47C937.607 32.3721 938.528 33.2927 938.527 34.4279V34.4287V53.7903C938.529 54.9255 937.608 55.847 936.471 55.8477H936.47L936.471 55.8484Z" fill="#274980"/>
<path fill-rule="evenodd" clip-rule="evenodd" d="M936.471 55.8484H883.797C882.66 55.8469 881.74 54.9255 881.742 53.7911V34.4287C881.74 33.2942 882.661 32.3728 883.799 32.3713H936.47C937.607 32.3721 938.528 33.2927 938.527 34.4279V34.4287V53.7903C938.529 54.9255 937.608 55.847 936.471 55.8477H936.47L936.471 55.8484Z" stroke="#041D45"/>
<path fill-rule="evenodd" clip-rule="evenodd" d="M993.259 55.8484H940.586C939.449 55.8477 938.528 54.927 938.529 53.7918V53.7911V34.4287C938.527 33.2942 939.448 32.3728 940.586 32.3713H993.259C994.396 32.3728 995.317 33.2942 995.315 34.4287V53.7903C995.317 54.9248 994.396 55.8462 993.259 55.8477V55.8484Z" fill="#274980"/>
<path fill-rule="evenodd" clip-rule="evenodd" d="M993.259 55.8484H940.586C939.449 55.8477 938.528 54.927 938.529 53.7918V53.7911V34.4287C938.527 33.2942 939.448 32.3728 940.586 32.3713H993.259C994.396 32.3728 995.317 33.2942 995.315 34.4287V53.7903C995.317 54.9248 994.396 55.8462 993.259 55.8477V55.8484Z" stroke="#041D45"/>
<path fill-rule="evenodd" clip-rule="evenodd" d="M961.07 10.9508V10.9516V30.3133C961.071 31.4485 960.15 32.3699 959.013 32.3706H959.012V32.3721H906.339C905.202 32.3706 904.282 31.4492 904.283 30.3148V-5.33569" fill="#274980"/>
<path d="M961.07 10.9508V10.9516V30.3133C961.071 31.4485 960.15 32.3699 959.013 32.3706H959.012V32.3721H906.339C905.202 32.3706 904.282 31.4492 904.283 30.3148V-5.33569" stroke="#041D45"/>
<path fill-rule="evenodd" clip-rule="evenodd" d="M936.471 102.898H883.798C882.66 102.896 881.74 101.975 881.742 100.84V81.4779C881.74 80.3435 882.661 79.422 883.799 79.4205H936.47C937.607 79.4213 938.528 80.3419 938.527 81.4771V81.4779V100.84C938.529 101.975 937.608 102.896 936.471 102.897H936.47L936.471 102.898Z" fill="#274980"/>
<path fill-rule="evenodd" clip-rule="evenodd" d="M936.471 102.898H883.798C882.66 102.896 881.74 101.975 881.742 100.84V81.4779C881.74 80.3435 882.661 79.422 883.799 79.4205H936.47C937.607 79.4213 938.528 80.3419 938.527 81.4771V81.4779V100.84C938.529 101.975 937.608 102.896 936.471 102.897H936.47L936.471 102.898Z" stroke="#041D45"/>
<path fill-rule="evenodd" clip-rule="evenodd" d="M993.259 102.898H940.586C939.449 102.897 938.528 101.976 938.529 100.841V100.84V81.4779C938.527 80.3435 939.448 79.422 940.586 79.4205H993.259C994.396 79.422 995.317 80.3435 995.315 81.4779V100.84C995.317 101.974 994.396 102.895 993.259 102.897V102.898Z" fill="#274980"/>
<path fill-rule="evenodd" clip-rule="evenodd" d="M993.259 102.898H940.586C939.449 102.897 938.528 101.976 938.529 100.841V100.84V81.4779C938.527 80.3435 939.448 79.422 940.586 79.4205H993.259C994.396 79.422 995.317 80.3435 995.315 81.4779V100.84C995.317 101.974 994.396 102.895 993.259 102.897V102.898Z" stroke="#041D45"/>
<path fill-rule="evenodd" clip-rule="evenodd" d="M959.012 79.4213H906.339C905.202 79.4198 904.282 78.4984 904.283 77.3639V58.0023C904.282 56.8678 905.202 55.9464 906.339 55.9449H959.012C960.149 55.9456 961.07 56.867 961.07 58.0015V58.0023V77.3639C961.07 78.4991 960.15 79.4206 959.013 79.4213H959.012Z" fill="#274980"/>
<path fill-rule="evenodd" clip-rule="evenodd" d="M959.012 79.4213H906.339C905.202 79.4198 904.282 78.4984 904.283 77.3639V58.0023C904.282 56.8678 905.202 55.9464 906.339 55.9449H959.012C960.149 55.9456 961.07 56.867 961.07 58.0015V58.0023V77.3639C961.07 78.4991 960.15 79.4206 959.013 79.4213H959.012Z" stroke="#041D45"/>
<path fill-rule="evenodd" clip-rule="evenodd" d="M993.475 55.8484H940.803C939.665 55.8469 938.745 54.9255 938.747 53.7911V34.4287C938.745 33.2942 939.666 32.3728 940.803 32.3713H940.804H993.474C994.612 32.3721 995.533 33.2927 995.532 34.4279V34.4287V53.7903C995.533 54.9255 994.612 55.847 993.475 55.8477H993.474L993.475 55.8484Z" fill="#274980"/>
<path fill-rule="evenodd" clip-rule="evenodd" d="M993.475 55.8484H940.803C939.665 55.8469 938.745 54.9255 938.747 53.7911V34.4287C938.745 33.2942 939.666 32.3728 940.803 32.3713H940.804H993.474C994.612 32.3721 995.533 33.2927 995.532 34.4279V34.4287V53.7903C995.533 54.9255 994.612 55.847 993.475 55.8477H993.474L993.475 55.8484Z" stroke="#041D45"/>
<path fill-rule="evenodd" clip-rule="evenodd" d="M1050.26 55.8484H997.59C996.453 55.8477 995.532 54.927 995.533 53.7918V53.7911V34.4287C995.532 33.2942 996.453 32.3728 997.589 32.3713H997.59H1050.26C1051.4 32.3728 1052.32 33.2942 1052.32 34.4287V53.7903C1052.32 54.9248 1051.4 55.8462 1050.26 55.8477V55.8484Z" fill="#274980"/>
<path fill-rule="evenodd" clip-rule="evenodd" d="M1050.26 55.8484H997.59C996.453 55.8477 995.532 54.927 995.533 53.7918V53.7911V34.4287C995.532 33.2942 996.453 32.3728 997.589 32.3713H997.59H1050.26C1051.4 32.3728 1052.32 33.2942 1052.32 34.4287V53.7903C1052.32 54.9248 1051.4 55.8462 1050.26 55.8477V55.8484Z" stroke="#041D45"/>
<path fill-rule="evenodd" clip-rule="evenodd" d="M993.475 102.898H940.803C939.665 102.896 938.745 101.975 938.747 100.84V81.478C938.745 80.3436 939.666 79.4221 940.803 79.4206H940.804H993.475C994.612 79.4214 995.533 80.342 995.532 81.4772V81.478V100.84C995.534 101.975 994.613 102.896 993.475 102.897V102.898ZM1075.16 10.9509V10.9517V30.3134C1075.16 31.4486 1074.24 32.37 1073.1 32.3708L1073.09 32.3723H1020.42C1019.28 32.3708 1018.36 31.4493 1018.36 30.3149V6.85806L1075.16 10.9509ZM1018.07 10.9509V10.9517V30.3134C1018.08 31.4486 1017.16 32.37 1016.02 32.3708V32.3723H963.344C962.207 32.3708 961.287 31.4493 961.287 30.3149V4.71106L1018.07 10.9509Z" fill="#274980"/>
<path d="M1075.16 30.3134C1075.16 31.4486 1074.24 32.37 1073.1 32.3708L1073.09 32.3723H1020.42C1019.28 32.3708 1018.36 31.4493 1018.36 30.3149V6.85806M1018.07 30.3134C1018.08 31.4486 1017.16 32.37 1016.02 32.3708V32.3723H963.344C962.207 32.3708 961.287 31.4493 961.287 30.3149V4.71106M993.475 102.898H940.803C939.665 102.896 938.745 101.975 938.747 100.84V81.478C938.745 80.3436 939.666 79.4221 940.803 79.4206H993.475C994.612 79.4214 995.533 80.342 995.532 81.4772V100.84C995.534 101.975 994.613 102.897 993.475 102.898Z" stroke="#041D45"/>
<path fill-rule="evenodd" clip-rule="evenodd" d="M1050.26 102.898H997.59C996.453 102.897 995.532 101.976 995.533 100.841V100.84V81.4779C995.532 80.3435 996.453 79.422 997.589 79.4205H997.59H1050.26C1051.4 79.422 1052.32 80.3435 1052.32 81.4779V100.84C1052.32 101.974 1051.4 102.895 1050.26 102.897V102.898Z" fill="#274980"/>
<path fill-rule="evenodd" clip-rule="evenodd" d="M1050.26 102.898H997.59C996.453 102.897 995.532 101.976 995.533 100.841V100.84V81.4779C995.532 80.3435 996.453 79.422 997.589 79.4205H997.59H1050.26C1051.4 79.422 1052.32 80.3435 1052.32 81.4779V100.84C1052.32 101.974 1051.4 102.895 1050.26 102.897V102.898Z" stroke="#041D45"/>
<path fill-rule="evenodd" clip-rule="evenodd" d="M1016.02 79.4213H963.344C962.207 79.4198 961.287 78.4984 961.288 77.3639V58.0023C961.287 56.8678 962.207 55.9464 963.344 55.9449H1016.02C1017.15 55.9456 1018.08 56.867 1018.07 58.0015V58.0023V77.3639C1018.08 78.4991 1017.16 79.4206 1016.02 79.4213Z" fill="#274980"/>
<path fill-rule="evenodd" clip-rule="evenodd" d="M1016.02 79.4213H963.344C962.207 79.4198 961.287 78.4984 961.288 77.3639V58.0023C961.287 56.8678 962.207 55.9464 963.344 55.9449H1016.02C1017.15 55.9456 1018.08 56.867 1018.07 58.0015V58.0023V77.3639C1018.08 78.4991 1017.16 79.4206 1016.02 79.4213Z" stroke="#041D45"/>
<path fill-rule="evenodd" clip-rule="evenodd" d="M1107.49 55.8484H1054.81C1053.68 55.8477 1052.76 54.927 1052.76 53.7918V53.7911V34.4287C1052.75 33.2942 1053.67 32.3728 1054.81 32.3713H1107.49C1108.62 32.3728 1109.54 33.2942 1109.54 34.4287V53.7903C1109.54 54.9248 1108.62 55.8462 1107.49 55.8477V55.8484Z" fill="#274980"/>
<path fill-rule="evenodd" clip-rule="evenodd" d="M1107.49 55.8484H1054.81C1053.68 55.8477 1052.76 54.927 1052.76 53.7918V53.7911V34.4287C1052.75 33.2942 1053.67 32.3728 1054.81 32.3713H1107.49C1108.62 32.3728 1109.54 33.2942 1109.54 34.4287V53.7903C1109.54 54.9248 1108.62 55.8462 1107.49 55.8477V55.8484Z" stroke="#041D45"/>
<path fill-rule="evenodd" clip-rule="evenodd" d="M1107.49 102.898H1054.81C1053.68 102.897 1052.76 101.976 1052.76 100.841V100.84V81.4779C1052.75 80.3435 1053.67 79.422 1054.81 79.4205H1107.49C1108.62 79.422 1109.54 80.3435 1109.54 81.4779V100.84C1109.54 101.974 1108.62 102.895 1107.49 102.897V102.898Z" fill="#274980"/>
<path fill-rule="evenodd" clip-rule="evenodd" d="M1107.49 102.898H1054.81C1053.68 102.897 1052.76 101.976 1052.76 100.841V100.84V81.4779C1052.75 80.3435 1053.67 79.422 1054.81 79.4205H1107.49C1108.62 79.422 1109.54 80.3435 1109.54 81.4779V100.84C1109.54 101.974 1108.62 102.895 1107.49 102.897V102.898Z" stroke="#041D45"/>
<path fill-rule="evenodd" clip-rule="evenodd" d="M1107.49 55.8484H1054.81C1053.68 55.8469 1052.76 54.9255 1052.76 53.7911V34.4287C1052.76 33.2942 1053.68 32.3728 1054.81 32.3713H1107.48C1108.62 32.3721 1109.54 33.2927 1109.54 34.4279V34.4287V53.7903C1109.54 54.9255 1108.62 55.847 1107.49 55.8477H1107.48L1107.49 55.8484Z" fill="#274980"/>
<path fill-rule="evenodd" clip-rule="evenodd" d="M1107.49 55.8484H1054.81C1053.68 55.8469 1052.76 54.9255 1052.76 53.7911V34.4287C1052.76 33.2942 1053.68 32.3728 1054.81 32.3713H1107.48C1108.62 32.3721 1109.54 33.2927 1109.54 34.4279V34.4287V53.7903C1109.54 54.9255 1108.62 55.847 1107.49 55.8477H1107.48L1107.49 55.8484Z" stroke="#041D45"/>
<path fill-rule="evenodd" clip-rule="evenodd" d="M1132.3 10.9508V10.9516V30.3132C1132.31 31.4484 1131.38 32.3698 1130.25 32.3706V32.3721H1077.57C1076.44 32.3706 1075.52 31.4492 1075.52 30.3147V-7.39685" fill="#274980"/>
<path d="M1132.3 10.9508V10.9516V30.3132C1132.31 31.4484 1131.38 32.3698 1130.25 32.3706V32.3721H1077.57C1076.44 32.3706 1075.52 31.4492 1075.52 30.3147V-7.39685" stroke="#041D45"/>
<path fill-rule="evenodd" clip-rule="evenodd" d="M1107.49 102.898H1054.81C1053.68 102.896 1052.76 101.975 1052.76 100.84V81.4779C1052.76 80.3435 1053.68 79.422 1054.81 79.4205H1107.48C1108.62 79.4213 1109.54 80.3419 1109.54 81.4771V81.4779V100.84C1109.54 101.975 1108.62 102.896 1107.49 102.897H1107.48L1107.49 102.898Z" fill="#274980"/>
<path fill-rule="evenodd" clip-rule="evenodd" d="M1107.49 102.898H1054.81C1053.68 102.896 1052.76 101.975 1052.76 100.84V81.4779C1052.76 80.3435 1053.68 79.422 1054.81 79.4205H1107.48C1108.62 79.4213 1109.54 80.3419 1109.54 81.4771V81.4779V100.84C1109.54 101.975 1108.62 102.896 1107.49 102.897H1107.48L1107.49 102.898Z" stroke="#041D45"/>
<path fill-rule="evenodd" clip-rule="evenodd" d="M1130.25 79.4213H1077.57C1076.44 79.4198 1075.52 78.4984 1075.52 77.3639V58.0023C1075.52 56.8678 1076.44 55.9464 1077.57 55.9449H1130.25C1131.38 55.9456 1132.3 56.867 1132.3 58.0015V58.0023V77.3639C1132.3 78.4991 1131.38 79.4206 1130.25 79.4213Z" fill="#274980"/>
<path fill-rule="evenodd" clip-rule="evenodd" d="M1130.25 79.4213H1077.57C1076.44 79.4198 1075.52 78.4984 1075.52 77.3639V58.0023C1075.52 56.8678 1076.44 55.9464 1077.57 55.9449H1130.25C1131.38 55.9456 1132.3 56.867 1132.3 58.0015V58.0023V77.3639C1132.3 78.4991 1131.38 79.4206 1130.25 79.4213Z" stroke="#041D45"/>
<path fill-rule="evenodd" clip-rule="evenodd" d="M1345.61 71.7948V93.001L1336.56 102.298C1329.55 89.7616 1326.67 81.3725 1327.93 77.1321C1329.19 72.8916 1335.08 71.1121 1345.61 71.7948Z" fill="#093466"/>
<path fill-rule="evenodd" clip-rule="evenodd" d="M1336.22 102.712L1345.33 93.129L1336.22 102.712Z" fill="#961F12"/>
<path d="M1336.22 102.712L1345.33 93.129" stroke="#1D1E1B" stroke-linecap="round"/>
<path fill-rule="evenodd" clip-rule="evenodd" d="M1340.7 71.7302L1341.09 82.5342L1292.06 80.8179V71.7302H1340.7Z" fill="#093466"/>
<path fill-rule="evenodd" clip-rule="evenodd" d="M1301.17 83.2957H1310.27V52.728H1301.17V83.2957Z" fill="#093466"/>
<path fill-rule="evenodd" clip-rule="evenodd" d="M1300.76 81.2312L1310.19 71.7311L1300.76 81.2312ZM1336.23 81.6551L1345.41 72.2829L1336.23 81.6551Z" fill="#961F12"/>
<path d="M1336.23 81.6551L1345.41 72.2829L1336.23 81.6551ZM1300.76 81.2312L1310.19 71.7311L1300.76 81.2312Z" stroke="#041D45" stroke-linecap="round"/>
<path fill-rule="evenodd" clip-rule="evenodd" d="M1310.19 71.7302L1345.67 71.8582L1310.19 71.7302Z" fill="#961F12"/>
<path d="M1310.19 71.7302L1345.67 71.8582" stroke="#041D45" stroke-linecap="round" stroke-linejoin="round"/>
<path d="M1345.61 71.8582V93.21" stroke="#041D45" stroke-linecap="round"/>
<path fill-rule="evenodd" clip-rule="evenodd" d="M1279.46 46.5391L1280 57.343L1213.63 55.6267V46.5391H1279.46Z" fill="#093466"/>
<path fill-rule="evenodd" clip-rule="evenodd" d="M1245.72 56.4634L1254.91 47.0912L1245.72 56.4634Z" fill="#961F12"/>
<path d="M1245.72 56.4634L1254.91 47.0912" stroke="#041D45" stroke-linecap="round"/>
<path d="M1231.75 46.5391H1280" stroke="#041D45" stroke-linecap="round" stroke-linejoin="round"/>
<path d="M1310.19 50.3779V71.73" stroke="#041D45" stroke-linecap="round"/>
<path fill-rule="evenodd" clip-rule="evenodd" d="M1231.99 84.5319L1221.17 85.0634L1222.89 18.8182H1231.99V84.5319Z" fill="#093466"/>
<path fill-rule="evenodd" clip-rule="evenodd" d="M1222.31 56.0389L1231.75 46.5388L1222.31 56.0389Z" fill="#961F12"/>
<path d="M1222.31 56.0389L1231.75 46.5388" stroke="#041D45" stroke-linecap="round"/>
<path fill-rule="evenodd" clip-rule="evenodd" d="M1231.75 46.539L1231.99 13.0845L1231.75 46.539Z" fill="#961F12"/>
<path d="M1231.75 46.539L1231.99 13.0845" stroke="#041D45" stroke-linecap="round" stroke-linejoin="round"/>
<path fill-rule="evenodd" clip-rule="evenodd" d="M1189.19 10.9042V30.2658C1189.19 31.401 1188.27 32.3217 1187.13 32.3232V32.3247H1134.46C1133.32 32.3239 1132.4 31.4033 1132.4 30.2681V30.2673V3.25134" fill="#274980"/>
<path d="M1189.19 10.9042V30.2658C1189.19 31.401 1188.27 32.3217 1187.13 32.3232V32.3247H1134.46C1133.32 32.3239 1132.4 31.4033 1132.4 30.2681V30.2673V3.25134" stroke="#041D45"/>
<path fill-rule="evenodd" clip-rule="evenodd" d="M1164.27 32.3247C1165.41 32.3255 1166.33 33.2469 1166.33 34.3813V34.3821V53.7437C1166.33 54.8789 1165.41 55.8004 1164.27 55.8011H1109.54V32.3247H1164.27Z" fill="#274980"/>
<path fill-rule="evenodd" clip-rule="evenodd" d="M1164.27 32.3247C1165.41 32.3255 1166.33 33.2469 1166.33 34.3813V34.3821V53.7437C1166.33 54.8789 1165.41 55.8004 1164.27 55.8011H1109.54V32.3247H1164.27Z" stroke="#041D45"/>
<path fill-rule="evenodd" clip-rule="evenodd" d="M1334.63 55.8011H1281.96C1280.82 55.7996 1279.9 54.8782 1279.9 53.7437V34.3813C1279.9 33.2469 1280.82 32.3255 1281.96 32.324H1334.63C1335.77 32.3247 1336.69 33.2454 1336.69 34.3806V34.3813V53.743C1336.69 54.8782 1335.77 55.7996 1334.63 55.8004V55.8011ZM1221.06 55.8011H1168.39C1167.25 55.7996 1166.33 54.8782 1166.33 53.7437V34.3813C1166.33 33.2469 1167.25 32.3255 1168.39 32.324H1221.06C1222.2 32.3247 1223.12 33.2454 1223.12 34.3806V34.3813V53.743C1223.12 54.8782 1222.2 55.7996 1221.06 55.8004V55.8011Z" fill="#274980"/>
<path fill-rule="evenodd" clip-rule="evenodd" d="M1334.63 55.8011H1281.96C1280.82 55.7996 1279.9 54.8782 1279.9 53.7437V34.3813C1279.9 33.2469 1280.82 32.3255 1281.96 32.324H1334.63C1335.77 32.3247 1336.69 33.2454 1336.69 34.3806V34.3813V53.743C1336.69 54.8782 1335.77 55.7996 1334.63 55.8004V55.8011ZM1221.06 55.8011H1168.39C1167.25 55.7996 1166.33 54.8782 1166.33 53.7437V34.3813C1166.33 33.2469 1167.25 32.3255 1168.39 32.324H1221.06C1222.2 32.3247 1223.12 33.2454 1223.12 34.3806V34.3813V53.743C1223.12 54.8782 1222.2 55.7996 1221.06 55.8004V55.8011Z" stroke="#041D45"/>
<path fill-rule="evenodd" clip-rule="evenodd" d="M1391.42 55.8011H1338.74C1337.61 55.8004 1336.69 54.8797 1336.69 53.7445V53.7437V34.3813C1336.69 33.2469 1337.61 32.3255 1338.74 32.324H1391.42C1392.55 32.3247 1393.48 33.2454 1393.47 34.3806V34.3813V53.743C1393.48 54.8782 1392.55 55.7996 1391.42 55.8004V55.8011Z" fill="#274980"/>
<path fill-rule="evenodd" clip-rule="evenodd" d="M1391.42 55.8011H1338.74C1337.61 55.8004 1336.69 54.8797 1336.69 53.7445V53.7437V34.3813C1336.69 33.2469 1337.61 32.3255 1338.74 32.324H1391.42C1392.55 32.3247 1393.48 33.2454 1393.47 34.3806V34.3813V53.743C1393.48 54.8782 1392.55 55.7996 1391.42 55.8004V55.8011Z" stroke="#041D45"/>
<path fill-rule="evenodd" clip-rule="evenodd" d="M1444.97 32.324H1395.85C1394.71 32.3255 1393.79 33.2469 1393.79 34.3813V53.7445C1393.79 54.8797 1394.71 55.8004 1395.85 55.8011H1444.97V32.324Z" fill="#274980"/>
<path fill-rule="evenodd" clip-rule="evenodd" d="M1444.97 32.324H1395.85C1394.71 32.3255 1393.79 33.2469 1393.79 34.3813V53.7445C1393.79 54.8797 1394.71 55.8004 1395.85 55.8011H1444.97V32.324Z" stroke="#041D45"/>
<path fill-rule="evenodd" clip-rule="evenodd" d="M1245.98 10.9034V10.9041V30.2658C1245.98 31.401 1245.06 32.3224 1243.92 32.3232V32.3247H1191.25C1190.11 32.3247 1189.19 31.4033 1189.19 30.2673V10.9041" fill="#274980"/>
<path d="M1245.98 10.9034V10.9041V30.2658C1245.98 31.401 1245.06 32.3224 1243.92 32.3232V32.3247H1191.25C1190.11 32.3247 1189.19 31.4033 1189.19 30.2673V10.9041" stroke="#041D45"/>
<path fill-rule="evenodd" clip-rule="evenodd" d="M1302.76 10.9034V10.9042V30.2658C1302.76 31.401 1301.84 32.3224 1300.71 32.3232H1300.7V32.3247H1248.03C1246.9 32.3239 1245.97 31.4033 1245.97 30.2681V30.2673V3.25134" fill="#274980"/>
<path d="M1302.76 10.9034V10.9042V30.2658C1302.76 31.401 1301.84 32.3224 1300.71 32.3232H1300.7V32.3247H1248.03C1246.9 32.3239 1245.97 31.4033 1245.97 30.2681V30.2673V3.25134" stroke="#041D45"/>
<path fill-rule="evenodd" clip-rule="evenodd" d="M1359.55 10.9034V10.9041V30.2658C1359.55 31.401 1358.63 32.3224 1357.49 32.3232V32.3247H1304.81C1303.67 32.3239 1302.75 31.4033 1302.75 30.2681V30.2673V10.9041" fill="#274980"/>
<path d="M1359.55 10.9034V10.9041V30.2658C1359.55 31.401 1358.63 32.3224 1357.49 32.3232V32.3247H1304.81C1303.67 32.3239 1302.75 31.4033 1302.75 30.2681V30.2673V10.9041" stroke="#041D45"/>
<path fill-rule="evenodd" clip-rule="evenodd" d="M1416.33 10.9034V10.9041V30.2658C1416.34 31.401 1415.42 32.3224 1414.28 32.3232V32.3247H1361.61C1360.47 32.3232 1359.55 31.4018 1359.55 30.2673V10.9041" fill="#274980"/>
<path d="M1416.33 10.9034V10.9041V30.2658C1416.34 31.401 1415.42 32.3224 1414.28 32.3232V32.3247H1361.61C1360.47 32.3232 1359.55 31.4018 1359.55 30.2673V10.9041" stroke="#041D45"/>
<path fill-rule="evenodd" clip-rule="evenodd" d="M1416.33 -2.07263V30.2678C1416.33 31.403 1417.25 32.3237 1418.39 32.3244H1444.97V8.8465" fill="#274980"/>
<path d="M1416.33 -2.07263V30.2678C1416.33 31.403 1417.25 32.3237 1418.39 32.3244H1444.97V8.8465" stroke="#041D45"/>
<path fill-rule="evenodd" clip-rule="evenodd" d="M1187.13 79.3738H1134.46C1133.32 79.3731 1132.4 78.4524 1132.4 77.3172V77.3165V57.9548C1132.4 56.8204 1133.32 55.899 1134.46 55.8975H1187.13C1188.27 55.899 1189.19 56.8204 1189.19 57.9548V77.3165C1189.19 78.4509 1188.27 79.3723 1187.13 79.3738Z" fill="#274980"/>
<path fill-rule="evenodd" clip-rule="evenodd" d="M1187.13 79.3738H1134.46C1133.32 79.3731 1132.4 78.4524 1132.4 77.3172V77.3165V57.9548C1132.4 56.8204 1133.32 55.899 1134.46 55.8975H1187.13C1188.27 55.899 1189.19 56.8204 1189.19 57.9548V77.3165C1189.19 78.4509 1188.27 79.3723 1187.13 79.3738Z" stroke="#041D45"/>
<path fill-rule="evenodd" clip-rule="evenodd" d="M1164.27 79.3738C1165.41 79.3746 1166.33 80.296 1166.33 81.4305V81.4312V100.793C1166.33 101.928 1165.41 102.85 1164.27 102.85H1109.54V79.3738H1164.27Z" fill="#274980"/>
<path fill-rule="evenodd" clip-rule="evenodd" d="M1164.27 79.3738C1165.41 79.3746 1166.33 80.296 1166.33 81.4305V81.4312V100.793C1166.33 101.928 1165.41 102.85 1164.27 102.85H1109.54V79.3738H1164.27Z" stroke="#041D45"/>
<path fill-rule="evenodd" clip-rule="evenodd" d="M1221.06 102.85H1168.39C1167.25 102.849 1166.33 101.927 1166.33 100.793V81.4304C1166.33 80.2959 1167.25 79.3746 1168.39 79.373H1221.06C1222.2 79.3738 1223.12 80.2945 1223.12 81.4297V81.4304V100.792C1223.12 101.927 1222.2 102.849 1221.06 102.849V102.85Z" fill="#274980"/>
<path fill-rule="evenodd" clip-rule="evenodd" d="M1221.06 102.85H1168.39C1167.25 102.849 1166.33 101.927 1166.33 100.793V81.4304C1166.33 80.2959 1167.25 79.3746 1168.39 79.373H1221.06C1222.2 79.3738 1223.12 80.2945 1223.12 81.4297V81.4304V100.792C1223.12 101.927 1222.2 102.849 1221.06 102.849V102.85Z" stroke="#041D45"/>
<path fill-rule="evenodd" clip-rule="evenodd" d="M1277.84 102.85H1225.17C1224.03 102.849 1223.11 101.929 1223.11 100.794V100.793V81.4304C1223.11 80.2959 1224.03 79.3746 1225.16 79.373H1225.17H1277.84C1278.98 79.3738 1279.9 80.2945 1279.9 81.4297V81.4304V100.792C1279.9 101.921 1278.97 102.849 1277.84 102.849V102.85Z" fill="#274980"/>
<path fill-rule="evenodd" clip-rule="evenodd" d="M1277.84 102.85H1225.17C1224.03 102.849 1223.11 101.929 1223.11 100.794V100.793V81.4304C1223.11 80.2959 1224.03 79.3746 1225.16 79.373H1225.17H1277.84C1278.98 79.3738 1279.9 80.2945 1279.9 81.4297V81.4304V100.792C1279.9 101.921 1278.97 102.849 1277.84 102.849V102.85Z" stroke="#041D45"/>
<path fill-rule="evenodd" clip-rule="evenodd" d="M1334.63 102.85H1281.96C1280.82 102.849 1279.9 101.927 1279.9 100.793V81.4304C1279.9 80.2959 1280.82 79.3746 1281.96 79.373H1334.63C1335.77 79.3738 1336.69 80.2945 1336.69 81.4297V81.4304V100.792C1336.69 101.927 1335.77 102.849 1334.63 102.849V102.85Z" fill="#274980"/>
<path fill-rule="evenodd" clip-rule="evenodd" d="M1334.63 102.85H1281.96C1280.82 102.849 1279.9 101.927 1279.9 100.793V81.4304C1279.9 80.2959 1280.82 79.3746 1281.96 79.373H1334.63C1335.77 79.3738 1336.69 80.2945 1336.69 81.4297V81.4304V100.792C1336.69 101.927 1335.77 102.849 1334.63 102.849V102.85Z" stroke="#041D45"/>
<path fill-rule="evenodd" clip-rule="evenodd" d="M1243.92 79.3738H1191.25C1190.11 79.3738 1189.19 78.4524 1189.19 77.3165V57.9548C1189.19 56.8219 1190.11 55.9027 1191.25 55.8975H1243.92C1245.06 55.8982 1245.98 56.8196 1245.98 57.9541V57.9548V77.3165C1245.98 78.4517 1245.06 79.3731 1243.92 79.3738Z" fill="#274980"/>
<path fill-rule="evenodd" clip-rule="evenodd" d="M1243.92 79.3738H1191.25C1190.11 79.3738 1189.19 78.4524 1189.19 77.3165V57.9548C1189.19 56.8219 1190.11 55.9027 1191.25 55.8975H1243.92C1245.06 55.8982 1245.98 56.8196 1245.98 57.9541V57.9548V77.3165C1245.98 78.4517 1245.06 79.3731 1243.92 79.3738Z" stroke="#041D45"/>
<path fill-rule="evenodd" clip-rule="evenodd" d="M1300.71 79.3738H1248.03C1246.89 79.3731 1245.97 78.4524 1245.97 77.3172V77.3165V57.9548C1245.97 56.8204 1246.89 55.899 1248.03 55.8975H1300.71C1301.84 55.8982 1302.76 56.8196 1302.76 57.9541V57.9548V77.3165C1302.76 78.4517 1301.84 79.3731 1300.71 79.3738Z" fill="#274980"/>
<path fill-rule="evenodd" clip-rule="evenodd" d="M1300.71 79.3738H1248.03C1246.89 79.3731 1245.97 78.4524 1245.97 77.3172V77.3165V57.9548C1245.97 56.8204 1246.89 55.899 1248.03 55.8975H1300.71C1301.84 55.8982 1302.76 56.8196 1302.76 57.9541V57.9548V77.3165C1302.76 78.4517 1301.84 79.3731 1300.71 79.3738Z" stroke="#041D45"/>
<path fill-rule="evenodd" clip-rule="evenodd" d="M1414.28 79.3739H1361.6C1360.47 79.3724 1359.55 78.451 1359.55 77.3165V57.9549C1359.55 56.8204 1360.47 55.8983 1361.6 55.896H1414.28C1415.42 55.8967 1416.34 56.8182 1416.34 57.9526V57.9534V77.315C1416.34 78.4502 1415.42 79.3717 1414.28 79.3724V79.3739Z" fill="#274980"/>
<path fill-rule="evenodd" clip-rule="evenodd" d="M1414.28 79.3739H1361.6C1360.47 79.3724 1359.55 78.451 1359.55 77.3165V57.9549C1359.55 56.8204 1360.47 55.8983 1361.6 55.896H1414.28C1415.42 55.8967 1416.34 56.8182 1416.34 57.9526V57.9534V77.315C1416.34 78.4502 1415.42 79.3717 1414.28 79.3724V79.3739Z" stroke="#041D45"/>
<path fill-rule="evenodd" clip-rule="evenodd" d="M1444.97 55.8973H1418.39C1417.25 55.8988 1416.33 56.8203 1416.33 57.9547V77.3171C1416.33 78.4523 1417.25 79.373 1418.39 79.3738H1444.97V55.8973Z" fill="#274980"/>
<path fill-rule="evenodd" clip-rule="evenodd" d="M1444.97 55.8973H1418.39C1417.25 55.8988 1416.33 56.8203 1416.33 57.9547V77.3171C1416.33 78.4523 1417.25 79.373 1418.39 79.3738H1444.97V55.8973Z" stroke="#041D45"/>
</g>
<defs>
<clipPath id="clip0">
<rect width="1445" height="104" fill="white"/>
</clipPath>
</defs>
</svg>
